<?xml version="1.0" standalone="no"?>
<!DOCTYPE svg PUBLIC "-//W3C//DTD SVG 1.1//EN" "http://www.w3.org/Graphics/SVG/1.1/DTD/svg11.dtd" >
<svg>
<metadata>
Created by FontForge 20090914 at Tue Mar  9 01:15:59 2021
 By www-data
Copyright (c) 2018 by TypeType. Designers Ivan Gladkikh, Pavel Emelyanov. Technical designers Marina Khodak, Vika Usmanova, Nadyr Rakhimov. All rights reserved.
</metadata>
<defs>
<font id="TTCommons-Medium" horiz-adv-x="1024" >
  <font-face 
    font-family="TT Commons Medium"
    font-weight="500"
    font-stretch="normal"
    units-per-em="2048"
    panose-1="2 0 8 6 3 0 0 2 0 4"
    ascent="1434"
    descent="-614"
    x-height="921.999"
    cap-height="1290"
    bbox="-369 -532 2945 1751"
    underline-thickness="0"
    underline-position="0"
    unicode-range="U+000D-U+FB06"
  />
<missing-glyph horiz-adv-x="0" 
 />
    <glyph glyph-name="uniFB00" unicode="ff" horiz-adv-x="1105" 
d="M1065 748l-204.999 0.00292969v-748h-184v748h-338v-748h-184v748h-113v174h113v20c0 49.333 7.16699 93.5 21.5 132.5s34.333 72 60 99s56 48.167 91 63.5s72.833 23 113.5 23c15.333 0 29.166 -1.16699 41.499 -3.5s23.166 -4.83301 32.499 -7.5
c10.667 -4 20.334 -7.33301 29.001 -10v-164c-5.33301 1.33301 -11.666 2.66602 -18.999 3.99902l-21 4c-7.33301 1.33301 -14.666 2 -21.999 2c-40.667 0 -74.667 -13.5 -102 -40.5s-41 -61.167 -41 -102.5v-20h338v61c0 49.333 7.16699 93.5 21.5 132.5s34.5 72 60.5 99
s56.333 48 91 63s72.667 22.5 114 22.5c15.333 0 29 -1 41 -3s22.667 -4.33301 32 -7c10.667 -4 20.334 -7.33301 29.001 -10v-164c-5.33301 1.33301 -11.333 2.66602 -18 3.99902s-13.834 2.66602 -21.501 3.99902s-14.834 2 -21.501 2
c-40.667 0 -74.834 -13.667 -102.501 -41s-41.5 -61.333 -41.5 -102v-61h205v-174z" />
    <glyph glyph-name="uniFB01" unicode="fi" horiz-adv-x="983" 
d="M860 0l-184.001 0.000976562v748h-338v-748h-184v748h-113v174h113v61c0 49.333 7.16699 93.5 21.5 132.5s34.333 72 60 99s56 48 91 63s72.833 22.5 113.5 22.5c15.333 0 29.166 -1 41.499 -3s23.166 -4.33301 32.499 -7c10.667 -4 20.334 -7.33301 29.001 -10v-164
c-5.33301 1.33301 -11.666 2.66602 -18.999 3.99902l-21 4c-7.33301 1.33301 -14.666 2 -21.999 2c-40.667 0 -74.667 -13.667 -102 -41s-41 -61.333 -41 -102v-61h522v-922zM767.999 1065c-31.333 0 -58 10.833 -80 32.5s-33 48.5 -33 80.5c0 31.333 11 57.833 33 79.5
s48.667 32.5 80 32.5s58 -10.833 80 -32.5s33 -48.167 33 -79.5s-11 -58 -33 -80s-48.667 -33 -80 -33z" />
    <glyph glyph-name="uniFB02" unicode="fl" horiz-adv-x="1003" 
d="M543 748l-205 -0.00195312v-748h-184v748h-113v174h113v20c0 53.333 9.16699 102.5 27.5 147.5s44.166 83.833 77.499 116.5s73.333 58.334 120 77.001s97.667 28 153 28c20.667 0 39.834 -1.83301 57.501 -5.5s34.167 -7.5 49.5 -11.5
c16.667 -5.33301 32.334 -10 47.001 -14h184v-1280h-184v1096c-15.333 9.33301 -31 17.333 -47 24c-15.333 6.66699 -31.833 12.834 -49.5 18.501s-36.834 8.5 -57.501 8.5c-57.333 0 -104 -18.833 -140 -56.5s-54 -87.167 -54 -148.5v-20h205v-174z" />
    <glyph glyph-name="uniFB03" unicode="ffi" horiz-adv-x="1505" 
d="M1382 0l-183.999 0.00292969v748h-338v-748h-184v748h-338v-748h-184v748h-113v174h113v20c0 49.333 7.16699 93.5 21.5 132.5s34.333 72 60 99s56 48.167 91 63.5s72.833 23 113.5 23c15.333 0 29.166 -1.16699 41.499 -3.5s23.166 -4.83301 32.499 -7.5
c10.667 -4 20.334 -7.33301 29.001 -10v-164c-5.33301 1.33301 -11.666 2.66602 -18.999 3.99902l-21 4c-7.33301 1.33301 -14.666 2 -21.999 2c-40.667 0 -74.667 -13.5 -102 -40.5s-41 -61.167 -41 -102.5v-20h338v61c0 49.333 7.16699 93.5 21.5 132.5s34.5 72 60.5 99
s56.333 48 91 63s72.667 22.5 114 22.5c15.333 0 29 -1 41 -3s22.667 -4.33301 32 -7c10.667 -4 20.334 -7.33301 29.001 -10v-164c-5.33301 1.33301 -11.333 2.66602 -18 3.99902s-13.834 2.66602 -21.501 3.99902s-14.834 2 -21.501 2
c-40.667 0 -74.834 -13.667 -102.501 -41s-41.5 -61.333 -41.5 -102v-61h522v-922zM1290 1065c-31.333 0 -57.833 10.833 -79.5 32.5s-32.5 48.5 -32.5 80.5c0 31.333 10.833 57.833 32.5 79.5s48.167 32.5 79.5 32.5s58 -10.833 80 -32.5s33 -48.167 33 -79.5
s-11 -58 -33 -80s-48.667 -33 -80 -33z" />
    <glyph glyph-name="uniFB04" unicode="ffl" horiz-adv-x="1525" 
d="M1065 748l-205.004 -0.000976562v-748h-184v748h-338v-748h-184v748h-113v174h113v20c0 49.333 7.16699 93.5 21.5 132.5s34.333 72 60 99s56 48.167 91 63.5s72.833 23 113.5 23c15.333 0 29.166 -1.16699 41.499 -3.5s23.166 -4.83301 32.499 -7.5
c10.667 -4 20.334 -7.33301 29.001 -10v-164c-5.33301 1.33301 -11.666 2.66602 -18.999 3.99902l-21 4c-7.33301 1.33301 -14.666 2 -21.999 2c-40.667 0 -74.667 -13.5 -102 -40.5s-41 -61.167 -41 -102.5v-20h338v20c0 53.333 9.16699 102.5 27.5 147.5
s44.166 83.833 77.499 116.5s73.333 58.334 120 77.001s98 28 154 28c20.667 0 39.834 -1.83301 57.501 -5.5s33.834 -7.5 48.501 -11.5c16.667 -5.33301 32.334 -10 47.001 -14h185v-1280h-185v1096c-15.333 9.33301 -31 17.333 -47 24
c-15.333 6.66699 -31.833 12.834 -49.5 18.501s-36.5 8.5 -56.5 8.5c-57.333 0 -104.166 -18.833 -140.499 -56.5s-54.5 -87.167 -54.5 -148.5v-20h205v-174z" />
    <glyph glyph-name="f_f_j.liga" unicode="ffj" horiz-adv-x="1505" 
d="M1198 748l-337.998 0.00292969v-748h-184v748h-338v-748h-184v748h-113v174h113v20c0 49.333 7.16699 93.5 21.5 132.5s34.333 72 60 99s56 48.167 91 63.5s72.833 23 113.5 23c15.333 0 29.166 -1.16699 41.499 -3.5s23.166 -4.83301 32.499 -7.5
c10.667 -4 20.334 -7.33301 29.001 -10v-164c-5.33301 1.33301 -11.666 2.66602 -18.999 3.99902l-21 4c-7.33301 1.33301 -14.666 2 -21.999 2c-40.667 0 -74.667 -13.5 -102 -40.5s-41 -61.167 -41 -102.5v-20h338v61c0 49.333 7.16699 93.5 21.5 132.5s34.5 72 60.5 99
s56.333 48 91 63s72.667 22.5 114 22.5c15.333 0 29 -1 41 -3s22.667 -4.33301 32 -7c10.667 -4 20.334 -7.33301 29.001 -10v-164c-5.33301 1.33301 -11.333 2.66602 -18 3.99902s-13.834 2.66602 -21.501 3.99902s-14.834 2 -21.501 2
c-40.667 0 -74.834 -13.667 -102.501 -41s-41.5 -61.333 -41.5 -102v-61h522v-942c0 -49.333 -7.16699 -93.5 -21.5 -132.5s-34.333 -72.167 -60 -99.5s-56 -48.5 -91 -63.5s-72.833 -22.5 -113.5 -22.5c-28.667 0 -53.334 3.33301 -74.001 10
c-10.667 2.66699 -20.334 6.33398 -29.001 11.001v163c5.33301 -2.66699 11.666 -4.66699 18.999 -6c6.66699 -1.33301 13.334 -2.33301 20.001 -3s14.334 -1 23.001 -1c40.667 0 74.667 13.667 102 41s41 61.666 41 102.999v768zM1290 1065
c-31.333 0 -57.833 10.833 -79.5 32.5s-32.5 48.5 -32.5 80.5c0 31.333 10.833 57.833 32.5 79.5s48.167 32.5 79.5 32.5s58 -10.833 80 -32.5s33 -48.167 33 -79.5s-11 -58 -33 -80s-48.667 -33 -80 -33z" />
    <glyph glyph-name="f_j.liga" unicode="fj" horiz-adv-x="983" 
d="M676 748l-338.001 0.000976562v-748h-184v748h-113v174h113v61c0 49.333 7.16699 93.5 21.5 132.5s34.333 72 60 99s56 48 91 63s72.833 22.5 113.5 22.5c15.333 0 29.166 -1 41.499 -3s23.166 -4.33301 32.499 -7c10.667 -4 20.334 -7.33301 29.001 -10v-164
c-5.33301 1.33301 -11.666 2.66602 -18.999 3.99902l-21 4c-7.33301 1.33301 -14.666 2 -21.999 2c-40.667 0 -74.667 -13.667 -102 -41s-41 -61.333 -41 -102v-61h522v-942c0 -49.333 -7.16699 -93.5 -21.5 -132.5s-34.5 -72.167 -60.5 -99.5s-56.333 -48.5 -91 -63.5
s-72.667 -22.5 -114 -22.5c-28.667 0 -53 3.33301 -73 10c-10.667 2.66699 -20.334 6.33398 -29.001 11.001v163c5.33301 -2.66699 11.333 -4.66699 18 -6s13.5 -2.33301 20.5 -3s14.5 -1 22.5 -1c40.667 0 74.834 13.667 102.501 41s41.5 61.666 41.5 102.999v768z
M767.999 1065c-31.333 0 -58 10.833 -80 32.5s-33 48.5 -33 80.5c0 31.333 11 57.833 33 79.5s48.667 32.5 80 32.5s58 -10.833 80 -32.5s33 -48.167 33 -79.5s-11 -58 -33 -80s-48.667 -33 -80 -33z" />
    <glyph glyph-name="f_t.liga" unicode="ft" horiz-adv-x="1177" 
d="M881 307c0 -40.667 13.666 -74.666 40.999 -101.999s61.333 -41 102 -41c6.66699 0 13.834 0.333008 21.501 1s14.834 1.66699 21.501 3s12.667 3.33301 18 6v-164c-8 -4 -17.333 -7.33301 -28 -10c-20.667 -6.66699 -45.334 -10 -74.001 -10
c-40.667 0 -78.5 7.5 -113.5 22.5s-65.5 36.167 -91.5 63.5s-46.167 60.333 -60.5 99s-21.5 82.667 -21.5 132v441h-358v-748h-184v748h-113v174h113v61c0 49.333 7.16699 93.5 21.5 132.5s34.333 72 60 99s56 48 91 63s72.833 22.5 113.5 22.5
c15.333 0 29.166 -1 41.499 -3s23.166 -4.33301 32.499 -7c10.667 -4 20.334 -7.33301 29.001 -10v-164c-5.33301 1.33301 -11.666 2.66602 -18.999 3.99902l-21 4c-7.33301 1.33301 -14.666 2 -21.999 2c-40.667 0 -74.667 -13.667 -102 -41s-41 -61.333 -41 -102v-61h266
c35.333 0 64.666 11.5 87.999 34.5s35 52.167 35 87.5v123h154v-245h204v-174h-204v-441z" />
    <glyph glyph-name="f_h.liga" unicode="fh" horiz-adv-x="1607" 
d="M1126 932c50.667 0 98.501 -10.001 143.501 -30.001s84.333 -47.333 118 -82s60 -76.5 79 -125.5s28.5 -103.167 28.5 -162.5v-532h-184v532c0 30 -5.83301 58.667 -17.5 86s-27.334 51.333 -47.001 72s-42.5 37.167 -68.5 49.5s-53.333 18.5 -82 18.5
c-31.333 0 -60.666 -6.16699 -87.999 -18.5s-51.333 -28.833 -72 -49.5s-36.834 -44.5 -48.501 -71.5s-17.5 -55.833 -17.5 -86.5v-532h-184v1096c-15.333 9.33301 -31 17.333 -47 24c-15.333 6.66699 -31.833 12.834 -49.5 18.501s-36.834 8.5 -57.501 8.5
c-57.333 0 -104 -18.833 -140 -56.5s-54 -87.167 -54 -148.5v-20h205v-174h-205v-748h-184v748h-113v174h113v20c0 53.333 9.16699 102.5 27.5 147.5s44.166 83.833 77.499 116.5s73.333 58.334 120 77.001s97.667 28 153 28c20.667 0 39.834 -1.83301 57.501 -5.5
s34.167 -7.5 49.5 -11.5c16.667 -5.33301 32.334 -10 47.001 -14h184v-451c19.333 19.333 41.333 36.666 66 51.999c22 12 49 23.5 81 34.5s68.333 16.5 109 16.5z" />
    <glyph glyph-name="f_k.liga" unicode="fk" horiz-adv-x="1433" 
d="M1229 0l-359 439.998v-440h-184v1096c-15.333 9.33301 -31 17.333 -47 24c-15.333 6.66699 -31.833 12.834 -49.5 18.501s-36.834 8.5 -57.501 8.5c-57.333 0 -104 -18.833 -140 -56.5s-54 -87.167 -54 -148.5v-20h205v-174h-205v-748h-184v748h-113v174h113v20
c0 53.333 9.16699 102.5 27.5 147.5s44.166 83.833 77.499 116.5s73.333 58.334 120 77.001s97.667 28 153 28c20.667 0 39.834 -1.83301 57.501 -5.5s34.167 -7.5 49.5 -11.5c16.667 -5.33301 32.334 -10 47.001 -14h184v-758l318 400h215l-359 -430l410 -492h-225z" />
    <glyph glyph-name="f_b.liga" unicode="fb" horiz-adv-x="1638" 
d="M1126 -10c-46.667 0 -86.667 4.99902 -120 14.999s-60.666 22 -81.999 36c-24.667 15.333 -46 32.333 -64 51l-41 -92h-133v1096c-15.333 9.33301 -31 17.333 -47 24c-15.333 6.66699 -31.833 12.834 -49.5 18.501s-36.834 8.5 -57.501 8.5
c-57.333 0 -104 -18.833 -140 -56.5s-54 -87.167 -54 -148.5v-20h205v-174h-205v-748h-184v748h-113v174h113v20c0 53.333 9.16699 102.5 27.5 147.5s44.166 83.833 77.499 116.5s73.333 58.334 120 77.001s97.667 28 153 28c20.667 0 39.834 -1.83301 57.501 -5.5
s34.167 -7.5 49.5 -11.5c16.667 -5.33301 32.334 -10 47.001 -14h184v-451c18 19.333 39.333 36.666 64 51.999c22 12 48.667 23.5 80 34.5s68.666 16.5 111.999 16.5c61.333 0 118.666 -11.667 171.999 -35s100.166 -55.833 140.499 -97.5s71.833 -91.167 94.5 -148.5
s34 -120.666 34 -189.999s-11.333 -132.833 -34 -190.5s-54.167 -107.334 -94.5 -149.001s-87.166 -74 -140.499 -97s-110.666 -34.5 -171.999 -34.5zM1116 757.999c-35.333 0 -69 -7.16797 -101 -21.501s-60.333 -34.833 -85 -61.5s-44.167 -58.167 -58.5 -94.5
s-21.5 -76.166 -21.5 -119.499c0 -44 7.16699 -84 21.5 -120s33.833 -67.333 58.5 -94s53 -47.167 85 -61.5s65.667 -21.5 101 -21.5s69.166 7.16699 101.499 21.5s60.666 34.833 84.999 61.5s43.666 58 57.999 94s21.5 76 21.5 120s-7.16699 84 -21.5 120
s-33.666 67.333 -57.999 94s-52.666 47.167 -84.999 61.5s-66.166 21.5 -101.499 21.5z" />
    <glyph glyph-name="f_f_h.liga" unicode="ffh" horiz-adv-x="2129" 
d="M1649 932c50.667 0 98.4961 -10 143.496 -30s84.167 -47.333 117.5 -82s59.5 -76.5 78.5 -125.5s28.5 -103.167 28.5 -162.5v-532h-184v532c0 30 -5.83301 58.667 -17.5 86s-27.334 51.333 -47.001 72s-42.5 37.167 -68.5 49.5s-53.333 18.5 -82 18.5
c-31.333 0 -60.666 -6.16699 -87.999 -18.5s-51.333 -28.833 -72 -49.5s-36.667 -44.5 -48 -71.5s-17 -55.833 -17 -86.5v-532h-185v1096c-15.333 9.33301 -31 17.333 -47 24c-15.333 6.66699 -31.833 12.834 -49.5 18.501s-36.5 8.5 -56.5 8.5
c-57.333 0 -104.166 -18.833 -140.499 -56.5s-54.5 -87.167 -54.5 -148.5v-20h205v-174h-205v-748h-184v748h-338v-748h-184v748h-113v174h113v20c0 49.333 7.16699 93.5 21.5 132.5s34.333 72 60 99s56 48.167 91 63.5s72.833 23 113.5 23
c15.333 0 29.166 -1.16699 41.499 -3.5s23.166 -4.83301 32.499 -7.5c10.667 -4 20.334 -7.33301 29.001 -10v-164c-5.33301 1.33301 -11.666 2.66602 -18.999 3.99902l-21 4c-7.33301 1.33301 -14.666 2 -21.999 2c-40.667 0 -74.667 -13.5 -102 -40.5
s-41 -61.167 -41 -102.5v-20h338v20c0 53.333 9.16699 102.5 27.5 147.5s44.166 83.833 77.499 116.5s73.333 58.334 120 77.001s98 28 154 28c20.667 0 39.834 -1.83301 57.501 -5.5s33.834 -7.5 48.501 -11.5c16.667 -5.33301 32.334 -10 47.001 -14h185v-451
c19.333 19.333 41 36.666 65 51.999c22 12 49.167 23.5 81.5 34.5s68.833 16.5 109.5 16.5z" />
    <glyph glyph-name="f_f_k.liga" unicode="ffk" horiz-adv-x="1955" 
d="M1751 0l-358.004 439.999v-440h-185v1096c-15.333 9.33301 -31 17.333 -47 24c-15.333 6.66699 -31.833 12.834 -49.5 18.501s-36.5 8.5 -56.5 8.5c-57.333 0 -104.166 -18.833 -140.499 -56.5s-54.5 -87.167 -54.5 -148.5v-20h205v-174h-205v-748h-184v748h-338v-748
h-184v748h-113v174h113v20c0 49.333 7.16699 93.5 21.5 132.5s34.333 72 60 99s56 48.167 91 63.5s72.833 23 113.5 23c15.333 0 29.166 -1.16699 41.499 -3.5s23.166 -4.83301 32.499 -7.5c10.667 -4 20.334 -7.33301 29.001 -10v-164
c-5.33301 1.33301 -11.666 2.66602 -18.999 3.99902l-21 4c-7.33301 1.33301 -14.666 2 -21.999 2c-40.667 0 -74.667 -13.5 -102 -40.5s-41 -61.167 -41 -102.5v-20h338v20c0 53.333 9.16699 102.5 27.5 147.5s44.166 83.833 77.499 116.5s73.333 58.334 120 77.001
s98 28 154 28c20.667 0 39.834 -1.83301 57.501 -5.5s33.834 -7.5 48.501 -11.5c16.667 -5.33301 32.334 -10 47.001 -14h185v-758l317 400h215l-358 -430l409 -492h-225z" />
    <glyph glyph-name="f_f_b.liga" unicode="ffb" horiz-adv-x="2160" 
d="M1649 -10c-46.667 0 -86.6709 5 -120.004 15s-61 22 -83 36c-24.667 15.333 -46 32.333 -64 51l-41 -92h-133v1096c-15.333 9.33301 -31 17.333 -47 24c-15.333 6.66699 -31.833 12.834 -49.5 18.501s-36.5 8.5 -56.5 8.5c-57.333 0 -104.166 -18.833 -140.499 -56.5
s-54.5 -87.167 -54.5 -148.5v-20h205v-174h-205v-748h-184v748h-338v-748h-184v748h-113v174h113v20c0 49.333 7.16699 93.5 21.5 132.5s34.333 72 60 99s56 48.167 91 63.5s72.833 23 113.5 23c15.333 0 29.166 -1.16699 41.499 -3.5s23.166 -4.83301 32.499 -7.5
c10.667 -4 20.334 -7.33301 29.001 -10v-164c-5.33301 1.33301 -11.666 2.66602 -18.999 3.99902l-21 4c-7.33301 1.33301 -14.666 2 -21.999 2c-40.667 0 -74.667 -13.5 -102 -40.5s-41 -61.167 -41 -102.5v-20h338v20c0 53.333 9.16699 102.5 27.5 147.5
s44.166 83.833 77.499 116.5s73.333 58.334 120 77.001s98 28 154 28c20.667 0 39.834 -1.83301 57.501 -5.5s33.834 -7.5 48.501 -11.5c16.667 -5.33301 32.334 -10 47.001 -14h185v-451c18 19.333 39 36.666 63 51.999c22 12 48.667 23.5 80 34.5s69 16.5 113 16.5
c61.333 0 118.666 -11.667 171.999 -35s100 -55.833 140 -97.5s71.333 -91.167 94 -148.5s34 -120.666 34 -189.999s-11.333 -132.833 -34 -190.5s-54 -107.334 -94 -149.001s-86.667 -74 -140 -97s-110.666 -34.5 -171.999 -34.5zM1638 758
c-35.333 0 -69 -7.16797 -101 -21.501s-60.333 -34.833 -85 -61.5s-44.167 -58.167 -58.5 -94.5s-21.5 -76.166 -21.5 -119.499c0 -44 7.16699 -84 21.5 -120s33.833 -67.333 58.5 -94s53 -47.167 85 -61.5s65.667 -21.5 101 -21.5s69.166 7.16699 101.499 21.5
s60.833 34.833 85.5 61.5s44.167 58 58.5 94s21.5 76 21.5 120s-7.16699 84 -21.5 120s-33.833 67.333 -58.5 94s-53.167 47.167 -85.5 61.5s-66.166 21.5 -101.499 21.5z" />
    <glyph glyph-name=".notdef" horiz-adv-x="0" 
 />
    <glyph glyph-name="glyph1" horiz-adv-x="0" 
 />
    <glyph glyph-name="glyph1" horiz-adv-x="0" 
 />
    <glyph glyph-name="uni000D" unicode="&#xd;" horiz-adv-x="0" 
 />
    <glyph glyph-name="space" unicode=" " horiz-adv-x="450" 
 />
    <glyph glyph-name="exclam" unicode="!" horiz-adv-x="512" 
d="M338 328h-164l-31 962h226zM369 102c0 -31.333 -11 -57.833 -33 -79.5s-48.667 -32.5 -80 -32.5s-58 10.833 -80 32.5s-33 48.167 -33 79.5s11 58 33 80s48.667 33 80 33s58 -11 80 -33s33 -48.667 33 -80z" />
    <glyph glyph-name="quotedbl" unicode="&#x22;" horiz-adv-x="645" 
d="M389 1290h164v-379h-164v379zM92 1290h164v-379h-164v379z" />
    <glyph glyph-name="numbersign" unicode="#" horiz-adv-x="1239" 
d="M942 778l-51 -266h246l-31 -143h-246l-72 -369h-143l72 369h-297l-72 -369h-143l71 369h-256l31 143h246l51 266h-246l31 144h246l72 368h143l-72 -368h297l72 368h143l-71 -368h256l-31 -144h-246zM799 778h-307l-52 -266h308z" />
    <glyph glyph-name="dollar" unicode="$" 
d="M82 942c0 44 8.83496 85.667 26.502 125s42.167 74.833 73.5 106.5s68.166 57.667 110.499 78s88.166 33.166 137.499 38.499v185h174v-195c46.667 -8 89.834 -22.667 129.501 -44s74.167 -48.333 103.5 -81s52.5 -70.5 69.5 -113.5s25.5 -89.833 25.5 -140.5h-195
c0 66.667 -20.833 120.834 -62.5 162.501s-95.834 62.5 -162.501 62.5c-35.333 0 -67.666 -5 -96.999 -15s-54.333 -24 -75 -42s-36.5 -37.833 -47.5 -59.5s-16.5 -44.167 -16.5 -67.5c0 -44 17.167 -78.5 51.5 -103.5s76.666 -46.333 126.999 -64
s105.333 -35.167 165 -52.5s114.667 -40.333 165 -69s92.666 -66.834 126.999 -114.501s51.5 -110.5 51.5 -188.5c0 -44 -9.33301 -86 -28 -126s-43.667 -75.667 -75 -107s-69.166 -57.333 -113.499 -78s-91.833 -33.667 -142.5 -39v-184h-174v184
c-52 2.66699 -99.833 13.834 -143.5 33.501s-81.167 46.334 -112.5 80.001s-56.166 74 -74.499 121s-27.5 98.5 -27.5 154.5h194c0 -72.667 20.167 -128.334 60.5 -167.001s102.166 -58 185.499 -58c87.333 0 151.833 18 193.5 54s62.5 80 62.5 132c0 48 -17 85.333 -51 112
s-76.333 49.5 -127 68.5s-105.667 37 -165 54s-114.333 39.5 -165 67.5s-93 64.5 -127 109.5s-51 105.167 -51 180.5z" />
    <glyph glyph-name="percent" unicode="%" horiz-adv-x="1259" 
d="M164 0l788 1290h144l-789 -1290h-143zM184 1024c0 -20.667 4.16504 -40.167 12.498 -58.5s19.333 -34.666 33 -48.999s29 -25.666 46 -33.999s34.5 -12.5 52.5 -12.5s35.5 4.16699 52.5 12.5s32.167 19.666 45.5 33.999s24.166 30.666 32.499 48.999
s12.5 37.833 12.5 58.5s-4.16699 40.167 -12.5 58.5s-19.166 34.666 -32.499 48.999s-28.666 25.666 -45.999 33.999s-34.666 12.5 -51.999 12.5c-18 0 -35.5 -4.16699 -52.5 -12.5s-32.333 -19.666 -46 -33.999s-24.667 -30.666 -33 -48.999s-12.5 -37.833 -12.5 -58.5z
M593.998 1024c0 -35.333 -7.16797 -69.166 -21.501 -101.499s-33.833 -60.666 -58.5 -84.999s-53 -43.666 -85 -57.999s-65.667 -21.5 -101 -21.5s-69.166 7.16699 -101.499 21.5s-60.833 33.666 -85.5 57.999s-44.167 52.666 -58.5 84.999s-21.5 66.166 -21.5 101.499
s7.16699 69.166 21.5 101.499s33.833 60.666 58.5 84.999s53 43.666 85 57.999s66 21.5 102 21.5c35.333 0 69 -7.16699 101 -21.5s60.333 -33.666 85 -57.999s44.167 -52.666 58.5 -84.999s21.5 -66.166 21.5 -101.499zM1075 266c0 20.667 -4.00098 40.167 -12.001 58.5
s-18.833 34.666 -32.5 48.999s-29.167 25.666 -46.5 33.999s-34.666 12.5 -51.999 12.5c-18 0 -35.5 -4.16699 -52.5 -12.5s-32.333 -19.666 -46 -33.999s-24.667 -30.666 -33 -48.999s-12.5 -37.833 -12.5 -58.5s4.16699 -40.167 12.5 -58.5s19.333 -34.666 33 -48.999
s29 -25.5 46 -33.5s34.5 -12 52.5 -12s35.5 4 52.5 12s32.333 19.167 46 33.5s24.5 30.666 32.5 48.999s12 37.833 12 58.5zM665.996 266c0 35.333 7.16699 69.166 21.5 101.499s33.666 60.666 57.999 84.999s52.666 43.666 84.999 57.999s66.166 21.5 101.499 21.5
s69 -7.16699 101 -21.5s60.333 -33.666 85 -57.999s44.167 -52.666 58.5 -84.999s21.5 -66.166 21.5 -101.499s-7.16699 -69 -21.5 -101s-33.833 -60.333 -58.5 -85s-53 -44.167 -85 -58.5s-65.667 -21.5 -101 -21.5s-69.166 7.16699 -101.499 21.5
s-60.666 33.833 -84.999 58.5s-43.666 53 -57.999 85s-21.5 65.667 -21.5 101z" />
    <glyph glyph-name="ampersand" unicode="&#x26;" horiz-adv-x="1105" 
d="M952 0l-164 164.003c-23.333 -34 -52.666 -63.333 -87.999 -88c-30 -22 -67.167 -41.833 -111.5 -59.5s-97.166 -26.5 -158.499 -26.5c-52 0 -99.167 8.5 -141.5 25.5s-78.833 39.833 -109.5 68.5s-54.5 62.167 -71.5 100.5s-25.5 79.166 -25.5 122.499
c0 53.333 10.833 101.5 32.5 144.5s46.167 79.5 73.5 109.5c31.333 35.333 67.666 66.666 108.999 93.999l-51 62l-46.5 54.5c-15.667 18.333 -30 38 -43 59s-23.5 43.833 -31.5 68.5s-12 52.667 -12 84c0 40.667 8.5 79.5 25.5 116.5s39.833 69.833 68.5 98.5
s62.167 51.167 100.5 67.5s79.166 24.5 122.499 24.5c44 0 85 -8.16699 123 -24.5s71.333 -38.833 100 -67.5s51.667 -61.5 69 -98.5s26 -75.833 26 -116.5c0 -32.667 -4.16699 -62.334 -12.5 -89.001s-19.333 -50.5 -33 -71.5s-29 -40.167 -46 -57.5
s-34.5 -33.333 -52.5 -48l-72 -62l236 -235l123 194h205l-205 -317l297 -297h-236zM420 768.003l72.001 61.001c5.33301 4 12.333 11.167 21 21.5s17.5 22.333 26.5 36s16.833 28.667 23.5 45s10 33.5 10 51.5c0 35.333 -13.5 66.333 -40.5 93s-61.167 40 -102.5 40
c-40.667 0 -74.667 -13.333 -102 -40s-41 -57.667 -41 -93c0 -20.667 3.33301 -39.834 10 -57.501s14.167 -33 22.5 -46s16.166 -23.833 23.499 -32.5l15 -18zM440.001 154.004c35.333 0 67.833 6.50098 97.5 19.501s54.5 26.833 74.5 41.5c24.667 18 46 38.333 64 61
l-256 256c-28.667 -19.333 -54.667 -40.333 -78 -63c-19.333 -19.333 -36.833 -43 -52.5 -71s-23.5 -58.333 -23.5 -91c0 -40.667 16 -76.334 48 -107.001s74 -46 126 -46z" />
    <glyph glyph-name="quotesingle" unicode="'" horiz-adv-x="348" 
d="M92 1290h164v-379h-164v379z" />
    <glyph glyph-name="parenleft" unicode="(" horiz-adv-x="563" 
d="M276 461c0 -110.667 12.667 -212.5 38 -305.5s53.666 -174.167 84.999 -243.5c35.333 -80.667 76.333 -153.667 123 -219l-133 -92c-53.333 69.333 -101 148.333 -143 237c-35.333 76.667 -68.166 167.5 -98.499 272.5s-45.5 221.833 -45.5 350.5
s15.167 245.5 45.5 350.5s63.166 195.5 98.499 271.5c42 88.667 89.667 168 143 238l133 -92c-46.667 -65.333 -87.667 -138.333 -123 -219c-31.333 -69.333 -59.666 -150.5 -84.999 -243.5s-38 -194.833 -38 -305.5z" />
    <glyph glyph-name="parenright" unicode=")" horiz-adv-x="563" 
d="M287 461c0 110.667 -12.666 212.332 -37.999 304.999s-53.666 174 -84.999 244c-35.333 80.667 -76.333 153.667 -123 219l133 92c53.333 -69.333 101 -148.666 143 -237.999c35.333 -76.667 68.166 -167.5 98.499 -272.5s45.5 -221.5 45.5 -349.5
c0 -128.667 -15 -245.5 -45 -350.5s-63 -195.833 -99 -272.5c-42 -88.667 -89.667 -167.667 -143 -237l-133 92c46.667 65.333 87.667 138.333 123 219c31.333 69.333 59.666 150.5 84.999 243.5s38 194.833 38 305.5z" />
    <glyph glyph-name="asterisk" unicode="*" horiz-adv-x="675" 
d="M246 963l-205 51l41 133l194 -72l-10 215h144l-11 -215l195 72l41 -133l-205 -51l133 -164l-123 -82l-102 174l-102 -174l-123 82z" />
    <glyph glyph-name="plus" unicode="+" horiz-adv-x="931" 
d="M553 932v-328h317v-164h-317v-327h-174v327h-318v164h318v328h174z" />
    <glyph glyph-name="comma" unicode="," horiz-adv-x="348" 
d="M174 215c31.333 0 57.998 -11.667 79.998 -35s33 -52.666 33 -87.999c0 -52 -8.5 -96 -25.5 -132s-35.833 -65.667 -56.5 -89c-24.667 -27.333 -52 -49.333 -82 -66l-31 41c13.333 9.33301 26.333 21.666 39 36.999c10.667 12 20.834 27 30.501 45s17.167 38.667 22.5 62
c-35.333 0 -64.666 10.833 -87.999 32.5s-35 48.167 -35 79.5s11 58 33 80s48.667 33 80 33z" />
    <glyph glyph-name="hyphen" unicode="-" horiz-adv-x="716" 
d="M655 440h-594v164h594v-164z" />
    <glyph glyph-name="period" unicode="." horiz-adv-x="348" 
d="M287 102c0 -31.333 -11 -57.833 -33 -79.5s-48.667 -32.5 -80 -32.5s-58 10.833 -80 32.5s-33 48.167 -33 79.5s11 58 33 80s48.667 33 80 33s58 -11 80 -33s33 -48.667 33 -80z" />
    <glyph glyph-name="slash" unicode="/" horiz-adv-x="706" 
d="M174 -369h-174l532 1659h175z" />
    <glyph glyph-name="zero" unicode="0" horiz-adv-x="1167" 
d="M901 645c0 79.333 -9.16699 149 -27.5 209s-42.5 110.167 -72.5 150.5s-64.167 70.666 -102.5 90.999s-76.5 30.5 -114.5 30.5s-76.167 -10.167 -114.5 -30.5s-72.5 -50.666 -102.5 -90.999s-54.333 -90.5 -73 -150.5s-28 -129.667 -28 -209s9.33301 -149 28 -209
s43 -110.167 73 -150.5s64 -70.666 102 -90.999s76.333 -30.5 115 -30.5c38 0 76.167 10.167 114.5 30.5s72.5 50.666 102.5 90.999s54.167 90.5 72.5 150.5s27.5 129.667 27.5 209zM1096 645c0 -105.333 -13.667 -198.5 -41 -279.5s-64.666 -149.5 -111.999 -205.5
s-101.666 -98.333 -162.999 -127s-126.666 -43 -195.999 -43s-134.833 14.333 -196.5 43s-116 71 -163 127s-84.167 124.5 -111.5 205.5s-41 174.167 -41 279.5s13.667 198.666 41 279.999s64.5 149.833 111.5 205.5s101.167 97.834 162.5 126.501s127 43 197 43
c69.333 0 134.666 -14.333 195.999 -43s115.666 -70.834 162.999 -126.501s84.666 -124.167 111.999 -205.5s41 -174.666 41 -279.999z" />
    <glyph glyph-name="one" unicode="1" horiz-adv-x="655" 
d="M502 1290v-1290h-195v1024l-174 -113l-92 154l328 225h133z" />
    <glyph glyph-name="two" unicode="2" horiz-adv-x="993" 
d="M911 184v-183.999h-829v143l512 553c23.333 24.667 43.666 50 60.999 76c15.333 23.333 29.5 48.666 42.5 75.999s19.5 55.333 19.5 84c0 57.333 -19.5 104 -58.5 140s-94.5 54 -166.5 54c-66.667 0 -121 -20.833 -163 -62.5s-63 -95.834 -63 -162.501h-194
c0 58.667 9.83301 112.667 29.5 162s47.667 91.333 84 126s80.333 61.834 132 81.501s109.834 29.5 174.501 29.5c64 0 121.833 -9.5 173.5 -28.5s95.667 -45.5 132 -79.5s64.333 -74.333 84 -121s29.5 -96.334 29.5 -149.001c0 -40.667 -9.5 -81.667 -28.5 -123
s-40.167 -77.666 -63.5 -108.999c-27.333 -36.667 -58 -72 -92 -106l-367 -400h551z" />
    <glyph glyph-name="three" unicode="3" horiz-adv-x="1013" 
d="M72 942c2.66699 49.333 14.498 95.502 35.498 138.502s49.667 80.833 86 113.5s79.666 58.5 129.999 77.5s106.5 28.5 168.5 28.5c58.667 0 112.834 -9.83301 162.501 -29.5s93 -46.167 130 -79.5s65.667 -71.5 86 -114.5s30.5 -87.833 30.5 -134.5
s-8.5 -86.667 -25.5 -120s-35.833 -61 -56.5 -83c-24.667 -24.667 -52 -45.667 -82 -63c38 -18 72.333 -41.333 103 -70c26 -24.667 49.5 -57.5 70.5 -98.5s31.5 -90.833 31.5 -149.5c0 -49.333 -10.5 -96 -31.5 -140s-50.667 -82.833 -89 -116.5s-84.5 -60.667 -138.5 -81
s-114.333 -30.5 -181 -30.5s-126.667 9.5 -180 28.5s-98.833 44.833 -136.5 77.5s-67 70.5 -88 113.5s-33.167 89.167 -36.5 138.5h195c2.66699 -23.333 10.167 -45.833 22.5 -67.5s29 -41.334 50 -59.001s46.333 -31.667 76 -42s62.167 -15.5 97.5 -15.5
c78 0 138.5 19.833 181.5 59.5s64.5 88.167 64.5 145.5s-21.667 105.666 -65 144.999s-103.666 59 -180.999 59h-92v175h82c66.667 0 119.167 17.667 157.5 53s57.5 79 57.5 131c0 57.333 -19.167 104 -57.5 140s-90.833 54 -157.5 54s-119.667 -17.667 -159 -53
s-61.666 -79 -66.999 -131h-194z" />
    <glyph glyph-name="four" unicode="4" horiz-adv-x="993" 
d="M952 256h-143v-256h-195v256h-573v164l543 870h225v-850h143v-184zM614 440v564l-348 -564h348z" />
    <glyph glyph-name="five" unicode="5" horiz-adv-x="1034" 
d="M532 870c58.667 0 114.333 -11.1719 167 -33.5049s98.5 -53.666 137.5 -93.999s69.833 -87.166 92.5 -140.499s34 -110.666 34 -171.999s-11.667 -118.666 -35 -171.999s-55.166 -100.166 -95.499 -140.499s-87.833 -71.666 -142.5 -93.999s-114 -33.5 -178 -33.5
s-122 9.5 -174 28.5s-96.333 44.833 -133 77.5s-65.667 70.5 -87 113.5s-33.333 89.167 -36 138.5h194c2.66699 -23.333 10.167 -45.833 22.5 -67.5s28.833 -41.334 49.5 -59.001s45 -31.667 73 -42s58.333 -15.5 91 -15.5c35.333 0 68.666 6.83301 99.999 20.5
s58.666 32 81.999 55s41.5 51 54.5 84s19.5 68.5 19.5 106.5s-6.5 73.5 -19.5 106.5s-31.167 61 -54.5 84s-50.666 41.333 -81.999 55s-64.666 20.5 -99.999 20.5c-40.667 0 -76.167 -8.16699 -106.5 -24.5s-54.833 -34.166 -73.5 -53.499
c-23.333 -23.333 -42 -48.333 -56 -75h-163l82 747h686v-184h-521l-32 -307c15.333 12 33.666 23.667 54.999 35c18 9.33301 39.5 17.666 64.5 24.999s53.167 11 84.5 11z" />
    <glyph glyph-name="six" unicode="6" 
d="M512 -10c-64 0 -123.337 11.166 -178.004 33.499s-102.167 53.666 -142.5 93.999s-72.166 87.166 -95.499 140.499s-35 110.666 -35 171.999c0 38 6.5 76.167 19.5 114.5s27.167 72.5 42.5 102.5c18 35.333 38.333 69 61 101l359 542h215l-287 -430
c6.66699 1.33301 15 2.66602 25 3.99902c6.66699 1.33301 15.167 2.66602 25.5 3.99902s20.833 2 31.5 2c53.333 0 104.833 -11.167 154.5 -33.5s93.334 -53.666 131.001 -93.999s67.834 -87.166 90.501 -140.499s34 -110.666 34 -171.999s-11.667 -118.666 -35 -171.999
s-55.166 -100.166 -95.499 -140.499s-87.833 -71.666 -142.5 -93.999s-114 -33.5 -178 -33.5zM255.996 429.999c0 -38 6.5 -73.5 19.5 -106.5s31.167 -61 54.5 -84s50.666 -41.333 81.999 -55s64.666 -20.5 99.999 -20.5s68.666 6.83301 99.999 20.5s58.666 32 81.999 55
s41.5 51 54.5 84s19.5 68.5 19.5 106.5s-6.5 73.5 -19.5 106.5s-31.167 61 -54.5 84s-50.666 41.333 -81.999 55s-64.666 20.5 -99.999 20.5s-68.666 -6.83301 -99.999 -20.5s-58.666 -32 -81.999 -55s-41.5 -51 -54.5 -84s-19.5 -68.5 -19.5 -106.5z" />
    <glyph glyph-name="seven" unicode="7" horiz-adv-x="931" 
d="M881 1290v-133l-533 -1157h-205l512 1106h-583v184h809z" />
    <glyph glyph-name="eight" unicode="8" horiz-adv-x="1003" 
d="M502 -10c-66.667 0 -127.004 10.168 -181.004 30.501s-100.167 47.666 -138.5 81.999s-68.166 74.333 -89.499 120s-32 94.5 -32 146.5c0 61.333 10.667 112.833 32 154.5s45 75.5 71 101.5c30 30 64 53.667 102 71c-28.667 18 -54.667 39.333 -78 64
c-19.333 22 -36.666 48.667 -51.999 80s-23 68.666 -23 111.999c0 46.667 9.5 90.834 28.5 132.501s45.833 78.5 80.5 110.5s76 57.5 124 76.5s100 28.5 156 28.5s107.833 -9.5 155.5 -28.5s89 -44.5 124 -76.5s62 -68.833 81 -110.5s28.5 -85.834 28.5 -132.501
c0 -44 -8.16699 -81.5 -24.5 -112.5s-34.166 -57.5 -53.499 -79.5c-23.333 -24.667 -48.666 -46 -75.999 -64c38 -18 72.333 -41.667 103 -71c26 -26 49.5 -59.833 70.5 -101.5s31.5 -93.167 31.5 -154.5c0 -52 -10.5 -100.833 -31.5 -146.5s-50.667 -85.667 -89 -120
s-84.5 -61.666 -138.5 -81.999s-114.333 -30.5 -181 -30.5zM501.996 594.001c-78 0 -138.5 -20.5 -181.5 -61.5s-64.5 -92.167 -64.5 -153.5s21.5 -112.5 64.5 -153.5s103.5 -61.5 181.5 -61.5s138.5 20.5 181.5 61.5s64.5 92.167 64.5 153.5s-21.5 112.5 -64.5 153.5
s-103.5 61.5 -181.5 61.5zM501.996 768.001c57.333 0 104 17.333 140 52s54 75.334 54 122.001c0 52 -18 95.667 -54 131s-82.667 53 -140 53s-104.166 -17.667 -140.499 -53s-54.5 -79 -54.5 -131c0 -46.667 18.167 -87.334 54.5 -122.001s83.166 -52 140.499 -52z" />
    <glyph glyph-name="nine" unicode="9" 
d="M512 1300c64 0 123.338 -11.165 178.005 -33.498s102.167 -53.666 142.5 -93.999s72.166 -87.166 95.499 -140.499s35 -110.666 35 -171.999c0 -39.333 -6.5 -77.833 -19.5 -115.5s-27.167 -71.5 -42.5 -101.5c-18 -35.333 -38.333 -68.666 -61 -99.999l-359 -543h-215
l287 430c-6.66699 -2.66699 -14.334 -4.66699 -23.001 -6c-6.66699 -1.33301 -15.167 -2.33301 -25.5 -3s-21.5 -1 -33.5 -1c-53.333 0 -104.833 11.167 -154.5 33.5s-93.334 53.666 -131.001 93.999s-67.834 87.166 -90.501 140.499s-34 110.666 -34 171.999
s11.667 118.666 35 171.999s55.166 100.166 95.499 140.499s87.833 71.666 142.5 93.999s114 33.5 178 33.5zM768.005 860.002c0 38 -6.5 73.501 -19.5 106.501s-31.167 61 -54.5 84s-50.666 41.333 -81.999 55s-64.666 20.5 -99.999 20.5s-68.666 -6.83301 -99.999 -20.5
s-58.666 -32 -81.999 -55s-41.5 -50.833 -54.5 -83.5s-19.5 -68.334 -19.5 -107.001c0 -38 6.5 -73.333 19.5 -106s31.167 -60.667 54.5 -84s50.666 -41.833 81.999 -55.5s64.666 -20.5 99.999 -20.5s68.666 6.83301 99.999 20.5s58.666 32.167 81.999 55.5
s41.5 51.333 54.5 84s19.5 68 19.5 106z" />
    <glyph glyph-name="colon" unicode=":" horiz-adv-x="348" 
d="M287 809c0 -31.333 -11 -58 -33 -80s-48.667 -33 -80 -33s-58 11 -80 33s-33 48.667 -33 80s11 58 33 80s48.667 33 80 33s58 -11 80 -33s33 -48.667 33 -80zM287 102c0 -31.333 -11 -57.833 -33 -79.5s-48.667 -32.5 -80 -32.5s-58 10.833 -80 32.5s-33 48.167 -33 79.5
s11 58 33 80s48.667 33 80 33s58 -11 80 -33s33 -48.667 33 -80z" />
    <glyph glyph-name="semicolon" unicode=";" horiz-adv-x="348" 
d="M287 809c0 -31.333 -11 -58 -33 -80s-48.667 -33 -80 -33s-58 11 -80 33s-33 48.667 -33 80s11 58 33 80s48.667 33 80 33s58 -11 80 -33s33 -48.667 33 -80zM174 215c31.333 0 57.998 -11.667 79.998 -35s33 -52.666 33 -87.999c0 -52 -8.5 -96 -25.5 -132
s-35.833 -65.667 -56.5 -89c-24.667 -27.333 -52 -49.333 -82 -66l-31 41c13.333 9.33301 26.333 21.666 39 36.999c10.667 12 20.834 27 30.501 45s17.167 38.667 22.5 62c-35.333 0 -64.666 10.833 -87.999 32.5s-35 48.167 -35 79.5s11 58 33 80s48.667 33 80 33z" />
    <glyph glyph-name="less" unicode="&#x3c;" horiz-adv-x="911" 
d="M829 184v-184l-747 389v123l747 389v-184l-522 -266z" />
    <glyph glyph-name="equal" unicode="=" horiz-adv-x="921" 
d="M860 799v-174h-799v174h799zM61 420h799v-174h-799v174z" />
    <glyph glyph-name="greater" unicode="&#x3e;" horiz-adv-x="911" 
d="M604 451l-522 266v184l747 -389v-123l-747 -389v184z" />
    <glyph glyph-name="question" unicode="?" horiz-adv-x="880" 
d="M819 932c0 -49.333 -7.16699 -90.998 -21.5 -124.998s-32.666 -64 -54.999 -90s-46.166 -50.333 -71.499 -73s-49.333 -47.334 -72 -74.001s-41.167 -57.667 -55.5 -93s-21.5 -78.333 -21.5 -129v-20h-184v20c0 64 7.16699 118.333 21.5 163s32.833 82.667 55.5 114
s46.5 58.166 71.5 80.499l71.5 66.5c22.667 22 41.167 45.333 55.5 70s21.5 54.667 21.5 90c0 52 -18.167 95.667 -54.5 131s-83.166 53 -140.499 53s-104 -19.833 -140 -59.5s-54 -98.167 -54 -175.5v-21h-185v21c0 64 9.66699 122 29 174s46 96 80 132
s74.167 63.833 120.5 83.5s96.166 29.5 149.499 29.5s103.166 -9.5 149.499 -28.5s86.666 -45.167 120.999 -78.5s61 -72.5 80 -117.5s28.5 -92.833 28.5 -143.5zM543 102.002c0 -31.333 -11 -57.833 -33 -79.5s-48.667 -32.5 -80 -32.5s-58 10.833 -80 32.5
s-33 48.167 -33 79.5s11 58 33 80s48.667 33 80 33s58 -11 80 -33s33 -48.667 33 -80z" />
    <glyph glyph-name="at" unicode="@" horiz-adv-x="1536" 
d="M778 1147c96.667 0 187.503 -17.8311 272.503 -53.498s158.833 -83.834 221.5 -144.501s112.167 -131.334 148.5 -212.001s54.5 -166 54.5 -256c0 -58.667 -8 -110.834 -24 -156.501s-36.833 -84.167 -62.5 -115.5s-56 -55.166 -91 -71.499s-71.5 -24.5 -109.5 -24.5
c-40.667 0 -75.5 5.33301 -104.5 16s-52.167 23.667 -69.5 39c-22 16.667 -39 35.667 -51 57c-15.333 -22 -34 -41 -56 -57c-19.333 -15.333 -42.833 -28.333 -70.5 -39s-60.834 -16 -99.501 -16c-44 0 -85 8.5 -123 25.5s-71.333 40.833 -100 71.5
s-51.5 67.167 -68.5 109.5s-25.5 89.5 -25.5 141.5c0 50.667 8.5 97.5 25.5 140.5s39.833 79.833 68.5 110.5s62.167 54.5 100.5 71.5s79.166 25.5 122.499 25.5c32.667 0 61.667 -5.16699 87 -15.5s47 -20.833 65 -31.5c20.667 -13.333 38.334 -28.333 53.001 -45l31 82
h112v-400c0 -57.333 9.33301 -97.166 28 -119.499s43.667 -33.5 75 -33.5c35.333 0 66.333 17.333 93 52s40 95.667 40 183c0 70.667 -14.333 138.5 -43 203.5s-67.667 121.833 -117 170.5s-107 87.334 -173 116.001s-136 43 -210 43s-144 -14.333 -210 -43
s-123.5 -68 -172.5 -118s-87.833 -108.833 -116.5 -176.5s-43 -139.5 -43 -215.5c0 -76.667 14.333 -148.834 43 -216.501s67.5 -126.334 116.5 -176.001s106.667 -88.834 173 -117.501s136.166 -43 209.499 -43c44 0 83.667 4.83301 119 14.5s66 19.834 92 30.501
c30 13.333 57.333 29 82 47l78 -117c-32.667 -22 -68.334 -40.333 -107.001 -55c-32.667 -13.333 -71.5 -25.5 -116.5 -36.5s-94.167 -16.5 -147.5 -16.5c-96.667 0 -187.334 18 -272.001 54s-158.5 85.167 -221.5 147.5s-112.5 135 -148.5 218s-54 171.833 -54 266.5
c0 94 18 182.667 54 266s85.5 156 148.5 218s136.833 111.167 221.5 147.5s175.334 54.5 272.001 54.5zM758.003 246.002c57.333 0 104 19 140 57s54 90.667 54 158c0 66.667 -18 119.167 -54 157.5s-82.667 57.5 -140 57.5c-26 0 -50.667 -5.5 -74 -16.5
s-43.833 -26 -61.5 -45s-32 -41.833 -43 -68.5s-16.5 -55 -16.5 -85c0 -31.333 5.5 -60 16.5 -86s25.333 -48.5 43 -67.5s38.167 -34 61.5 -45s48 -16.5 74 -16.5z" />
    <glyph glyph-name="A" unicode="A" horiz-adv-x="1146" 
d="M205 0h-205l492 1290h163l492 -1290h-205l-113 297h-512zM758 481l-185 512l-184 -512h369z" />
    <glyph glyph-name="B" unicode="B" horiz-adv-x="1157" 
d="M901 686c34 -19.333 64.668 -44.001 92.001 -74.001c23.333 -26 44.5 -58.667 63.5 -98s28.5 -87.666 28.5 -144.999c0 -49.333 -10.167 -96.166 -30.5 -140.499s-49 -83.333 -86 -117s-80.333 -60.667 -130 -81s-103.834 -30.5 -162.501 -30.5h-522v1290h512
c50.667 0 98.5 -9.5 143.5 -28.5s84.167 -44.833 117.5 -77.5s59.5 -70.5 78.5 -113.5s28.5 -89.167 28.5 -138.5c0 -40.667 -7.16699 -76.5 -21.5 -107.5s-29.5 -56.5 -45.5 -76.5c-19.333 -24.667 -41.333 -45.334 -66 -62.001zM348.001 757.999l318 -0.00195312
c52 0 95.667 17.333 131 52s53 75.334 53 122.001s-17.833 87.334 -53.5 122.001s-79.167 52 -130.5 52h-318v-348zM676.001 183.997c30 0 58.333 5.49805 85 16.498s49.5 25.667 68.5 44s34 39.833 45 64.5s16.5 51.334 16.5 80.001s-5.5 55.334 -16.5 80.001
s-26 46.167 -45 64.5s-41.833 33 -68.5 44s-55 16.5 -85 16.5h-328v-410h328z" />
    <glyph glyph-name="C" unicode="C" horiz-adv-x="1310" 
d="M266 645c0 -69.333 11.998 -133.328 35.998 -191.995s55.5 -109.5 94.5 -152.5s83.667 -76.5 134 -100.5s102.166 -36 155.499 -36c49.333 0 93.833 7.16699 133.5 21.5s74.5 34.166 104.5 59.499s54.833 54.666 74.5 87.999s34.834 69 45.501 107h205
c-15.333 -61.333 -39.333 -119.333 -72 -174s-73.167 -102.5 -121.5 -143.5s-103.5 -73.333 -165.5 -97s-130 -35.5 -204 -35.5c-82 0 -160.167 16.667 -234.5 50s-139.5 79.666 -195.5 138.999s-100.667 128.666 -134 207.999s-50 165.333 -50 258
c0 91.333 16.667 177 50 257s78 149.667 134 209s121.167 105.666 195.5 138.999s152.5 50 234.5 50c70.667 0 136.834 -11.833 198.501 -35.5s116 -56 163 -97s87 -88.833 120 -143.5s56.833 -112.667 71.5 -174h-205c-10.667 38 -26 73.833 -46 107.5s-44.667 63 -74 88
s-63 44.667 -101 59s-80.333 21.5 -127 21.5c-53.333 0 -105.166 -11.833 -155.499 -35.5s-95 -57 -134 -100s-70.5 -94 -94.5 -153s-36 -123.167 -36 -192.5z" />
    <glyph glyph-name="D" unicode="D" horiz-adv-x="1228" 
d="M543 184c53.333 0 105.166 11.667 155.499 35s95 55.5 134 96.5s70.5 89.5 94.5 145.5s36 117.333 36 184s-12 128 -36 184s-55.5 104.5 -94.5 145.5s-83.667 73.167 -134 96.5s-102.166 35 -155.499 35h-195v-922h195zM154 0v1290h389c82 0 160.167 -16.667 234.5 -50
s139.5 -79.333 195.5 -138s100.667 -127 134 -205s50 -162 50 -252s-16.667 -174 -50 -252s-78 -146.333 -134 -205s-121.167 -104.667 -195.5 -138s-152.5 -50 -234.5 -50h-389z" />
    <glyph glyph-name="E" unicode="E" horiz-adv-x="1126" 
d="M1024 184v-184h-870v1290h850v-184h-656v-348h604v-185h-604v-389h676z" />
    <glyph glyph-name="F" unicode="F" horiz-adv-x="1034" 
d="M348 1106v-369h512v-184h-512v-553h-194v1290h819v-184h-625z" />
    <glyph glyph-name="G" unicode="G" horiz-adv-x="1372" 
d="M686 -10c-82 0 -160.168 16.6709 -234.501 50.0039s-139.5 79.666 -195.5 138.999s-100.667 128.666 -134 207.999s-50 165.333 -50 258c0 91.333 16.667 177 50 257s78 149.667 134 209s121.167 105.666 195.5 138.999s152.5 50 234.5 50
c70.667 0 136.834 -11.833 198.501 -35.5s116 -55.334 163 -95.001s87 -85.5 120 -137.5s56.833 -106 71.5 -162h-205c-10.667 32.667 -26 64.834 -46 96.501s-44.667 59 -74 82s-63 41.667 -101 56s-80.333 21.5 -127 21.5c-53.333 0 -105.166 -11.833 -155.499 -35.5
s-95 -57 -134 -100s-70.5 -93.833 -94.5 -152.5s-36 -123 -36 -193c0 -69.333 12 -133.333 36 -192s55.5 -109.5 94.5 -152.5s83.667 -76.5 134 -100.5s102.166 -36 155.499 -36c50.667 0 97.5 8.5 140.5 25.5s80.833 39.833 113.5 68.5s59.667 62.167 81 100.5
s36 79.166 44 122.499h-389v185h573v-666h-143l-51 123c-27.333 -26 -59.666 -48.667 -96.999 -68c-31.333 -16.667 -69.833 -31.667 -115.5 -45s-97.834 -20 -156.501 -20z" />
    <glyph glyph-name="H" unicode="H" horiz-adv-x="1290" 
d="M1137 1290v-1290h-195v563h-594v-563h-194v1290h194v-542h594v542h195z" />
    <glyph glyph-name="I" unicode="I" horiz-adv-x="501" 
d="M348 0h-194v1290h194v-1290z" />
    <glyph glyph-name="J" unicode="J" horiz-adv-x="952" 
d="M819 1290v-921c0 -53.333 -9.83301 -103.166 -29.5 -149.499s-47 -86.666 -82 -120.999s-77 -61 -126 -80s-102.833 -28.5 -161.5 -28.5s-112.667 9.5 -162 28.5s-91.333 45.667 -126 80s-62 74.666 -82 120.999s-30 96.166 -30 149.499h195
c0 -61.333 18.833 -110.833 56.5 -148.5s87.167 -56.5 148.5 -56.5s110.833 18.667 148.5 56s56.5 87 56.5 149v921h194z" />
    <glyph glyph-name="K" unicode="K" horiz-adv-x="1075" 
d="M860 0l-512 604v-604h-194v1290h194v-594l471 594h236l-523 -635l564 -655h-236z" />
    <glyph glyph-name="L" unicode="L" horiz-adv-x="983" 
d="M963 184v-184h-809v1290h194v-1106h615z" />
    <glyph glyph-name="M" unicode="M" horiz-adv-x="1556" 
d="M1403 1290v-1290h-195v799l-368 -799h-123l-369 799v-799h-194v1290h163l461 -993l461 993h164z" />
    <glyph glyph-name="N" unicode="N" horiz-adv-x="1290" 
d="M1137 1290v-1290h-164l-625 922v-922h-194v1290h163l625 -921v921h195z" />
    <glyph glyph-name="O" unicode="O" horiz-adv-x="1372" 
d="M1106 645c0 69.333 -12 133.5 -36 192.5s-55.333 110 -94 153s-83.334 76.333 -134.001 100s-102.667 35.5 -156 35.5s-105.166 -11.833 -155.499 -35.5s-95 -57 -134 -100s-70.5 -93.833 -94.5 -152.5s-36 -123 -36 -193c0 -69.333 12 -133.333 36 -192
s55.5 -109.5 94.5 -152.5s83.667 -76.5 134 -100.5s102.166 -36 155.499 -36s105.333 12 156 36s95.334 57.5 134.001 100.5s70 93.833 94 152.5s36 122.667 36 192zM1300 645c0 -92.667 -16.667 -178.667 -50 -258s-78 -148.666 -134 -207.999
s-121.167 -105.666 -195.5 -138.999s-152.5 -50 -234.5 -50s-160.167 16.667 -234.5 50s-139.5 79.666 -195.5 138.999s-100.667 128.666 -134 207.999s-50 165.333 -50 258c0 91.333 16.667 177 50 257s78 149.667 134 209s121.167 105.666 195.5 138.999
s152.5 50 234.5 50s160.167 -16.667 234.5 -50s139.5 -79.666 195.5 -138.999s100.667 -129 134 -209s50 -165.667 50 -257z" />
    <glyph glyph-name="P" unicode="P" horiz-adv-x="1105" 
d="M625 1290c56 0 108.833 -10.833 158.5 -32.5s93 -51 130 -88s66.333 -80.333 88 -130s32.5 -102.5 32.5 -158.5s-10.833 -109 -32.5 -159s-51 -93.333 -88 -130s-80.333 -66 -130 -88s-102.5 -33 -158.5 -33h-277v-471h-194v1290h471zM625 655
c28.667 0 55.834 5.83496 81.501 17.502s48.5 27.834 68.5 48.501s35.833 44.667 47.5 72s17.5 56.666 17.5 87.999c0 30 -5.83301 58.667 -17.5 86s-27.5 51.166 -47.5 71.499s-42.833 36.666 -68.5 48.999s-52.834 18.5 -81.501 18.5h-277v-451h277z" />
    <glyph glyph-name="Q" unicode="Q" horiz-adv-x="1372" 
d="M686 -10c-82 0 -160.166 16.667 -234.499 50s-139.5 79.666 -195.5 138.999s-100.667 128.666 -134 207.999s-50 165.333 -50 258c0 91.333 16.667 177 50 257s78 149.667 134 209s121.167 105.666 195.5 138.999s152.5 50 234.5 50s160.167 -16.667 234.5 -50
s139.5 -79.666 195.5 -138.999s100.667 -129 134 -209s50 -165.667 50 -257c0 -66.667 -8.5 -127 -25.5 -181s-35.5 -100 -55.5 -138c-24.667 -45.333 -52 -85.666 -82 -120.999l143 -144l-113 -122l-153 153c-26 -19.333 -55.333 -36.333 -88 -51
c-28.667 -13.333 -62.834 -25.166 -102.501 -35.499s-85.5 -15.5 -137.5 -15.5zM1106 645c0 69.333 -11.998 133.502 -35.998 192.502s-55.333 110 -94 153s-83.334 76.333 -134.001 100s-102.667 35.5 -156 35.5s-105.166 -11.833 -155.499 -35.5s-95 -57 -134 -100
s-70.5 -93.833 -94.5 -152.5s-36 -123 -36 -193c0 -69.333 12 -133.333 36 -192s55.5 -109.5 94.5 -152.5s83.667 -76.5 134 -100.5s102.166 -36 155.499 -36c31.333 0 59 3 83 9s44 13.333 60 22c19.333 8 36.666 18 51.999 30l-123 123l112 123l134 -133
c19.333 22 36.333 48.667 51 80c12 27.333 23.5 59.666 34.5 96.999s16.5 80.666 16.5 129.999z" />
    <glyph glyph-name="R" unicode="R" horiz-adv-x="1146" 
d="M573 512l-225.002 0.000976562v-512h-194v1290h512c53.333 0 103.833 -10.167 151.5 -30.5s88.834 -48 123.501 -83s62.334 -76.333 83.001 -124s31 -98.167 31 -151.5c0 -75.333 -15 -136.5 -45 -183.5s-63 -84.167 -99 -111.5
c-42 -32.667 -89.667 -57.334 -143 -74.001l317 -532h-215zM347.998 696.001l318 -0.00195312c26 0 50.5 5.5 73.5 16.5s43.333 25.667 61 44s32 39.833 43 64.5s16.5 51.334 16.5 80.001s-5.5 55.334 -16.5 80.001s-25.333 46.167 -43 64.5s-38 33 -61 44
s-47.5 16.5 -73.5 16.5h-318v-410z" />
    <glyph glyph-name="S" unicode="S" 
d="M82 942c0 46.667 10.1709 91.5 30.5039 134.5s49.666 81.167 87.999 114.5s83.833 59.833 136.5 79.5s111 29.5 175 29.5c61.333 0 117.666 -10.167 168.999 -30.5s95.666 -48.666 132.999 -84.999s66.333 -78.666 87 -126.999s31 -100.5 31 -156.5h-195
c0 66.667 -20.833 120.834 -62.5 162.501s-95.834 62.5 -162.501 62.5c-35.333 0 -67.666 -5 -96.999 -15s-54.333 -24 -75 -42s-36.5 -37.833 -47.5 -59.5s-16.5 -44.167 -16.5 -67.5c0 -45.333 17.167 -80.166 51.5 -104.499s76.666 -45.333 126.999 -63
s105.333 -35.167 165 -52.5s114.667 -40.666 165 -69.999s92.666 -67.833 126.999 -115.5s51.5 -110.5 51.5 -188.5c0 -46.667 -10.667 -91.334 -32 -134.001s-51.5 -80.834 -90.5 -114.501s-86.167 -60.334 -141.5 -80.001s-117.666 -29.5 -186.999 -29.5
s-131 9.83301 -185 29.5s-100.167 47 -138.5 82s-67.333 77 -87 126s-29.5 102.833 -29.5 161.5h194c0 -72.667 20.5 -128.334 61.5 -167.001s102.5 -58 184.5 -58c87.333 0 151.833 17.667 193.5 53s62.5 79 62.5 131c0 48 -17 85.667 -51 113s-76.333 50.166 -127 68.499
s-105.667 36.333 -165 54s-114.333 40.5 -165 68.5s-93 64.5 -127 109.5s-51 105.167 -51 180.5z" />
    <glyph glyph-name="T" unicode="T" horiz-adv-x="1034" 
d="M31 1290h973v-184h-390v-1106h-194v1106h-389v184z" />
    <glyph glyph-name="U" unicode="U" horiz-adv-x="1228" 
d="M614 164c40.667 0 78.499 7.5 113.499 22.5s65.5 35.833 91.5 62.5s46.167 58.667 60.5 96s21.5 79.333 21.5 126v819h195v-819c0 -69.333 -12 -133.5 -36 -192.5s-57.5 -110 -100.5 -153s-93.833 -76.333 -152.5 -100s-123 -35.5 -193 -35.5
c-69.333 0 -133.333 11.833 -192 35.5s-109.5 57 -152.5 100s-76.5 94 -100.5 153s-36 123.167 -36 192.5v819h195v-819c0 -46.667 7.16699 -88.667 21.5 -126s34.5 -69.333 60.5 -96s56.333 -47.5 91 -62.5s72.334 -22.5 113.001 -22.5z" />
    <glyph glyph-name="V" unicode="V" horiz-adv-x="1167" 
d="M20 1290h205l359 -993l358 993h205l-471 -1290h-184z" />
    <glyph glyph-name="W" unicode="W" horiz-adv-x="1638" 
d="M553 0h-133l-400 1290h195l277 -891l266 891h123l266 -891l276 891h195l-399 -1290h-134l-266 860z" />
    <glyph glyph-name="X" unicode="X" horiz-adv-x="1085" 
d="M829 1290h215l-389 -635l410 -655h-215l-307 492l-307 -492h-216l410 655l-389 635h215l287 -471z" />
    <glyph glyph-name="Y" unicode="Y" horiz-adv-x="1054" 
d="M532 707l297 583h205l-409 -788v-502h-195v502l-410 788h205l297 -583h10z" />
    <glyph glyph-name="Z" unicode="Z" 
d="M307 184h656v-184h-902v133l625 973h-604v184h850v-133z" />
    <glyph glyph-name="bracketleft" unicode="[" horiz-adv-x="604" 
d="M328 -205h235v-164h-409v1659h409v-164h-235v-1331z" />
    <glyph glyph-name="backslash" unicode="\" horiz-adv-x="706" 
d="M0 1290h174l533 -1659h-175z" />
    <glyph glyph-name="bracketright" unicode="]" horiz-adv-x="604" 
d="M276 1126h-235v164h410v-1659h-410v164h235v1331z" />
    <glyph glyph-name="asciicircum" unicode="^" horiz-adv-x="778" 
d="M61 696l287 594h82l287 -594h-164l-164 359l-164 -359h-164z" />
    <glyph glyph-name="underscore" unicode="_" horiz-adv-x="563" 
d="M604 -358h-645v163h645v-163z" />
    <glyph glyph-name="grave" unicode="`" horiz-adv-x="419" 
d="M358 1044h-122l-175 246h175z" />
    <glyph glyph-name="a" unicode="a" horiz-adv-x="952" 
d="M481 932c53.333 0 102.17 -8.50098 146.503 -25.501s82.166 -40.167 113.499 -69.5s55.666 -63.833 72.999 -103.5s26 -82.834 26 -129.501v-604h-133l-41 92c-18 -19.333 -39.333 -36.333 -64 -51c-22 -13.333 -49.667 -25.166 -83 -35.499s-73.333 -15.5 -120 -15.5
c-102.667 0 -181.167 25.5 -235.5 76.5s-81.5 117.5 -81.5 199.5c0 46.667 8.83301 88.834 26.5 126.501s48 69.667 91 96s101.333 47 175 62s167.167 22.5 280.5 22.5v31c0 46.667 -14.667 84 -44 112s-72.666 42 -129.999 42c-61.333 0 -106 -11 -134 -33
s-44.667 -48.667 -50 -80h-184c5.33301 82 39.666 150.333 102.999 205s151.666 82 264.999 82zM410.004 153.999c78 0 138.333 20 181 60s64 88.667 64 146v50c-82 0 -148.167 -3.83301 -198.5 -11.5s-89.833 -18 -118.5 -31s-47.834 -29 -57.501 -48
s-14.5 -40.167 -14.5 -63.5c0 -26 12.333 -49.5 37 -70.5s60.334 -31.5 107.001 -31.5z" />
    <glyph glyph-name="b" unicode="b" horiz-adv-x="1085" 
d="M573 -10c-46.667 0 -86.667 5.00098 -120 15.001s-60.666 22 -81.999 36c-24.667 15.333 -46 32.333 -64 51l-41 -92h-133v1290h184v-461c18 19.333 39.333 36.666 64 51.999c22 12 48.667 23.5 80 34.5s68.666 16.5 111.999 16.5c61.333 0 118.666 -11.667 171.999 -35
s100.166 -55.833 140.499 -97.5s71.833 -91.167 94.5 -148.5s34 -120.666 34 -189.999s-11.333 -132.833 -34 -190.5s-54.167 -107.334 -94.5 -149.001s-87.166 -74 -140.499 -97s-110.666 -34.5 -171.999 -34.5zM563 758.001c-35.333 0 -69 -7.16797 -101 -21.501
s-60.333 -34.833 -85 -61.5s-44.167 -58.167 -58.5 -94.5s-21.5 -76.166 -21.5 -119.499c0 -44 7.16699 -84 21.5 -120s33.833 -67.333 58.5 -94s53 -47.167 85 -61.5s65.667 -21.5 101 -21.5s69.166 7.16699 101.499 21.5s60.666 34.833 84.999 61.5s43.666 58 57.999 94
s21.5 76 21.5 120s-7.16699 84 -21.5 120s-33.666 67.333 -57.999 94s-52.666 47.167 -84.999 61.5s-66.166 21.5 -101.499 21.5z" />
    <glyph glyph-name="c" unicode="c" horiz-adv-x="983" 
d="M922 338c-10.667 -49.333 -27.6699 -95.167 -51.0029 -137.5s-52.833 -79.166 -88.5 -110.499s-76.334 -55.833 -122.001 -73.5s-95.167 -26.5 -148.5 -26.5c-61.333 0 -118.666 11.5 -171.999 34.5s-100.166 55.333 -140.499 97s-71.666 91.167 -93.999 148.5
s-33.5 121 -33.5 191c0 69.333 11.167 132.666 33.5 189.999s53.666 106.833 93.999 148.5s87.166 74.167 140.499 97.5s110.666 35 171.999 35c53.333 0 102.833 -8.83301 148.5 -26.5s86.334 -42.334 122.001 -74.001s65 -68.667 88 -111s40.167 -87.833 51.5 -136.5h-195
c-15.333 52 -40.666 94 -75.999 126s-81.666 48 -138.999 48c-32.667 0 -64.667 -7.16699 -96 -21.5s-58.666 -34.833 -81.999 -61.5s-42.166 -58.167 -56.499 -94.5s-21.5 -76.166 -21.5 -119.499c0 -44 7.16699 -84 21.5 -120s33.166 -67.333 56.499 -94
s50.666 -47.167 81.999 -61.5s63.333 -21.5 96 -21.5c57.333 0 103.833 16 139.5 48s60.834 74 75.501 126h195z" />
    <glyph glyph-name="d" unicode="d" horiz-adv-x="1085" 
d="M512 -10c-61.333 0 -118.666 11.499 -171.999 34.499s-100.166 55.333 -140.499 97s-71.666 91.167 -93.999 148.5s-33.5 121 -33.5 191c0 69.333 11.167 132.666 33.5 189.999s53.666 106.833 93.999 148.5s87.166 74.167 140.499 97.5s110.666 35 171.999 35
c44 0 81.667 -5.5 113 -16.5s58 -22.5 80 -34.5c24.667 -15.333 45.667 -32.666 63 -51.999v461h184v-1290h-133l-41 92c-18 -19.333 -39 -36.333 -63 -51c-22 -13.333 -49.667 -25.166 -83 -35.499s-73.333 -15.5 -120 -15.5zM522 757.999
c-35.333 0 -69 -7.16797 -101 -21.501s-60.333 -34.833 -85 -61.5s-44.167 -58.167 -58.5 -94.5s-21.5 -76.166 -21.5 -119.499c0 -44 7.16699 -84 21.5 -120s33.833 -67.333 58.5 -94s53 -47.167 85 -61.5s65.667 -21.5 101 -21.5s69.166 7.16699 101.499 21.5
s60.666 34.833 84.999 61.5s43.666 58 57.999 94s21.5 76 21.5 120s-7.16699 84 -21.5 120s-33.666 67.333 -57.999 94s-52.666 47.167 -84.999 61.5s-66.166 21.5 -101.499 21.5z" />
    <glyph glyph-name="e" unicode="e" horiz-adv-x="1013" 
d="M922 266c-15.333 -38 -34.6758 -73.6689 -58.0088 -107.002s-51.333 -62.666 -84 -87.999s-70.5 -45.166 -113.5 -59.499s-91.167 -21.5 -144.5 -21.5c-61.333 0 -118.666 11.5 -171.999 34.5s-100 55.333 -140 97s-71.333 91.167 -94 148.5s-34 121 -34 191
c0 69.333 11.333 132.666 34 189.999s53.334 106.833 92.001 148.5s84.334 74.167 137.001 97.5s108.334 35 167.001 35s114.334 -11.667 167.001 -35s98.334 -55.833 137.001 -97.5s69.334 -91.167 92.001 -148.5s34 -120.666 34 -189.999
c0 -10.667 -0.666992 -21.167 -2 -31.5s-2.66602 -19.166 -3.99902 -26.499c-1.33301 -9.33301 -2.66602 -17.333 -3.99902 -24h-656c2.66699 -28.667 11 -56 25 -82s31.5 -48.833 52.5 -68.5s46.167 -35.334 75.5 -47.001s60.333 -17.5 93 -17.5c56 0 100.5 12 133.5 36
s56.833 46 71.5 66h195zM511.99 757.998c-61.333 0 -113.166 -20.833 -155.499 -62.5s-69.166 -96.167 -80.499 -163.5h492c-10.667 66.667 -37.834 121 -81.501 163s-101.834 63 -174.501 63z" />
    <glyph glyph-name="f" unicode="f" horiz-adv-x="583" 
d="M543 748l-205.001 0.000976562v-748h-184v748h-113v174h113v61c0 49.333 7.16699 93.5 21.5 132.5s34.333 72 60 99s56 48 91 63s72.833 22.5 113.5 22.5c15.333 0 29.166 -1 41.499 -3s23.166 -4.33301 32.499 -7c10.667 -4 20.334 -7.33301 29.001 -10v-164
c-5.33301 1.33301 -11.666 2.66602 -18.999 3.99902l-21 4c-7.33301 1.33301 -14.666 2 -21.999 2c-40.667 0 -74.667 -13.667 -102 -41s-41 -61.333 -41 -102v-61h205v-174z" />
    <glyph glyph-name="g" unicode="g" horiz-adv-x="1054" 
d="M932 922l0.00195312 -881.004c0 -56 -10 -107.833 -30 -155.5s-48 -89 -84 -124s-80 -62 -132 -81s-110 -28.5 -174 -28.5c-56 0 -106.5 7.83301 -151.5 23.5s-84.167 36.5 -117.5 62.5s-61 56.333 -83 91s-37.667 71.334 -47 110.001h184
c15.333 -31.333 39.666 -59.666 72.999 -84.999s80.666 -38 141.999 -38c72.667 0 130.167 20.833 172.5 62.5s63.5 95.834 63.5 162.501v92c-18 -19.333 -39.333 -36.333 -64 -51c-22 -13.333 -48.667 -25.166 -80 -35.499s-68.666 -15.5 -111.999 -15.5
c-56 0 -109.667 11.5 -161 34.5s-96.166 54.667 -134.499 95s-68.666 87.833 -90.999 142.5s-33.5 114 -33.5 178s11.167 123.333 33.5 178s52.666 102.167 90.999 142.5s83.166 72.166 134.499 95.499s105 35 161 35c46.667 0 86.667 -5.5 120 -16.5
s60.666 -22.5 81.999 -34.5c24.667 -15.333 46 -32.666 64 -51.999l41 93h133zM514.002 204.996c32.667 0 64.3301 7.16602 94.9971 21.499s57.667 34.166 81 59.499s42.166 54.666 56.499 87.999s21.5 69 21.5 107s-7.16699 73.833 -21.5 107.5
s-33.166 63.167 -56.499 88.5s-50.666 45.166 -81.999 59.499s-63.333 21.5 -96 21.5s-64.667 -7.16699 -96 -21.5s-58.666 -34.166 -81.999 -59.499s-42.166 -54.666 -56.499 -87.999s-21.5 -69.333 -21.5 -108c0 -38 7.16699 -73.667 21.5 -107s33.5 -62.666 57.5 -87.999
s51.333 -45.166 82 -59.499s63 -21.5 97 -21.5z" />
    <glyph glyph-name="h" unicode="h" horiz-adv-x="1054" 
d="M573 932c50.667 0 98.501 -9.99902 143.501 -29.999s84.333 -47.333 118 -82s60 -76.5 79 -125.5s28.5 -103.167 28.5 -162.5v-532h-184v532c0 30 -5.83301 58.667 -17.5 86s-27.334 51.333 -47.001 72s-42.5 37.167 -68.5 49.5s-53.333 18.5 -82 18.5
c-31.333 0 -60.666 -6.16699 -87.999 -18.5s-51.333 -28.833 -72 -49.5s-36.834 -44.5 -48.501 -71.5s-17.5 -55.833 -17.5 -86.5v-532h-184v1290h184v-461c19.333 19.333 41.333 36.666 66 51.999c22 12 49 23.5 81 34.5s68.333 16.5 109 16.5z" />
    <glyph glyph-name="i" unicode="i" horiz-adv-x="430" 
d="M307 0h-184v922h184v-922zM215 1065c-31.333 0 -58 10.833 -80 32.5s-33 48.5 -33 80.5c0 31.333 11 57.833 33 79.5s48.667 32.5 80 32.5s58 -10.833 80 -32.5s33 -48.167 33 -79.5s-11 -58 -33 -80s-48.667 -33 -80 -33z" />
    <glyph glyph-name="j" unicode="j" horiz-adv-x="430" 
d="M123 922h184v-942c0 -49.333 -7.16699 -93.5 -21.5 -132.5s-34.5 -72.167 -60.5 -99.5s-56.333 -48.5 -91 -63.5s-72.667 -22.5 -114 -22.5c-28.667 0 -53 3.33301 -73 10c-10.667 2.66699 -20.334 6.33398 -29.001 11.001v163
c5.33301 -2.66699 11.666 -4.66699 18.999 -6c6.66699 -1.33301 13.334 -2.33301 20.001 -3s14.334 -1 23.001 -1c40.667 0 74.667 13.667 102 41s41 61.666 41 102.999v942zM215 1065c-31.333 0 -58 10.833 -80 32.5s-33 48.5 -33 80.5c0 31.333 11 57.833 33 79.5
s48.667 32.5 80 32.5s58 -10.833 80 -32.5s33 -48.167 33 -79.5s-11 -58 -33 -80s-48.667 -33 -80 -33z" />
    <glyph glyph-name="k" unicode="k" horiz-adv-x="880" 
d="M676 0l-359 440v-440h-184v1290h184v-768l318 400h215l-358 -430l409 -492h-225z" />
    <glyph glyph-name="l" unicode="l" horiz-adv-x="450" 
d="M317 0h-184v1290h184v-1290z" />
    <glyph glyph-name="m" unicode="m" horiz-adv-x="1495" 
d="M1055 932c44 0 85.0029 -8.49902 123.003 -25.499s71.333 -42 100 -75s51.5 -73 68.5 -120s25.5 -99.833 25.5 -158.5v-553h-184v553c0 61.333 -17.5 110.833 -52.5 148.5s-75.5 56.5 -121.5 56.5c-46.667 0 -87.334 -18.833 -122.001 -56.5s-52 -87.167 -52 -148.5v-553
h-185v553c0 61.333 -17.333 110.833 -52 148.5s-75.334 56.5 -122.001 56.5s-87.334 -18.833 -122.001 -56.5s-52 -87.167 -52 -148.5v-553h-184v922h133l41 -93c16.667 19.333 36.334 36.666 59.001 51.999c19.333 12 43 23.5 71 34.5s59.667 16.5 95 16.5
c44 0 81.667 -7.5 113 -22.5s58 -31.5 80 -49.5c24.667 -22 45.667 -46 63 -72l18 22c11.333 14 28.666 30.333 51.999 49s52 35.5 86 50.5s74.333 22.5 121 22.5z" />
    <glyph glyph-name="n" unicode="n" horiz-adv-x="1044" 
d="M563 932c50.667 0 98.499 -9.99902 143.499 -29.999s84.167 -47.333 117.5 -82s59.666 -76.5 78.999 -125.5s29 -103.167 29 -162.5v-532h-184v532c0 30 -5.83301 58.667 -17.5 86s-27.5 51.333 -47.5 72s-43 37.167 -69 49.5s-53.333 18.5 -82 18.5
c-31.333 0 -60.666 -6.16699 -87.999 -18.5s-51.166 -28.833 -71.499 -49.5s-36.333 -44.5 -48 -71.5s-17.5 -55.833 -17.5 -86.5v-532h-184v922h133l41 -93c18 19.333 39 36.666 63 51.999c22 12 49.667 23.5 83 34.5s73.333 16.5 120 16.5z" />
    <glyph glyph-name="o" unicode="o" 
d="M768 461c0 44 -7.16699 83.999 -21.5 119.999s-33.166 67.333 -56.499 94s-50.666 47.167 -81.999 61.5s-63.333 21.5 -96 21.5s-64.667 -7.16699 -96 -21.5s-58.666 -34.833 -81.999 -61.5s-42.166 -58.167 -56.499 -94.5s-21.5 -76.166 -21.5 -119.499
c0 -44 7.16699 -84 21.5 -120s33.166 -67.333 56.499 -94s50.666 -47.167 81.999 -61.5s63.333 -21.5 96 -21.5s64.667 7.16699 96 21.5s58.666 34.833 81.999 61.5s42.166 58 56.499 94s21.5 76 21.5 120zM952 460.999c0 -69.333 -11.167 -132.832 -33.5 -190.499
s-53.666 -107.334 -93.999 -149.001s-87.166 -74 -140.499 -97s-110.666 -34.5 -171.999 -34.5s-118.666 11.5 -171.999 34.5s-100.166 55.333 -140.499 97s-71.666 91.167 -93.999 148.5s-33.5 121 -33.5 191c0 69.333 11.167 132.666 33.5 189.999
s53.666 106.833 93.999 148.5s87.166 74.167 140.499 97.5s110.666 35 171.999 35s118.666 -11.667 171.999 -35s100.166 -55.833 140.499 -97.5s71.666 -91.167 93.999 -148.5s33.5 -120.666 33.5 -189.999z" />
    <glyph glyph-name="p" unicode="p" horiz-adv-x="1075" 
d="M563 932c61.333 0 118.665 -11.666 171.998 -34.999s100.166 -55.833 140.499 -97.5s71.833 -91.167 94.5 -148.5s34 -120.666 34 -189.999s-11.333 -132.833 -34 -190.5s-54.167 -107.334 -94.5 -149.001s-87.166 -74 -140.499 -97s-110.666 -34.5 -171.999 -34.5
c-44 0 -81.667 5 -113 15s-57.666 22 -78.999 36c-24.667 15.333 -46 32.333 -64 51v-420h-184v1250h133l41 -93c18 19.333 39 36.666 63 51.999c22 12 49.667 23.5 83 34.5s73.333 16.5 120 16.5zM552.999 164.001c35.333 0 69 7.16602 101 21.499s60.333 34.833 85 61.5
s44.167 58 58.5 94s21.5 76 21.5 120s-7.16699 84 -21.5 120s-33.833 67.333 -58.5 94s-53 47.167 -85 61.5s-65.667 21.5 -101 21.5s-69.166 -7.16699 -101.499 -21.5s-60.666 -34.833 -84.999 -61.5s-43.666 -58.167 -57.999 -94.5s-21.5 -76.166 -21.5 -119.499
c0 -44 7.16699 -84 21.5 -120s33.666 -67.333 57.999 -94s52.666 -47.167 84.999 -61.5s66.166 -21.5 101.499 -21.5z" />
    <glyph glyph-name="q" unicode="q" horiz-adv-x="1075" 
d="M512 932c46.667 0 86.667 -5.50098 120 -16.501s61 -22.5 83 -34.5c24.667 -15.333 45.667 -32.666 63 -51.999l41 93h133v-1250h-184v420c-18 -19.333 -39 -36.333 -63 -51c-22 -13.333 -48.667 -25.166 -80 -35.499s-69 -15.5 -113 -15.5
c-61.333 0 -118.666 11.5 -171.999 34.5s-100.166 55.333 -140.499 97s-71.666 91.167 -93.999 148.5s-33.5 121 -33.5 191c0 69.333 11.167 132.666 33.5 189.999s53.666 106.833 93.999 148.5s87.166 74.167 140.499 97.5s110.666 35 171.999 35zM522 163.999
c35.333 0 69.166 7.16602 101.499 21.499s60.666 34.833 84.999 61.5s43.666 58 57.999 94s21.5 76 21.5 120s-7.16699 84 -21.5 120s-33.666 67.333 -57.999 94s-52.666 47.167 -84.999 61.5s-66.166 21.5 -101.499 21.5s-69 -7.16699 -101 -21.5
s-60.333 -34.833 -85 -61.5s-44.167 -58.167 -58.5 -94.5s-21.5 -76.166 -21.5 -119.499c0 -44 7.16699 -84 21.5 -120s33.833 -67.333 58.5 -94s53 -47.167 85 -61.5s65.667 -21.5 101 -21.5z" />
    <glyph glyph-name="r" unicode="r" horiz-adv-x="634" 
d="M532 932c10.667 0 19.4971 -0.666016 26.4971 -1.99902s13.5 -2.66602 19.5 -3.99902l16 -4v-185c-5.33301 1.33301 -11.666 2.66602 -18.999 3.99902c-6.66699 1.33301 -13.667 2.83301 -21 4.5s-14.666 2.5 -21.999 2.5c-31.333 0 -60.666 -6.16699 -87.999 -18.5
s-51.166 -28.833 -71.499 -49.5s-36.333 -44.667 -48 -72s-17.5 -56 -17.5 -86v-522h-184v922h133l41 -93c16.667 19.333 36.334 36.666 59.001 51.999c19.333 12 43.666 23.5 72.999 34.5s63.666 16.5 102.999 16.5z" />
    <glyph glyph-name="s" unicode="s" horiz-adv-x="829" 
d="M256 297c5.33301 -40.667 21 -73 47 -97s65 -36 117 -36c57.333 0 99 10.833 125 32.5s39 48.167 39 79.5c0 27.333 -12.333 48.166 -37 62.499s-55.167 26.333 -91.5 36l-118 30c-42.333 10.333 -81.5 25 -117.5 44s-66.333 44.5 -91 76.5s-37 75.333 -37 130
c0 38 7.5 73.833 22.5 107.5s36.167 63.167 63.5 88.5s60.5 45.166 99.5 59.499s83.167 21.5 132.5 21.5c108 0 189.833 -26 245.5 -78s86.5 -121.667 92.5 -209h-185c-5.33301 31.333 -20.666 58 -45.999 80s-61 33 -107 33c-46.667 0 -82.334 -10.667 -107.001 -32
s-37 -45 -37 -71c0 -27.333 12.333 -48.166 37 -62.499s55.167 -26.166 91.5 -35.499l117.5 -29.5c42 -10.333 81.167 -25 117.5 -44s66.833 -44.667 91.5 -77s37 -75.833 37 -130.5c0 -82 -29.333 -150.167 -88 -204.5s-142 -81.5 -250 -81.5
c-113.333 0 -198.333 26.667 -255 80s-87.667 129 -93 227h184z" />
    <glyph glyph-name="t" unicode="t" horiz-adv-x="686" 
d="M389 307c0 -40.667 13.666 -74.667 40.999 -102s61.333 -41 102 -41c6.66699 0 13.834 0.333008 21.501 1s14.834 1.66699 21.501 3s13 3.33301 19 6v-164c-8 -4 -17.667 -7.33301 -29 -10c-20.667 -6.66699 -45 -10 -73 -10c-40.667 0 -78.5 7.5 -113.5 22.5
s-65.5 36.167 -91.5 63.5s-46.167 60.333 -60.5 99s-21.5 82.667 -21.5 132v441h-164v174h72c35.333 0 64.666 11.5 87.999 34.5s35 52.167 35 87.5v123h153v-245h205v-174h-205v-441z" />
    <glyph glyph-name="u" unicode="u" horiz-adv-x="1054" 
d="M492 -10c-52 0 -100.168 9.83203 -144.501 29.499s-83.333 47 -117 82s-60 77 -79 126s-28.5 102.833 -28.5 161.5v533h184v-533c0 -31.333 5.83301 -60.666 17.5 -87.999s27.334 -51.166 47.001 -71.499s42.5 -36.333 68.5 -48s53.333 -17.5 82 -17.5
c30 0 58.667 5.83301 86 17.5s51.333 27.667 72 48s37.167 44.166 49.5 71.499s18.5 56.666 18.5 87.999v533h184v-922h-133l-41 92c-18 -19.333 -39.333 -36.333 -64 -51c-22 -13.333 -49.5 -25.166 -82.5 -35.499s-72.833 -15.5 -119.5 -15.5z" />
    <glyph glyph-name="v" unicode="v" horiz-adv-x="942" 
d="M922 922l-369 -922h-164l-369 922h195l256 -666l256 666h195z" />
    <glyph glyph-name="w" unicode="w" horiz-adv-x="1351" 
d="M676 604l-195 -604h-153l-308 922h185l205 -635l204 635h123l205 -635l205 635h184l-307 -922h-154z" />
    <glyph glyph-name="x" unicode="x" horiz-adv-x="860" 
d="M205 0h-205l317 471l-297 451h205l205 -308l205 308h205l-297 -451l317 -471h-205l-225 338z" />
    <glyph glyph-name="y" unicode="y" horiz-adv-x="942" 
d="M20 922l195 0.000976562l256 -666l256 666h195l-390 -983c-20.667 -52 -40.834 -95.5 -60.501 -130.5s-41 -63.333 -64 -85s-48.5 -37.334 -76.5 -47.001s-59.667 -14.5 -95 -14.5c-8 0 -15.5 0.333008 -22.5 1s-13.833 1.66699 -20.5 3s-13 3.33301 -19 6v154
c52 0 91.333 10.833 118 32.5s45.334 48.5 56.001 80.5l31 92z" />
    <glyph glyph-name="z" unicode="z" horiz-adv-x="808" 
d="M502 748h-441v174h666v-164l-440 -584h461v-174h-687v164z" />
    <glyph glyph-name="braceleft" unicode="{" horiz-adv-x="634" 
d="M92 532c31.333 0 56.333 9.33203 75 27.999s28 43.667 28 75v389c0 177.333 94 266 282 266h117v-164h-123c-31.333 0 -56.166 -9.16699 -74.499 -27.5s-27.5 -43.166 -27.5 -74.499v-389c0 -35.333 -5.83301 -64.666 -17.5 -87.999s-25.167 -41 -40.5 -53
c-16.667 -15.333 -35 -26.333 -55 -33c20.667 -6.66699 39 -17.667 55 -33c15.333 -13.333 28.833 -31.333 40.5 -54s17.5 -51.667 17.5 -87v-389c0 -31.333 9.16699 -56.333 27.5 -75s43.166 -28 74.499 -28h123v-164h-117c-188.667 0 -282.667 89 -282 267v389
c0 31.333 -9.33301 56.166 -28 74.499s-43.667 27.5 -75 27.5v143z" />
    <glyph glyph-name="bar" unicode="|" horiz-adv-x="665" 
d="M420 -328h-174v1618h174v-1618z" />
    <glyph glyph-name="braceright" unicode="}" horiz-adv-x="634" 
d="M543 389c-31.333 0 -56.333 -9.16602 -75 -27.499s-28 -43.166 -28 -74.499v-389c0 -177.333 -94 -266.333 -282 -267h-117v164h123c31.333 0 56.166 9.16699 74.499 27.5s27.5 43.5 27.5 75.5v389c0 35.333 5.5 64.333 16.5 87s24.167 40.667 39.5 54
c16.667 15.333 35.667 26.333 57 33c-22 6.66699 -41 17.667 -57 33c-15.333 12 -28.5 29.667 -39.5 53s-16.5 52.666 -16.5 87.999v389c0 31.333 -9.16699 56.166 -27.5 74.499s-43.166 27.5 -74.499 27.5h-123v164h117c188.667 0 282.667 -88.667 282 -266v-389
c0 -31.333 9.33301 -56.333 28 -75s43.667 -28 75 -28v-143z" />
    <glyph glyph-name="asciitilde" unicode="~" horiz-adv-x="921" 
d="M666 399c-32.667 0 -68.166 6.5 -106.499 19.5s-76.333 27 -114 42l-105.5 42c-32.667 13 -60.667 19.5 -84 19.5c-31.333 0 -56.166 -9.83301 -74.499 -29.5s-27.5 -47.167 -27.5 -82.5h-154c0 92.667 23.167 163.5 69.5 212.5s108.5 73.5 186.5 73.5
c32.667 0 68.167 -6.5 106.5 -19.5s76.166 -27 113.499 -42l105.5 -42c33 -13 61.167 -19.5 84.5 -19.5c31.333 0 56.166 10 74.499 30s27.5 47.667 27.5 83h154c0 -92.667 -23.167 -163.667 -69.5 -213s-108.5 -74 -186.5 -74z" />
    <glyph glyph-name="uni00A0" unicode="&#xa0;" horiz-adv-x="450" 
 />
    <glyph glyph-name="exclamdown" unicode="&#xa1;" horiz-adv-x="512" 
d="M369 -328h-226l31 922h164zM369 819c0 -31.333 -11 -57.833 -33 -79.5s-48.667 -32.5 -80 -32.5s-58 10.833 -80 32.5s-33 48.167 -33 79.5s11 58 33 80s48.667 33 80 33s58 -11 80 -33s33 -48.667 33 -80z" />
    <glyph glyph-name="cent" unicode="&#xa2;" horiz-adv-x="983" 
d="M256 461c0 -44 7.16699 -84 21.5 -120s33.166 -67.333 56.499 -94s50.666 -47.167 81.999 -61.5s63.333 -21.5 96 -21.5c57.333 0 103.833 16 139.5 48s60.834 74 75.501 126h195c-10.667 -46.667 -26.334 -89.334 -47.001 -128.001s-45.334 -72.834 -74.001 -102.501
s-60.834 -53.667 -96.501 -72s-72.5 -30.166 -110.5 -35.499v-184h-174v184c-44 8 -86.833 24.333 -128.5 49s-78.834 56.834 -111.501 96.501s-58.834 86.167 -78.501 139.5s-29.5 112 -29.5 176s9.83301 122.667 29.5 176s45.834 99.833 78.501 139.5
s69.834 71.667 111.501 96s84.5 40.833 128.5 49.5v184h174v-184c38 -5.33301 74.833 -17.333 110.5 -36s67.834 -42.667 96.501 -72s53.167 -63.5 73.5 -102.5s36.166 -81.5 47.499 -127.5h-195c-15.333 52 -40.666 94 -75.999 126s-81.666 48 -138.999 48
c-32.667 0 -64.667 -7.16699 -96 -21.5s-58.666 -34.833 -81.999 -61.5s-42.166 -58 -56.499 -94s-21.5 -76 -21.5 -120z" />
    <glyph glyph-name="sterling" unicode="&#xa3;" horiz-adv-x="1073" 
d="M410 307c0 -19.333 -2.83301 -36.001 -8.5 -50.001s-11.834 -26.667 -18.501 -38c-6.66699 -13.333 -15 -25 -25 -35h656v-184h-922v184c35.333 0 64.666 11.667 87.999 35s35 52.666 35 87.999v185h-113v184h113v237c0 53.333 10.167 103.666 30.5 150.999
s49 88.333 86 123s80.5 62.167 130.5 82.5s104.333 30.5 163 30.5c56 0 108.5 -10.167 157.5 -30.5s91.667 -47.166 128 -80.499s65 -72.166 86 -116.499s32.833 -91.166 35.5 -140.499h-192c-5.33301 57.333 -27.166 104 -65.499 140s-88.166 54 -149.499 54
c-31.333 0 -60 -5.33301 -86 -16s-48.667 -25.667 -68 -45s-34.333 -42 -45 -68s-16 -54 -16 -84v-237h348v-184h-348v-185z" />
    <glyph glyph-name="currency" unicode="&#xa4;" horiz-adv-x="1146" 
d="M666 686c30 0 58.333 5.83105 85 17.498s49.5 27.334 68.5 47.001s34 42.5 45 68.5s16.5 53.333 16.5 82s-5.5 56 -16.5 82s-26 48.833 -45 68.5s-41.833 35.334 -68.5 47.001s-55 17.5 -85 17.5h-267v-430h267zM1075 900.998c0 -52 -10.167 -101.168 -30.5 -147.501
s-49 -87.666 -86 -123.999s-80.333 -65 -130 -86s-103.834 -31.5 -162.501 -31.5h-267v-133h389v-174h-389v-205h-194v205h-154v174h154v133h-154v174h154v604h461c58.667 0 112.834 -10.5 162.501 -31.5s93 -49.667 130 -86s65.667 -78 86 -125s30.5 -95.833 30.5 -146.5z
" />
    <glyph glyph-name="yen" unicode="&#xa5;" horiz-adv-x="1075" 
d="M702 645h209v-164h-276v-112h274v-164h-274v-205h-195v205h-276v164h276v112h-276v164h209l-342 645h205l301 -583l303 583h204z" />
    <glyph glyph-name="brokenbar" unicode="&#xa6;" horiz-adv-x="665" 
d="M420 1290v-635h-174v635h174zM246 307h174v-635h-174v635z" />
    <glyph glyph-name="section" unicode="&#xa7;" horiz-adv-x="972" 
d="M891 502c0 -46.667 -9.50195 -85.9971 -28.502 -117.997s-40.167 -58.333 -63.5 -79c-27.333 -24.667 -58 -44.334 -92 -59.001c23.333 -15.333 43.666 -33 60.999 -53c15.333 -19.333 29.333 -42.333 42 -69s19 -57.667 19 -93s-7.83301 -69.833 -23.5 -103.5
s-38.5 -63.5 -68.5 -89.5s-65.833 -46.5 -107.5 -61.5s-87.5 -22.5 -137.5 -22.5c-52 0 -98.833 7.83301 -140.5 23.5s-77.5 37.167 -107.5 64.5s-53.667 59.833 -71 97.5s-27.333 78.167 -30 121.5h174c5.33301 -40.667 22.833 -74.667 52.5 -102s70.5 -41 122.5 -41
c57.333 0 98.833 11 124.5 33s38.5 48.667 38.5 80c0 30 -14 54.833 -42 74.5s-63.5 38 -106.5 55l-138 53.5c-49 18.667 -95 41.667 -138 69s-78.5 61.833 -106.5 103.5s-42 93.834 -42 156.501c0 46.667 9.83301 87 29.5 121s41.834 62.667 66.501 86
c28.667 26 61.334 49 98.001 69c-22 10.667 -41 25.667 -57 45c-15.333 16.667 -28.333 38 -39 64s-16 57.333 -16 94s7.83301 71.834 23.5 105.501s37.5 63 65.5 88s61.5 45.333 100.5 61s81.5 23.5 127.5 23.5c98 0 175.833 -27.167 233.5 -81.5
s89.167 -122.5 94.5 -204.5h-174c-5.33301 35.333 -20.666 64.666 -45.999 87.999s-61.333 35 -108 35s-82.167 -11 -106.5 -33s-36.5 -48.667 -36.5 -80c0 -32.667 13.667 -59.334 41 -80.001s61.5 -39.834 102.5 -57.501s85.333 -35.667 133 -54s92 -41.5 133 -69.5
s75.167 -62.833 102.5 -104.5s41 -93.834 41 -156.501zM706.998 502.003c0 46.667 -18.499 86.334 -55.499 119.001s-103.833 64.667 -200.5 96c-35.333 -9.33301 -66.333 -21.666 -93 -36.999c-23.333 -13.333 -44.5 -31.333 -63.5 -54s-28.5 -50.334 -28.5 -83.001
c0 -46.667 18.5 -86.667 55.5 -120s103.833 -65 200.5 -95c34 9.33301 64.667 21.666 92 36.999c23.333 13.333 44.666 31 63.999 53s29 50 29 84z" />
    <glyph glyph-name="dieresis" unicode="&#xa8;" horiz-adv-x="696" 
d="M287 1178c0 -31.333 -11 -58 -33 -80s-48.667 -33 -80 -33s-58 10.833 -80 32.5s-33 48.5 -33 80.5c0 31.333 11 57.833 33 79.5s48.667 32.5 80 32.5s58 -10.833 80 -32.5s33 -48.167 33 -79.5zM635 1178c0 -31.333 -11 -58 -33 -80s-48.667 -33 -80 -33
s-57.833 10.833 -79.5 32.5s-32.5 48.5 -32.5 80.5c0 31.333 10.833 57.833 32.5 79.5s48.167 32.5 79.5 32.5s58 -10.833 80 -32.5s33 -48.167 33 -79.5z" />
    <glyph glyph-name="copyright" unicode="&#xa9;" horiz-adv-x="1433" 
d="M1208 645c0 74 -12.998 143 -38.998 207s-61.5 119.167 -106.5 165.5s-97.167 82.833 -156.5 109.5s-122.333 40 -189 40s-129.834 -13.333 -189.501 -40s-112 -63.167 -157 -109.5s-80.5 -101.5 -106.5 -165.5s-39 -133 -39 -207s13 -143 39 -207
s61.5 -119.167 106.5 -165.5s97.167 -82.833 156.5 -109.5s122.666 -40 189.999 -40c66.667 0 129.667 13.333 189 40s111.5 63.167 156.5 109.5s80.5 101.5 106.5 165.5s39 133 39 207zM1352 645c0 -92.667 -16.833 -178.667 -50.5 -258s-79.167 -148.666 -136.5 -207.999
s-124.5 -105.666 -201.5 -138.999s-159.167 -50 -246.5 -50s-169.666 16.667 -246.999 50s-144.666 79.666 -201.999 138.999s-102.666 128.666 -135.999 207.999s-50 165.333 -50 258c0 91.333 16.667 177 50 257s78.666 149.667 135.999 209
s124.666 105.666 201.999 138.999s159.666 50 246.999 50s169.5 -16.667 246.5 -50s144.167 -79.666 201.5 -138.999s102.833 -129 136.5 -209s50.5 -165.667 50.5 -257zM532.002 645c0 -32.667 5.16602 -62.9971 15.499 -90.9971s24.333 -51.833 42 -71.5
s37.5 -35 59.5 -46s44.667 -16.5 68 -16.5c46.667 0 82.834 11.5 108.501 34.5s44.167 52.5 55.5 88.5h143c-5.33301 -32.667 -16.166 -64.167 -32.499 -94.5s-37.166 -56.666 -62.499 -78.999s-55.166 -40 -89.499 -53s-71.833 -19.5 -112.5 -19.5
c-44 0 -85.667 8.83301 -125 26.5s-74 42.167 -104 73.5s-54 68.166 -72 110.499s-27 88.166 -27 137.499s9 95.166 27 137.499s42 79.166 72 110.499s64.833 55.833 104.5 73.5s81.167 26.5 124.5 26.5c40.667 0 78.167 -6.5 112.5 -19.5s64.166 -30.667 89.499 -53
s46.166 -48.5 62.499 -78.5s27.166 -61.333 32.499 -94h-143c-10.667 35.333 -29.167 64.5 -55.5 87.5s-62.5 34.5 -108.5 34.5c-23.333 0 -46 -5.33301 -68 -16s-41.833 -26 -59.5 -46s-31.667 -44 -42 -72s-15.5 -58.333 -15.5 -91z" />
    <glyph glyph-name="ordfeminine" unicode="&#xaa;" horiz-adv-x="583" 
d="M297 1300c30 0 58.3311 -5.33691 84.998 -16.0039s49.5 -25.334 68.5 -44.001s34 -40.167 45 -64.5s16.5 -50.833 16.5 -79.5v-338h-92l-21 51c-10.667 -12 -23.667 -22.333 -39 -31c-13.333 -8 -29.166 -15 -47.499 -21s-40.5 -9 -66.5 -9
c-57.333 0 -102.5 15.333 -135.5 46s-49.5 66.334 -49.5 107.001c0 28.667 5.16699 54.334 15.5 77.001s27.833 41.834 52.5 57.501s58.167 27.834 100.5 36.501s95.5 13 159.5 13v11c0 26 -9.16699 47.833 -27.5 65.5s-43.166 26.5 -74.499 26.5
c-26 0 -46.5 -6.5 -61.5 -19.5s-25.167 -27.167 -30.5 -42.5h-113c0 46.667 19.167 87.334 57.5 122.001s90.833 52 157.5 52zM388.998 992.996c-44 0 -79.833 -2.33008 -107.5 -6.99707s-49.334 -10.834 -65.001 -18.501s-26.667 -16.167 -33 -25.5s-9.5 -19 -9.5 -29
c0 -16.667 7.83301 -31.334 23.5 -44.001s40.5 -19 74.5 -19c32.667 0 60.334 11.667 83.001 35s34 52.666 34 87.999v20z" />
    <glyph glyph-name="guillemotleft" unicode="&#xab;" horiz-adv-x="911" 
d="M471 133h-184l-226 328l226 327h184l-225 -327zM850 133h-184l-226 328l226 327h184l-225 -327z" />
    <glyph glyph-name="logicalnot" unicode="&#xac;" horiz-adv-x="952" 
d="M911 788v-430h-174v267h-696v163h870z" />
    <glyph glyph-name="uni00AD" unicode="&#xad;" horiz-adv-x="716" 
d="M655 440h-594v164h594v-164z" />
    <glyph glyph-name="registered" unicode="&#xae;" horiz-adv-x="1433" 
d="M973 768c0 -39.333 -8.16895 -71.332 -24.502 -95.999s-34.166 -44.667 -53.499 -60c-23.333 -16.667 -48.666 -29.667 -75.999 -39l185 -266h-154l-164 246h-61v-246h-133v676h256c30 0 58.5 -5.83301 85.5 -17.5s50.833 -27.334 71.5 -47.001s37.167 -42.5 49.5 -68.5
s18.5 -53.333 18.5 -82zM747.998 676.001c26 0 47.833 8.83301 65.5 26.5s26.5 39.5 26.5 65.5s-9 47.833 -27 65.5s-39.667 26.5 -65 26.5h-123v-184h123zM1208 645.001c0 74 -12.998 143 -38.998 207s-61.5 119.167 -106.5 165.5s-97.167 82.833 -156.5 109.5
s-122.333 40 -189 40s-129.834 -13.333 -189.501 -40s-112 -63.167 -157 -109.5s-80.5 -101.5 -106.5 -165.5s-39 -133 -39 -207s13 -143 39 -207s61.5 -119.167 106.5 -165.5s97.167 -82.833 156.5 -109.5s122.666 -40 189.999 -40c66.667 0 129.667 13.333 189 40
s111.5 63.167 156.5 109.5s80.5 101.5 106.5 165.5s39 133 39 207zM1352 645.001c0 -92.667 -16.833 -178.667 -50.5 -258s-79.167 -148.666 -136.5 -207.999s-124.5 -105.666 -201.5 -138.999s-159.167 -50 -246.5 -50s-169.666 16.667 -246.999 50
s-144.666 79.666 -201.999 138.999s-102.666 128.666 -135.999 207.999s-50 165.333 -50 258c0 91.333 16.667 177 50 257s78.666 149.667 135.999 209s124.666 105.666 201.999 138.999s159.666 50 246.999 50s169.5 -16.667 246.5 -50s144.167 -79.666 201.5 -138.999
s102.833 -129 136.5 -209s50.5 -165.667 50.5 -257z" />
    <glyph glyph-name="macron" unicode="&#xaf;" horiz-adv-x="634" 
d="M573 1096h-512v133h512v-133z" />
    <glyph glyph-name="degree" unicode="&#xb0;" horiz-adv-x="634" 
d="M195 1044c0 -18 3.33398 -34.998 10.001 -50.998s15.834 -30.167 27.501 -42.5s25 -22 40 -29s29.833 -10.5 44.5 -10.5c15.333 0 30.5 3.5 45.5 10.5s28.333 16.667 40 29s20.834 26.666 27.501 42.999s10 33.166 10 50.499c0 18 -3.33301 35.167 -10 51.5
s-15.834 30.666 -27.501 42.999s-25 22 -40 29s-30.167 10.5 -45.5 10.5s-30.333 -3.5 -45 -10.5s-27.834 -16.667 -39.501 -29s-20.834 -26.666 -27.501 -42.999s-10 -33.5 -10 -51.5zM573.001 1044c0 -35.333 -6.33398 -68.666 -19.001 -99.999
s-30.667 -58.666 -54 -81.999s-50.666 -41.5 -81.999 -54.5s-65 -19.5 -101 -19.5c-35.333 0 -68.666 6.5 -99.999 19.5s-58.666 31.167 -81.999 54.5s-41.5 50.666 -54.5 81.999s-19.5 64.666 -19.5 99.999s6.5 68.833 19.5 100.5s31.167 59.167 54.5 82.5
s50.666 41.333 81.999 54s64.666 19 99.999 19s68.833 -6.33301 100.5 -19s59.167 -30.667 82.5 -54s41.333 -50.833 54 -82.5s19 -65.167 19 -100.5z" />
    <glyph glyph-name="plusminus" unicode="&#xb1;" horiz-adv-x="931" 
d="M379 1024h174v-328h317v-164h-317v-317h317v-174h-809v174h318v317h-318v164h318v328z" />
    <glyph glyph-name="uni00B2" unicode="&#xb2;" horiz-adv-x="532" 
d="M236 983h235v-113h-410v93l226 235c15.333 15.333 29.333 31.166 42 47.499s19 34.5 19 54.5c0 20.667 -7.16699 37.834 -21.5 51.501s-34.5 20.5 -60.5 20.5c-61.333 0 -92 -30.667 -92 -92h-113c0 61.333 18.833 110.833 56.5 148.5s87.167 56.5 148.5 56.5
s110.833 -17.833 148.5 -53.5s56.5 -79.5 56.5 -131.5c0 -35.333 -7.5 -63.5 -22.5 -84.5s-27.833 -37.167 -38.5 -48.5z" />
    <glyph glyph-name="uni00B3" unicode="&#xb3;" horiz-adv-x="552" 
d="M410 1188c15.333 -8 29.0029 -18.998 41.0029 -32.998c10.667 -10.667 20.167 -25.334 28.5 -44.001s12.5 -41 12.5 -67c0 -52 -19.167 -95.667 -57.5 -131s-91.166 -53 -158.499 -53c-66.667 0 -119.167 18.833 -157.5 56.5s-57.5 87.167 -57.5 148.5h113
c0 -26 8.16699 -47.833 24.5 -65.5s42.166 -26.5 77.499 -26.5c31.333 0 54.666 8.5 69.999 25.5s23 35.833 23 56.5s-7.5 39.5 -22.5 56.5s-38.5 25.5 -70.5 25.5h-61v102h51c26 0 46.167 6.5 60.5 19.5s21.5 26.833 21.5 41.5c0 20.667 -7.16699 37.834 -21.5 51.501
s-34.5 20.5 -60.5 20.5c-54.667 0 -82 -27.333 -82 -82h-112c0 57.333 18.667 104.166 56 140.499s86.666 54.5 147.999 54.5c57.333 0 104.166 -17.5 140.499 -52.5s54.5 -75.5 54.5 -121.5c0 -23.333 -3.33301 -42.833 -10 -58.5s-13.667 -28.5 -21 -38.5
c-9.33301 -10.667 -19.333 -19.334 -30 -26.001z" />
    <glyph glyph-name="acute" unicode="&#xb4;" horiz-adv-x="419" 
d="M184 1290h174l-174 -246h-123z" />
    <glyph glyph-name="mu" unicode="&#xb5;" horiz-adv-x="1054" 
d="M932 922l-0.000976562 -922.001h-133l-41 92c-16.667 -19.333 -36.667 -36.333 -60 -51c-19.333 -13.333 -42.833 -25.166 -70.5 -35.499s-59.5 -15.5 -95.5 -15.5c-35.333 0 -67 5 -95 15s-51.333 22 -70 36c-23.333 15.333 -43.333 32.333 -60 51v-420h-184v1250h184
v-533c0 -31.333 5.83301 -60.666 17.5 -87.999s27.334 -51.166 47.001 -71.499s42.5 -36.333 68.5 -48s53.333 -17.5 82 -17.5c30 0 58.667 5.83301 86 17.5s51.333 27.667 72 48s37.167 44.166 49.5 71.499s18.5 56.666 18.5 87.999v533h184z" />
    <glyph glyph-name="paragraph" unicode="&#xb6;" horiz-adv-x="1044" 
d="M901 1290v-1474h-164v1310h-184v-1310h-164v860c-40.667 0 -79.5 8.16699 -116.5 24.5s-69.833 38.833 -98.5 67.5s-51.167 61.5 -67.5 98.5s-24.5 75.833 -24.5 116.5s8.16699 79.5 24.5 116.5s38.833 69.833 67.5 98.5s61.5 51.167 98.5 67.5s75.833 24.5 116.5 24.5
h512z" />
    <glyph glyph-name="periodcentered" unicode="&#xb7;" horiz-adv-x="450" 
d="M338 645c0 -31.333 -11 -58 -33 -80s-48.667 -33 -80 -33s-57.833 11 -79.5 33s-32.5 48.667 -32.5 80s10.833 58 32.5 80s48.167 33 79.5 33s58 -11 80 -33s33 -48.667 33 -80z" />
    <glyph glyph-name="cedilla" unicode="&#xb8;" horiz-adv-x="409" 
d="M225 -82c35.333 -5.33301 64.666 -20.001 87.999 -44.001s35 -53.667 35 -89c0 -40.667 -15.667 -74.667 -47 -102s-80.333 -41 -147 -41c-13.333 0 -25.666 0.333008 -36.999 1s-21 1.66699 -29 3c-9.33301 1.33301 -18.333 3.33301 -27 6v92
c6.66699 -2.66699 15 -4.66699 25 -6c6.66699 -1.33301 15.167 -2.33301 25.5 -3s20.833 -1 31.5 -1c31.333 0 54.666 6.5 69.999 19.5s23 26.833 23 41.5c0 15.333 -7.66699 29.5 -23 42.5s-38.666 19.5 -69.999 19.5c-8 0 -15 -0.666992 -21 -2s-11.333 -3 -16 -5
c-5.33301 -1.33301 -10 -2.66602 -14 -3.99902l64 154h110z" />
    <glyph glyph-name="uni00B9" unicode="&#xb9;" horiz-adv-x="430" 
d="M205 1475h92v-605h-123v451l-72 -41l-61 92z" />
    <glyph glyph-name="ordmasculine" unicode="&#xba;" horiz-adv-x="655" 
d="M471 1024c0 20.667 -4.16895 40.167 -12.502 58.5s-19.166 34.666 -32.499 48.999s-28.666 25.666 -45.999 33.999s-34.666 12.5 -51.999 12.5c-18 0 -35.5 -4.16699 -52.5 -12.5s-32.333 -19.666 -46 -33.999s-24.667 -30.666 -33 -48.999s-12.5 -37.833 -12.5 -58.5
s4.16699 -40.167 12.5 -58.5s19.333 -34.666 33 -48.999s29 -25.666 46 -33.999s34.5 -12.5 52.5 -12.5s35.5 4.16699 52.5 12.5s32.167 19.666 45.5 33.999s24.166 30.666 32.499 48.999s12.5 37.833 12.5 58.5zM60.998 1024c0 38 7.16602 73.833 21.499 107.5
s33.833 63 58.5 88s53 44.667 85 59s66 21.5 102 21.5c35.333 0 69 -7.16699 101 -21.5s60.333 -34 85 -59s44.167 -54.333 58.5 -88s21.5 -69.5 21.5 -107.5s-7.16699 -73.833 -21.5 -107.5s-33.833 -63 -58.5 -88s-53 -44.667 -85 -59s-65.667 -21.5 -101 -21.5
s-69.166 7.16699 -101.499 21.5s-60.833 34 -85.5 59s-44.167 54.333 -58.5 88s-21.5 69.5 -21.5 107.5z" />
    <glyph glyph-name="guillemotright" unicode="&#xbb;" horiz-adv-x="911" 
d="M666 461l-226 327h185l225 -327l-225 -328h-185zM287 461l-226 327h185l225 -327l-225 -328h-185z" />
    <glyph glyph-name="onequarter" unicode="&#xbc;" horiz-adv-x="1146" 
d="M205 1290h92v-604h-123v451l-72 -41l-61 92zM92 0l789 1290h143l-788 -1290h-144zM1014 225h71v-112h-71v-113h-123v113h-256v92l246 399h133v-379zM891 225v195l-123 -195h123z" />
    <glyph glyph-name="onehalf" unicode="&#xbd;" horiz-adv-x="1187" 
d="M205 1290h92v-604h-123v451l-72 -41l-61 92zM891 113l235.001 -0.000976562v-113h-409v92l225 236c15.333 15.333 29.5 31 42.5 47s19.5 34.333 19.5 55s-7.16699 37.834 -21.5 51.501s-34.5 20.5 -60.5 20.5c-61.333 0 -92.333 -30.667 -93 -92h-112
c0 61.333 18.667 110.666 56 147.999s87 56 149 56c61.333 0 110.666 -17.667 147.999 -53s56 -79 56 -131c0 -35.333 -7.5 -63.666 -22.5 -84.999s-27.833 -37.333 -38.5 -48zM92.001 -0.000976562l789 1290h143l-788 -1290h-144z" />
    <glyph glyph-name="threequarters" unicode="&#xbe;" horiz-adv-x="1269" 
d="M215 0l789 1290h143l-789 -1290h-143zM1137 225h71v-112h-71v-113h-123v113h-256v92l246 399h133v-379zM1014 225v195l-123 -195h123zM410 1004c15.333 -8 29.0029 -18.998 41.0029 -32.998c10.667 -10.667 20.167 -25.334 28.5 -44.001s12.5 -41 12.5 -67
c0 -52 -19.167 -95.667 -57.5 -131s-91.166 -53 -158.499 -53c-66.667 0 -119.167 18.667 -157.5 56s-57.5 87 -57.5 149h113c0 -26 8.16699 -48 24.5 -66s42.166 -27 77.499 -27c31.333 0 54.666 8.66699 69.999 26s23 36 23 56c0 20.667 -7.5 39.5 -22.5 56.5
s-38.5 25.5 -70.5 25.5h-61v103h51c26 0 46.167 6.5 60.5 19.5s21.5 26.833 21.5 41.5c0 20.667 -7.16699 37.834 -21.5 51.501s-34.5 20.5 -60.5 20.5c-54.667 0 -82 -27.333 -82 -82h-112c0 57.333 18.667 104 56 140s86.666 54 147.999 54
c57.333 0 104.166 -17.333 140.499 -52s54.5 -75.334 54.5 -122.001c0 -23.333 -3.33301 -42.833 -10 -58.5s-13.667 -28.167 -21 -37.5c-9.33301 -10.667 -19.333 -19.334 -30 -26.001z" />
    <glyph glyph-name="questiondown" unicode="&#xbf;" horiz-adv-x="870" 
d="M72 20c0 48 7.1709 88.333 21.5039 121s32.666 61.334 54.999 86.001s46.166 48 71.499 70s49.333 45.167 72 69.5s41.167 53 55.5 86s21.5 73.167 21.5 120.5v21h184v-21c0 -61.333 -7.16699 -112.833 -21.5 -154.5s-32.833 -77.167 -55.5 -106.5
s-46.5 -54.833 -71.5 -76.5l-71.5 -63.5c-22.667 -20.667 -41.167 -42.5 -55.5 -65.5s-21.5 -51.833 -21.5 -86.5c0 -46.667 18.167 -87.334 54.5 -122.001s83.166 -52 140.499 -52s104 19.833 140 59.5s54 98.5 54 176.5v20h184v-20c0 -64 -9.5 -122 -28.5 -174
s-45.5 -96.167 -79.5 -132.5s-74.333 -64.333 -121 -84s-96.334 -29.5 -149.001 -29.5c-53.333 0 -103.333 9.5 -150 28.5s-87 45 -121 78s-60.5 70.833 -79.5 113.5s-28.5 88.667 -28.5 138zM348.004 819c0 31.333 11 58 33 80s48.667 33 80 33s57.833 -11 79.5 -33
s32.5 -48.667 32.5 -80s-10.833 -57.833 -32.5 -79.5s-48.167 -32.5 -79.5 -32.5s-58 10.833 -80 32.5s-33 48.167 -33 79.5z" />
    <glyph glyph-name="Agrave" unicode="&#xc0;" horiz-adv-x="1146" 
d="M614 1444h-122l-175 246h175zM205 0h-205l492 1290h163l492 -1290h-205l-113 297h-512zM758 481l-185 512l-184 -512h369z" />
    <glyph glyph-name="Aacute" unicode="&#xc1;" horiz-adv-x="1146" 
d="M645 1690h174l-174 -246h-123zM205 0h-205l492 1290h163l492 -1290h-205l-113 297h-512zM758 481l-185 512l-184 -512h369z" />
    <glyph glyph-name="Acircumflex" unicode="&#xc2;" horiz-adv-x="1146" 
d="M840 1434h-164l-103 143l-102 -143h-164l185 245h163zM205 0h-205l492 1290h163l492 -1290h-205l-113 297h-512zM758 481l-185 512l-184 -512h369z" />
    <glyph glyph-name="Atilde" unicode="&#xc3;" horiz-adv-x="1146" 
d="M686 1403c-31.333 0 -57.334 6.33105 -78.001 18.998s-38.667 26.667 -54 42l-45 42c-14.667 12.667 -30.667 19.334 -48 20.001c-20.667 0 -39.667 -10 -57 -30s-25.666 -47.667 -24.999 -83h-103c0 82 18.333 143.333 55 184c36 40.667 80 61.334 132 62.001
c30 0 55.333 -6.66699 76 -20c20.667 -12.667 39 -26.667 55 -42l45 -42c13.333 -12.667 29.666 -19 48.999 -19c20.667 0 39.334 10 56.001 30c17.333 20 26 47.667 26 83h102c0 -82 -18 -143.667 -54 -185c-36 -40.667 -80 -61 -132 -61zM204.999 -0.00195312h-205
l492 1290h163l492 -1290h-205l-113 297h-512zM757.999 480.998l-185 512l-184 -512h369z" />
    <glyph glyph-name="Adieresis" unicode="&#xc4;" horiz-adv-x="1146" 
d="M512 1546c0 -31.333 -11 -58 -33 -80s-48.667 -32.667 -80 -32c-31.333 0 -58 10.667 -80 32c-22 22 -32.667 48.667 -32 80c0 31.333 10.667 58 32 80c22 22 48.667 33 80 33s58 -11 80 -33s33 -48.667 33 -80zM860 1546c0 -31.333 -10.999 -58 -32.999 -80
s-48.333 -32.667 -79 -32c-31.333 0 -58 10.667 -80 32c-22 22 -33 48.667 -33 80s11 58 33 80s48.667 33 80 33s57.666 -11 78.999 -33c22 -22 33 -48.667 33 -80zM205.001 0h-205l492 1290h163l492 -1290h-205l-113 297h-512zM758.001 481l-185 512l-184 -512h369z" />
    <glyph glyph-name="Aring" unicode="&#xc5;" horiz-adv-x="1146" 
d="M645 1567c0 20.667 -6.66797 39.332 -20.001 55.999c-13.333 17.333 -30.666 26 -51.999 26c-20.667 0 -37.667 -8.66699 -51 -26s-20 -36 -20 -56c0 -20.667 6.66699 -39.667 20 -57s30.333 -25.666 51 -24.999c20.667 0 38 8.33301 52 25
c13.333 17.333 20 36.333 20 57zM747.999 1567c0 -46.667 -16.333 -87.334 -49 -122.001c-32 -34.667 -74 -52 -126 -52s-94 17.333 -126 52s-48 75.334 -48 122.001s16 87.334 48 122.001s74 52 126 52s94 -17.333 126 -52c32.667 -34.667 49 -75.334 49 -122.001z
M204.999 -0.00195312h-205l492 1290h163l492 -1290h-205l-113 297h-512zM757.999 480.998l-185 512l-184 -512h369z" />
    <glyph glyph-name="AE" unicode="&#xc6;" horiz-adv-x="1710" 
d="M164 0h-225l747 1290h901v-184h-592v-348h541v-185h-541v-389h613v-184h-809v307h-461zM440 492h359v614h-11z" />
    <glyph glyph-name="Ccedilla" unicode="&#xc7;" horiz-adv-x="1310" 
d="M266 645c0 -69.333 11.999 -133.33 35.999 -191.997s55.5 -109.5 94.5 -152.5s83.667 -76.5 134 -100.5s102.166 -36 155.499 -36c49.333 0 93.833 7.16699 133.5 21.5s74.5 34.166 104.5 59.499s54.833 54.666 74.5 87.999s34.834 69 45.501 107h205
c-15.333 -58.667 -39.333 -114.5 -72 -167.5s-71.5 -100 -116.5 -141s-95.833 -74.167 -152.5 -99.5s-117 -39.333 -181 -42l-31 -72c35.333 -5.33301 64.666 -20 87.999 -44s35 -53.667 35 -89c0 -40.667 -15.667 -74.667 -47 -102s-80.333 -41 -147 -41
c-13.333 0 -25.666 0.333008 -36.999 1s-21 1.66699 -29 3c-9.33301 1.33301 -18.333 3.33301 -27 6v92c6.66699 -2.66699 15 -4.66699 25 -6c6.66699 -1.33301 15.167 -2.33301 25.5 -3s20.833 -1 31.5 -1c31.333 0 54.666 6.5 69.999 19.5s23 26.833 23 41.5
c0 15.333 -7.5 29.5 -22.5 42.5s-38.5 19.5 -70.5 19.5c-8 0 -15 -0.666992 -21 -2s-11 -3 -15 -5c-5.33301 -1.33301 -10.333 -2.66602 -15 -3.99902l62 144c-72.667 8 -142.167 29.833 -208.5 65.5s-125 82.167 -176 139.5s-91.833 124.166 -122.5 200.499
s-46 159.5 -46 249.5c0 91.333 16.667 177 50 257s78 149.667 134 209s121.167 105.666 195.5 138.999s152.5 50 234.5 50c70.667 0 136.834 -11.833 198.501 -35.5s116 -56 163 -97s87 -88.833 120 -143.5s56.833 -112.667 71.5 -174h-205c-10.667 38 -26 73.833 -46 107.5
s-44.667 63 -74 88s-63 44.667 -101 59s-80.333 21.5 -127 21.5c-53.333 0 -105.166 -11.833 -155.499 -35.5s-95 -57 -134 -100s-70.5 -94 -94.5 -153s-36 -123.167 -36 -192.5z" />
    <glyph glyph-name="Egrave" unicode="&#xc8;" horiz-adv-x="1126" 
d="M676 1444h-123l-174 246h174zM1024 184v-184h-870v1290h850v-184h-656v-348h604v-185h-604v-389h676z" />
    <glyph glyph-name="Eacute" unicode="&#xc9;" horiz-adv-x="1126" 
d="M635 1690h174l-174 -246h-123zM1024 184v-184h-870v1290h850v-184h-656v-348h604v-185h-604v-389h676z" />
    <glyph glyph-name="Ecircumflex" unicode="&#xca;" horiz-adv-x="1126" 
d="M850 1434h-164l-102 143l-103 -143h-164l185 245h164zM1024 184v-184h-870v1290h850v-184h-656v-348h604v-185h-604v-389h676z" />
    <glyph glyph-name="Edieresis" unicode="&#xcb;" horiz-adv-x="1126" 
d="M522 1546c0 -31.333 -10.999 -58 -32.999 -80s-48.333 -32.667 -79 -32c-31.333 0 -58 10.667 -80 32c-22 22 -33 48.667 -33 80s11 58 33 80s48.667 33 80 33s57.666 -11 78.999 -33c22 -22 33 -48.667 33 -80zM870.001 1546c0 -31.333 -10.667 -58 -32 -80
c-22 -22 -48.667 -32.667 -80 -32c-31.333 0 -58 10.667 -80 32c-22 22 -33 48.667 -33 80s11 58 33 80s48.667 33 80 33s58 -11 80 -33c21.333 -22 32 -48.667 32 -80zM1024 184v-184h-870v1290h850v-184h-656v-348h604v-185h-604v-389h676z" />
    <glyph glyph-name="Igrave" unicode="&#xcc;" horiz-adv-x="501" 
d="M307 1444h-123l-174 246h174zM348 0h-194v1290h194v-1290z" />
    <glyph glyph-name="Iacute" unicode="&#xcd;" horiz-adv-x="501" 
d="M317 1690h175l-175 -246h-122zM348 0h-194v1290h194v-1290z" />
    <glyph glyph-name="Icircumflex" unicode="&#xce;" horiz-adv-x="501" 
d="M512 1434h-164l-102 143l-103 -143h-163l184 245h164zM348 0h-194v1290h194v-1290z" />
    <glyph glyph-name="Idieresis" unicode="&#xcf;" horiz-adv-x="501" 
d="M195 1546c0 -31.333 -11 -58 -33 -80s-48.667 -32.667 -80 -32c-31.333 0 -58 10.667 -80 32c-22 22 -33 48.667 -33 80s11 58 33 80s48.667 33 80 33s58 -11 80 -33s33 -48.667 33 -80zM543 1546c0 -31.333 -11 -58 -33 -80s-48.667 -32.667 -80 -32
c-31.333 0 -58 10.667 -80 32c-22 22 -33 48.667 -33 80s11 58 33 80s48.667 33 80 33s58 -11 80 -33s33 -48.667 33 -80zM348 0h-194v1290h194v-1290z" />
    <glyph glyph-name="Eth" unicode="&#xd0;" horiz-adv-x="1300" 
d="M215 0v543h-174v184h174v563h389c82 0 160.167 -16.667 234.5 -50s139.5 -79.333 195.5 -138s100.833 -127 134.5 -205s50.5 -162 50.5 -252s-16.833 -174 -50.5 -252s-78.5 -146.333 -134.5 -205s-121.167 -104.667 -195.5 -138s-152.5 -50 -234.5 -50h-389zM604 184
c53.333 0 105.333 11.667 156 35s95.334 55.5 134.001 96.5s70 89.5 94 145.5s36 117.333 36 184s-12 128 -36 184s-55.333 104.5 -94 145.5s-83.334 73.167 -134.001 96.5s-102.667 35 -156 35h-194v-379h245v-184h-245v-359h194z" />
    <glyph glyph-name="Ntilde" unicode="&#xd1;" horiz-adv-x="1290" 
d="M768 1423c-31.333 0 -57.334 6.66797 -78.001 20.001c-20.667 12.667 -38.667 26.667 -54 42l-45 42c-14.667 12.667 -30.667 19 -48 19c-20.667 0 -39.667 -9.66699 -57 -29c-17.333 -20 -25.666 -47.667 -24.999 -83h-103c0 82 18.333 143.333 55 184
c36 40.667 80 61 132 61c30 0 55.333 -6.33301 76 -19s39 -26.667 55 -42l45 -42c13.333 -12.667 29.666 -19.334 48.999 -20.001c20.667 0 39.334 10 56.001 30c17.333 20 26 47.667 26 83h102c0 -82 -18 -143.333 -54 -184c-36 -41.333 -80 -62 -132 -62zM1137 1290v-1290
h-164l-625 922v-922h-194v1290h163l625 -921v921h195z" />
    <glyph glyph-name="Ograve" unicode="&#xd2;" horiz-adv-x="1372" 
d="M748 1444h-123l-174 246h174zM1106 645c0 69.333 -12 133.665 -36 192.998c-24 58.667 -55.333 109.334 -94 152.001c-38.667 43.333 -83.334 77 -134.001 101s-102.667 35.667 -156 35c-53.333 0 -105.333 -11.667 -156 -35c-50.667 -24 -95.334 -57.667 -134.001 -101
s-70 -94 -94 -152c-24 -58.667 -36 -123 -36 -193c0 -69.333 12 -133.333 36 -192s55.333 -109.667 94 -153s83.334 -76.666 134.001 -99.999c50.667 -24 102.667 -36 156 -36s105.333 12 156 36s95.334 57.333 134.001 100c38.667 43.333 70 94.333 94 153
s36 122.667 36 192zM1300 644.999c0 -92.667 -16.667 -178.667 -50 -258s-78 -148.666 -134 -207.999s-121 -105.666 -195 -138.999c-74.667 -33.333 -153 -50 -235 -50s-160 16.667 -234 50c-74.667 33.333 -140 79.666 -196 138.999s-100.667 128.666 -134 207.999
s-50 165.333 -50 258c0 91.333 16.667 177 50 257s78 149.667 134 209s121.333 105.666 196 138.999s152.667 50 234 50c82 0 160.333 -16.667 235 -50s139.667 -79.666 195 -138.999c56 -59.333 100.667 -129 134 -209s50 -165.667 50 -257z" />
    <glyph glyph-name="Oacute" unicode="&#xd3;" horiz-adv-x="1372" 
d="M748 1690h174l-174 -246h-123zM1106 645c0 69.333 -12 133.665 -36 192.998c-24 58.667 -55.333 109.334 -94 152.001c-38.667 43.333 -83.334 77 -134.001 101s-102.667 35.667 -156 35c-53.333 0 -105.333 -11.667 -156 -35c-50.667 -24 -95.334 -57.667 -134.001 -101
s-70 -94 -94 -152c-24 -58.667 -36 -123 -36 -193c0 -69.333 12 -133.333 36 -192s55.333 -109.667 94 -153s83.334 -76.666 134.001 -99.999c50.667 -24 102.667 -36 156 -36s105.333 12 156 36s95.334 57.333 134.001 100c38.667 43.333 70 94.333 94 153
s36 122.667 36 192zM1300 644.999c0 -92.667 -16.667 -178.667 -50 -258s-78 -148.666 -134 -207.999s-121 -105.666 -195 -138.999c-74.667 -33.333 -153 -50 -235 -50s-160 16.667 -234 50c-74.667 33.333 -140 79.666 -196 138.999s-100.667 128.666 -134 207.999
s-50 165.333 -50 258c0 91.333 16.667 177 50 257s78 149.667 134 209s121.333 105.666 196 138.999s152.667 50 234 50c82 0 160.333 -16.667 235 -50s139.667 -79.666 195 -138.999c56 -59.333 100.667 -129 134 -209s50 -165.667 50 -257z" />
    <glyph glyph-name="Ocircumflex" unicode="&#xd4;" horiz-adv-x="1372" 
d="M952 1434h-164l-102 143l-102 -143h-164l184 245h164zM1106 645c0 69.333 -12 133.665 -36 192.998c-24 58.667 -55.333 109.334 -94 152.001c-38.667 43.333 -83.334 77 -134.001 101s-102.667 35.667 -156 35c-53.333 0 -105.333 -11.667 -156 -35
c-50.667 -24 -95.334 -57.667 -134.001 -101s-70 -94 -94 -152c-24 -58.667 -36 -123 -36 -193c0 -69.333 12 -133.333 36 -192s55.333 -109.667 94 -153s83.334 -76.666 134.001 -99.999c50.667 -24 102.667 -36 156 -36s105.333 12 156 36s95.334 57.333 134.001 100
c38.667 43.333 70 94.333 94 153s36 122.667 36 192zM1300 644.999c0 -92.667 -16.667 -178.667 -50 -258s-78 -148.666 -134 -207.999s-121 -105.666 -195 -138.999c-74.667 -33.333 -153 -50 -235 -50s-160 16.667 -234 50c-74.667 33.333 -140 79.666 -196 138.999
s-100.667 128.666 -134 207.999s-50 165.333 -50 258c0 91.333 16.667 177 50 257s78 149.667 134 209s121.333 105.666 196 138.999s152.667 50 234 50c82 0 160.333 -16.667 235 -50s139.667 -79.666 195 -138.999c56 -59.333 100.667 -129 134 -209s50 -165.667 50 -257z
" />
    <glyph glyph-name="Otilde" unicode="&#xd5;" horiz-adv-x="1372" 
d="M809 1423c-31.333 0 -57.334 6.66797 -78.001 20.001c-20.667 12.667 -38.667 26.667 -54 42l-45 42c-14.667 12.667 -30.667 19 -48 19c-20.667 0 -39.667 -9.66699 -57 -29c-17.333 -20 -25.666 -47.667 -24.999 -83h-103c0 82 18.333 143.333 55 184
c36 40.667 80 61 132 61c30 0 55.333 -6.33301 76 -19s39 -26.667 55 -42l45 -42c13.333 -12.667 29.666 -19.334 48.999 -20.001c20.667 0 39.334 10 56.001 30c17.333 20 26 47.667 26 83h102c0 -82 -18 -143.333 -54 -184c-36 -41.333 -80 -62 -132 -62zM1106 645.001
c0 69.333 -12 133.665 -36 192.998c-24 58.667 -55.333 109.334 -94 152.001c-38.667 43.333 -83.334 77 -134.001 101s-102.667 35.667 -156 35c-53.333 0 -105.333 -11.667 -156 -35c-50.667 -24 -95.334 -57.667 -134.001 -101s-70 -94 -94 -152
c-24 -58.667 -36 -123 -36 -193c0 -69.333 12 -133.333 36 -192s55.333 -109.667 94 -153s83.334 -76.666 134.001 -99.999c50.667 -24 102.667 -36 156 -36s105.333 12 156 36s95.334 57.333 134.001 100c38.667 43.333 70 94.333 94 153s36 122.667 36 192zM1300 645
c0 -92.667 -16.667 -178.667 -50 -258s-78 -148.666 -134 -207.999s-121 -105.666 -195 -138.999c-74.667 -33.333 -153 -50 -235 -50s-160 16.667 -234 50c-74.667 33.333 -140 79.666 -196 138.999s-100.667 128.666 -134 207.999s-50 165.333 -50 258
c0 91.333 16.667 177 50 257s78 149.667 134 209s121.333 105.666 196 138.999s152.667 50 234 50c82 0 160.333 -16.667 235 -50s139.667 -79.666 195 -138.999c56 -59.333 100.667 -129 134 -209s50 -165.667 50 -257z" />
    <glyph glyph-name="Odieresis" unicode="&#xd6;" horiz-adv-x="1372" 
d="M625 1546c0 -31.333 -11 -58 -33 -80s-48.667 -32.667 -80 -32c-31.333 0 -58 10.667 -80 32c-22 22 -33 48.667 -33 80s11 58 33 80s48.667 33 80 33s58 -11 80 -33s33 -48.667 33 -80zM973 1546c0 -31.333 -11 -58 -33 -80s-48.667 -32.667 -80 -32
c-31.333 0 -58 10.667 -80 32c-22 22 -32.667 48.667 -32 80c0 31.333 10.667 58 32 80c22 22 48.667 33 80 33s58 -11 80 -33s33 -48.667 33 -80zM1106 645c0 69.333 -12 133.665 -36 192.998c-24 58.667 -55.333 109.334 -94 152.001
c-38.667 43.333 -83.334 77 -134.001 101s-102.667 35.667 -156 35c-53.333 0 -105.333 -11.667 -156 -35c-50.667 -24 -95.334 -57.667 -134.001 -101s-70 -94 -94 -152c-24 -58.667 -36 -123 -36 -193c0 -69.333 12 -133.333 36 -192s55.333 -109.667 94 -153
s83.334 -76.666 134.001 -99.999c50.667 -24 102.667 -36 156 -36s105.333 12 156 36s95.334 57.333 134.001 100c38.667 43.333 70 94.333 94 153s36 122.667 36 192zM1300 644.999c0 -92.667 -16.667 -178.667 -50 -258s-78 -148.666 -134 -207.999
s-121 -105.666 -195 -138.999c-74.667 -33.333 -153 -50 -235 -50s-160 16.667 -234 50c-74.667 33.333 -140 79.666 -196 138.999s-100.667 128.666 -134 207.999s-50 165.333 -50 258c0 91.333 16.667 177 50 257s78 149.667 134 209s121.333 105.666 196 138.999
s152.667 50 234 50c82 0 160.333 -16.667 235 -50s139.667 -79.666 195 -138.999c56 -59.333 100.667 -129 134 -209s50 -165.667 50 -257z" />
    <glyph glyph-name="multiply" unicode="&#xd7;" horiz-adv-x="921" 
d="M809 276l-113 -102l-235 246l-236 -246l-112 102l235 246l-235 246l112 102l236 -245l235 245l113 -102l-236 -246z" />
    <glyph glyph-name="Oslash" unicode="&#xd8;" horiz-adv-x="1392" 
d="M696 1300c61.333 0 116.333 -8.16895 165 -24.502s90.667 -33.833 126 -52.5c40.667 -23.333 77 -48.666 109 -75.999l133 123l123 -123l-144 -133c19.333 -30 36.666 -63.667 51.999 -101c12 -31.333 23.5 -69.5 34.5 -114.5s16.5 -96.167 16.5 -153.5
c0 -92.667 -16.833 -178.667 -50.5 -258s-78.5 -148.666 -134.5 -207.999s-121.167 -105.666 -195.5 -138.999s-152.5 -50 -234.5 -50c-61.333 0 -116.5 7.83301 -165.5 23.5s-91.5 33.167 -127.5 52.5c-40.667 23.333 -76 49 -106 77l-133 -123l-123 123l143 133
c-19.333 30 -36.333 63.667 -51 101c-13.333 31.333 -25.166 69.5 -35.499 114.5s-15.5 96.167 -15.5 153.5c0 91.333 16.667 177 50 257s78 149.667 134 209s121.167 105.666 195.5 138.999s152.5 50 234.5 50zM963 1014c-22 20.667 -46.001 39.001 -72.001 55.001
c-23.333 15.333 -51.333 28.666 -84 39.999s-69.667 17 -111 17c-53.333 0 -105.166 -11.833 -155.499 -35.5s-95 -57 -134 -100s-70.5 -93.833 -94.5 -152.5s-36 -123 -36 -193c0 -34 3.16699 -65 9.5 -93s13.5 -53 21.5 -75c8 -24.667 18.333 -47 31 -67zM695.999 163.999
c53.333 0 105.331 11.998 155.998 35.998s95.334 57.5 134.001 100.5s70 93.833 94 152.5s36 122.667 36 192c0 32.667 -3.33301 63.334 -10 92.001s-13.667 54 -21 76c-9.33301 24.667 -19.333 47.334 -30 68.001l-625 -605c20.667 -22 44.667 -41 72 -57
c23.333 -15.333 51.333 -28.333 84 -39s69.334 -16 110.001 -16z" />
    <glyph glyph-name="Ugrave" unicode="&#xd9;" horiz-adv-x="1228" 
d="M707 1444h-123l-174 246h174zM614 164c40.667 0 78.665 7.33203 113.998 21.999c34.667 15.333 65 36.333 91 63s46.333 58.667 61 96s21.667 79.333 21 126v819h195v-819c0 -69.333 -12 -133.333 -36 -192s-57.667 -109.667 -101 -153s-94 -76.666 -152 -99.999
c-58.667 -24 -123 -36 -193 -36c-69.333 0 -133.333 12 -192 36s-109.667 57.333 -153 100c-43.333 43.333 -76.666 94.333 -99.999 153c-24 58.667 -36 122.667 -36 192v819h195v-819c0 -46.667 7 -88.667 21 -126c14.667 -37.333 35 -69.333 61 -96s56.333 -47.667 91 -63
c34.667 -14.667 72.334 -22 113.001 -22z" />
    <glyph glyph-name="Uacute" unicode="&#xda;" horiz-adv-x="1228" 
d="M666 1690h174l-174 -246h-123zM614 164c40.667 0 78.665 7.33203 113.998 21.999c34.667 15.333 65 36.333 91 63s46.333 58.667 61 96s21.667 79.333 21 126v819h195v-819c0 -69.333 -12 -133.333 -36 -192s-57.667 -109.667 -101 -153s-94 -76.666 -152 -99.999
c-58.667 -24 -123 -36 -193 -36c-69.333 0 -133.333 12 -192 36s-109.667 57.333 -153 100c-43.333 43.333 -76.666 94.333 -99.999 153c-24 58.667 -36 122.667 -36 192v819h195v-819c0 -46.667 7 -88.667 21 -126c14.667 -37.333 35 -69.333 61 -96s56.333 -47.667 91 -63
c34.667 -14.667 72.334 -22 113.001 -22z" />
    <glyph glyph-name="Ucircumflex" unicode="&#xdb;" horiz-adv-x="1228" 
d="M881 1434h-164l-103 143l-102 -143h-164l184 245h164zM614 164c40.667 0 78.665 7.33203 113.998 21.999c34.667 15.333 65 36.333 91 63s46.333 58.667 61 96s21.667 79.333 21 126v819h195v-819c0 -69.333 -12 -133.333 -36 -192s-57.667 -109.667 -101 -153
s-94 -76.666 -152 -99.999c-58.667 -24 -123 -36 -193 -36c-69.333 0 -133.333 12 -192 36s-109.667 57.333 -153 100c-43.333 43.333 -76.666 94.333 -99.999 153c-24 58.667 -36 122.667 -36 192v819h195v-819c0 -46.667 7 -88.667 21 -126
c14.667 -37.333 35 -69.333 61 -96s56.333 -47.667 91 -63c34.667 -14.667 72.334 -22 113.001 -22z" />
    <glyph glyph-name="Udieresis" unicode="&#xdc;" horiz-adv-x="1228" 
d="M553 1546c0 -31.333 -11 -58 -33 -80s-48.667 -32.667 -80 -32c-31.333 0 -58 10.667 -80 32c-22 22 -32.667 48.667 -32 80c0 31.333 10.667 58 32 80c22 22 48.667 33 80 33s58 -11 80 -33s33 -48.667 33 -80zM901 1546c0 -31.333 -11.001 -58 -33.001 -80
s-48.667 -32.667 -80 -32c-31.333 0 -57.666 10.667 -78.999 32c-22 22 -33 48.667 -33 80s11 58 33 80s48.333 33 79 33c31.333 0 58 -11 80 -33s33 -48.667 33 -80zM613.999 164c40.667 0 78.665 7.33203 113.998 21.999c34.667 15.333 65 36.333 91 63
s46.333 58.667 61 96s21.667 79.333 21 126v819h195v-819c0 -69.333 -12 -133.333 -36 -192s-57.667 -109.667 -101 -153s-94 -76.666 -152 -99.999c-58.667 -24 -123 -36 -193 -36c-69.333 0 -133.333 12 -192 36s-109.667 57.333 -153 100
c-43.333 43.333 -76.666 94.333 -99.999 153c-24 58.667 -36 122.667 -36 192v819h195v-819c0 -46.667 7 -88.667 21 -126c14.667 -37.333 35 -69.333 61 -96s56.333 -47.667 91 -63c34.667 -14.667 72.334 -22 113.001 -22z" />
    <glyph glyph-name="Yacute" unicode="&#xdd;" horiz-adv-x="1054" 
d="M594 1690h174l-174 -246h-123zM532 707l297 583h205l-409 -788v-502h-195v502l-410 788h205l297 -583h10z" />
    <glyph glyph-name="Thorn" unicode="&#xde;" horiz-adv-x="1218" 
d="M348 1075l379 -0.00195312c56 0 109 -10.5 159 -31.5s93.333 -50 130 -87s66 -79.667 88 -128s33 -99.166 33 -152.499s-11 -104.166 -33 -152.499s-51.333 -91 -88 -128s-80 -66.167 -130 -87.5s-103 -32 -159 -32h-379v-276h-194v1290h194v-215zM727 460.998
c28.667 0 56 5.83105 82 17.498s48.833 27.334 68.5 47.001s35.334 42.5 47.001 68.5s17.5 53.333 17.5 82s-5.83301 56 -17.5 82s-27.334 48.833 -47.001 68.5s-42.5 35.334 -68.5 47.001s-53.333 17.5 -82 17.5h-379v-430h379z" />
    <glyph glyph-name="germandbls" unicode="&#xdf;" horiz-adv-x="1054" 
d="M778 696c38 -19.333 72.3369 -44.3301 103.004 -74.9971c26 -27.333 49.5 -61.5 70.5 -102.5s31.5 -90.833 31.5 -149.5c0 -52 -9.5 -100.167 -28.5 -144.5s-45.333 -83.333 -79 -117s-73 -60 -118 -79s-92.833 -28.5 -143.5 -28.5h-102v174h102
c52 0 95.833 18.167 131.5 54.5s53.5 83.166 53.5 140.499s-17.833 104 -53.5 140s-79.5 54 -131.5 54h-102v185c57.333 0 104.166 17.667 140.499 53s54.5 79 54.5 131c0 57.333 -18.167 104 -54.5 140s-83.166 54 -140.499 54c-26 0 -50.667 -5.33301 -74 -16
s-43.833 -25 -61.5 -43s-32 -38.5 -43 -61.5s-16.5 -47.5 -16.5 -73.5v-932h-184v932c0 49.333 10.333 96.166 31 140.499s48 83.166 82 116.499s73.833 60.166 119.5 80.499s94.5 30.5 146.5 30.5c53.333 0 103.166 -9.5 149.499 -28.5s86.666 -44.833 120.999 -77.5
s61 -70.5 80 -113.5s28.5 -89.167 28.5 -138.5c0 -39.333 -5.83301 -73.666 -17.5 -102.999s-24.834 -55 -39.501 -77c-16.667 -24.667 -35.334 -46.667 -56.001 -66z" />
    <glyph glyph-name="agrave" unicode="&#xe0;" horiz-adv-x="952" 
d="M563 1073h-123l-174 246h174zM481 932c53.333 0 102.335 -8.66504 147.002 -25.998s82.334 -40.333 113.001 -69c31.333 -29.333 55.666 -64 72.999 -104c17.333 -39.333 26 -82.333 26 -129v-604h-133l-41 92c-18 -19.333 -39.333 -36.333 -64 -51
c-22 -13.333 -49.667 -25.333 -83 -36c-33.333 -10 -73.333 -15 -120 -15c-102.667 0 -181 25.667 -235 77c-54.667 51.333 -82 117.666 -82 198.999c0 46.667 9 88.667 27 126s48.333 69.333 91 96c43.333 26.667 101.666 47.667 174.999 63
c74 15.333 167.333 22.666 280 21.999v31c0 46.667 -14.667 84 -44 112s-72.666 42 -129.999 42c-61.333 0 -106 -11 -134 -33s-44.667 -48.667 -50 -80h-184c5.33301 82 39.666 150.333 102.999 205s151.666 82 264.999 82zM410.002 154.002c78 0 138.334 20 181.001 60
c43.333 40 64.666 88.667 63.999 146v50c-82 0 -148 -4 -198 -12c-50.667 -7.33301 -90.334 -17.333 -119.001 -30s-47.667 -29 -57 -49c-9.33301 -19.333 -14.333 -40.333 -15 -63c0 -26 12.333 -49.667 37 -71c24.667 -20.667 60.334 -31 107.001 -31z" />
    <glyph glyph-name="aacute" unicode="&#xe1;" horiz-adv-x="952" 
d="M543 1319h174l-174 -246h-123zM481 932c53.333 0 102.335 -8.66504 147.002 -25.998s82.334 -40.333 113.001 -69c31.333 -29.333 55.666 -64 72.999 -104c17.333 -39.333 26 -82.333 26 -129v-604h-133l-41 92c-18 -19.333 -39.333 -36.333 -64 -51
c-22 -13.333 -49.667 -25.333 -83 -36c-33.333 -10 -73.333 -15 -120 -15c-102.667 0 -181 25.667 -235 77c-54.667 51.333 -82 117.666 -82 198.999c0 46.667 9 88.667 27 126s48.333 69.333 91 96c43.333 26.667 101.666 47.667 174.999 63
c74 15.333 167.333 22.666 280 21.999v31c0 46.667 -14.667 84 -44 112s-72.666 42 -129.999 42c-61.333 0 -106 -11 -134 -33s-44.667 -48.667 -50 -80h-184c5.33301 82 39.666 150.333 102.999 205s151.666 82 264.999 82zM410.002 154.002c78 0 138.334 20 181.001 60
c43.333 40 64.666 88.667 63.999 146v50c-82 0 -148 -4 -198 -12c-50.667 -7.33301 -90.334 -17.333 -119.001 -30s-47.667 -29 -57 -49c-9.33301 -19.333 -14.333 -40.333 -15 -63c0 -26 12.333 -49.667 37 -71c24.667 -20.667 60.334 -31 107.001 -31z" />
    <glyph glyph-name="acircumflex" unicode="&#xe2;" horiz-adv-x="952" 
d="M748 1065h-164l-103 143l-102 -143h-164l184 246h164zM481 932c53.333 0 102.335 -8.66504 147.002 -25.998s82.334 -40.333 113.001 -69c31.333 -29.333 55.666 -64 72.999 -104c17.333 -39.333 26 -82.333 26 -129v-604h-133l-41 92
c-18 -19.333 -39.333 -36.333 -64 -51c-22 -13.333 -49.667 -25.333 -83 -36c-33.333 -10 -73.333 -15 -120 -15c-102.667 0 -181 25.667 -235 77c-54.667 51.333 -82 117.666 -82 198.999c0 46.667 9 88.667 27 126s48.333 69.333 91 96
c43.333 26.667 101.666 47.667 174.999 63c74 15.333 167.333 22.666 280 21.999v31c0 46.667 -14.667 84 -44 112s-72.666 42 -129.999 42c-61.333 0 -106 -11 -134 -33s-44.667 -48.667 -50 -80h-184c5.33301 82 39.666 150.333 102.999 205s151.666 82 264.999 82z
M410.002 154.002c78 0 138.334 20 181.001 60c43.333 40 64.666 88.667 63.999 146v50c-82 0 -148 -4 -198 -12c-50.667 -7.33301 -90.334 -17.333 -119.001 -30s-47.667 -29 -57 -49c-9.33301 -19.333 -14.333 -40.333 -15 -63c0 -26 12.333 -49.667 37 -71
c24.667 -20.667 60.334 -31 107.001 -31z" />
    <glyph glyph-name="atilde" unicode="&#xe3;" horiz-adv-x="952" 
d="M594 1034c-31.333 0 -57.335 6.66797 -78.002 20.001c-20.667 12.667 -38.667 26.667 -54 42l-45 42c-14.667 12.667 -30.667 19 -48 19c-20.667 0 -39.667 -10 -57 -30s-25.666 -47.667 -24.999 -83h-103c0 82 18.333 143.667 55 185c36 40.667 80 61 132 61
c30 0 55 -6.33301 75 -19c20.667 -12.667 39.334 -26.667 56.001 -42l45 -42c13.333 -12.667 29.666 -19.334 48.999 -20.001c20.667 0 39.334 10 56.001 30c17.333 20 26 47.667 26 83h102c0 -82 -18 -143.333 -54 -184c-36 -41.333 -80 -62 -132 -62zM480.998 932.001
c53.333 0 102.335 -8.66504 147.002 -25.998s82.334 -40.333 113.001 -69c31.333 -29.333 55.666 -64 72.999 -104c17.333 -39.333 26 -82.333 26 -129v-604h-133l-41 92c-18 -19.333 -39.333 -36.333 -64 -51c-22 -13.333 -49.667 -25.333 -83 -36
c-33.333 -10 -73.333 -15 -120 -15c-102.667 0 -181 25.667 -235 77c-54.667 51.333 -82 117.666 -82 198.999c0 46.667 9 88.667 27 126s48.333 69.333 91 96c43.333 26.667 101.666 47.667 174.999 63c74 15.333 167.333 22.666 280 21.999v31
c0 46.667 -14.667 84 -44 112s-72.666 42 -129.999 42c-61.333 0 -106 -11 -134 -33s-44.667 -48.667 -50 -80h-184c5.33301 82 39.666 150.333 102.999 205s151.666 82 264.999 82zM410 154.003c78 0 138.334 20 181.001 60c43.333 40 64.666 88.667 63.999 146v50
c-82 0 -148 -4 -198 -12c-50.667 -7.33301 -90.334 -17.333 -119.001 -30s-47.667 -29 -57 -49c-9.33301 -19.333 -14.333 -40.333 -15 -63c0 -26 12.333 -49.667 37 -71c24.667 -20.667 60.334 -31 107.001 -31z" />
    <glyph glyph-name="adieresis" unicode="&#xe4;" horiz-adv-x="952" 
d="M420 1178c0 -31.333 -11 -58 -33 -80s-48.667 -33 -80 -33s-58 11 -80 33s-32.667 48.667 -32 80c0 31.333 10.667 57.666 32 78.999c22 22 48.667 33 80 33s58 -11 80 -33c22 -21.333 33 -47.666 33 -78.999zM768 1178c0 -31.333 -11 -58 -33 -80s-48.667 -33 -80 -33
s-58 11 -80 33s-32.667 48.667 -32 80c0 31.333 10.667 57.666 32 78.999c22 22 48.667 33 80 33s58 -11 80 -33c22 -21.333 33 -47.666 33 -78.999zM481 932c53.333 0 102.335 -8.66504 147.002 -25.998s82.334 -40.333 113.001 -69c31.333 -29.333 55.666 -64 72.999 -104
c17.333 -39.333 26 -82.333 26 -129v-604h-133l-41 92c-18 -19.333 -39.333 -36.333 -64 -51c-22 -13.333 -49.667 -25.333 -83 -36c-33.333 -10 -73.333 -15 -120 -15c-102.667 0 -181 25.667 -235 77c-54.667 51.333 -82 117.666 -82 198.999c0 46.667 9 88.667 27 126
s48.333 69.333 91 96c43.333 26.667 101.666 47.667 174.999 63c74 15.333 167.333 22.666 280 21.999v31c0 46.667 -14.667 84 -44 112s-72.666 42 -129.999 42c-61.333 0 -106 -11 -134 -33s-44.667 -48.667 -50 -80h-184c5.33301 82 39.666 150.333 102.999 205
s151.666 82 264.999 82zM410.002 154.002c78 0 138.334 20 181.001 60c43.333 40 64.666 88.667 63.999 146v50c-82 0 -148 -4 -198 -12c-50.667 -7.33301 -90.334 -17.333 -119.001 -30s-47.667 -29 -57 -49c-9.33301 -19.333 -14.333 -40.333 -15 -63
c0 -26 12.333 -49.667 37 -71c24.667 -20.667 60.334 -31 107.001 -31z" />
    <glyph glyph-name="aring" unicode="&#xe5;" horiz-adv-x="952" 
d="M563 1206c0 20.667 -6.66602 39.668 -19.999 57.001s-30.333 25.666 -51 24.999c-20.667 0 -38 -8.33301 -52 -25c-13.333 -17.333 -20 -36.333 -20 -57s6.66699 -39.334 20 -56.001c13.333 -17.333 30.666 -26 51.999 -26c20.667 0 37.667 8.66699 51 26
c13.333 16.667 20 35.334 20 56.001zM666.001 1206c0 -46.667 -16.333 -87.334 -49 -122.001c-32 -34.667 -73.667 -52 -125 -52c-52 0 -94 17.333 -126 52s-48.333 75.334 -49 122.001c0 46.667 16.333 87.334 49 122.001c32 34.667 74 52 126 52s93.667 -17.333 125 -52
c32.667 -34.667 49 -75.334 49 -122.001zM481.001 932.001c53.333 0 102.335 -8.66504 147.002 -25.998s82.334 -40.333 113.001 -69c31.333 -29.333 55.666 -64 72.999 -104c17.333 -39.333 26 -82.333 26 -129v-604h-133l-41 92c-18 -19.333 -39.333 -36.333 -64 -51
c-22 -13.333 -49.667 -25.333 -83 -36c-33.333 -10 -73.333 -15 -120 -15c-102.667 0 -181 25.667 -235 77c-54.667 51.333 -82 117.666 -82 198.999c0 46.667 9 88.667 27 126s48.333 69.333 91 96c43.333 26.667 101.666 47.667 174.999 63
c74 15.333 167.333 22.666 280 21.999v31c0 46.667 -14.667 84 -44 112s-72.666 42 -129.999 42c-61.333 0 -106 -11 -134 -33s-44.667 -48.667 -50 -80h-184c5.33301 82 39.666 150.333 102.999 205s151.666 82 264.999 82zM410.003 154.003c78 0 138.334 20 181.001 60
c43.333 40 64.666 88.667 63.999 146v50c-82 0 -148 -4 -198 -12c-50.667 -7.33301 -90.334 -17.333 -119.001 -30s-47.667 -29 -57 -49c-9.33301 -19.333 -14.333 -40.333 -15 -63c0 -26 12.333 -49.667 37 -71c24.667 -20.667 60.334 -31 107.001 -31z" />
    <glyph glyph-name="ae" unicode="&#xe6;" horiz-adv-x="1536" 
d="M1454 266c-15.333 -38 -34.5 -73.6709 -57.5 -107.004s-50.5 -62.666 -82.5 -87.999s-68.833 -45.166 -110.5 -59.499s-87.834 -21.5 -138.501 -21.5c-49.333 0 -92.666 7.83301 -129.999 23.5s-69.666 33.167 -96.999 52.5c-31.333 23.333 -58 49 -80 77
c-23.333 -28.667 -51.333 -54.334 -84 -77.001c-28.667 -19.333 -63.834 -36.833 -105.501 -52.5s-91.167 -23.5 -148.5 -23.5c-113.333 0 -198 25.5 -254 76.5s-84 117.5 -84 199.5c0 40.667 8.83301 78.5 26.5 113.5s48 65.5 91 91.5s101.333 46.167 175 60.5
s167.167 21.5 280.5 21.5v51c0 46.667 -14.667 84 -44 112s-72.666 42 -129.999 42c-61.333 0 -106 -11 -134 -33s-44.667 -48.667 -50 -80h-184c5.33301 82 39.666 150.333 102.999 205s151.666 82 264.999 82c48 0 89.333 -8.16699 124 -24.5s63.667 -34.166 87 -53.499
c26 -23.333 48 -48.666 66 -75.999c23.333 27.333 50 52.666 80 75.999c26 19.333 57 37.166 93 53.499s77.333 24.5 124 24.5c53.333 0 104.833 -11.667 154.5 -35s93.334 -55.833 131.001 -97.5s67.667 -91.167 90 -148.5s33.5 -120.666 33.5 -189.999
c0 -6.66699 -0.666992 -14.5 -2 -23.5s-2.66602 -16.833 -3.99902 -23.5l-4 -25h-627c2.66699 -31.333 10.834 -60.666 24.501 -87.999s31.167 -51.166 52.5 -71.499s45.666 -36.333 72.999 -48s56.666 -17.5 87.999 -17.5c49.333 0 90.333 12 123 36s56.667 46 72 66h194z
M1055 757.996c-28.667 0 -56 -5.83203 -82 -17.499s-49.333 -27.334 -70 -47.001s-37.334 -42.5 -50.001 -68.5s-20.667 -53.333 -24 -82h461c-10.667 61.333 -37.167 112.5 -79.5 153.5s-94.166 61.5 -155.499 61.5zM410 153.997c78 0 138.333 19.999 181 59.999
s64 88.667 64 146v29c-82 0 -148.167 -3.33301 -198.5 -10s-89.833 -16.167 -118.5 -28.5s-47.834 -26.666 -57.501 -42.999s-14.5 -33.5 -14.5 -51.5c0 -26 12.333 -49.5 37 -70.5s60.334 -31.5 107.001 -31.5z" />
    <glyph glyph-name="ccedilla" unicode="&#xe7;" horiz-adv-x="983" 
d="M922 338c-20.667 -92.667 -62.5 -170.167 -125.5 -232.5s-140.833 -100.833 -233.5 -115.5l-31 -72c35.333 -5.33301 64.666 -20 87.999 -44s35 -53.667 35 -89c0 -40.667 -15.667 -74.667 -47 -102s-80.333 -41 -147 -41c-13.333 0 -25.5 0.333008 -36.5 1
s-20.833 1.66699 -29.5 3c-9.33301 1.33301 -18 3.33301 -26 6v92c6.66699 -2.66699 14.667 -4.66699 24 -6c6.66699 -1.33301 15.167 -2.33301 25.5 -3s21.166 -1 32.499 -1c31.333 0 54.5 6.5 69.5 19.5s22.5 26.833 22.5 41.5c0 15.333 -7.5 29.5 -22.5 42.5
s-38.167 19.5 -69.5 19.5c-8 0 -15.167 -0.666992 -21.5 -2s-11.5 -3 -15.5 -5c-5.33301 -1.33301 -10.333 -2.66602 -15 -3.99902l62 144c-52 5.33301 -101.167 20.333 -147.5 45s-87.666 57.5 -123.999 98.5s-65 89 -86 144s-31.5 116.167 -31.5 183.5
c0 69.333 11.167 132.666 33.5 189.999s53.666 106.833 93.999 148.5s87.166 74.167 140.499 97.5s110.666 35 171.999 35c53.333 0 102.833 -8.83301 148.5 -26.5s86.334 -42.334 122.001 -74.001s65 -68.667 88 -111s40.167 -87.833 51.5 -136.5h-195
c-15.333 52 -40.666 94 -75.999 126s-81.666 48 -138.999 48c-32.667 0 -64.667 -7.16699 -96 -21.5s-58.666 -34.833 -81.999 -61.5s-42.166 -58.167 -56.499 -94.5s-21.5 -76.166 -21.5 -119.499c0 -44 7.16699 -84 21.5 -120s33.166 -67.333 56.499 -94
s50.666 -47.167 81.999 -61.5s63.333 -21.5 96 -21.5c57.333 0 103.833 16 139.5 48s60.834 74 75.501 126h195z" />
    <glyph glyph-name="egrave" unicode="&#xe8;" horiz-adv-x="1013" 
d="M573 1073h-122l-175 246h175zM922 266c-15.333 -38 -34.6738 -73.665 -58.0068 -106.998s-51.333 -62.666 -84 -87.999s-70.334 -45.333 -113.001 -60c-43.333 -14.667 -91.666 -21.667 -144.999 -21c-61.333 0 -118.666 11.667 -171.999 35s-100 55.666 -140 96.999
s-71.333 90.666 -94 147.999s-34 121 -34 191c0 69.333 11.333 132.666 34 189.999s53.334 107 92.001 149c38.667 41.333 84.334 73.666 137.001 96.999s108.334 35 167.001 35s114.334 -11.667 167.001 -35s98.334 -55.666 137.001 -96.999s69.334 -91 92.001 -149
c22.667 -57.333 34 -120.666 34 -189.999c0 -10.667 -0.666992 -21.334 -2 -32.001c-1.33301 -10 -2.66602 -18.667 -3.99902 -26c-1.33301 -9.33301 -2.66602 -17.333 -3.99902 -24h-656c2.66699 -28.667 11 -56 25 -82c13.333 -26 30.666 -49 51.999 -69
s46.666 -35.667 75.999 -47s60.333 -17 93 -17c56 0 100.333 12 133 36s56.667 46 72 66h195zM511.992 758.002c-61.333 0 -113.333 -21.001 -156 -63.001c-42 -41.333 -68.667 -95.666 -80 -162.999h492c-10.667 66.667 -38 121 -82 163c-43.333 42 -101.333 63 -174 63z
" />
    <glyph glyph-name="eacute" unicode="&#xe9;" horiz-adv-x="1013" 
d="M573 1319h175l-175 -246h-122zM922 266c-15.333 -38 -34.6738 -73.665 -58.0068 -106.998s-51.333 -62.666 -84 -87.999s-70.334 -45.333 -113.001 -60c-43.333 -14.667 -91.666 -21.667 -144.999 -21c-61.333 0 -118.666 11.667 -171.999 35s-100 55.666 -140 96.999
s-71.333 90.666 -94 147.999s-34 121 -34 191c0 69.333 11.333 132.666 34 189.999s53.334 107 92.001 149c38.667 41.333 84.334 73.666 137.001 96.999s108.334 35 167.001 35s114.334 -11.667 167.001 -35s98.334 -55.666 137.001 -96.999s69.334 -91 92.001 -149
c22.667 -57.333 34 -120.666 34 -189.999c0 -10.667 -0.666992 -21.334 -2 -32.001c-1.33301 -10 -2.66602 -18.667 -3.99902 -26c-1.33301 -9.33301 -2.66602 -17.333 -3.99902 -24h-656c2.66699 -28.667 11 -56 25 -82c13.333 -26 30.666 -49 51.999 -69
s46.666 -35.667 75.999 -47s60.333 -17 93 -17c56 0 100.333 12 133 36s56.667 46 72 66h195zM511.992 758.002c-61.333 0 -113.333 -21.001 -156 -63.001c-42 -41.333 -68.667 -95.666 -80 -162.999h492c-10.667 66.667 -38 121 -82 163c-43.333 42 -101.333 63 -174 63z
" />
    <glyph glyph-name="ecircumflex" unicode="&#xea;" horiz-adv-x="1013" 
d="M778 1065h-164l-102 143l-102 -143h-164l184 246h164zM922 266c-15.333 -38 -34.6738 -73.665 -58.0068 -106.998s-51.333 -62.666 -84 -87.999s-70.334 -45.333 -113.001 -60c-43.333 -14.667 -91.666 -21.667 -144.999 -21c-61.333 0 -118.666 11.667 -171.999 35
s-100 55.666 -140 96.999s-71.333 90.666 -94 147.999s-34 121 -34 191c0 69.333 11.333 132.666 34 189.999s53.334 107 92.001 149c38.667 41.333 84.334 73.666 137.001 96.999s108.334 35 167.001 35s114.334 -11.667 167.001 -35s98.334 -55.666 137.001 -96.999
s69.334 -91 92.001 -149c22.667 -57.333 34 -120.666 34 -189.999c0 -10.667 -0.666992 -21.334 -2 -32.001c-1.33301 -10 -2.66602 -18.667 -3.99902 -26c-1.33301 -9.33301 -2.66602 -17.333 -3.99902 -24h-656c2.66699 -28.667 11 -56 25 -82
c13.333 -26 30.666 -49 51.999 -69s46.666 -35.667 75.999 -47s60.333 -17 93 -17c56 0 100.333 12 133 36s56.667 46 72 66h195zM511.992 758.002c-61.333 0 -113.333 -21.001 -156 -63.001c-42 -41.333 -68.667 -95.666 -80 -162.999h492c-10.667 66.667 -38 121 -82 163
c-43.333 42 -101.333 63 -174 63z" />
    <glyph glyph-name="edieresis" unicode="&#xeb;" horiz-adv-x="1013" 
d="M451 1178c0 -31.333 -11 -58 -33 -80s-48.667 -33 -80 -33s-58 11 -80 33s-33 48.667 -33 80s11 57.666 33 78.999c22 22 48.667 33 80 33s58 -11 80 -33c22 -21.333 33 -47.666 33 -78.999zM799 1178c0 -31.333 -11 -58 -33 -80s-48.667 -33 -80 -33s-58 11 -80 33
s-33 48.667 -33 80s11 57.666 33 78.999c22 22 48.667 33 80 33s58 -11 80 -33c22 -21.333 33 -47.666 33 -78.999zM922 266c-15.333 -38 -34.6738 -73.665 -58.0068 -106.998s-51.333 -62.666 -84 -87.999s-70.334 -45.333 -113.001 -60
c-43.333 -14.667 -91.666 -21.667 -144.999 -21c-61.333 0 -118.666 11.667 -171.999 35s-100 55.666 -140 96.999s-71.333 90.666 -94 147.999s-34 121 -34 191c0 69.333 11.333 132.666 34 189.999s53.334 107 92.001 149c38.667 41.333 84.334 73.666 137.001 96.999
s108.334 35 167.001 35s114.334 -11.667 167.001 -35s98.334 -55.666 137.001 -96.999s69.334 -91 92.001 -149c22.667 -57.333 34 -120.666 34 -189.999c0 -10.667 -0.666992 -21.334 -2 -32.001c-1.33301 -10 -2.66602 -18.667 -3.99902 -26
c-1.33301 -9.33301 -2.66602 -17.333 -3.99902 -24h-656c2.66699 -28.667 11 -56 25 -82c13.333 -26 30.666 -49 51.999 -69s46.666 -35.667 75.999 -47s60.333 -17 93 -17c56 0 100.333 12 133 36s56.667 46 72 66h195zM511.992 758.002
c-61.333 0 -113.333 -21.001 -156 -63.001c-42 -41.333 -68.667 -95.666 -80 -162.999h492c-10.667 66.667 -38 121 -82 163c-43.333 42 -101.333 63 -174 63z" />
    <glyph glyph-name="igrave" unicode="&#xec;" horiz-adv-x="430" 
d="M287 1065h-123l-174 246h174zM307 0h-184v922h184v-922z" />
    <glyph glyph-name="iacute" unicode="&#xed;" horiz-adv-x="430" 
d="M276 1311h175l-175 -246h-122zM307 0h-184v922h184v-922z" />
    <glyph glyph-name="icircumflex" unicode="&#xee;" horiz-adv-x="430" 
d="M481 1065h-164l-102 143l-102 -143h-164l184 246h164zM307 0h-184v922h184v-922z" />
    <glyph glyph-name="idieresis" unicode="&#xef;" horiz-adv-x="430" 
d="M154 1178c0 -31.333 -11 -58 -33 -80s-48.667 -33 -80 -33s-58 11 -80 33s-33 48.667 -33 80s11 57.666 33 78.999c22 22 48.667 33 80 33s58 -11 80 -33c22 -21.333 33 -47.666 33 -78.999zM502 1178c0 -31.333 -11 -58 -33 -80s-48.667 -33 -80 -33s-58 11 -80 33
s-33 48.667 -33 80s11 57.666 33 78.999c22 22 48.667 33 80 33s58 -11 80 -33c22 -21.333 33 -47.666 33 -78.999zM307 0h-184v922h184v-922z" />
    <glyph glyph-name="eth" unicode="&#xf0;" horiz-adv-x="1064" 
d="M727 1188c48 -48 90.333 -105.329 127 -171.996c31.333 -57.333 60.666 -128 87.999 -212s41 -181.333 41 -292c0 -82 -11.667 -155.333 -35 -220s-55.333 -119.334 -96 -164.001s-89 -78.834 -145 -102.501s-117.667 -35.5 -185 -35.5c-64 0 -123.333 11.5 -178 34.5
s-102.167 54.667 -142.5 95s-72 87.833 -95 142.5s-34.5 114 -34.5 178s11.167 123.333 33.5 178s53 102.167 92 142.5s84.833 72.166 137.5 95.499s108.334 35 167.001 35c52 0 95.667 -7.5 131 -22.5s64.666 -31.5 87.999 -49.5c26 -22 48.333 -45.667 67 -71
c-8 52 -21.833 98.667 -41.5 140s-40.5 77.666 -62.5 108.999c-24.667 35.333 -51.334 68.333 -80.001 99l-184 -123l-82 123l143 92c-23.333 15.333 -47.166 28 -71.499 38s-46.166 18.333 -65.499 25l-68 19l52 143c32.667 -10.667 66 -23 100 -37
c28.667 -10.667 59.667 -24.167 93 -40.5s64.333 -34.833 93 -55.5l174 123l82 -123zM522 164.004c35.333 0 69.166 7.16602 101.499 21.499s60.666 34.166 84.999 59.499s43.666 54.666 57.999 87.999s21.5 69 21.5 107s-7.16699 73.833 -21.5 107.5
s-33.666 63.167 -57.999 88.5s-52.666 45.166 -84.999 59.499s-66.166 21.5 -101.499 21.5s-69 -7.16699 -101 -21.5s-60.333 -34.166 -85 -59.499s-44.167 -54.666 -58.5 -87.999s-21.5 -69.333 -21.5 -108c0 -38 7.16699 -73.667 21.5 -107s33.833 -62.666 58.5 -87.999
s53 -45.166 85 -59.499s65.667 -21.5 101 -21.5z" />
    <glyph glyph-name="ntilde" unicode="&#xf1;" horiz-adv-x="1044" 
d="M655 1055c-31.333 0 -56.9971 6.33105 -76.9971 18.998c-20.667 12.667 -39 26.667 -55 42l-45 42c-14.667 12.667 -30.667 19.334 -48 20.001c-20.667 0 -39.334 -10 -56.001 -30c-17.333 -20 -26 -47.667 -26 -83h-102c0 82 18 143.333 54 184s80 61.334 132 62.001
c30 0 55.333 -6.66699 76 -20c20.667 -12.667 39 -26.667 55 -42l45 -42c13.333 -12.667 29.666 -19 48.999 -19c20.667 0 39.667 10 57 30s25.666 47.333 24.999 82h103c0 -82 -18.333 -143.333 -55 -184c-36 -40.667 -80 -61 -132 -61zM563.003 931.998
c50.667 0 98.667 -9.99902 144 -29.999s84.333 -47.333 117 -82c33.333 -34.667 59.666 -76.667 78.999 -126s29 -103.333 29 -162v-532h-184v532c0 30 -6 58.667 -18 86c-11.333 27.333 -27 51.333 -47 72s-43 37 -69 49s-53.333 18.333 -82 19
c-31.333 0 -60.666 -6.33301 -87.999 -19c-27.333 -12 -51 -28.333 -71 -49c-20.667 -20.667 -36.667 -44.667 -48 -72s-17.333 -56 -18 -86v-532h-184v922h133l41 -93c18 19.333 39 36.666 63 51.999c22 12 49.667 23.333 83 34c33.333 11.333 73.333 17 120 17z" />
    <glyph glyph-name="ograve" unicode="&#xf2;" 
d="M584 1065h-123l-174 246h174zM768 461c0 44 -7.33301 84 -22 120s-33.334 67.333 -56.001 94c-23.333 26.667 -50.666 47 -81.999 61c-31.333 14.667 -63.333 22 -96 22s-64.667 -7.33301 -96 -22s-58.666 -35 -81.999 -61c-23.333 -26.667 -42 -58 -56 -94
c-14.667 -36 -22 -76 -22 -120s7.33301 -84 22 -120s33.334 -67.333 56.001 -94c23.333 -26.667 50.666 -47.334 81.999 -62.001s63.333 -21.667 96 -21c32.667 0 64.667 7 96 21c31.333 14.667 58.666 35.334 81.999 62.001s42 58 56 94c14.667 36 22 76 22 120zM952 461
c0 -69.333 -11 -133 -33 -191c-22.667 -57.333 -54.334 -106.666 -95.001 -147.999c-40 -41.333 -86.667 -73.666 -140 -96.999s-110.666 -35 -171.999 -35s-118.666 11.667 -171.999 35s-100 55.666 -140 96.999s-71.667 90.666 -95 147.999
c-22.667 57.333 -33.667 121 -33 191c0 69.333 11 132.666 33 189.999c22.667 57.333 54.334 107 95.001 149c40 41.333 86.667 73.666 140 96.999s110.666 35 171.999 35s118.666 -11.667 171.999 -35s100 -55.666 140 -96.999s71.667 -91 95 -149
c22 -57.333 33 -120.666 33 -189.999z" />
    <glyph glyph-name="oacute" unicode="&#xf3;" 
d="M584 1311h174l-174 -246h-123zM768 461c0 44 -7.33301 84 -22 120s-33.334 67.333 -56.001 94c-23.333 26.667 -50.666 47 -81.999 61c-31.333 14.667 -63.333 22 -96 22s-64.667 -7.33301 -96 -22s-58.666 -35 -81.999 -61c-23.333 -26.667 -42 -58 -56 -94
c-14.667 -36 -22 -76 -22 -120s7.33301 -84 22 -120s33.334 -67.333 56.001 -94c23.333 -26.667 50.666 -47.334 81.999 -62.001s63.333 -21.667 96 -21c32.667 0 64.667 7 96 21c31.333 14.667 58.666 35.334 81.999 62.001s42 58 56 94c14.667 36 22 76 22 120zM952 461
c0 -69.333 -11 -133 -33 -191c-22.667 -57.333 -54.334 -106.666 -95.001 -147.999c-40 -41.333 -86.667 -73.666 -140 -96.999s-110.666 -35 -171.999 -35s-118.666 11.667 -171.999 35s-100 55.666 -140 96.999s-71.667 90.666 -95 147.999
c-22.667 57.333 -33.667 121 -33 191c0 69.333 11 132.666 33 189.999c22.667 57.333 54.334 107 95.001 149c40 41.333 86.667 73.666 140 96.999s110.666 35 171.999 35s118.666 -11.667 171.999 -35s100 -55.666 140 -96.999s71.667 -91 95 -149
c22 -57.333 33 -120.666 33 -189.999z" />
    <glyph glyph-name="ocircumflex" unicode="&#xf4;" 
d="M778 1065h-164l-102 143l-102 -143h-164l184 246h164zM768 461c0 44 -7.33301 84 -22 120s-33.334 67.333 -56.001 94c-23.333 26.667 -50.666 47 -81.999 61c-31.333 14.667 -63.333 22 -96 22s-64.667 -7.33301 -96 -22s-58.666 -35 -81.999 -61
c-23.333 -26.667 -42 -58 -56 -94c-14.667 -36 -22 -76 -22 -120s7.33301 -84 22 -120s33.334 -67.333 56.001 -94c23.333 -26.667 50.666 -47.334 81.999 -62.001s63.333 -21.667 96 -21c32.667 0 64.667 7 96 21c31.333 14.667 58.666 35.334 81.999 62.001s42 58 56 94
c14.667 36 22 76 22 120zM952 461c0 -69.333 -11 -133 -33 -191c-22.667 -57.333 -54.334 -106.666 -95.001 -147.999c-40 -41.333 -86.667 -73.666 -140 -96.999s-110.666 -35 -171.999 -35s-118.666 11.667 -171.999 35s-100 55.666 -140 96.999
s-71.667 90.666 -95 147.999c-22.667 57.333 -33.667 121 -33 191c0 69.333 11 132.666 33 189.999c22.667 57.333 54.334 107 95.001 149c40 41.333 86.667 73.666 140 96.999s110.666 35 171.999 35s118.666 -11.667 171.999 -35s100 -55.666 140 -96.999
s71.667 -91 95 -149c22 -57.333 33 -120.666 33 -189.999z" />
    <glyph glyph-name="otilde" unicode="&#xf5;" 
d="M625 1044c-31.333 0 -57.332 6.66699 -77.999 20c-20.667 12.667 -38.667 26.667 -54 42c-16 15.333 -31.333 29.333 -46 42s-30.667 19 -48 19c-20.667 0 -39.334 -9.66699 -56.001 -29c-17.333 -20 -26 -47.667 -26 -83h-102c0 82 18 143.333 54 184s80 61 132 61
c30 0 55.333 -6.33301 76 -19s39 -26.667 55 -42l46 -42c13.333 -12.667 29.666 -19 48.999 -19c20.667 0 39.334 9.66699 56.001 29c17.333 20 26 47.667 26 83h102c0 -82 -18 -143.333 -54 -184c-36 -41.333 -80 -62 -132 -62zM768.001 461c0 44 -7.33301 84 -22 120
s-33.334 67.333 -56.001 94c-23.333 26.667 -50.666 47 -81.999 61c-31.333 14.667 -63.333 22 -96 22s-64.667 -7.33301 -96 -22s-58.666 -35 -81.999 -61c-23.333 -26.667 -42 -58 -56 -94c-14.667 -36 -22 -76 -22 -120s7.33301 -84 22 -120s33.334 -67.333 56.001 -94
c23.333 -26.667 50.666 -47.334 81.999 -62.001s63.333 -21.667 96 -21c32.667 0 64.667 7 96 21c31.333 14.667 58.666 35.334 81.999 62.001s42 58 56 94c14.667 36 22 76 22 120zM952.001 461c0 -69.333 -11 -133 -33 -191
c-22.667 -57.333 -54.334 -106.666 -95.001 -147.999c-40 -41.333 -86.667 -73.666 -140 -96.999s-110.666 -35 -171.999 -35s-118.666 11.667 -171.999 35s-100 55.666 -140 96.999s-71.667 90.666 -95 147.999c-22.667 57.333 -33.667 121 -33 191
c0 69.333 11 132.666 33 189.999c22.667 57.333 54.334 107 95.001 149c40 41.333 86.667 73.666 140 96.999s110.666 35 171.999 35s118.666 -11.667 171.999 -35s100 -55.666 140 -96.999s71.667 -91 95 -149c22 -57.333 33 -120.666 33 -189.999z" />
    <glyph glyph-name="odieresis" unicode="&#xf6;" 
d="M451 1178c0 -31.333 -11 -58 -33 -80s-48.667 -33 -80 -33s-58 11 -80 33s-33 48.667 -33 80s11 57.666 33 78.999c22 22 48.667 33 80 33s58 -11 80 -33c22 -21.333 33 -47.666 33 -78.999zM799 1178c0 -31.333 -11 -58 -33 -80s-48.667 -33 -80 -33s-58 11 -80 33
s-33 48.667 -33 80s11 57.666 33 78.999c22 22 48.667 33 80 33s58 -11 80 -33c22 -21.333 33 -47.666 33 -78.999zM768 461c0 44 -7.33301 84 -22 120s-33.334 67.333 -56.001 94c-23.333 26.667 -50.666 47 -81.999 61c-31.333 14.667 -63.333 22 -96 22
s-64.667 -7.33301 -96 -22s-58.666 -35 -81.999 -61c-23.333 -26.667 -42 -58 -56 -94c-14.667 -36 -22 -76 -22 -120s7.33301 -84 22 -120s33.334 -67.333 56.001 -94c23.333 -26.667 50.666 -47.334 81.999 -62.001s63.333 -21.667 96 -21c32.667 0 64.667 7 96 21
c31.333 14.667 58.666 35.334 81.999 62.001s42 58 56 94c14.667 36 22 76 22 120zM952 461c0 -69.333 -11 -133 -33 -191c-22.667 -57.333 -54.334 -106.666 -95.001 -147.999c-40 -41.333 -86.667 -73.666 -140 -96.999s-110.666 -35 -171.999 -35
s-118.666 11.667 -171.999 35s-100 55.666 -140 96.999s-71.667 90.666 -95 147.999c-22.667 57.333 -33.667 121 -33 191c0 69.333 11 132.666 33 189.999c22.667 57.333 54.334 107 95.001 149c40 41.333 86.667 73.666 140 96.999s110.666 35 171.999 35
s118.666 -11.667 171.999 -35s100 -55.666 140 -96.999s71.667 -91 95 -149c22 -57.333 33 -120.666 33 -189.999z" />
    <glyph glyph-name="divide" unicode="&#xf7;" horiz-adv-x="921" 
d="M850 440h-778v164h778v-164zM573 860c0 -31.333 -10.833 -57.833 -32.5 -79.5s-48.167 -32.5 -79.5 -32.5s-58 10.833 -80 32.5s-33 48.167 -33 79.5s11 58 33 80s48.667 33 80 33s57.833 -11 79.5 -33s32.5 -48.667 32.5 -80zM573 184
c0 -31.333 -10.833 -57.833 -32.5 -79.5s-48.167 -32.5 -79.5 -32.5s-58 10.833 -80 32.5s-33 48.167 -33 79.5s11 58 33 80s48.667 33 80 33s57.833 -11 79.5 -33s32.5 -48.667 32.5 -80z" />
    <glyph glyph-name="oslash" unicode="&#xf8;" horiz-adv-x="1064" 
d="M532 932c44 0 83.833 -5.50195 119.5 -16.502s65.5 -22.5 89.5 -34.5c28.667 -15.333 54.667 -32.666 78 -51.999l103 93l102 -113l-113 -102c10.667 -22 21 -45.333 31 -70c6.66699 -22 13.5 -47.667 20.5 -77s10.5 -61.666 10.5 -96.999
c0 -69.333 -11.333 -133.166 -34 -191.499s-54.167 -108.333 -94.5 -150s-87 -74 -140 -97s-110.5 -34.5 -172.5 -34.5c-44 0 -83.667 5 -119 15s-65 22 -89 36c-28.667 15.333 -54.667 32.333 -78 51l-103 -92l-102 113l113 102c-12 22 -22.333 45.333 -31 70
c-8 22 -15.167 48 -21.5 78s-9.5 62.667 -9.5 98c0 69.333 11.333 132.666 34 189.999s54.167 106.833 94.5 148.5s87 74.167 140 97.5s110.167 35 171.5 35zM686 706.998c-13.333 10.667 -27.667 19.332 -43 25.999c-13.333 6.66699 -29.333 12.5 -48 17.5
s-39.667 7.5 -63 7.5c-34 0 -66.333 -7.16699 -97 -21.5s-58 -34.833 -82 -61.5s-42.833 -58.167 -56.5 -94.5s-20.5 -76.166 -20.5 -119.499c0 -31.333 3.66699 -59.333 11 -84c2.66699 -13.333 6 -26.333 10 -39zM378.999 214.996
c13.333 -10.667 27.666 -19.667 42.999 -27c13.333 -6.66699 29.333 -12.667 48 -18s39.334 -7.33301 62.001 -6c34 0 66.5 7.16699 97.5 21.5s58 34.833 81 61.5s41.667 58.334 56 95.001s21.5 77 21.5 121c0 15.333 -1 30.333 -3 45s-4.33301 27.667 -7 39
c-4 13.333 -7.33301 25.666 -10 36.999z" />
    <glyph glyph-name="ugrave" unicode="&#xf9;" horiz-adv-x="1054" 
d="M625 1073h-123l-174 246h174zM492 -10c-52 0 -100.332 9.66699 -144.999 29c-44.667 20 -83.667 47.333 -117 82s-59.333 76.667 -78 126c-19.333 49.333 -29 103.333 -29 162v533h184v-533c0 -31.333 6 -60.666 18 -87.999c11.333 -27.333 27 -51.333 47 -72
s42.667 -36.667 68 -48c26 -11.333 53.333 -17 82 -17c30 0 58.667 5.66699 86 17s51.333 27.333 72 48s37 44.667 49 72s18.333 56.666 19 87.999v533h184v-922h-133l-41 92c-18 -19.333 -39.333 -36.333 -64 -51c-22 -13.333 -49.667 -25.333 -83 -36
c-32.667 -10 -72.334 -15 -119.001 -15z" />
    <glyph glyph-name="uacute" unicode="&#xfa;" horiz-adv-x="1054" 
d="M584 1321h174l-174 -246h-123zM492 -10c-52 0 -100.332 9.66699 -144.999 29c-44.667 20 -83.667 47.333 -117 82s-59.333 76.667 -78 126c-19.333 49.333 -29 103.333 -29 162v533h184v-533c0 -31.333 6 -60.666 18 -87.999c11.333 -27.333 27 -51.333 47 -72
s42.667 -36.667 68 -48c26 -11.333 53.333 -17 82 -17c30 0 58.667 5.66699 86 17s51.333 27.333 72 48s37 44.667 49 72s18.333 56.666 19 87.999v533h184v-922h-133l-41 92c-18 -19.333 -39.333 -36.333 -64 -51c-22 -13.333 -49.667 -25.333 -83 -36
c-32.667 -10 -72.334 -15 -119.001 -15z" />
    <glyph glyph-name="ucircumflex" unicode="&#xfb;" horiz-adv-x="1054" 
d="M788 1065h-163l-103 143l-102 -143h-164l184 246h164zM492 -10c-52 0 -100.332 9.66699 -144.999 29c-44.667 20 -83.667 47.333 -117 82s-59.333 76.667 -78 126c-19.333 49.333 -29 103.333 -29 162v533h184v-533c0 -31.333 6 -60.666 18 -87.999
c11.333 -27.333 27 -51.333 47 -72s42.667 -36.667 68 -48c26 -11.333 53.333 -17 82 -17c30 0 58.667 5.66699 86 17s51.333 27.333 72 48s37 44.667 49 72s18.333 56.666 19 87.999v533h184v-922h-133l-41 92c-18 -19.333 -39.333 -36.333 -64 -51
c-22 -13.333 -49.667 -25.333 -83 -36c-32.667 -10 -72.334 -15 -119.001 -15z" />
    <glyph glyph-name="udieresis" unicode="&#xfc;" horiz-adv-x="1054" 
d="M471 1178c0 -31.333 -11.001 -58 -33.001 -80s-48.667 -33 -80 -33s-57.666 11 -78.999 33c-22 22 -33 48.667 -33 80s11 57.666 33 78.999c22 22 48.333 33 79 33c31.333 0 58 -11 80 -33c22 -21.333 33 -47.666 33 -78.999zM818.999 1178
c0 -31.333 -10.999 -58 -32.999 -80s-48.333 -33 -79 -33c-31.333 0 -58 11 -80 33s-33 48.667 -33 80s11 57.666 33 78.999c22 22 48.667 33 80 33s57.666 -11 78.999 -33c22 -21.333 33 -47.666 33 -78.999zM492 -10c-52 0 -100.332 9.66699 -144.999 29
c-44.667 20 -83.667 47.333 -117 82s-59.333 76.667 -78 126c-19.333 49.333 -29 103.333 -29 162v533h184v-533c0 -31.333 6 -60.666 18 -87.999c11.333 -27.333 27 -51.333 47 -72s42.667 -36.667 68 -48c26 -11.333 53.333 -17 82 -17c30 0 58.667 5.66699 86 17
s51.333 27.333 72 48s37 44.667 49 72s18.333 56.666 19 87.999v533h184v-922h-133l-41 92c-18 -19.333 -39.333 -36.333 -64 -51c-22 -13.333 -49.667 -25.333 -83 -36c-32.667 -10 -72.334 -15 -119.001 -15z" />
    <glyph glyph-name="yacute" unicode="&#xfd;" horiz-adv-x="942" 
d="M532 1319h175l-175 -246h-122zM20 922h195l256 -666l256 666h195l-390 -983c-20.667 -52 -40.667 -95.333 -60 -130c-20 -34.667 -41.333 -63 -64 -85c-23.333 -22 -49 -38 -77 -48c-28 -9.33301 -59.667 -14 -95 -14c-8 0 -15.667 0.333008 -23 1
c-6.66699 0.666992 -13.334 1.66699 -20.001 3s-13 3.33301 -19 6v154c52 0 91.333 11 118 33s45.334 48.667 56.001 80l31 92z" />
    <glyph glyph-name="thorn" unicode="&#xfe;" horiz-adv-x="1085" 
d="M573 932c61.333 0 118.668 -11.667 172.001 -35s100.166 -55.833 140.499 -97.5s71.833 -91.167 94.5 -148.5s34 -120.666 34 -189.999s-11.333 -132.833 -34 -190.5s-54.167 -107.334 -94.5 -149.001s-87 -74 -140 -97s-110.5 -34.5 -172.5 -34.5
c-44 0 -81.5 5 -112.5 15s-57.5 22 -79.5 36c-24.667 15.333 -46 32.333 -64 51v-420h-184v1618h184v-471c19.333 20.667 41.333 39 66 55c22 15.333 49 28.833 81 40.5s68.333 17.5 109 17.5zM563.002 164c35.333 0 69.166 7.16602 101.499 21.499
s60.666 34.833 84.999 61.5s43.666 58 57.999 94s21.5 76 21.5 120s-7.16699 84 -21.5 120s-33.666 67.333 -57.999 94s-52.666 47.167 -84.999 61.5s-66.166 21.5 -101.499 21.5s-69 -7.16699 -101 -21.5s-60.333 -34.833 -85 -61.5s-44.167 -58.167 -58.5 -94.5
s-21.5 -76.166 -21.5 -119.499c0 -44 7.16699 -84 21.5 -120s33.833 -67.333 58.5 -94s53 -47.167 85 -61.5s65.667 -21.5 101 -21.5z" />
    <glyph glyph-name="ydieresis" unicode="&#xff;" horiz-adv-x="942" 
d="M410 1178c0 -31.333 -11 -58 -33 -80s-48.667 -33 -80 -33s-58 11 -80 33s-33 48.667 -33 80s11 57.666 33 78.999c22 22 48.667 33 80 33s58 -11 80 -33c22 -21.333 33 -47.666 33 -78.999zM758 1178c0 -31.333 -11 -58 -33 -80s-48.667 -33 -80 -33s-58 11 -80 33
s-33 48.667 -33 80s11 57.666 33 78.999c22 22 48.667 33 80 33s58 -11 80 -33c22 -21.333 33 -47.666 33 -78.999zM20 922h195l256 -666l256 666h195l-390 -983c-20.667 -52 -40.667 -95.333 -60 -130c-20 -34.667 -41.333 -63 -64 -85c-23.333 -22 -49 -38 -77 -48
c-28 -9.33301 -59.667 -14 -95 -14c-8 0 -15.667 0.333008 -23 1c-6.66699 0.666992 -13.334 1.66699 -20.001 3s-13 3.33301 -19 6v154c52 0 91.333 11 118 33s45.334 48.667 56.001 80l31 92z" />
    <glyph glyph-name="Amacron" unicode="&#x100;" horiz-adv-x="1146" 
d="M829 1454h-512v133h512v-133zM205 0h-205l492 1290h163l492 -1290h-205l-113 297h-512zM758 481l-185 512l-184 -512h369z" />
    <glyph glyph-name="amacron" unicode="&#x101;" horiz-adv-x="952" 
d="M748 1106h-512v133h512v-133zM481 932c53.333 0 102.335 -8.66504 147.002 -25.998s82.334 -40.333 113.001 -69c31.333 -29.333 55.666 -64 72.999 -104c17.333 -39.333 26 -82.333 26 -129v-604h-133l-41 92c-18 -19.333 -39.333 -36.333 -64 -51
c-22 -13.333 -49.667 -25.333 -83 -36c-33.333 -10 -73.333 -15 -120 -15c-102.667 0 -181 25.667 -235 77c-54.667 51.333 -82 117.666 -82 198.999c0 46.667 9 88.667 27 126s48.333 69.333 91 96c43.333 26.667 101.666 47.667 174.999 63
c74 15.333 167.333 22.666 280 21.999v31c0 46.667 -14.667 84 -44 112s-72.666 42 -129.999 42c-61.333 0 -106 -11 -134 -33s-44.667 -48.667 -50 -80h-184c5.33301 82 39.666 150.333 102.999 205s151.666 82 264.999 82zM410.002 154.002c78 0 138.334 20 181.001 60
c43.333 40 64.666 88.667 63.999 146v50c-82 0 -148 -4 -198 -12c-50.667 -7.33301 -90.334 -17.333 -119.001 -30s-47.667 -29 -57 -49c-9.33301 -19.333 -14.333 -40.333 -15 -63c0 -26 12.333 -49.667 37 -71c24.667 -20.667 60.334 -31 107.001 -31z" />
    <glyph glyph-name="Abreve" unicode="&#x102;" horiz-adv-x="1146" 
d="M573 1556c31.333 0 58.334 10.667 81.001 32s36.667 45 42 71h144c-10.667 -66.667 -39.667 -122.667 -87 -168s-107.333 -68 -180 -68s-132.334 22.667 -179.001 68c-47.333 45.333 -76.333 101.333 -87 168h144c5.33301 -26 19.333 -49.667 42 -71
c22 -21.333 48.667 -32 80 -32zM205.001 0h-205l492 1290h163l492 -1290h-205l-113 297h-512zM758.001 481l-185 512l-184 -512h369z" />
    <glyph glyph-name="abreve" unicode="&#x103;" horiz-adv-x="952" 
d="M483 1188c31.333 0 58.334 10.667 81.001 32s36.667 44.666 42 69.999h144c-10.667 -66.667 -39.667 -122.667 -87 -168s-107.333 -67.666 -180 -66.999c-72.667 0 -132.334 22.333 -179.001 67c-47.333 45.333 -76.333 101.333 -87 168h143
c5.33301 -26 19.333 -49.333 42 -70c22.667 -21.333 49.667 -32 81 -32zM481.001 932c53.333 0 102.335 -8.66504 147.002 -25.998s82.334 -40.333 113.001 -69c31.333 -29.333 55.666 -64 72.999 -104c17.333 -39.333 26 -82.333 26 -129v-604h-133l-41 92
c-18 -19.333 -39.333 -36.333 -64 -51c-22 -13.333 -49.667 -25.333 -83 -36c-33.333 -10 -73.333 -15 -120 -15c-102.667 0 -181 25.667 -235 77c-54.667 51.333 -82 117.666 -82 198.999c0 46.667 9 88.667 27 126s48.333 69.333 91 96
c43.333 26.667 101.666 47.667 174.999 63c74 15.333 167.333 22.666 280 21.999v31c0 46.667 -14.667 84 -44 112s-72.666 42 -129.999 42c-61.333 0 -106 -11 -134 -33s-44.667 -48.667 -50 -80h-184c5.33301 82 39.666 150.333 102.999 205s151.666 82 264.999 82z
M410.003 154.002c78 0 138.334 20 181.001 60c43.333 40 64.666 88.667 63.999 146v50c-82 0 -148 -4 -198 -12c-50.667 -7.33301 -90.334 -17.333 -119.001 -30s-47.667 -29 -57 -49c-9.33301 -19.333 -14.333 -40.333 -15 -63c0 -26 12.333 -49.667 37 -71
c24.667 -20.667 60.334 -31 107.001 -31z" />
    <glyph glyph-name="Aogonek" unicode="&#x104;" horiz-adv-x="1146" 
d="M829 297l-512.001 0.000976562l-112 -297h-205l492 1290h163l492 -1290h-82c-13.333 -16.667 -25.666 -33.667 -36.999 -51c-9.33301 -15.333 -17.5 -32.833 -24.5 -52.5s-10.5 -39.834 -10.5 -60.501c0 -26 9 -47.833 27 -65.5s39.667 -26.5 65 -26.5
c10.667 0 20.5 0.333008 29.5 1s17.833 1.66699 26.5 3c8 1.33301 16.667 3.33301 26 6v-102c-10.667 -2.66699 -21.334 -4.66699 -32.001 -6c-9.33301 -1.33301 -20.333 -2.33301 -33 -3s-25 -1 -37 -1c-61.333 0 -109.166 16 -143.499 48s-51.5 74 -51.5 126
c0 26 3.5 50.167 10.5 72.5s15.167 41.833 24.5 58.5c10.667 19.333 23 37 37 53zM757.999 481.001l-185 512l-184 -512h369z" />
    <glyph glyph-name="aogonek" unicode="&#x105;" horiz-adv-x="952" 
d="M666 92c-18 -19.333 -39.3301 -36.333 -63.9971 -51c-22 -13.333 -49.667 -25.166 -83 -35.499s-73.333 -15.5 -120 -15.5c-102.667 0 -181.167 25.5 -235.5 76.5s-81.5 117.5 -81.5 199.5c0 46.667 8.83301 88.834 26.5 126.501s48 69.667 91 96s101.333 47 175 62
s167.167 22.5 280.5 22.5v31c0 46.667 -14.667 84 -44 112s-72.666 42 -129.999 42c-61.333 0 -106 -11 -134 -33s-44.667 -48.667 -50 -80h-184c5.33301 82 39.666 150.333 102.999 205s151.666 82 264.999 82c53.333 0 102.166 -8.5 146.499 -25.5
s82.166 -40.167 113.499 -69.5s55.666 -63.833 72.999 -103.5s26 -82.834 26 -129.501v-604h-11c-13.333 -16.667 -25.333 -33.667 -36 -51c-9.33301 -15.333 -17.5 -32.833 -24.5 -52.5s-10.5 -39.834 -10.5 -60.501c0 -26 8.83301 -47.833 26.5 -65.5
s39.5 -26.5 65.5 -26.5c10.667 0 20.5 0.333008 29.5 1s17.5 1.66699 25.5 3s17 3.33301 27 6v-102c-10.667 -2.66699 -21.667 -4.66699 -33 -6c-9.33301 -1.33301 -20.166 -2.33301 -32.499 -3s-24.833 -1 -37.5 -1c-61.333 0 -109 16 -143 48s-51 74 -51 126
c0 26 3.33301 50.167 10 72.5s15 41.833 25 58.5c10.667 19.333 23 37 37 53zM410.003 154c78 0 138.333 20 181 60s64 88.667 64 146v50c-82 0 -148.167 -3.83301 -198.5 -11.5s-89.833 -18 -118.5 -31s-47.834 -29 -57.501 -48s-14.5 -40.167 -14.5 -63.5
c0 -26 12.333 -49.5 37 -70.5s60.334 -31.5 107.001 -31.5z" />
    <glyph glyph-name="Cacute" unicode="&#x106;" horiz-adv-x="1310" 
d="M748 1690h174l-174 -246h-123zM266 645c0 -69.333 12.0029 -133.329 36.0029 -191.996s55.333 -109.667 94 -153s83.334 -76.666 134.001 -99.999c50.667 -24 102.667 -36 156 -36c49.333 0 93.666 7 132.999 21c39.333 14.667 74.333 34.667 105 60
c30 25.333 54.667 54.666 74 87.999c20 33.333 35.333 69 46 107h205c-15.333 -61.333 -39 -119.333 -71 -174c-32.667 -54.667 -73.334 -102.334 -122.001 -143.001s-104 -73 -166 -97s-130 -36 -204 -36c-82 0 -160 16.667 -234 50
c-74.667 33.333 -140 79.666 -196 138.999s-100.667 128.666 -134 207.999s-50 165.333 -50 258c0 91.333 16.667 177 50 257s78 149.667 134 209s121.333 105.666 196 138.999s152.667 50 234 50c70.667 0 137 -11.667 199 -35c61.333 -24 115.666 -56.667 162.999 -98
c47.333 -40.667 87 -88.334 119 -143.001c32.667 -54.667 56.667 -112.667 72 -174h-205c-10.667 38 -26 73.667 -46 107s-44.667 63 -74 89c-29.333 25.333 -63 45 -101 59c-38 14.667 -80.333 21.667 -127 21c-53.333 0 -105.333 -11.667 -156 -35
c-50.667 -24 -95.334 -57.667 -134.001 -101s-70 -94 -94 -152c-24 -59.333 -36 -123.666 -36 -192.999z" />
    <glyph glyph-name="cacute" unicode="&#x107;" horiz-adv-x="983" 
d="M573 1319h175l-175 -246h-122zM922 338c-10.667 -49.333 -28 -94.9951 -52 -136.995c-23.333 -42 -52.666 -79 -87.999 -111c-35.333 -31.333 -76 -56 -122 -74s-95.333 -26.667 -148 -26c-61.333 0 -118.666 11.667 -171.999 35s-100 55.666 -140 96.999
s-71.667 90.666 -95 147.999c-22.667 57.333 -33.667 121 -33 191c0 69.333 11 132.666 33 189.999c22.667 57.333 54.334 107 95.001 149c40 41.333 86.667 73.666 140 96.999s110.666 35 171.999 35c53.333 0 102.666 -9 147.999 -27c46 -18 86.667 -42.667 122 -74
s64.666 -68 87.999 -110s40.666 -87.667 51.999 -137h-195c-15.333 52 -40.666 94 -75.999 126s-81.666 48 -138.999 48c-32.667 0 -64.667 -7.33301 -96 -22s-58.666 -35 -81.999 -61c-23.333 -26.667 -42 -58 -56 -94c-14.667 -36 -22 -76 -22 -120s7.33301 -84 22 -120
s33.334 -67.333 56.001 -94c23.333 -26.667 50.666 -47.334 81.999 -62.001s63.333 -21.667 96 -21c57.333 0 103.666 16 138.999 48s60.666 74 75.999 126h195z" />
    <glyph glyph-name="Ccircumflex" unicode="&#x108;" horiz-adv-x="1310" 
d="M952 1434h-164l-102 143l-102 -143h-164l184 245h164zM266 645c0 -69.333 12.0029 -133.329 36.0029 -191.996s55.333 -109.667 94 -153s83.334 -76.666 134.001 -99.999c50.667 -24 102.667 -36 156 -36c49.333 0 93.666 7 132.999 21
c39.333 14.667 74.333 34.667 105 60c30 25.333 54.667 54.666 74 87.999c20 33.333 35.333 69 46 107h205c-15.333 -61.333 -39 -119.333 -71 -174c-32.667 -54.667 -73.334 -102.334 -122.001 -143.001s-104 -73 -166 -97s-130 -36 -204 -36c-82 0 -160 16.667 -234 50
c-74.667 33.333 -140 79.666 -196 138.999s-100.667 128.666 -134 207.999s-50 165.333 -50 258c0 91.333 16.667 177 50 257s78 149.667 134 209s121.333 105.666 196 138.999s152.667 50 234 50c70.667 0 137 -11.667 199 -35c61.333 -24 115.666 -56.667 162.999 -98
c47.333 -40.667 87 -88.334 119 -143.001c32.667 -54.667 56.667 -112.667 72 -174h-205c-10.667 38 -26 73.667 -46 107s-44.667 63 -74 89c-29.333 25.333 -63 45 -101 59c-38 14.667 -80.333 21.667 -127 21c-53.333 0 -105.333 -11.667 -156 -35
c-50.667 -24 -95.334 -57.667 -134.001 -101s-70 -94 -94 -152c-24 -59.333 -36 -123.666 -36 -192.999z" />
    <glyph glyph-name="ccircumflex" unicode="&#x109;" horiz-adv-x="983" 
d="M778 1065h-164l-102 143l-102 -143h-164l184 246h164zM922 338c-10.667 -49.333 -28 -94.9951 -52 -136.995c-23.333 -42 -52.666 -79 -87.999 -111c-35.333 -31.333 -76 -56 -122 -74s-95.333 -26.667 -148 -26c-61.333 0 -118.666 11.667 -171.999 35
s-100 55.666 -140 96.999s-71.667 90.666 -95 147.999c-22.667 57.333 -33.667 121 -33 191c0 69.333 11 132.666 33 189.999c22.667 57.333 54.334 107 95.001 149c40 41.333 86.667 73.666 140 96.999s110.666 35 171.999 35c53.333 0 102.666 -9 147.999 -27
c46 -18 86.667 -42.667 122 -74s64.666 -68 87.999 -110s40.666 -87.667 51.999 -137h-195c-15.333 52 -40.666 94 -75.999 126s-81.666 48 -138.999 48c-32.667 0 -64.667 -7.33301 -96 -22s-58.666 -35 -81.999 -61c-23.333 -26.667 -42 -58 -56 -94
c-14.667 -36 -22 -76 -22 -120s7.33301 -84 22 -120s33.334 -67.333 56.001 -94c23.333 -26.667 50.666 -47.334 81.999 -62.001s63.333 -21.667 96 -21c57.333 0 103.666 16 138.999 48s60.666 74 75.999 126h195z" />
    <glyph glyph-name="Ccaron" unicode="&#x10c;" horiz-adv-x="1310" 
d="M758 1434h-164l-184 245h163l103 -143l102 143h164zM266 645c0 -69.333 12.0029 -133.329 36.0029 -191.996s55.333 -109.667 94 -153s83.334 -76.666 134.001 -99.999c50.667 -24 102.667 -36 156 -36c49.333 0 93.666 7 132.999 21c39.333 14.667 74.333 34.667 105 60
c30 25.333 54.667 54.666 74 87.999c20 33.333 35.333 69 46 107h205c-15.333 -61.333 -39 -119.333 -71 -174c-32.667 -54.667 -73.334 -102.334 -122.001 -143.001s-104 -73 -166 -97s-130 -36 -204 -36c-82 0 -160 16.667 -234 50
c-74.667 33.333 -140 79.666 -196 138.999s-100.667 128.666 -134 207.999s-50 165.333 -50 258c0 91.333 16.667 177 50 257s78 149.667 134 209s121.333 105.666 196 138.999s152.667 50 234 50c70.667 0 137 -11.667 199 -35c61.333 -24 115.666 -56.667 162.999 -98
c47.333 -40.667 87 -88.334 119 -143.001c32.667 -54.667 56.667 -112.667 72 -174h-205c-10.667 38 -26 73.667 -46 107s-44.667 63 -74 89c-29.333 25.333 -63 45 -101 59c-38 14.667 -80.333 21.667 -127 21c-53.333 0 -105.333 -11.667 -156 -35
c-50.667 -24 -95.334 -57.667 -134.001 -101s-70 -94 -94 -152c-24 -59.333 -36 -123.666 -36 -192.999z" />
    <glyph glyph-name="ccaron" unicode="&#x10d;" horiz-adv-x="983" 
d="M594 1065h-164l-184 246h164l102 -144l102 144h164zM922 338c-10.667 -49.333 -28 -94.9951 -52 -136.995c-23.333 -42 -52.666 -79 -87.999 -111c-35.333 -31.333 -76 -56 -122 -74s-95.333 -26.667 -148 -26c-61.333 0 -118.666 11.667 -171.999 35
s-100 55.666 -140 96.999s-71.667 90.666 -95 147.999c-22.667 57.333 -33.667 121 -33 191c0 69.333 11 132.666 33 189.999c22.667 57.333 54.334 107 95.001 149c40 41.333 86.667 73.666 140 96.999s110.666 35 171.999 35c53.333 0 102.666 -9 147.999 -27
c46 -18 86.667 -42.667 122 -74s64.666 -68 87.999 -110s40.666 -87.667 51.999 -137h-195c-15.333 52 -40.666 94 -75.999 126s-81.666 48 -138.999 48c-32.667 0 -64.667 -7.33301 -96 -22s-58.666 -35 -81.999 -61c-23.333 -26.667 -42 -58 -56 -94
c-14.667 -36 -22 -76 -22 -120s7.33301 -84 22 -120s33.334 -67.333 56.001 -94c23.333 -26.667 50.666 -47.334 81.999 -62.001s63.333 -21.667 96 -21c57.333 0 103.666 16 138.999 48s60.666 74 75.999 126h195z" />
    <glyph glyph-name="Dcaron" unicode="&#x10e;" horiz-adv-x="1239" 
d="M696 1434h-164l-184 245h164l102 -143l103 143h164zM543 184c53.333 0 105.001 11.666 155.001 34.999c50.667 23.333 95.667 55.333 135 96c38.667 40.667 70 89.334 94 146.001c24 56 36 117.333 36 184s-12 128 -36 184s-55.333 104.667 -94 146
c-38.667 40.667 -83.667 72.667 -135 96c-50.667 23.333 -102.334 35 -155.001 35h-195v-922h195zM154.001 -0.000976562v1290h389c82 0 160 -16.667 234 -50c74.667 -33.333 140 -79.333 196 -138s100.667 -127 134 -205s50 -162 50 -252s-16.667 -174 -50 -252
s-78 -146.333 -134 -205s-121.333 -104.667 -196 -138s-152.667 -50 -234 -50h-389z" />
    <glyph glyph-name="dcaron" unicode="&#x10f;" horiz-adv-x="1198" 
d="M1137 1290h163l-122 -246h-113zM512 -10c-61.333 0 -118.666 11.499 -171.999 34.499s-100.166 55.333 -140.499 97s-71.666 91.167 -93.999 148.5s-33.5 121 -33.5 191c0 69.333 11.167 132.666 33.5 189.999s53.666 106.833 93.999 148.5s87.166 74.167 140.499 97.5
s110.666 35 171.999 35c44 0 81.667 -5.5 113 -16.5s58 -22.5 80 -34.5c24.667 -15.333 45.667 -32.666 63 -51.999v461h184v-1290h-133l-41 92c-18 -19.333 -39 -36.333 -63 -51c-22 -13.333 -49.667 -25.166 -83 -35.499s-73.333 -15.5 -120 -15.5zM522 757.999
c-35.333 0 -69 -7.16797 -101 -21.501s-60.333 -34.833 -85 -61.5s-44.167 -58.167 -58.5 -94.5s-21.5 -76.166 -21.5 -119.499c0 -44 7.16699 -84 21.5 -120s33.833 -67.333 58.5 -94s53 -47.167 85 -61.5s65.667 -21.5 101 -21.5s69.166 7.16699 101.499 21.5
s60.666 34.833 84.999 61.5s43.666 58 57.999 94s21.5 76 21.5 120s-7.16699 84 -21.5 120s-33.666 67.333 -57.999 94s-52.666 47.167 -84.999 61.5s-66.166 21.5 -101.499 21.5z" />
    <glyph glyph-name="Dcroat" unicode="&#x110;" horiz-adv-x="1300" 
d="M215 0v543h-174v184h174v563h389c82 0 160.167 -16.667 234.5 -50s139.5 -79.333 195.5 -138s100.833 -127 134.5 -205s50.5 -162 50.5 -252s-16.833 -174 -50.5 -252s-78.5 -146.333 -134.5 -205s-121.167 -104.667 -195.5 -138s-152.5 -50 -234.5 -50h-389zM604 184
c53.333 0 105.333 11.667 156 35s95.334 55.5 134.001 96.5s70 89.5 94 145.5s36 117.333 36 184s-12 128 -36 184s-55.333 104.5 -94 145.5s-83.334 73.167 -134.001 96.5s-102.667 35 -156 35h-194v-379h245v-184h-245v-359h194z" />
    <glyph glyph-name="dcroat" unicode="&#x111;" horiz-adv-x="1075" 
d="M1075 973l-153 -0.000976562v-973h-134l-40 92c-18 -19.333 -39.333 -36.333 -64 -51c-22 -13.333 -49.667 -25.166 -83 -35.499s-73.333 -15.5 -120 -15.5c-56 0 -108.833 10.833 -158.5 32.5s-93 51.667 -130 90s-66.333 83.833 -88 136.5s-32.5 109.667 -32.5 171
s10.833 118.333 32.5 171s51 98 88 136s80.333 68 130 90s102.5 33 158.5 33c44 0 81.667 -5.5 113 -16.5s58 -22.5 80 -34.5c24.667 -15.333 45.667 -32.333 63 -51v225h-256v164h256v153h187v-153h151v-164zM502 163.999c32.667 0 64 6.5 94 19.5s56.333 31 79 54
s40.5 50.333 53.5 82s19.5 65.167 19.5 100.5s-6.5 68.666 -19.5 99.999s-30.833 58.666 -53.5 81.999s-49 41.5 -79 54.5s-61.333 19.5 -94 19.5s-64.167 -6.5 -94.5 -19.5s-56.666 -31.167 -78.999 -54.5s-40 -50.666 -53 -81.999s-19.5 -64.666 -19.5 -99.999
s6.5 -68.833 19.5 -100.5s30.667 -59 53 -82s48.666 -41 78.999 -54s61.833 -19.5 94.5 -19.5z" />
    <glyph glyph-name="Emacron" unicode="&#x112;" horiz-adv-x="1126" 
d="M840 1475h-512v133h512v-133zM1024 184v-184h-870v1290h850v-184h-656v-348h604v-185h-604v-389h676z" />
    <glyph glyph-name="emacron" unicode="&#x113;" horiz-adv-x="1013" 
d="M768 1106h-512v133h512v-133zM922 266c-15.333 -38 -34.6738 -73.665 -58.0068 -106.998s-51.333 -62.666 -84 -87.999s-70.334 -45.333 -113.001 -60c-43.333 -14.667 -91.666 -21.667 -144.999 -21c-61.333 0 -118.666 11.667 -171.999 35s-100 55.666 -140 96.999
s-71.333 90.666 -94 147.999s-34 121 -34 191c0 69.333 11.333 132.666 34 189.999s53.334 107 92.001 149c38.667 41.333 84.334 73.666 137.001 96.999s108.334 35 167.001 35s114.334 -11.667 167.001 -35s98.334 -55.666 137.001 -96.999s69.334 -91 92.001 -149
c22.667 -57.333 34 -120.666 34 -189.999c0 -10.667 -0.666992 -21.334 -2 -32.001c-1.33301 -10 -2.66602 -18.667 -3.99902 -26c-1.33301 -9.33301 -2.66602 -17.333 -3.99902 -24h-656c2.66699 -28.667 11 -56 25 -82c13.333 -26 30.666 -49 51.999 -69
s46.666 -35.667 75.999 -47s60.333 -17 93 -17c56 0 100.333 12 133 36s56.667 46 72 66h195zM511.992 758.002c-61.333 0 -113.333 -21.001 -156 -63.001c-42 -41.333 -68.667 -95.666 -80 -162.999h492c-10.667 66.667 -38 121 -82 163c-43.333 42 -101.333 63 -174 63z
" />
    <glyph glyph-name="Edotaccent" unicode="&#x116;" horiz-adv-x="1126" 
d="M707 1546c0 -31.333 -11 -58 -33 -80s-48.667 -32.667 -80 -32c-31.333 0 -58 10.667 -80 32c-22 22 -33 48.667 -33 80s11 58 33 80s48.667 33 80 33s58 -11 80 -33s33 -48.667 33 -80zM1024 184v-184h-870v1290h850v-184h-656v-348h604v-185h-604v-389h676z" />
    <glyph glyph-name="edotaccent" unicode="&#x117;" horiz-adv-x="1013" 
d="M625 1178c0 -31.333 -11 -58 -33 -80s-48.667 -33 -80 -33s-58 11 -80 33s-33 48.667 -33 80s11 57.666 33 78.999c22 22 48.667 33 80 33s58 -11 80 -33c22 -21.333 33 -47.666 33 -78.999zM922 266c-15.333 -38 -34.6738 -73.665 -58.0068 -106.998
s-51.333 -62.666 -84 -87.999s-70.334 -45.333 -113.001 -60c-43.333 -14.667 -91.666 -21.667 -144.999 -21c-61.333 0 -118.666 11.667 -171.999 35s-100 55.666 -140 96.999s-71.333 90.666 -94 147.999s-34 121 -34 191c0 69.333 11.333 132.666 34 189.999
s53.334 107 92.001 149c38.667 41.333 84.334 73.666 137.001 96.999s108.334 35 167.001 35s114.334 -11.667 167.001 -35s98.334 -55.666 137.001 -96.999s69.334 -91 92.001 -149c22.667 -57.333 34 -120.666 34 -189.999c0 -10.667 -0.666992 -21.334 -2 -32.001
c-1.33301 -10 -2.66602 -18.667 -3.99902 -26c-1.33301 -9.33301 -2.66602 -17.333 -3.99902 -24h-656c2.66699 -28.667 11 -56 25 -82c13.333 -26 30.666 -49 51.999 -69s46.666 -35.667 75.999 -47s60.333 -17 93 -17c56 0 100.333 12 133 36s56.667 46 72 66h195z
M511.992 758.002c-61.333 0 -113.333 -21.001 -156 -63.001c-42 -41.333 -68.667 -95.666 -80 -162.999h492c-10.667 66.667 -38 121 -82 163c-43.333 42 -101.333 63 -174 63z" />
    <glyph glyph-name="Eogonek" unicode="&#x118;" horiz-adv-x="1126" 
d="M154 0l-0.000976562 1290h850v-184h-656v-348h604v-185h-604v-389h676v-184c-13.333 -16.667 -25.666 -33.667 -36.999 -51c-9.33301 -15.333 -17.5 -32.833 -24.5 -52.5s-10.5 -39.834 -10.5 -60.501c0 -26 9 -47.833 27 -65.5s39.667 -26.5 65 -26.5
c10.667 0 20.5 0.333008 29.5 1s17.833 1.66699 26.5 3c8 1.33301 16.667 3.33301 26 6v-102c-10.667 -2.66699 -21.334 -4.66699 -32.001 -6c-9.33301 -1.33301 -20.333 -2.33301 -33 -3s-25 -1 -37 -1c-61.333 0 -109.166 16 -143.499 48s-51.5 74 -51.5 126
c0 26 3.5 50.167 10.5 72.5s15.167 41.833 24.5 58.5c10.667 19.333 23 37 37 53h-747z" />
    <glyph glyph-name="eogonek" unicode="&#x119;" horiz-adv-x="1013" 
d="M922 266c-31.333 -72.667 -72.6777 -132.498 -124.011 -179.498s-116 -75.833 -194 -86.5c-13.333 -16.667 -25.666 -33.667 -36.999 -51c-9.33301 -15.333 -17.5 -32.833 -24.5 -52.5s-10.5 -39.834 -10.5 -60.501c0 -26 9 -47.833 27 -65.5s40 -26.5 66 -26.5
c10.667 0 20.5 0.333008 29.5 1s17.5 1.66699 25.5 3s17 3.33301 27 6v-102c-10.667 -2.66699 -21.667 -4.66699 -33 -6c-9.33301 -1.33301 -20.166 -2.33301 -32.499 -3s-24.833 -1 -37.5 -1c-61.333 0 -109 16 -143 48s-51 74 -51 126c0 23.333 3 45.166 9 65.499
s13 38.833 21 55.5c8 19.333 18.333 37 31 53c-52 5.33301 -101.167 20.333 -147.5 45s-87.666 57.5 -123.999 98.5s-65 89 -86 144s-31.5 116.167 -31.5 183.5c0 69.333 11.333 132.666 34 189.999s53.334 106.833 92.001 148.5s84.334 74.167 137.001 97.5
s108.334 35 167.001 35s114.334 -11.667 167.001 -35s98.334 -55.833 137.001 -97.5s69.334 -91.167 92.001 -148.5s34 -120.666 34 -189.999c0 -10.667 -0.666992 -21.167 -2 -31.5s-2.66602 -19.166 -3.99902 -26.499c-1.33301 -9.33301 -2.66602 -17.333 -3.99902 -24
h-656c2.66699 -28.667 11 -56 25 -82s31.5 -48.833 52.5 -68.5s46.167 -35.334 75.5 -47.001s60.333 -17.5 93 -17.5c56 0 100.5 12 133.5 36s56.833 46 71.5 66h195zM511.988 758.002c-61.333 0 -113.166 -20.833 -155.499 -62.5s-69.166 -96.167 -80.499 -163.5h492
c-10.667 66.667 -37.834 121 -81.501 163s-101.834 63 -174.501 63z" />
    <glyph glyph-name="Ecaron" unicode="&#x11a;" horiz-adv-x="1126" 
d="M676 1434h-164l-184 245h164l102 -143l102 143h164zM1024 184v-184h-870v1290h850v-184h-656v-348h604v-185h-604v-389h676z" />
    <glyph glyph-name="ecaron" unicode="&#x11b;" horiz-adv-x="1013" 
d="M594 1065h-164l-184 246h164l102 -144l102 144h164zM922 266c-15.333 -38 -34.6738 -73.665 -58.0068 -106.998s-51.333 -62.666 -84 -87.999s-70.334 -45.333 -113.001 -60c-43.333 -14.667 -91.666 -21.667 -144.999 -21c-61.333 0 -118.666 11.667 -171.999 35
s-100 55.666 -140 96.999s-71.333 90.666 -94 147.999s-34 121 -34 191c0 69.333 11.333 132.666 34 189.999s53.334 107 92.001 149c38.667 41.333 84.334 73.666 137.001 96.999s108.334 35 167.001 35s114.334 -11.667 167.001 -35s98.334 -55.666 137.001 -96.999
s69.334 -91 92.001 -149c22.667 -57.333 34 -120.666 34 -189.999c0 -10.667 -0.666992 -21.334 -2 -32.001c-1.33301 -10 -2.66602 -18.667 -3.99902 -26c-1.33301 -9.33301 -2.66602 -17.333 -3.99902 -24h-656c2.66699 -28.667 11 -56 25 -82
c13.333 -26 30.666 -49 51.999 -69s46.666 -35.667 75.999 -47s60.333 -17 93 -17c56 0 100.333 12 133 36s56.667 46 72 66h195zM511.992 758.002c-61.333 0 -113.333 -21.001 -156 -63.001c-42 -41.333 -68.667 -95.666 -80 -162.999h492c-10.667 66.667 -38 121 -82 163
c-43.333 42 -101.333 63 -174 63z" />
    <glyph glyph-name="Gbreve" unicode="&#x11e;" horiz-adv-x="1372" 
d="M686 1556c31.333 0 58.334 10.667 81.001 32s36.667 45 42 71h143c-10.667 -66.667 -39.667 -122.667 -87 -168s-107 -68 -179 -68c-72.667 0 -132.334 22.667 -179.001 68c-47.333 45.333 -76.333 101.333 -87 168h143c5.33301 -26 19.333 -49.667 42 -71
s49.667 -32 81 -32zM686.001 -10c-82 0 -160.002 16.6699 -234.002 50.0029c-74.667 33.333 -140 79.666 -196 138.999s-100.667 128.666 -134 207.999s-50 165.333 -50 258c0 91.333 16.667 177 50 257s78 149.667 134 209s121.333 105.666 196 138.999s152.667 50 234 50
c70.667 0 137 -11.667 199 -35c61.333 -24 115.666 -56 162.999 -96c47.333 -39.333 87 -85 119 -137c32.667 -52 56.667 -106 72 -162h-205c-10.667 32.667 -26 65 -46 97c-20 31.333 -44.667 58.666 -74 81.999s-63 42 -101 56c-38 14.667 -80.333 21.667 -127 21
c-53.333 0 -105.333 -11.667 -156 -35c-50.667 -24 -95.334 -57.667 -134.001 -101s-70 -94 -94 -152c-24 -58.667 -36 -123 -36 -193c0 -69.333 12 -133.333 36 -192s55.333 -109.667 94 -153s83.334 -76.666 134.001 -99.999c50.667 -24 102.667 -36 156 -36
c50.667 0 97.334 8.33301 140.001 25c43.333 17.333 81.333 40.333 114 69s59.667 62 81 100s36 79 44 123h-389v185h573v-666h-143l-51 123c-27.333 -26 -59.666 -48.667 -96.999 -68c-31.333 -16.667 -69.666 -31.667 -114.999 -45c-46 -13.333 -98.333 -20 -157 -20z" />
    <glyph glyph-name="gbreve" unicode="&#x11f;" horiz-adv-x="1054" 
d="M512 1188c31.333 0 58.334 10.667 81.001 32s36.667 44.666 42 69.999h143c-10.667 -66.667 -39.667 -122.667 -87 -168s-107 -67.666 -179 -66.999c-72.667 0 -132.334 22.333 -179.001 67c-47.333 45.333 -76.333 101.333 -87 168h143
c5.33301 -26 19.333 -49.333 42 -70c22.667 -21.333 49.667 -32 81 -32zM932.001 922l-0.000976562 -881.002c0 -56 -10 -108 -30 -156s-48 -89.333 -84 -124s-80 -61.334 -132 -80.001c-52 -19.333 -110 -29 -174 -29c-56 0 -106.667 7.66699 -152 23
c-45.333 16 -84.333 37 -117 63c-33.333 26 -61 56.333 -83 91s-37.667 71.334 -47 110.001h184c15.333 -31.333 39.666 -59.666 72.999 -84.999s80.666 -38 141.999 -38c72.667 0 130 20.667 172 62s63.333 95.666 64 162.999v92c-18 -19.333 -39.333 -36.333 -64 -51
c-22 -13.333 -48.667 -25.333 -80 -36c-31.333 -10 -68.666 -15 -111.999 -15c-56 0 -109.667 11.667 -161 35s-96 55 -134 95s-68.667 87.333 -92 142c-22.667 54.667 -33.667 114 -33 178c0 64 11 123.333 33 178c22.667 54.667 53.334 102.334 92.001 143.001
c38 40 82.667 71.667 134 95s105 35 161 35c46.667 0 86.334 -5.66699 119.001 -17c33.333 -10.667 61 -22 83 -34c24.667 -15.333 46 -32.666 64 -51.999l41 93h133zM514 204.998c32.667 0 64.332 7.00098 94.999 21.001c30.667 14.667 57.667 34.667 81 60
s42 54.666 56 87.999c14.667 33.333 22 69 22 107s-7.33301 74 -22 108c-14.667 33.333 -33.334 62.666 -56.001 87.999c-23.333 25.333 -50.666 45 -81.999 59c-31.333 14.667 -63.333 22 -96 22s-64.667 -7.33301 -96 -22s-58.666 -34.334 -81.999 -59.001
c-23.333 -25.333 -42 -54.666 -56 -87.999c-14.667 -33.333 -22 -69.333 -22 -108c0 -38 7.33301 -73.667 22 -107s33.667 -62.666 57 -87.999c24 -25.333 51.333 -45.333 82 -60c30.667 -14 63 -21 97 -21z" />
    <glyph glyph-name="uni0122" unicode="&#x122;" horiz-adv-x="1372" 
d="M686 -133c31.333 0 58 -11.668 80 -35.001s33 -52.666 33 -87.999c0 -49.333 -8.66699 -91 -26 -125s-36 -62.667 -56 -86c-24.667 -26 -52 -47.667 -82 -65l-31 40c13.333 9.33301 26.333 21 39 35c10.667 10.667 21 24.667 31 42
c9.33301 17.333 16.666 36.333 21.999 57c-35.333 0 -64.666 10.667 -87.999 32c-23.333 22 -35 48.667 -35 80s11 58 33 80s48.667 33 80 33zM686 -10.001c-82 0 -160.002 16.6699 -234.002 50.0029c-74.667 33.333 -140 79.666 -196 138.999
s-100.667 128.666 -134 207.999s-50 165.333 -50 258c0 91.333 16.667 177 50 257s78 149.667 134 209s121.333 105.666 196 138.999s152.667 50 234 50c70.667 0 137 -11.667 199 -35c61.333 -24 115.666 -56 162.999 -96c47.333 -39.333 87 -85 119 -137
c32.667 -52 56.667 -106 72 -162h-205c-10.667 32.667 -26 65 -46 97c-20 31.333 -44.667 58.666 -74 81.999s-63 42 -101 56c-38 14.667 -80.333 21.667 -127 21c-53.333 0 -105.333 -11.667 -156 -35c-50.667 -24 -95.334 -57.667 -134.001 -101s-70 -94 -94 -152
c-24 -58.667 -36 -123 -36 -193c0 -69.333 12 -133.333 36 -192s55.333 -109.667 94 -153s83.334 -76.666 134.001 -99.999c50.667 -24 102.667 -36 156 -36c50.667 0 97.334 8.33301 140.001 25c43.333 17.333 81.333 40.333 114 69s59.667 62 81 100s36 79 44 123h-389
v185h573v-666h-143l-51 123c-27.333 -26 -59.666 -48.667 -96.999 -68c-31.333 -16.667 -69.666 -31.667 -114.999 -45c-46 -13.333 -98.333 -20 -157 -20z" />
    <glyph glyph-name="uni0123" unicode="&#x123;" horiz-adv-x="1054" 
d="M522 1055c-31.333 0 -57.8311 11.5 -79.498 34.5s-32.5 52.5 -32.5 88.5c0 48 8.5 89.333 25.5 124s35.833 63.667 56.5 87c24.667 26 51.667 47.667 81 65l31 -41c-13.333 -10.667 -26.333 -23 -39 -37c-10.667 -10.667 -20.834 -24.167 -30.501 -40.5
s-17.167 -34.833 -22.5 -55.5c35.333 0 64.666 -11 87.999 -33s35 -48.667 35 -80s-11 -57.833 -33 -79.5s-48.667 -32.5 -80 -32.5zM932.002 922l0.00195312 -881.004c0 -56 -10 -107.833 -30 -155.5s-48 -89 -84 -124s-80 -62 -132 -81s-110 -28.5 -174 -28.5
c-56 0 -106.5 7.83301 -151.5 23.5s-84.167 36.5 -117.5 62.5s-61 56.333 -83 91s-37.667 71.334 -47 110.001h184c15.333 -31.333 39.666 -59.666 72.999 -84.999s80.666 -38 141.999 -38c72.667 0 130.167 20.833 172.5 62.5s63.5 95.834 63.5 162.501v92
c-18 -19.333 -39.333 -36.333 -64 -51c-22 -13.333 -48.667 -25.166 -80 -35.499s-68.666 -15.5 -111.999 -15.5c-56 0 -109.667 11.5 -161 34.5s-96.166 54.667 -134.499 95s-68.666 87.833 -90.999 142.5s-33.5 114 -33.5 178s11.167 123.333 33.5 178
s52.666 102.167 90.999 142.5s83.166 72.166 134.499 95.499s105 35 161 35c46.667 0 86.667 -5.5 120 -16.5s60.666 -22.5 81.999 -34.5c24.667 -15.333 46 -32.666 64 -51.999l41 93h133zM514.004 204.996c32.667 0 64.3301 7.16602 94.9971 21.499
s57.667 34.166 81 59.499s42.166 54.666 56.499 87.999s21.5 69 21.5 107s-7.16699 73.833 -21.5 107.5s-33.166 63.167 -56.499 88.5s-50.666 45.166 -81.999 59.499s-63.333 21.5 -96 21.5s-64.667 -7.16699 -96 -21.5s-58.666 -34.166 -81.999 -59.499
s-42.166 -54.666 -56.499 -87.999s-21.5 -69.333 -21.5 -108c0 -38 7.16699 -73.667 21.5 -107s33.5 -62.666 57.5 -87.999s51.333 -45.166 82 -59.499s63 -21.5 97 -21.5z" />
    <glyph glyph-name="Imacron" unicode="&#x12a;" horiz-adv-x="501" 
d="M512 1464h-512v133h512v-133zM348 0h-194v1290h194v-1290z" />
    <glyph glyph-name="imacron" unicode="&#x12b;" horiz-adv-x="430" 
d="M471 1106h-512v133h512v-133zM307 0h-184v922h184v-922z" />
    <glyph glyph-name="Iogonek" unicode="&#x12e;" horiz-adv-x="501" 
d="M154 1290l193.999 0.000976562v-1290h-72c-13.333 -16.667 -25.333 -33.667 -36 -51c-9.33301 -15.333 -17.5 -32.833 -24.5 -52.5s-10.5 -39.834 -10.5 -60.501c0 -26 8.83301 -47.833 26.5 -65.5s39.5 -26.5 65.5 -26.5c10.667 0 20.5 0.333008 29.5 1
s17.5 1.66699 25.5 3s17 3.33301 27 6v-102c-10.667 -2.66699 -21.667 -4.66699 -33 -6c-9.33301 -1.33301 -20.166 -2.33301 -32.499 -3s-24.833 -1 -37.5 -1c-61.333 0 -109 16 -143 48s-51 74 -51 126c0 26 3.33301 50.167 10 72.5s15 41.833 25 58.5
c10.667 19.333 23 37 37 53v1290z" />
    <glyph glyph-name="iogonek" unicode="&#x12f;" horiz-adv-x="430" 
d="M123 922l183.997 0.000976562v-922h-61c-13.333 -16.667 -25.666 -33.667 -36.999 -51c-9.33301 -15.333 -17.5 -32.833 -24.5 -52.5s-10.5 -39.834 -10.5 -60.501c0 -26 8.83301 -47.833 26.5 -65.5s39.5 -26.5 65.5 -26.5c10.667 0 20.5 0.333008 29.5 1
s17.833 1.66699 26.5 3c8 1.33301 16.667 3.33301 26 6v-102c-10.667 -2.66699 -21.667 -4.66699 -33 -6c-9.33301 -1.33301 -20.166 -2.33301 -32.499 -3s-24.5 -1 -36.5 -1c-61.333 0 -109.166 16 -143.499 48s-51.5 74 -51.5 126c0 26 3.5 50.167 10.5 72.5
s15.167 41.833 24.5 58.5c10.667 19.333 23 37 37 53v922zM214.997 1065c-31.333 0 -58 10.833 -80 32.5s-33 48.5 -33 80.5c0 31.333 11 57.833 33 79.5s48.667 32.5 80 32.5s58 -10.833 80 -32.5s33 -48.167 33 -79.5s-11 -58 -33 -80s-48.667 -33 -80 -33z" />
    <glyph glyph-name="Idotaccent" unicode="&#x130;" horiz-adv-x="501" 
d="M369 1546c0 -31.333 -11 -58 -33 -80s-48.667 -32.667 -80 -32c-31.333 0 -58 10.667 -80 32c-22 22 -33 48.667 -33 80s11 58 33 80s48.667 33 80 33s58 -11 80 -33s33 -48.667 33 -80zM348 0h-194v1290h194v-1290z" />
    <glyph glyph-name="dotlessi" unicode="&#x131;" horiz-adv-x="430" 
d="M307 0h-184v922h184v-922z" />
    <glyph glyph-name="ij" unicode="&#x133;" horiz-adv-x="901" 
d="M307 307c0 -40.667 13.668 -74.667 41.001 -102s61.666 -41 102.999 -41c18 0 35.333 2 52 6s32 8.66699 46 14c15.333 5.33301 30.333 12.333 45 21v717h184v-942c0 -49.333 -7.16699 -93.5 -21.5 -132.5s-34.5 -72.167 -60.5 -99.5s-56.333 -48.5 -91 -63.5
s-72.334 -22.5 -113.001 -22.5c-28.667 0 -53.334 3.33301 -74.001 10c-10.667 2.66699 -20.334 6.33398 -29.001 11.001v163c5.33301 -2.66699 11.666 -4.66699 18.999 -6c6.66699 -1.33301 13.334 -2.33301 20.001 -3s14.334 -1 23.001 -1c40.667 0 74.667 13.667 102 41
s41 61.666 41 102.999v51c-13.333 -8 -29 -15 -47 -21c-15.333 -5.33301 -34.166 -10 -56.499 -14s-49.166 -6 -80.499 -6c-40.667 0 -78.5 7.5 -113.5 22.5s-65.5 36.167 -91.5 63.5s-46.167 60.333 -60.5 99s-21.5 82.667 -21.5 132v615h184v-615zM215.001 1065
c-31.333 0 -58 10.833 -80 32.5s-33 48.5 -33 80.5c0 31.333 11 57.833 33 79.5s48.667 32.5 80 32.5s58 -10.833 80 -32.5s33 -48.167 33 -79.5s-11 -58 -33 -80s-48.667 -33 -80 -33zM686.001 1065c-31.333 0 -58 10.833 -80 32.5s-33 48.5 -33 80.5
c0 31.333 11 57.833 33 79.5s48.667 32.5 80 32.5s58 -10.833 80 -32.5s33 -48.167 33 -79.5s-11 -58 -33 -80s-48.667 -33 -80 -33z" />
    <glyph glyph-name="uni0136" unicode="&#x136;" horiz-adv-x="1075" 
d="M573 -133c31.333 0 58 -11.668 80 -35.001s33 -52.666 33 -87.999c0 -49.333 -8.66699 -91 -26 -125s-36 -62.667 -56 -86c-24.667 -26 -52 -47.667 -82 -65l-30 40c13.333 9.33301 26 21 38 35c10.667 10.667 21 24.667 31 42c9.33301 17.333 17 36.333 23 57
c-35.333 0 -64.666 10.667 -87.999 32c-23.333 22 -35 48.667 -35 80s11 58 33 80c21.333 22 47.666 33 78.999 33zM860 -0.000976562l-512 604v-604h-194v1290h194v-594l471 594h236l-523 -635l564 -655h-236z" />
    <glyph glyph-name="uni0137" unicode="&#x137;" horiz-adv-x="880" 
d="M481 -133c31.333 0 57.999 -11.668 79.999 -35.001s33 -52.666 33 -87.999c0 -49.333 -8.66699 -91 -26 -125s-36 -62.667 -56 -86c-24.667 -26 -52 -47.667 -82 -65l-31 40c13.333 9.33301 26.333 21 39 35c10.667 10.667 21 24.667 31 42
c9.33301 17.333 17 36.333 23 57c-35.333 0 -65 10.667 -89 32c-23.333 22 -34.666 48.667 -33.999 80c0 31.333 10.667 58 32 80c22 22 48.667 33 80 33zM675.999 -0.000976562l-359 440v-440h-184v1290h184v-768l318 400h215l-358 -430l409 -492h-225z" />
    <glyph glyph-name="Lacute" unicode="&#x139;" horiz-adv-x="983" 
d="M307 1690h174l-174 -246h-123zM963 184v-184h-809v1290h194v-1106h615z" />
    <glyph glyph-name="lacute" unicode="&#x13a;" horiz-adv-x="460" 
d="M287 1690h174l-174 -246h-123zM317 0h-184v1290h184v-1290z" />
    <glyph glyph-name="uni013B" unicode="&#x13b;" horiz-adv-x="983" 
d="M573 -133c31.333 0 58 -11.668 80 -35.001s33 -52.666 33 -87.999c0 -49.333 -8.66699 -91 -26 -125s-36 -62.667 -56 -86c-24.667 -26 -52 -47.667 -82 -65l-30 40c13.333 9.33301 26 21 38 35c10.667 10.667 21 24.667 31 42c9.33301 17.333 17 36.333 23 57
c-35.333 0 -64.666 10.667 -87.999 32c-23.333 22 -35 48.667 -35 80s11 58 33 80c21.333 22 47.666 33 78.999 33zM963 183.999v-184h-809v1290h194v-1106h615z" />
    <glyph glyph-name="uni013C" unicode="&#x13c;" horiz-adv-x="450" 
d="M225 -133c31.333 0 57.999 -11.668 79.999 -35.001s33 -52.666 33 -87.999c0 -49.333 -8.66699 -91 -26 -125s-36 -62.667 -56 -86c-24.667 -26 -52 -47.667 -82 -65l-31 40c13.333 9.33301 26.333 21 39 35c10.667 10.667 21 24.667 31 42
c9.33301 17.333 17 36.333 23 57c-35.333 0 -65 10.667 -89 32c-23.333 22 -34.666 48.667 -33.999 80c0 31.333 10.667 58 32 80c22 22 48.667 33 80 33zM316.999 -0.000976562h-184v1290h184v-1290z" />
    <glyph glyph-name="Lcaron" unicode="&#x13d;" horiz-adv-x="983" 
d="M553 1290h164l-123 -246h-113zM963 184v-184h-809v1290h194v-1106h615z" />
    <glyph glyph-name="lcaron" unicode="&#x13e;" horiz-adv-x="563" 
d="M502 1290h164l-123 -246h-113zM317 0h-184v1290h184v-1290z" />
    <glyph glyph-name="Lslash" unicode="&#x141;" horiz-adv-x="1013" 
d="M993 184v-184h-809v389l-143 -92v184l143 92v717h195v-594l307 205v-184l-307 -205v-328h614z" />
    <glyph glyph-name="lslash" unicode="&#x142;" horiz-adv-x="532" 
d="M512 737l-164 -102v-635h-184v512l-144 -92v174l144 92v598h184v-475l164 102v-174z" />
    <glyph glyph-name="Nacute" unicode="&#x143;" horiz-adv-x="1290" 
d="M707 1690h174l-174 -246h-123zM1137 1290v-1290h-164l-625 922v-922h-194v1290h163l625 -921v921h195z" />
    <glyph glyph-name="nacute" unicode="&#x144;" horiz-adv-x="1044" 
d="M594 1321h174l-174 -246h-123zM563 932c50.667 0 98.667 -9.99902 144 -29.999s84.333 -47.333 117 -82c33.333 -34.667 59.666 -76.667 78.999 -126s29 -103.333 29 -162v-532h-184v532c0 30 -6 58.667 -18 86c-11.333 27.333 -27 51.333 -47 72s-43 37 -69 49
s-53.333 18.333 -82 19c-31.333 0 -60.666 -6.33301 -87.999 -19c-27.333 -12 -51 -28.333 -71 -49c-20.667 -20.667 -36.667 -44.667 -48 -72s-17.333 -56 -18 -86v-532h-184v922h133l41 -93c18 19.333 39 36.666 63 51.999c22 12 49.667 23.333 83 34
c33.333 11.333 73.333 17 120 17z" />
    <glyph glyph-name="uni0145" unicode="&#x145;" horiz-adv-x="1290" 
d="M645 -133c31.333 0 58 -11.668 80 -35.001s33 -52.666 33 -87.999c0 -49.333 -8.66699 -91 -26 -125s-36 -62.667 -56 -86c-24.667 -26 -52 -47.667 -82 -65l-31 40c13.333 9.33301 26.333 21 39 35c10.667 10.667 21 24.667 31 42
c9.33301 17.333 16.666 36.333 21.999 57c-35.333 0 -64.666 10.667 -87.999 32c-23.333 22 -35 48.667 -35 80s11 58 33 80s48.667 33 80 33zM1137 1290v-1290h-164l-625 922v-922h-194v1290h163l625 -921v921h195z" />
    <glyph glyph-name="uni0146" unicode="&#x146;" horiz-adv-x="1044" 
d="M532 -133c31.333 0 58 -11.668 80 -35.001s33 -52.666 33 -87.999c0 -49.333 -8.33301 -91 -25 -125c-17.333 -34 -36.333 -62.667 -57 -86c-24.667 -26 -52 -47.667 -82 -65l-30 40c13.333 9.33301 26 21 38 35c10.667 10.667 21 24.667 31 42
c9.33301 17.333 17 36.333 23 57c-35.333 0 -64.666 10.667 -87.999 32c-23.333 22 -35 48.667 -35 80s11 58 33 80c21.333 22 47.666 33 78.999 33zM563 931.999c50.667 0 98.667 -9.99902 144 -29.999s84.333 -47.333 117 -82c33.333 -34.667 59.666 -76.667 78.999 -126
s29 -103.333 29 -162v-532h-184v532c0 30 -6 58.667 -18 86c-11.333 27.333 -27 51.333 -47 72s-43 37 -69 49s-53.333 18.333 -82 19c-31.333 0 -60.666 -6.33301 -87.999 -19c-27.333 -12 -51 -28.333 -71 -49c-20.667 -20.667 -36.667 -44.667 -48 -72
s-17.333 -56 -18 -86v-532h-184v922h133l41 -93c18 19.333 39 36.666 63 51.999c22 12 49.667 23.333 83 34c33.333 11.333 73.333 17 120 17z" />
    <glyph glyph-name="Ncaron" unicode="&#x147;" horiz-adv-x="1290" 
d="M727 1434h-164l-184 245h164l102 -143l103 143h163zM1137 1290v-1290h-164l-625 922v-922h-194v1290h163l625 -921v921h195z" />
    <glyph glyph-name="ncaron" unicode="&#x148;" horiz-adv-x="1044" 
d="M604 1065h-164l-184 246h164l102 -144l103 144h163zM563 932c50.667 0 98.667 -9.99902 144 -29.999s84.333 -47.333 117 -82c33.333 -34.667 59.666 -76.667 78.999 -126s29 -103.333 29 -162v-532h-184v532c0 30 -6 58.667 -18 86c-11.333 27.333 -27 51.333 -47 72
s-43 37 -69 49s-53.333 18.333 -82 19c-31.333 0 -60.666 -6.33301 -87.999 -19c-27.333 -12 -51 -28.333 -71 -49c-20.667 -20.667 -36.667 -44.667 -48 -72s-17.333 -56 -18 -86v-532h-184v922h133l41 -93c18 19.333 39 36.666 63 51.999c22 12 49.667 23.333 83 34
c33.333 11.333 73.333 17 120 17z" />
    <glyph glyph-name="Omacron" unicode="&#x14c;" horiz-adv-x="1372" 
d="M942 1464h-512v133h512v-133zM1106 645c0 69.333 -12 133.665 -36 192.998c-24 58.667 -55.333 109.334 -94 152.001c-38.667 43.333 -83.334 77 -134.001 101s-102.667 35.667 -156 35c-53.333 0 -105.333 -11.667 -156 -35c-50.667 -24 -95.334 -57.667 -134.001 -101
s-70 -94 -94 -152c-24 -58.667 -36 -123 -36 -193c0 -69.333 12 -133.333 36 -192s55.333 -109.667 94 -153s83.334 -76.666 134.001 -99.999c50.667 -24 102.667 -36 156 -36s105.333 12 156 36s95.334 57.333 134.001 100c38.667 43.333 70 94.333 94 153
s36 122.667 36 192zM1300 644.999c0 -92.667 -16.667 -178.667 -50 -258s-78 -148.666 -134 -207.999s-121 -105.666 -195 -138.999c-74.667 -33.333 -153 -50 -235 -50s-160 16.667 -234 50c-74.667 33.333 -140 79.666 -196 138.999s-100.667 128.666 -134 207.999
s-50 165.333 -50 258c0 91.333 16.667 177 50 257s78 149.667 134 209s121.333 105.666 196 138.999s152.667 50 234 50c82 0 160.333 -16.667 235 -50s139.667 -79.666 195 -138.999c56 -59.333 100.667 -129 134 -209s50 -165.667 50 -257z" />
    <glyph glyph-name="omacron" unicode="&#x14d;" 
d="M768 1106h-512v133h512v-133zM768 461c0 44 -7.33301 84 -22 120s-33.334 67.333 -56.001 94c-23.333 26.667 -50.666 47 -81.999 61c-31.333 14.667 -63.333 22 -96 22s-64.667 -7.33301 -96 -22s-58.666 -35 -81.999 -61c-23.333 -26.667 -42 -58 -56 -94
c-14.667 -36 -22 -76 -22 -120s7.33301 -84 22 -120s33.334 -67.333 56.001 -94c23.333 -26.667 50.666 -47.334 81.999 -62.001s63.333 -21.667 96 -21c32.667 0 64.667 7 96 21c31.333 14.667 58.666 35.334 81.999 62.001s42 58 56 94c14.667 36 22 76 22 120zM952 461
c0 -69.333 -11 -133 -33 -191c-22.667 -57.333 -54.334 -106.666 -95.001 -147.999c-40 -41.333 -86.667 -73.666 -140 -96.999s-110.666 -35 -171.999 -35s-118.666 11.667 -171.999 35s-100 55.666 -140 96.999s-71.667 90.666 -95 147.999
c-22.667 57.333 -33.667 121 -33 191c0 69.333 11 132.666 33 189.999c22.667 57.333 54.334 107 95.001 149c40 41.333 86.667 73.666 140 96.999s110.666 35 171.999 35s118.666 -11.667 171.999 -35s100 -55.666 140 -96.999s71.667 -91 95 -149
c22 -57.333 33 -120.666 33 -189.999z" />
    <glyph glyph-name="Ohungarumlaut" unicode="&#x150;" horiz-adv-x="1372" 
d="M635 1690h174l-184 -246h-123zM922 1690h174l-185 -246h-123zM1106 645c0 69.333 -12 133.665 -36 192.998c-24 58.667 -55.333 109.334 -94 152.001c-38.667 43.333 -83.334 77 -134.001 101s-102.667 35.667 -156 35c-53.333 0 -105.333 -11.667 -156 -35
c-50.667 -24 -95.334 -57.667 -134.001 -101s-70 -94 -94 -152c-24 -58.667 -36 -123 -36 -193c0 -69.333 12 -133.333 36 -192s55.333 -109.667 94 -153s83.334 -76.666 134.001 -99.999c50.667 -24 102.667 -36 156 -36s105.333 12 156 36s95.334 57.333 134.001 100
c38.667 43.333 70 94.333 94 153s36 122.667 36 192zM1300 644.999c0 -92.667 -16.667 -178.667 -50 -258s-78 -148.666 -134 -207.999s-121 -105.666 -195 -138.999c-74.667 -33.333 -153 -50 -235 -50s-160 16.667 -234 50c-74.667 33.333 -140 79.666 -196 138.999
s-100.667 128.666 -134 207.999s-50 165.333 -50 258c0 91.333 16.667 177 50 257s78 149.667 134 209s121.333 105.666 196 138.999s152.667 50 234 50c82 0 160.333 -16.667 235 -50s139.667 -79.666 195 -138.999c56 -59.333 100.667 -129 134 -209s50 -165.667 50 -257z
" />
    <glyph glyph-name="ohungarumlaut" unicode="&#x151;" 
d="M451 1311h174l-185 -246h-123zM737 1311h174l-184 -246h-123zM768 461c0 44 -7.33301 84 -22 120s-33.334 67.333 -56.001 94c-23.333 26.667 -50.666 47 -81.999 61c-31.333 14.667 -63.333 22 -96 22s-64.667 -7.33301 -96 -22s-58.666 -35 -81.999 -61
c-23.333 -26.667 -42 -58 -56 -94c-14.667 -36 -22 -76 -22 -120s7.33301 -84 22 -120s33.334 -67.333 56.001 -94c23.333 -26.667 50.666 -47.334 81.999 -62.001s63.333 -21.667 96 -21c32.667 0 64.667 7 96 21c31.333 14.667 58.666 35.334 81.999 62.001s42 58 56 94
c14.667 36 22 76 22 120zM952 461c0 -69.333 -11 -133 -33 -191c-22.667 -57.333 -54.334 -106.666 -95.001 -147.999c-40 -41.333 -86.667 -73.666 -140 -96.999s-110.666 -35 -171.999 -35s-118.666 11.667 -171.999 35s-100 55.666 -140 96.999
s-71.667 90.666 -95 147.999c-22.667 57.333 -33.667 121 -33 191c0 69.333 11 132.666 33 189.999c22.667 57.333 54.334 107 95.001 149c40 41.333 86.667 73.666 140 96.999s110.666 35 171.999 35s118.666 -11.667 171.999 -35s100 -55.666 140 -96.999
s71.667 -91 95 -149c22 -57.333 33 -120.666 33 -189.999z" />
    <glyph glyph-name="OE" unicode="&#x152;" horiz-adv-x="1730" 
d="M686 0c-82 0 -160.167 16.667 -234.5 50s-139.5 79.333 -195.5 138s-100.667 127 -134 205s-50 162 -50 252s16.667 174 50 252s78 146.333 134 205s121.167 104.667 195.5 138s152.5 50 234.5 50h922v-184h-584v-348h532v-185h-532v-389h604v-184h-942zM829 184v922
h-143c-53.333 0 -105.166 -11.667 -155.499 -35s-95 -55.5 -134 -96.5s-70.5 -89.5 -94.5 -145.5s-36 -117.333 -36 -184s12 -128 36 -184s55.5 -104.5 94.5 -145.5s83.667 -73.167 134 -96.5s102.166 -35 155.499 -35h143z" />
    <glyph glyph-name="oe" unicode="&#x153;" horiz-adv-x="1648" 
d="M1556 266c-15.333 -38 -34.498 -73.6689 -57.498 -107.002s-50.5 -62.666 -82.5 -87.999s-68.833 -45.166 -110.5 -59.499s-87.834 -21.5 -138.501 -21.5c-52 0 -97.333 8.83301 -136 26.5s-71.667 37.5 -99 59.5c-31.333 24.667 -58.666 54 -81.999 88
c-23.333 -34 -52 -63.333 -86 -88c-28.667 -22 -64.834 -41.833 -108.501 -59.5s-94.834 -26.5 -153.501 -26.5s-114.334 11.5 -167.001 34.5s-98.5 55.333 -137.5 97s-69.667 91.167 -92 148.5s-33.5 121 -33.5 191c0 69.333 11.167 132.666 33.5 189.999
s53 106.833 92 148.5s84.833 74.167 137.5 97.5s108.334 35 167.001 35s109.834 -9.16699 153.501 -27.5s79.834 -38.5 108.501 -60.5c34 -24.667 62.667 -53.334 86 -86.001c22 32.667 48.667 61.334 80 86.001c27.333 22 59.666 42.167 96.999 60.5
s80.666 27.5 129.999 27.5c53.333 0 104.833 -11.667 154.5 -35s93.334 -55.833 131.001 -97.5s67.834 -91.167 90.501 -148.5s34 -120.666 34 -189.999c0 -10.667 -0.666992 -21.167 -2 -31.5s-2.66602 -19.166 -3.99902 -26.499c-1.33301 -9.33301 -3 -17.333 -5 -24h-634
c5.33301 -28.667 15.166 -56 29.499 -82s32.333 -48.833 54 -68.5s46.167 -35.334 73.5 -47.001s56.666 -17.5 87.999 -17.5c52 0 93.667 12 125 36s54.666 46 69.999 66h194zM748.002 460.998c0 46.667 -7.16699 88.668 -21.5 126.001s-32.833 69.333 -55.5 96
s-49 47.5 -79 62.5s-60 22.5 -90 22.5c-31.333 0 -61.666 -7.5 -90.999 -22.5s-55.333 -35.833 -78 -62.5s-41.167 -58.834 -55.5 -96.501s-21.5 -79.5 -21.5 -125.5c0 -46.667 7.16699 -88.667 21.5 -126s32.833 -69.333 55.5 -96s48.667 -47.5 78 -62.5
s59.666 -22.5 90.999 -22.5c30 0 60 7.5 90 22.5s56.333 35.833 79 62.5s41.167 58.667 55.5 96s21.5 79.333 21.5 126zM1157 757.999c-28.667 0 -56 -6.16699 -82 -18.5s-49.5 -28.833 -70.5 -49.5s-38.667 -44.5 -53 -71.5s-24.166 -55.833 -29.499 -86.5h471
c-10.667 66.667 -37.334 121 -80.001 163s-94.667 63 -156 63z" />
    <glyph glyph-name="Racute" unicode="&#x154;" horiz-adv-x="1146" 
d="M635 1690h174l-174 -246h-123zM573 512l-225 0.000976562v-512h-194v1290h512c53.333 0 103.666 -10 150.999 -30c48 -20.667 89.333 -48.334 124 -83.001s62.334 -76 83.001 -124s31 -98.667 31 -152c0 -75.333 -15 -136.333 -45 -183
c-30 -47.333 -63 -84.666 -99 -111.999c-42 -32.667 -89.667 -57.334 -143 -74.001l317 -532h-215zM348 696.001l317.999 -0.00488281c26 0 50.333 5.66699 73 17c23.333 10.667 44 25.334 62 44.001s32.333 40 43 64c10.667 24.667 16 51.334 16 80.001
s-5.33301 55.334 -16 80.001s-25 46.334 -43 65.001s-38.667 33.334 -62 44.001s-47.666 16 -72.999 16h-318v-410z" />
    <glyph glyph-name="racute" unicode="&#x155;" horiz-adv-x="634" 
d="M420 1311h174l-174 -246h-123zM532 932c10.667 0 19.665 -0.666016 26.998 -1.99902c6.66699 -1.33301 13 -2.66602 19 -3.99902l16 -4v-185c-5.33301 1.33301 -11.666 2.66602 -18.999 3.99902l-21 4c-7.33301 1.33301 -14.666 2.33301 -21.999 3
c-31.333 0 -60.666 -6.33301 -87.999 -19c-27.333 -12 -51 -28.333 -71 -49c-20.667 -20.667 -36.667 -44.667 -48 -72s-17.333 -56 -18 -86v-522h-184v922h133l41 -93c16.667 19.333 36.334 36.666 59.001 51.999c19.333 12 43.666 23.333 72.999 34
c29.333 11.333 63.666 17 102.999 17z" />
    <glyph glyph-name="uni0156" unicode="&#x156;" horiz-adv-x="1146" 
d="M594 -115c31.333 0 58 -11.6689 80 -35.002s33 -52.666 33 -87.999c0 -49.333 -8.66699 -90.666 -26 -123.999c-17.333 -34 -36 -63 -56 -87c-24.667 -26 -52 -47.667 -82 -65l-31 41c13.333 9.33301 26.333 21 39 35c10.667 10.667 21 24.667 31 42
c9.33301 17.333 16.666 36 21.999 56c-35.333 0 -64.666 11 -87.999 33s-35 48.667 -35 80s11 58 33 80c22 21.333 48.667 32 80 32zM573 511.998l-225 0.000976562v-512h-194v1290h512c53.333 0 103.666 -10 150.999 -30c48 -20.667 89.333 -48.334 124 -83.001
s62.334 -76 83.001 -124s31 -98.667 31 -152c0 -75.333 -15 -136.333 -45 -183c-30 -47.333 -63 -84.666 -99 -111.999c-42 -32.667 -89.667 -57.334 -143 -74.001l317 -532h-215zM348 695.999l317.999 -0.00488281c26 0 50.333 5.66699 73 17
c23.333 10.667 44 25.334 62 44.001s32.333 40 43 64c10.667 24.667 16 51.334 16 80.001s-5.33301 55.334 -16 80.001s-25 46.334 -43 65.001s-38.667 33.334 -62 44.001s-47.666 16 -72.999 16h-318v-410z" />
    <glyph glyph-name="uni0157" unicode="&#x157;" horiz-adv-x="634" 
d="M215 -133c31.333 0 58 -11.668 80 -35.001s33 -52.666 33 -87.999c0 -49.333 -8.66699 -91 -26 -125s-36 -62.667 -56 -86c-24.667 -26 -52 -47.667 -82 -65l-31 40c13.333 9.33301 26.333 21 39 35c10.667 10.667 21 24.667 31 42
c9.33301 17.333 16.666 36.333 21.999 57c-35.333 0 -64.666 10.667 -87.999 32c-23.333 22 -35 48.667 -35 80s11 58 33 80s48.667 33 80 33zM532 931.999c10.667 0 19.665 -0.666016 26.998 -1.99902c6.66699 -1.33301 13 -2.66602 19 -3.99902l16 -4v-185
c-5.33301 1.33301 -11.666 2.66602 -18.999 3.99902l-21 4c-7.33301 1.33301 -14.666 2.33301 -21.999 3c-31.333 0 -60.666 -6.33301 -87.999 -19c-27.333 -12 -51 -28.333 -71 -49c-20.667 -20.667 -36.667 -44.667 -48 -72s-17.333 -56 -18 -86v-522h-184v922h133l41 -93
c16.667 19.333 36.334 36.666 59.001 51.999c19.333 12 43.666 23.333 72.999 34c29.333 11.333 63.666 17 102.999 17z" />
    <glyph glyph-name="Rcaron" unicode="&#x158;" horiz-adv-x="1146" 
d="M666 1434h-164l-185 245h164l103 -143l102 143h164zM573 512l-225 0.000976562v-512h-194v1290h512c53.333 0 103.666 -10 150.999 -30c48 -20.667 89.333 -48.334 124 -83.001s62.334 -76 83.001 -124s31 -98.667 31 -152c0 -75.333 -15 -136.333 -45 -183
c-30 -47.333 -63 -84.666 -99 -111.999c-42 -32.667 -89.667 -57.334 -143 -74.001l317 -532h-215zM348 696.001l317.999 -0.00488281c26 0 50.333 5.66699 73 17c23.333 10.667 44 25.334 62 44.001s32.333 40 43 64c10.667 24.667 16 51.334 16 80.001
s-5.33301 55.334 -16 80.001s-25 46.334 -43 65.001s-38.667 33.334 -62 44.001s-47.666 16 -72.999 16h-318v-410z" />
    <glyph glyph-name="rcaron" unicode="&#x159;" horiz-adv-x="634" 
d="M461 1065h-164l-184 246h163l103 -144l102 144h164zM532 932c10.667 0 19.665 -0.666016 26.998 -1.99902c6.66699 -1.33301 13 -2.66602 19 -3.99902l16 -4v-185c-5.33301 1.33301 -11.666 2.66602 -18.999 3.99902l-21 4c-7.33301 1.33301 -14.666 2.33301 -21.999 3
c-31.333 0 -60.666 -6.33301 -87.999 -19c-27.333 -12 -51 -28.333 -71 -49c-20.667 -20.667 -36.667 -44.667 -48 -72s-17.333 -56 -18 -86v-522h-184v922h133l41 -93c16.667 19.333 36.334 36.666 59.001 51.999c19.333 12 43.666 23.333 72.999 34
c29.333 11.333 63.666 17 102.999 17z" />
    <glyph glyph-name="Sacute" unicode="&#x15a;" 
d="M584 1690h174l-174 -246h-123zM82 942c0 46.667 10.334 91.333 31.001 134c20.667 43.333 50 81.666 88 114.999s83.333 60 136 80s111 29.667 175 29c61.333 0 117.666 -10 168.999 -30c51.333 -20.667 95.666 -49 132.999 -85s66.333 -78.333 87 -127s31 -101 31 -157
h-195c0 66.667 -20.667 121 -62 163c-41.333 41.333 -95.666 62 -162.999 62c-35.333 0 -67.666 -5 -96.999 -15s-54.333 -24 -75 -42s-36.334 -37.667 -47.001 -59c-10.667 -22 -16.334 -44.667 -17.001 -68c0 -45.333 17.333 -80 52 -104c34 -24.667 76.333 -46 127 -64
s105.667 -35.333 165 -52c59.333 -17.333 114 -40.666 164 -69.999c50.667 -29.333 93 -67.666 127 -114.999c34 -48 51.333 -111 52 -189c0 -46.667 -10.667 -91.334 -32 -134.001c-21.333 -43.333 -51.333 -81.666 -90 -114.999s-86 -60 -142 -80
c-55.333 -20 -117.666 -29.667 -186.999 -29c-69.333 0 -131 9.66699 -185 29c-54 20 -100.333 47.333 -139 82c-38 34.667 -67 76.667 -87 126s-29.667 103.333 -29 162h194c0 -72.667 20.667 -128.334 62 -167.001c40.667 -38.667 102 -58 184 -58
c87.333 0 152 17.667 194 53c41.333 35.333 62 79 62 131c0 48 -17 85.667 -51 113s-76.333 50 -127 68c-50.667 18.667 -105.667 37 -165 55s-114.333 40.667 -165 68c-50.667 28 -93 64.667 -127 110c-34 44.667 -51 104.667 -51 180z" />
    <glyph glyph-name="sacute" unicode="&#x15b;" horiz-adv-x="829" 
d="M471 1311h174l-174 -246h-123zM256 297c5.33301 -40.667 21.001 -72.999 47.001 -96.999s65 -36 117 -36c57.333 0 99 11 125 33s39 48.333 39 79c0 27.333 -12.333 48.333 -37 63s-55 26.667 -91 36s-75.333 19 -118 29c-42 10 -81.333 25 -118 45
c-36 19.333 -66.333 44.666 -91 75.999c-24.667 32 -37 75.333 -37 130c0 38 7.66699 74 23 108c15.333 33.333 36.333 62.666 63 87.999c27.333 25.333 60.666 45 99.999 59c38.667 14.667 82.667 22 132 22c108 0 189.667 -26 245 -78c56 -52 87 -121.667 93 -209h-185
c-5.33301 31.333 -20.666 58 -45.999 80s-61 33 -107 33c-46.667 0 -82.334 -10.667 -107.001 -32s-37 -45 -37 -71c0 -27.333 12.333 -48 37 -62c24.667 -14.667 55 -26.667 91 -36l118 -30c42 -10 81.333 -24.667 118 -44c36 -19.333 66.333 -44.666 91 -75.999
c24.667 -32 37 -75.667 37 -131c0 -82 -29.333 -150 -88 -204c-58.667 -54.667 -142 -82 -250 -82c-113.333 0 -198.333 26.667 -255 80s-87.667 129 -93 227h184z" />
    <glyph glyph-name="Scedilla" unicode="&#x15e;" 
d="M82 942c0 46.667 10.1758 91.4951 30.5088 134.495s49.666 81.167 87.999 114.5s83.833 59.833 136.5 79.5s111 29.5 175 29.5c61.333 0 117.666 -10.167 168.999 -30.5s95.666 -48.666 132.999 -84.999s66.333 -78.666 87 -126.999s31 -100.5 31 -156.5h-195
c0 66.667 -20.833 120.834 -62.5 162.501s-95.834 62.5 -162.501 62.5c-35.333 0 -67.666 -5 -96.999 -15s-54.333 -24 -75 -42s-36.5 -37.833 -47.5 -59.5s-16.5 -44.167 -16.5 -67.5c0 -45.333 17.167 -80.166 51.5 -104.499s76.666 -45.333 126.999 -63
s105.333 -35.167 165 -52.5s114.667 -40.666 165 -69.999s92.666 -67.833 126.999 -115.5s51.5 -110.5 51.5 -188.5c0 -44 -10.333 -86.667 -31 -128s-48.334 -78.833 -83.001 -112.5s-76 -61 -124 -82s-98.667 -32.833 -152 -35.5l-30 -72
c35.333 -5.33301 64.666 -20 87.999 -44s35 -53.667 35 -89c0 -40.667 -15.833 -74.667 -47.5 -102s-80.834 -41 -147.501 -41c-13.333 0 -25.5 0.333008 -36.5 1s-20.5 1.66699 -28.5 3c-9.33301 1.33301 -18.333 3.33301 -27 6v92c6.66699 -2.66699 14.667 -4.66699 24 -6
c6.66699 -1.33301 15.167 -2.33301 25.5 -3s21.166 -1 32.499 -1c31.333 0 54.5 6.5 69.5 19.5s22.5 26.833 22.5 41.5c0 15.333 -7.5 29.5 -22.5 42.5s-38.167 19.5 -69.5 19.5c-8 0 -15.167 -0.666992 -21.5 -2s-11.5 -3 -15.5 -5
c-5.33301 -1.33301 -10 -2.66602 -14 -3.99902l61 144c-58.667 2.66699 -112.5 14.167 -161.5 34.5s-91 48.333 -126 84s-62.333 77.334 -82 125.001s-29.5 99.5 -29.5 155.5h194c0 -72.667 20.5 -128.334 61.5 -167.001s102.5 -58 184.5 -58
c87.333 0 151.833 17.667 193.5 53s62.5 79 62.5 131c0 48 -17 85.667 -51 113s-76.333 50.166 -127 68.499s-105.667 36.333 -165 54s-114.333 40.5 -165 68.5s-93 64.5 -127 109.5s-51 105.167 -51 180.5z" />
    <glyph glyph-name="scedilla" unicode="&#x15f;" horiz-adv-x="829" 
d="M256 297c5.33301 -40.667 21 -73.001 47 -97.001s65 -36 117 -36c57.333 0 99 10.833 125 32.5s39 48.167 39 79.5c0 27.333 -12.333 48.166 -37 62.499s-55.167 26.333 -91.5 36l-118 30c-42.333 10.333 -81.5 25 -117.5 44s-66.333 44.5 -91 76.5s-37 75.333 -37 130
c0 38 7.5 73.833 22.5 107.5s36.167 63.167 63.5 88.5s60.5 45.166 99.5 59.499s83.167 21.5 132.5 21.5c108 0 189.833 -26 245.5 -78s86.5 -121.667 92.5 -209h-185c-5.33301 31.333 -20.666 58 -45.999 80s-61 33 -107 33c-46.667 0 -82.334 -10.667 -107.001 -32
s-37 -45 -37 -71c0 -27.333 12.333 -48.166 37 -62.499s55.167 -26.166 91.5 -35.499l117.5 -29.5c42 -10.333 81.167 -25 117.5 -44s66.833 -44.667 91.5 -77s37 -75.833 37 -130.5c0 -78 -25.667 -142.5 -77 -193.5s-118 -81.833 -200 -92.5l-30 -72
c35.333 -5.33301 64.5 -20 87.5 -44s34.5 -53.667 34.5 -89c0 -40.667 -15.667 -74.667 -47 -102s-80.333 -41 -147 -41c-13.333 0 -25.5 0.333008 -36.5 1s-20.833 1.66699 -29.5 3c-9.33301 1.33301 -18 3.33301 -26 6v92c6.66699 -2.66699 14.667 -4.66699 24 -6
c6.66699 -1.33301 15.167 -2.33301 25.5 -3s21.166 -1 32.499 -1c31.333 0 54.5 6.5 69.5 19.5s22.5 26.833 22.5 41.5c0 15.333 -7.5 29.5 -22.5 42.5s-38.167 19.5 -69.5 19.5c-8 0 -15.167 -0.666992 -21.5 -2s-11.5 -3 -15.5 -5
c-5.33301 -1.33301 -10.333 -2.66602 -15 -3.99902l62 144c-92.667 5.33301 -165.667 33.333 -219 84s-82.666 125 -87.999 223h184z" />
    <glyph glyph-name="Scaron" unicode="&#x160;" 
d="M604 1434h-164l-184 245h164l102 -143l103 143h163zM82 942c0 46.667 10.334 91.333 31.001 134c20.667 43.333 50 81.666 88 114.999s83.333 60 136 80s111 29.667 175 29c61.333 0 117.666 -10 168.999 -30c51.333 -20.667 95.666 -49 132.999 -85
s66.333 -78.333 87 -127s31 -101 31 -157h-195c0 66.667 -20.667 121 -62 163c-41.333 41.333 -95.666 62 -162.999 62c-35.333 0 -67.666 -5 -96.999 -15s-54.333 -24 -75 -42s-36.334 -37.667 -47.001 -59c-10.667 -22 -16.334 -44.667 -17.001 -68
c0 -45.333 17.333 -80 52 -104c34 -24.667 76.333 -46 127 -64s105.667 -35.333 165 -52c59.333 -17.333 114 -40.666 164 -69.999c50.667 -29.333 93 -67.666 127 -114.999c34 -48 51.333 -111 52 -189c0 -46.667 -10.667 -91.334 -32 -134.001
c-21.333 -43.333 -51.333 -81.666 -90 -114.999s-86 -60 -142 -80c-55.333 -20 -117.666 -29.667 -186.999 -29c-69.333 0 -131 9.66699 -185 29c-54 20 -100.333 47.333 -139 82c-38 34.667 -67 76.667 -87 126s-29.667 103.333 -29 162h194
c0 -72.667 20.667 -128.334 62 -167.001c40.667 -38.667 102 -58 184 -58c87.333 0 152 17.667 194 53c41.333 35.333 62 79 62 131c0 48 -17 85.667 -51 113s-76.333 50 -127 68c-50.667 18.667 -105.667 37 -165 55s-114.333 40.667 -165 68
c-50.667 28 -93 64.667 -127 110c-34 44.667 -51 104.667 -51 180z" />
    <glyph glyph-name="scaron" unicode="&#x161;" horiz-adv-x="829" 
d="M492 1065h-164l-185 246h164l103 -144l102 144h164zM256 297c5.33301 -40.667 21.001 -72.999 47.001 -96.999s65 -36 117 -36c57.333 0 99 11 125 33s39 48.333 39 79c0 27.333 -12.333 48.333 -37 63s-55 26.667 -91 36s-75.333 19 -118 29c-42 10 -81.333 25 -118 45
c-36 19.333 -66.333 44.666 -91 75.999c-24.667 32 -37 75.333 -37 130c0 38 7.66699 74 23 108c15.333 33.333 36.333 62.666 63 87.999c27.333 25.333 60.666 45 99.999 59c38.667 14.667 82.667 22 132 22c108 0 189.667 -26 245 -78c56 -52 87 -121.667 93 -209h-185
c-5.33301 31.333 -20.666 58 -45.999 80s-61 33 -107 33c-46.667 0 -82.334 -10.667 -107.001 -32s-37 -45 -37 -71c0 -27.333 12.333 -48 37 -62c24.667 -14.667 55 -26.667 91 -36l118 -30c42 -10 81.333 -24.667 118 -44c36 -19.333 66.333 -44.666 91 -75.999
c24.667 -32 37 -75.667 37 -131c0 -82 -29.333 -150 -88 -204c-58.667 -54.667 -142 -82 -250 -82c-113.333 0 -198.333 26.667 -255 80s-87.667 129 -93 227h184z" />
    <glyph glyph-name="uni0162" unicode="&#x162;" horiz-adv-x="1034" 
d="M522 -133c31.333 0 57.999 -11.668 79.999 -35.001s33 -52.666 33 -87.999c0 -49.333 -8.66699 -91 -26 -125s-36 -62.667 -56 -86c-24.667 -26 -52 -47.667 -82 -65l-31 40c13.333 9.33301 26.333 21 39 35c10.667 10.667 21 24.667 31 42
c9.33301 17.333 16.666 36.333 21.999 57c-35.333 0 -64.666 10.667 -87.999 32c-23.333 22 -34.666 48.667 -33.999 80c0 31.333 10.667 58 32 80c22 22 48.667 33 80 33zM30.999 1290h973v-184h-390v-1106h-194v1106h-389v184z" />
    <glyph glyph-name="uni0163" unicode="&#x163;" horiz-adv-x="686" 
d="M420 -133c31.333 0 58 -11.668 80 -35.001s32.667 -52.666 32 -87.999c0 -49.333 -8.33301 -91 -25 -125c-17.333 -34 -36 -62.667 -56 -86c-24.667 -26 -52 -47.667 -82 -65l-31 40c13.333 9.33301 26.333 21 39 35c10.667 10.667 21 24.667 31 42
c9.33301 17.333 16.666 36.333 21.999 57c-35.333 0 -64.666 10.667 -87.999 32c-23.333 22 -35 48.667 -35 80s11 58 33 80s48.667 33 80 33zM389 306.999c0 -40.667 13.668 -74.665 41.001 -101.998s61.333 -41 102 -41c6.66699 0 14 0.333008 22 1
c7.33301 0.666992 14.333 1.66699 21 3s13 3.33301 19 6v-164c-8 -4 -17.667 -7.33301 -29 -10c-20.667 -6.66699 -45 -10 -73 -10c-40.667 0 -78.667 7.33301 -114 22c-34.667 15.333 -65 36.666 -91 63.999s-46.333 60.333 -61 99s-21.667 82.667 -21 132v441h-164v174h72
c35.333 0 64.666 11.333 87.999 34c23.333 23.333 35 52.666 35 87.999v123h153v-245h205v-174h-205v-441z" />
    <glyph glyph-name="Tcaron" unicode="&#x164;" horiz-adv-x="1034" 
d="M594 1434h-164l-184 245h164l102 -143l102 143h164zM31 1290h973v-184h-390v-1106h-194v1106h-389v184z" />
    <glyph glyph-name="tcaron" unicode="&#x165;" horiz-adv-x="727" 
d="M666 1290h163l-122 -246h-113zM389 307c0 -40.667 13.666 -74.667 40.999 -102s61.333 -41 102 -41c6.66699 0 13.834 0.333008 21.501 1s14.834 1.66699 21.501 3s13 3.33301 19 6v-164c-8 -4 -17.667 -7.33301 -29 -10c-20.667 -6.66699 -45 -10 -73 -10
c-40.667 0 -78.5 7.5 -113.5 22.5s-65.5 36.167 -91.5 63.5s-46.167 60.333 -60.5 99s-21.5 82.667 -21.5 132v441h-164v174h72c35.333 0 64.666 11.5 87.999 34.5s35 52.167 35 87.5v123h153v-245h205v-174h-205v-441z" />
    <glyph glyph-name="Umacron" unicode="&#x16a;" horiz-adv-x="1228" 
d="M860 1464h-512v133h512v-133zM614 164c40.667 0 78.665 7.33203 113.998 21.999c34.667 15.333 65 36.333 91 63s46.333 58.667 61 96s21.667 79.333 21 126v819h195v-819c0 -69.333 -12 -133.333 -36 -192s-57.667 -109.667 -101 -153s-94 -76.666 -152 -99.999
c-58.667 -24 -123 -36 -193 -36c-69.333 0 -133.333 12 -192 36s-109.667 57.333 -153 100c-43.333 43.333 -76.666 94.333 -99.999 153c-24 58.667 -36 122.667 -36 192v819h195v-819c0 -46.667 7 -88.667 21 -126c14.667 -37.333 35 -69.333 61 -96s56.333 -47.667 91 -63
c34.667 -14.667 72.334 -22 113.001 -22z" />
    <glyph glyph-name="umacron" unicode="&#x16b;" horiz-adv-x="1054" 
d="M788 1096h-512v133h512v-133zM492 -10c-52 0 -100.332 9.66699 -144.999 29c-44.667 20 -83.667 47.333 -117 82s-59.333 76.667 -78 126c-19.333 49.333 -29 103.333 -29 162v533h184v-533c0 -31.333 6 -60.666 18 -87.999c11.333 -27.333 27 -51.333 47 -72
s42.667 -36.667 68 -48c26 -11.333 53.333 -17 82 -17c30 0 58.667 5.66699 86 17s51.333 27.333 72 48s37 44.667 49 72s18.333 56.666 19 87.999v533h184v-922h-133l-41 92c-18 -19.333 -39.333 -36.333 -64 -51c-22 -13.333 -49.667 -25.333 -83 -36
c-32.667 -10 -72.334 -15 -119.001 -15z" />
    <glyph glyph-name="Uring" unicode="&#x16e;" horiz-adv-x="1228" 
d="M686 1577c0 20.667 -6.66797 39.333 -20.001 56c-13.333 17.333 -30.666 26 -51.999 26c-20.667 0 -37.667 -8.66699 -51 -26s-20 -36 -20 -56c0 -20.667 6.66699 -39.334 20 -56.001c13.333 -17.333 30.333 -26 51 -26s38 8.66699 52 26
c13.333 16.667 20 35.334 20 56.001zM787.999 1577c0 -46.667 -16 -87.334 -48 -122.001s-74 -52 -126 -52s-94 17.333 -126 52s-48 75.334 -48 122.001s16 87.334 48 122.001s74 52 126 52s94 -17.333 126 -52s48 -75.334 48 -122.001zM613.999 163.999
c40.667 0 78.665 7.33203 113.998 21.999c34.667 15.333 65 36.333 91 63s46.333 58.667 61 96s21.667 79.333 21 126v819h195v-819c0 -69.333 -12 -133.333 -36 -192s-57.667 -109.667 -101 -153s-94 -76.666 -152 -99.999c-58.667 -24 -123 -36 -193 -36
c-69.333 0 -133.333 12 -192 36s-109.667 57.333 -153 100c-43.333 43.333 -76.666 94.333 -99.999 153c-24 58.667 -36 122.667 -36 192v819h195v-819c0 -46.667 7 -88.667 21 -126c14.667 -37.333 35 -69.333 61 -96s56.333 -47.667 91 -63
c34.667 -14.667 72.334 -22 113.001 -22z" />
    <glyph glyph-name="uring" unicode="&#x16f;" horiz-adv-x="1054" 
d="M604 1206c0 20.667 -6.66797 39.668 -20.001 57.001s-30.666 25.666 -51.999 24.999c-20.667 0 -37.667 -8.33301 -51 -25c-13.333 -17.333 -20 -36.333 -20 -57s6.66699 -39.334 20 -56.001c13.333 -17.333 30.333 -26 51 -26s38 8.66699 52 26
c13.333 16.667 20 35.334 20 56.001zM706.999 1206c0 -46.667 -16.333 -87.334 -49 -122.001c-32 -34.667 -74 -52 -126 -52s-93.667 17.333 -125 52c-32 34.667 -48.333 75.334 -49 122.001c0 46.667 16.333 87.334 49 122.001c32 34.667 73.667 52 125 52
c52 0 94 -17.333 126 -52c32.667 -34.667 49 -75.334 49 -122.001zM491.999 -9.99902c-52 0 -100.332 9.66699 -144.999 29c-44.667 20 -83.667 47.333 -117 82s-59.333 76.667 -78 126c-19.333 49.333 -29 103.333 -29 162v533h184v-533c0 -31.333 6 -60.666 18 -87.999
c11.333 -27.333 27 -51.333 47 -72s42.667 -36.667 68 -48c26 -11.333 53.333 -17 82 -17c30 0 58.667 5.66699 86 17s51.333 27.333 72 48s37 44.667 49 72s18.333 56.666 19 87.999v533h184v-922h-133l-41 92c-18 -19.333 -39.333 -36.333 -64 -51
c-22 -13.333 -49.667 -25.333 -83 -36c-32.667 -10 -72.334 -15 -119.001 -15z" />
    <glyph glyph-name="Uhungarumlaut" unicode="&#x170;" horiz-adv-x="1228" 
d="M543 1690h174l-185 -246h-122zM829 1690h175l-185 -246h-123zM614 164c40.667 0 78.665 7.33203 113.998 21.999c34.667 15.333 65 36.333 91 63s46.333 58.667 61 96s21.667 79.333 21 126v819h195v-819c0 -69.333 -12 -133.333 -36 -192s-57.667 -109.667 -101 -153
s-94 -76.666 -152 -99.999c-58.667 -24 -123 -36 -193 -36c-69.333 0 -133.333 12 -192 36s-109.667 57.333 -153 100c-43.333 43.333 -76.666 94.333 -99.999 153c-24 58.667 -36 122.667 -36 192v819h195v-819c0 -46.667 7 -88.667 21 -126
c14.667 -37.333 35 -69.333 61 -96s56.333 -47.667 91 -63c34.667 -14.667 72.334 -22 113.001 -22z" />
    <glyph glyph-name="uhungarumlaut" unicode="&#x171;" horiz-adv-x="1054" 
d="M461 1321h174l-184 -246h-123zM748 1321h174l-185 -246h-123zM492 -10c-52 0 -100.332 9.66699 -144.999 29c-44.667 20 -83.667 47.333 -117 82s-59.333 76.667 -78 126c-19.333 49.333 -29 103.333 -29 162v533h184v-533c0 -31.333 6 -60.666 18 -87.999
c11.333 -27.333 27 -51.333 47 -72s42.667 -36.667 68 -48c26 -11.333 53.333 -17 82 -17c30 0 58.667 5.66699 86 17s51.333 27.333 72 48s37 44.667 49 72s18.333 56.666 19 87.999v533h184v-922h-133l-41 92c-18 -19.333 -39.333 -36.333 -64 -51
c-22 -13.333 -49.667 -25.333 -83 -36c-32.667 -10 -72.334 -15 -119.001 -15z" />
    <glyph glyph-name="Uogonek" unicode="&#x172;" horiz-adv-x="1228" 
d="M614 164c40.667 0 78.5 7.50195 113.5 22.502s65.5 35.833 91.5 62.5s46.167 58.667 60.5 96s21.5 79.333 21.5 126v819h195v-819c0 -66.667 -11.333 -128 -34 -184s-52.334 -104.833 -89.001 -146.5s-79.334 -74.834 -128.001 -99.501s-98.334 -38.334 -149.001 -41.001
c-12 -16.667 -22 -33.667 -30 -51c-8 -15.333 -15.167 -32.833 -21.5 -52.5s-9.5 -39.834 -9.5 -60.501c0 -26 8.83301 -47.833 26.5 -65.5s39.5 -26.5 65.5 -26.5c10.667 0 20.5 0.333008 29.5 1s17.5 1.66699 25.5 3s17 3.33301 27 6v-102
c-10.667 -2.66699 -21.667 -4.66699 -33 -6c-9.33301 -1.33301 -20.166 -2.33301 -32.499 -3s-24.5 -1 -36.5 -1c-61.333 0 -109.166 16 -143.499 48s-51.5 74 -51.5 126c0 23.333 3 45.166 9 65.499s13.333 38.833 22 55.5c8 19.333 18 37 30 53
c-61.333 5.33301 -118.5 21 -171.5 47s-99.667 59.833 -140 101.5s-71.833 90.834 -94.5 147.501s-34 118.334 -34 185.001v819h195v-819c0 -46.667 7.16699 -88.667 21.5 -126s34.5 -69.333 60.5 -96s56.333 -47.5 91 -62.5s72.334 -22.5 113.001 -22.5z" />
    <glyph glyph-name="uogonek" unicode="&#x173;" horiz-adv-x="1054" 
d="M758 92c-18 -19.333 -39.3369 -36.333 -64.0039 -51c-22 -13.333 -49.667 -25.166 -83 -35.499s-73 -15.5 -119 -15.5c-52 0 -100.167 9.83301 -144.5 29.5s-83.333 47 -117 82s-60 77 -79 126s-28.5 102.833 -28.5 161.5v533h184v-533
c0 -31.333 5.83301 -60.666 17.5 -87.999s27.334 -51.166 47.001 -71.499s42.5 -36.333 68.5 -48s53.333 -17.5 82 -17.5c30 0 58.667 5.83301 86 17.5s51.333 27.667 72 48s37.167 44.166 49.5 71.499s18.5 56.666 18.5 87.999v533h184v-922h-10
c-13.333 -16.667 -25.666 -33.667 -36.999 -51c-9.33301 -15.333 -17.5 -32.833 -24.5 -52.5s-10.5 -39.834 -10.5 -60.501c0 -26 8.83301 -47.833 26.5 -65.5s39.5 -26.5 65.5 -26.5c10.667 0 20.5 0.333008 29.5 1s17.5 1.66699 25.5 3s17 3.33301 27 6v-102
c-10.667 -2.66699 -21.667 -4.66699 -33 -6c-9.33301 -1.33301 -20.166 -2.33301 -32.499 -3s-24.5 -1 -36.5 -1c-61.333 0 -109.166 16 -143.499 48s-51.5 74 -51.5 126c0 26 3.5 50.167 10.5 72.5s15.167 41.833 24.5 58.5c10.667 19.333 23 37 37 53z" />
    <glyph glyph-name="Ydieresis" unicode="&#x178;" horiz-adv-x="1054" 
d="M461 1546c0 -31.333 -11 -58 -33 -80s-48.667 -32.667 -80 -32c-31.333 0 -58 10.667 -80 32c-22 22 -32.667 48.667 -32 80c0 31.333 10.667 58 32 80c22 22 48.667 33 80 33s58 -11 80 -33s33 -48.667 33 -80zM809 1546c0 -31.333 -11 -58 -33 -80
s-48.667 -32.667 -80 -32c-31.333 0 -58 10.667 -80 32c-22 22 -32.667 48.667 -32 80c0 31.333 10.667 58 32 80c22 22 48.667 33 80 33s58 -11 80 -33s33 -48.667 33 -80zM532 707l297 583h205l-409 -788v-502h-195v502l-410 788h205l297 -583h10z" />
    <glyph glyph-name="Zacute" unicode="&#x179;" 
d="M573 1690h175l-175 -246h-122zM307 184h656v-184h-902v133l625 973h-604v184h850v-133z" />
    <glyph glyph-name="zacute" unicode="&#x17a;" horiz-adv-x="808" 
d="M461 1321h174l-174 -246h-123zM502 748h-441v174h666v-164l-440 -584h461v-174h-687v164z" />
    <glyph glyph-name="Zdotaccent" unicode="&#x17b;" 
d="M625 1546c0 -31.333 -11 -58 -33 -80s-48.667 -32.667 -80 -32c-31.333 0 -58 10.667 -80 32c-22 22 -33 48.667 -33 80s11 58 33 80s48.667 33 80 33s58 -11 80 -33s33 -48.667 33 -80zM307 184h656v-184h-902v133l625 973h-604v184h850v-133z" />
    <glyph glyph-name="zdotaccent" unicode="&#x17c;" horiz-adv-x="808" 
d="M522 1178c0 -31.333 -10.999 -58 -32.999 -80s-48.333 -33 -79 -33c-31.333 0 -58 11 -80 33s-33 48.667 -33 80s11 57.666 33 78.999c22 22 48.667 33 80 33s57.666 -11 78.999 -33c22 -21.333 33 -47.666 33 -78.999zM502.001 748h-441v174h666v-164l-440 -584h461
v-174h-687v164z" />
    <glyph glyph-name="Zcaron" unicode="&#x17d;" 
d="M594 1434h-164l-184 245h164l102 -143l102 143h164zM307 184h656v-184h-902v133l625 973h-604v184h850v-133z" />
    <glyph glyph-name="zcaron" unicode="&#x17e;" horiz-adv-x="808" 
d="M481 1065h-164l-184 246h164l102 -144l103 144h164zM502 748h-441v174h666v-164l-440 -584h461v-174h-687v164z" />
    <glyph glyph-name="florin" unicode="&#x192;" horiz-adv-x="737" 
d="M317 -20c-19.333 -102.667 -57.501 -181.334 -114.501 -236.001s-134.833 -82 -233.5 -82c-13.333 0 -25.5 0.333008 -36.5 1s-20.5 1.66699 -28.5 3c-9.33301 1.33301 -18.333 3.33301 -27 6l41 176c6.66699 -2.66699 13.667 -4.66699 21 -6c12 -4 29 -6 51 -6
c83.333 0 134.333 48 153 144l123 645h-153l30 163h154l41 195c22 102.667 61 181.167 117 235.5s133 81.5 231 81.5c12 0 23.833 -0.666992 35.5 -2s21.834 -2.66602 30.501 -3.99902c9.33301 -1.33301 18 -2.66602 26 -3.99902l-41 -176
c-6.66699 1.33301 -13.334 3.33301 -20.001 6c-6.66699 1.33301 -14.167 2.66602 -22.5 3.99902s-17.833 2 -28.5 2c-83.333 0 -134.666 -47.667 -153.999 -143l-41 -195h205l-31 -163h-205z" />
    <glyph glyph-name="uni0218" unicode="&#x218;" 
d="M512 -115c31.333 0 58 -11.6689 80 -35.002s33 -52.666 33 -87.999c0 -49.333 -8.66699 -90.666 -26 -123.999c-17.333 -34 -36 -63 -56 -87c-24.667 -26 -52 -47.667 -82 -65l-31 41c13.333 9.33301 26.333 21 39 35c10.667 10.667 21 24.667 31 42
c9.33301 17.333 16.666 36 21.999 56c-35.333 0 -64.666 11 -87.999 33s-35 48.667 -35 80s11 58 33 80c22 21.333 48.667 32 80 32zM82 941.998c0 46.667 10.334 91.333 31.001 134c20.667 43.333 50 81.666 88 114.999s83.333 60 136 80s111 29.667 175 29
c61.333 0 117.666 -10 168.999 -30c51.333 -20.667 95.666 -49 132.999 -85s66.333 -78.333 87 -127s31 -101 31 -157h-195c0 66.667 -20.667 121 -62 163c-41.333 41.333 -95.666 62 -162.999 62c-35.333 0 -67.666 -5 -96.999 -15s-54.333 -24 -75 -42
s-36.334 -37.667 -47.001 -59c-10.667 -22 -16.334 -44.667 -17.001 -68c0 -45.333 17.333 -80 52 -104c34 -24.667 76.333 -46 127 -64s105.667 -35.333 165 -52c59.333 -17.333 114 -40.666 164 -69.999c50.667 -29.333 93 -67.666 127 -114.999
c34 -48 51.333 -111 52 -189c0 -46.667 -10.667 -91.334 -32 -134.001c-21.333 -43.333 -51.333 -81.666 -90 -114.999s-86 -60 -142 -80c-55.333 -20 -117.666 -29.667 -186.999 -29c-69.333 0 -131 9.66699 -185 29c-54 20 -100.333 47.333 -139 82
c-38 34.667 -67 76.667 -87 126s-29.667 103.333 -29 162h194c0 -72.667 20.667 -128.334 62 -167.001c40.667 -38.667 102 -58 184 -58c87.333 0 152 17.667 194 53c41.333 35.333 62 79 62 131c0 48 -17 85.667 -51 113s-76.333 50 -127 68
c-50.667 18.667 -105.667 37 -165 55s-114.333 40.667 -165 68c-50.667 28 -93 64.667 -127 110c-34 44.667 -51 104.667 -51 180z" />
    <glyph glyph-name="uni0219" unicode="&#x219;" horiz-adv-x="829" 
d="M420 -133c31.333 0 58 -11.668 80 -35.001s32.667 -52.666 32 -87.999c0 -49.333 -8.33301 -91 -25 -125c-17.333 -34 -36 -62.667 -56 -86c-24.667 -26 -52 -47.667 -82 -65l-31 40c13.333 9.33301 26.333 21 39 35c10.667 10.667 21 24.667 31 42
c9.33301 17.333 16.666 36.333 21.999 57c-35.333 0 -64.666 10.667 -87.999 32c-23.333 22 -35 48.667 -35 80s11 58 33 80s48.667 33 80 33zM256 296.999c5.33301 -40.667 21.001 -72.999 47.001 -96.999s65 -36 117 -36c57.333 0 99 11 125 33s39 48.333 39 79
c0 27.333 -12.333 48.333 -37 63s-55 26.667 -91 36s-75.333 19 -118 29c-42 10 -81.333 25 -118 45c-36 19.333 -66.333 44.666 -91 75.999c-24.667 32 -37 75.333 -37 130c0 38 7.66699 74 23 108c15.333 33.333 36.333 62.666 63 87.999
c27.333 25.333 60.666 45 99.999 59c38.667 14.667 82.667 22 132 22c108 0 189.667 -26 245 -78c56 -52 87 -121.667 93 -209h-185c-5.33301 31.333 -20.666 58 -45.999 80s-61 33 -107 33c-46.667 0 -82.334 -10.667 -107.001 -32s-37 -45 -37 -71
c0 -27.333 12.333 -48 37 -62c24.667 -14.667 55 -26.667 91 -36l118 -30c42 -10 81.333 -24.667 118 -44c36 -19.333 66.333 -44.666 91 -75.999c24.667 -32 37 -75.667 37 -131c0 -82 -29.333 -150 -88 -204c-58.667 -54.667 -142 -82 -250 -82
c-113.333 0 -198.333 26.667 -255 80s-87.667 129 -93 227h184z" />
    <glyph glyph-name="uni021A" unicode="&#x21a;" horiz-adv-x="1034" 
d="M522 -133c31.333 0 57.999 -11.668 79.999 -35.001s33 -52.666 33 -87.999c0 -49.333 -8.66699 -91 -26 -125s-36 -62.667 -56 -86c-24.667 -26 -52 -47.667 -82 -65l-31 40c13.333 9.33301 26.333 21 39 35c10.667 10.667 21 24.667 31 42
c9.33301 17.333 16.666 36.333 21.999 57c-35.333 0 -64.666 10.667 -87.999 32c-23.333 22 -34.666 48.667 -33.999 80c0 31.333 10.667 58 32 80c22 22 48.667 33 80 33zM30.999 1290h973v-184h-390v-1106h-194v1106h-389v184z" />
    <glyph glyph-name="uni021B" unicode="&#x21b;" horiz-adv-x="686" 
d="M420 -133c31.333 0 58 -11.668 80 -35.001s32.667 -52.666 32 -87.999c0 -49.333 -8.33301 -91 -25 -125c-17.333 -34 -36 -62.667 -56 -86c-24.667 -26 -52 -47.667 -82 -65l-31 40c13.333 9.33301 26.333 21 39 35c10.667 10.667 21 24.667 31 42
c9.33301 17.333 16.666 36.333 21.999 57c-35.333 0 -64.666 10.667 -87.999 32c-23.333 22 -35 48.667 -35 80s11 58 33 80s48.667 33 80 33zM389 306.999c0 -40.667 13.668 -74.665 41.001 -101.998s61.333 -41 102 -41c6.66699 0 14 0.333008 22 1
c7.33301 0.666992 14.333 1.66699 21 3s13 3.33301 19 6v-164c-8 -4 -17.667 -7.33301 -29 -10c-20.667 -6.66699 -45 -10 -73 -10c-40.667 0 -78.667 7.33301 -114 22c-34.667 15.333 -65 36.666 -91 63.999s-46.333 60.333 -61 99s-21.667 82.667 -21 132v441h-164v174h72
c35.333 0 64.666 11.333 87.999 34c23.333 23.333 35 52.666 35 87.999v123h153v-245h205v-174h-205v-441z" />
    <glyph glyph-name="uni02BC" unicode="&#x2bc;" horiz-adv-x="348" 
d="M174 1290c31.333 0 57.998 -11.5 79.998 -34.5s33 -52.5 33 -88.5c0 -49.333 -8.5 -91 -25.5 -125s-35.833 -62.667 -56.5 -86c-24.667 -26 -52 -47.667 -82 -65l-31 41c13.333 9.33301 26.333 21 39 35c10.667 10.667 20.834 24.5 30.501 41.5s17.167 35.833 22.5 56.5
c-35.333 0 -64.666 10.833 -87.999 32.5s-35 48.5 -35 80.5c0 31.333 11 57.833 33 79.5s48.667 32.5 80 32.5z" />
    </font>
</defs>
</svg>
