<?xml version="1.0" standalone="no"?>
<!DOCTYPE svg PUBLIC "-//W3C//DTD SVG 1.1//EN" "http://www.w3.org/Graphics/SVG/1.1/DTD/svg11.dtd" >
<svg>
<metadata>
Created by FontForge 20090914 at Tue Mar  9 01:16:13 2021
 By www-data
Copyright (c) 2018 by TypeType. Designers Ivan Gladkikh, Pavel Emelyanov. Technical designers Marina Khodak, Vika Usmanova, Nadyr Rakhimov. All rights reserved.
</metadata>
<defs>
<font id="TTCommons-Regular" horiz-adv-x="1003" >
  <font-face 
    font-family="TT Commons"
    font-weight="400"
    font-stretch="normal"
    units-per-em="2048"
    panose-1="2 0 5 6 3 0 0 2 0 4"
    ascent="1434"
    descent="-614"
    x-height="922"
    cap-height="1290"
    bbox="-348 -522.002 2945 1741"
    underline-thickness="0"
    underline-position="0"
    unicode-range="U+000D-U+FB06"
  />
<missing-glyph horiz-adv-x="0" 
 />
    <glyph glyph-name="uniFB00" unicode="ff" horiz-adv-x="1085" 
d="M1044 778l-203.998 0.00292969v-778h-154v778h-369v-778h-153v778h-113v144h113v30c0 46.667 7.16699 88.834 21.5 126.501s33.833 69.667 58.5 96s53 47.166 85 62.499s65.667 23 101 23c15.333 0 28.666 -1.16699 39.999 -3.5s21.333 -4.83301 30 -7.5
c8 -4 15.333 -7.33301 22 -10v-133c-4 1.33301 -8.66699 2.66602 -14 3.99902c-4 1.33301 -9.5 2.66602 -16.5 3.99902s-13.833 2 -20.5 2c-46.667 0 -84 -14.333 -112 -43s-42 -69 -42 -121v-30h369v71c0 46.667 7.16699 88.834 21.5 126.501s33.833 69.667 58.5 96
s53 47 85 62s65.667 22.5 101 22.5c15.333 0 28.833 -1 40.5 -3s21.5 -4.33301 29.5 -7c8 -4 15.333 -7.33301 22 -10v-133c-4 1.33301 -8.66699 2.66602 -14 3.99902c-4 1.33301 -9.33301 2.66602 -16 3.99902s-13.667 2 -21 2c-46.667 0 -83.834 -14.333 -111.501 -43
s-41.5 -69 -41.5 -121v-71h204v-144z" />
    <glyph glyph-name="uniFB01" unicode="fi" horiz-adv-x="972" 
d="M840 0l-153.999 0.000976562v778h-369v-778h-153v778h-113v144h113v71c0 46.667 7.16699 88.834 21.5 126.501s33.833 69.667 58.5 96s53 47 85 62s65.667 22.5 101 22.5c15.333 0 28.666 -1 39.999 -3s21.333 -4.33301 30 -7c8 -4 15.333 -7.33301 22 -10v-133
c-4 1.33301 -8.66699 2.66602 -14 3.99902c-4 1.33301 -9.5 2.66602 -16.5 3.99902s-13.833 2 -20.5 2c-46.667 0 -84 -14.333 -112 -43s-42 -69 -42 -121v-71h523v-922zM666.001 1182c0 28.667 9.16699 52.167 27.5 70.5s41.166 27.5 68.499 27.5
c28.667 0 52.167 -9.16699 70.5 -27.5s27.5 -41.833 27.5 -70.5c0 -27.333 -9.16699 -50.333 -27.5 -69s-41.833 -28 -70.5 -28c-27.333 0 -50.166 9.33301 -68.499 28s-27.5 41.667 -27.5 69z" />
    <glyph glyph-name="uniFB02" unicode="fl" horiz-adv-x="993" 
d="M850 0l-154 -0.000976562v1126c-12 8 -26.333 15 -43 21c-15.333 5.33301 -32.833 10 -52.5 14s-42.5 6 -68.5 6c-66.667 0 -119.167 -18.667 -157.5 -56s-57.5 -86.666 -57.5 -147.999v-41h205v-144h-205v-778h-153v778h-113v144h113v41c0 49.333 9.16699 95 27.5 137
s43.833 78.667 76.5 110s71.667 56 117 74s94.333 27 147 27c26 0 49 -1.83301 69 -5.5s37.333 -7.5 52 -11.5l43 -14h154v-1280z" />
    <glyph glyph-name="uniFB03" unicode="ffi" horiz-adv-x="1495" 
d="M1362 0l-153.998 0.00292969v778h-368v-778h-154v778h-369v-778h-153v778h-113v144h113v30c0 46.667 7.16699 88.834 21.5 126.501s33.833 69.667 58.5 96s53 47.166 85 62.499s65.667 23 101 23c15.333 0 28.666 -1.16699 39.999 -3.5s21.333 -4.83301 30 -7.5
c8 -4 15.333 -7.33301 22 -10v-133c-4 1.33301 -8.66699 2.66602 -14 3.99902c-4 1.33301 -9.5 2.66602 -16.5 3.99902s-13.833 2 -20.5 2c-46.667 0 -84 -14.333 -112 -43s-42 -69 -42 -121v-30h369v71c0 46.667 7.16699 88.834 21.5 126.501s33.833 69.667 58.5 96
s53 47 85 62s65.667 22.5 101 22.5c15.333 0 28.833 -1 40.5 -3s21.5 -4.33301 29.5 -7c8 -4 15.333 -7.33301 22 -10v-133c-4 1.33301 -8.66699 2.66602 -14 3.99902c-4 1.33301 -9.33301 2.66602 -16 3.99902s-13.667 2 -21 2c-46.667 0 -83.834 -14.333 -111.501 -43
s-41.5 -69 -41.5 -121v-71h522v-922zM1188 1182c0 28.667 9.16699 52.167 27.5 70.5s41.166 27.5 68.499 27.5c28.667 0 52.167 -9.16699 70.5 -27.5s27.5 -41.833 27.5 -70.5c0 -27.333 -9.16699 -50.333 -27.5 -69s-41.833 -28 -70.5 -28
c-27.333 0 -50.166 9.33301 -68.499 28s-27.5 41.667 -27.5 69z" />
    <glyph glyph-name="uniFB04" unicode="ffl" horiz-adv-x="1515" 
d="M1372 0l-152.999 0.000976562v1126c-12 8 -26.333 15 -43 21c-15.333 5.33301 -32.833 10 -52.5 14s-42.5 6 -68.5 6c-66.667 0 -119.167 -18.667 -157.5 -56s-57.5 -86.666 -57.5 -147.999v-41h204v-144h-204v-778h-154v778h-369v-778h-153v778h-113v144h113v30
c0 46.667 7.16699 88.834 21.5 126.501s33.833 69.667 58.5 96s53 47.166 85 62.499s65.667 23 101 23c15.333 0 28.666 -1.16699 39.999 -3.5s21.333 -4.83301 30 -7.5c8 -4 15.333 -7.33301 22 -10v-133c-4 1.33301 -8.66699 2.66602 -14 3.99902
c-4 1.33301 -9.5 2.66602 -16.5 3.99902s-13.833 2 -20.5 2c-46.667 0 -84 -14.333 -112 -43s-42 -69 -42 -121v-30h369v41c0 49.333 9.16699 95 27.5 137s44 78.667 77 110s72 56 117 74s94.167 27 147.5 27c26 0 48.833 -1.83301 68.5 -5.5s37.167 -7.5 52.5 -11.5l43 -14
h153v-1280z" />
    <glyph glyph-name="f_f_j.liga" unicode="ffj" horiz-adv-x="1495" 
d="M1208 778l-368 0.00292969v-778h-154v778h-369v-778h-153v778h-113v144h113v30c0 46.667 7.16699 88.834 21.5 126.501s33.833 69.667 58.5 96s53 47.166 85 62.499s65.667 23 101 23c15.333 0 28.666 -1.16699 39.999 -3.5s21.333 -4.83301 30 -7.5
c8 -4 15.333 -7.33301 22 -10v-133c-4 1.33301 -8.66699 2.66602 -14 3.99902c-4 1.33301 -9.5 2.66602 -16.5 3.99902s-13.833 2 -20.5 2c-46.667 0 -84 -14.333 -112 -43s-42 -69 -42 -121v-30h369v71c0 46.667 7.16699 88.834 21.5 126.501s33.833 69.667 58.5 96
s53 47 85 62s65.667 22.5 101 22.5c15.333 0 28.833 -1 40.5 -3s21.5 -4.33301 29.5 -7c8 -4 15.333 -7.33301 22 -10v-133c-4 1.33301 -8.66699 2.66602 -14 3.99902c-4 1.33301 -9.33301 2.66602 -16 3.99902s-13.667 2 -21 2c-46.667 0 -83.834 -14.333 -111.501 -43
s-41.5 -69 -41.5 -121v-71h522v-953c0 -46.667 -7.16699 -88.667 -21.5 -126s-33.833 -69.333 -58.5 -96s-53 -47.5 -85 -62.5s-65.667 -22.5 -101 -22.5c-30 0 -53.333 3.33301 -70 10c-9.33301 2.66699 -16.666 6.33398 -21.999 11.001v133
c4 -2.66699 8.66699 -4.66699 14 -6c10.667 -2.66699 23 -4.33398 37 -5.00098c46.667 0 83.834 14.333 111.501 43s41.5 69 41.5 121v809zM1188 1182c0 28.667 9.16699 52.167 27.5 70.5s41.166 27.5 68.499 27.5c28.667 0 52.167 -9.16699 70.5 -27.5
s27.5 -41.833 27.5 -70.5c0 -27.333 -9.16699 -50.333 -27.5 -69s-41.833 -28 -70.5 -28c-27.333 0 -50.166 9.33301 -68.499 28s-27.5 41.667 -27.5 69z" />
    <glyph glyph-name="f_j.liga" unicode="fj" horiz-adv-x="972" 
d="M686 778l-368.999 0.00195312v-778h-153v778h-113v144h113v30c0 46.667 7.16699 88.834 21.5 126.501s33.833 69.667 58.5 96s53 47.166 85 62.499s65.667 23 101 23c15.333 0 28.666 -1.16699 39.999 -3.5s21.333 -4.83301 30 -7.5c8 -4 15.333 -7.33301 22 -10v-133
c-4 1.33301 -8.66699 2.66602 -14 3.99902c-4 1.33301 -9.5 2.66602 -16.5 3.99902s-13.833 2 -20.5 2c-46.667 0 -84 -14.333 -112 -43s-42 -69 -42 -121v-30h523v-953c0 -46.667 -7.16699 -88.667 -21.5 -126s-33.833 -69.333 -58.5 -96s-53 -47.5 -85 -62.5
s-66 -22.5 -102 -22.5c-30 0 -53 3.33301 -69 10c-9.33301 2.66699 -17 6.33398 -23 11.001v133c4 -2.66699 9 -4.66699 15 -6c10.667 -2.66699 22.667 -4.33398 36 -5.00098c46.667 0 84 14.333 112 43s42 69 42 121v809zM666.001 1182c0 28.667 9.16699 52.167 27.5 70.5
s41.166 27.5 68.499 27.5c28.667 0 52.167 -9.16699 70.5 -27.5s27.5 -41.833 27.5 -70.5c0 -27.333 -9.16699 -50.333 -27.5 -69s-41.833 -28 -70.5 -28c-27.333 0 -50.166 9.33301 -68.499 28s-27.5 41.667 -27.5 69z" />
    <glyph glyph-name="f_t.liga" unicode="ft" horiz-adv-x="1157" 
d="M727 1167l133 0.000976562v-245h205v-144h-205v-481c0 -52 14 -92.333 42 -121s65.333 -43 112 -43c13.333 0 25.666 1.33301 36.999 4c5.33301 1.33301 10 3.33301 14 6v-133c-6.66699 -4 -14.334 -7.33301 -23.001 -10c-18 -6.66699 -41 -10 -69 -10
c-35.333 0 -69.166 7.5 -101.499 22.5s-60.666 35.833 -84.999 62.5s-43.666 58.667 -57.999 96s-21.5 79.333 -21.5 126v481h-390v-778h-153v778h-113v144h113v71c0 46.667 7.16699 88.834 21.5 126.501s33.833 69.667 58.5 96s53 47 85 62s65.667 22.5 101 22.5
c15.333 0 28.666 -1 39.999 -3s21.333 -4.33301 30 -7c8 -4 15.333 -7.33301 22 -10v-133c-4 1.33301 -8.66699 2.66602 -14 3.99902c-4 1.33301 -9.5 2.66602 -16.5 3.99902s-13.833 2 -20.5 2c-46.667 0 -84 -14.333 -112 -43s-42 -69 -42 -121v-71h297
c75.333 0 113 37.333 113 112v133z" />
    <glyph glyph-name="f_h.liga" unicode="fh" horiz-adv-x="1597" 
d="M1116 932c49.333 0 95.498 -10.001 138.498 -30.001s80.833 -47.333 113.5 -82s58.667 -76.5 78 -125.5s29 -103.167 29 -162.5v-532h-154v532c0 38 -6.16699 72.833 -18.5 104.5s-28.666 58.834 -48.999 81.501s-44.166 40 -71.499 52s-56 18 -86 18
c-72.667 0 -131.834 -23.167 -177.501 -69.5s-68.5 -108.5 -68.5 -186.5v-532h-154v1126c-12 8 -26.333 15 -43 21c-15.333 5.33301 -32.833 10 -52.5 14s-42.5 6 -68.5 6c-66.667 0 -119.167 -18.667 -157.5 -56s-57.5 -86.666 -57.5 -147.999v-41h205v-144h-205v-778h-153
v778h-113v144h113v41c0 49.333 9.16699 95 27.5 137s43.833 78.667 76.5 110s71.667 56 117 74s94.333 27 147 27c26 0 49 -1.83301 69 -5.5s37.333 -7.5 52 -11.5l43 -14h154v-471c20.667 23.333 44.667 43.666 72 60.999c23.333 15.333 51.333 29.5 84 42.5
s69.334 19.5 110.001 19.5z" />
    <glyph glyph-name="f_k.liga" unicode="fk" horiz-adv-x="1413" 
d="M850 0l-154 -0.000976562v1126c-12 8 -26.333 15 -43 21c-15.333 5.33301 -32.833 10 -52.5 14s-42.5 6 -68.5 6c-66.667 0 -119.167 -18.667 -157.5 -56s-57.5 -86.666 -57.5 -147.999v-41h205v-144h-205v-778h-153v778h-113v144h113v41c0 49.333 9.16699 95 27.5 137
s43.833 78.667 76.5 110s71.667 56 117 74s94.333 27 147 27c26 0 49 -1.83301 69 -5.5s37.333 -7.5 52 -11.5l43 -14h154v-1280zM1239 -0.000976562l-389 481l348 441h174l-348 -430l399 -492h-184z" />
    <glyph glyph-name="f_b.liga" unicode="fb" horiz-adv-x="1628" 
d="M809 0h-113v1126c-12 8 -26.333 15 -43 21c-15.333 5.33301 -32.833 10 -52.5 14s-42.5 6 -68.5 6c-66.667 0 -119.167 -18.667 -157.5 -56s-57.5 -86.666 -57.5 -147.999v-41h205v-144h-205v-778h-153v778h-113v144h113v41c0 49.333 9.16699 95 27.5 137
s43.833 78.667 76.5 110s71.667 56 117 74s94.333 27 147 27c26 0 49 -1.83301 69 -5.5s37.333 -7.5 52 -11.5l43 -14h154v-471c19.333 23.333 42.666 43.666 69.999 60.999c23.333 15.333 52 29.5 86 42.5s74 19.5 120 19.5c58.667 0 114.334 -11.667 167.001 -35
s98.5 -55.833 137.5 -97.5s69.667 -91.167 92 -148.5s33.5 -120.666 33.5 -189.999s-11.167 -132.833 -33.5 -190.5s-53 -107.334 -92 -149.001s-84.833 -74 -137.5 -97s-108.334 -34.5 -167.001 -34.5c-46.667 0 -87 5.5 -121 16.5s-62.333 23.833 -85 38.5
c-27.333 16.667 -50.666 35.667 -69.999 57zM829 461c0 -49.333 8.00098 -94.166 24.001 -134.499s36.833 -74.833 62.5 -103.5s56 -50.834 91 -66.501s71.5 -23.5 109.5 -23.5s74.5 7.83301 109.5 23.5s65.5 37.834 91.5 66.501s46.833 63.167 62.5 103.5
s23.5 85.166 23.5 134.499s-7.83301 94 -23.5 134s-36.5 74.333 -62.5 103s-56.333 50.834 -91 66.501s-71.334 23.5 -110.001 23.5c-38 0 -74.5 -7.83301 -109.5 -23.5s-65.333 -37.834 -91 -66.501s-46.5 -63 -62.5 -103s-24 -84.667 -24 -134z" />
    <glyph glyph-name="f_f_h.liga" unicode="ffh" horiz-adv-x="2119" 
d="M1638 932c49.333 0 95.501 -9.99902 138.501 -29.999s80.833 -47.333 113.5 -82s58.667 -76.5 78 -125.5s29 -103.167 29 -162.5v-532h-154v532c0 38 -6.16699 72.833 -18.5 104.5s-28.666 58.834 -48.999 81.501s-44.166 40 -71.499 52s-56 18 -86 18
c-72.667 0 -131.834 -23.167 -177.501 -69.5s-68.5 -108.5 -68.5 -186.5v-532h-153v1126c-12 8 -26.333 15 -43 21c-15.333 5.33301 -32.833 10 -52.5 14s-42.5 6 -68.5 6c-66.667 0 -119.167 -18.667 -157.5 -56s-57.5 -86.666 -57.5 -147.999v-41h204v-144h-204v-778h-154
v778h-369v-778h-153v778h-113v144h113v30c0 46.667 7.16699 88.834 21.5 126.501s33.833 69.667 58.5 96s53 47.166 85 62.499s65.667 23 101 23c15.333 0 28.666 -1.16699 39.999 -3.5s21.333 -4.83301 30 -7.5c8 -4 15.333 -7.33301 22 -10v-133
c-4 1.33301 -8.66699 2.66602 -14 3.99902c-4 1.33301 -9.5 2.66602 -16.5 3.99902s-13.833 2 -20.5 2c-46.667 0 -84 -14.333 -112 -43s-42 -69 -42 -121v-30h369v41c0 49.333 9.16699 95 27.5 137s44 78.667 77 110s72 56 117 74s94.167 27 147.5 27
c26 0 48.833 -1.83301 68.5 -5.5s37.167 -7.5 52.5 -11.5l43 -14h153v-471c19.333 23.333 42 43.666 68 60.999c23.333 15.333 51.166 29.5 83.499 42.5s70.5 19.5 114.5 19.5z" />
    <glyph glyph-name="f_f_k.liga" unicode="ffk" horiz-adv-x="1935" 
d="M1372 0l-152.999 0.000976562v1126c-12 8 -26.333 15 -43 21c-15.333 5.33301 -32.833 10 -52.5 14s-42.5 6 -68.5 6c-66.667 0 -119.167 -18.667 -157.5 -56s-57.5 -86.666 -57.5 -147.999v-41h204v-144h-204v-778h-154v778h-369v-778h-153v778h-113v144h113v30
c0 46.667 7.16699 88.834 21.5 126.501s33.833 69.667 58.5 96s53 47.166 85 62.499s65.667 23 101 23c15.333 0 28.666 -1.16699 39.999 -3.5s21.333 -4.83301 30 -7.5c8 -4 15.333 -7.33301 22 -10v-133c-4 1.33301 -8.66699 2.66602 -14 3.99902
c-4 1.33301 -9.5 2.66602 -16.5 3.99902s-13.833 2 -20.5 2c-46.667 0 -84 -14.333 -112 -43s-42 -69 -42 -121v-30h369v41c0 49.333 9.16699 95 27.5 137s44 78.667 77 110s72 56 117 74s94.167 27 147.5 27c26 0 48.833 -1.83301 68.5 -5.5s37.167 -7.5 52.5 -11.5l43 -14
h153v-1280zM1761 0.000976562l-389 481l348 441h174l-348 -430l400 -492h-185z" />
    <glyph glyph-name="f_f_b.liga" unicode="ffb" horiz-adv-x="2150" 
d="M1372 809c19.333 23.333 42.667 43.668 70 61.001c23.333 15.333 52 29.5 86 42.5s74.333 19.5 121 19.5c58.667 0 114.167 -11.667 166.5 -35s98 -55.833 137 -97.5s69.833 -91.167 92.5 -148.5s34 -120.666 34 -189.999s-11.333 -132.833 -34 -190.5
s-53.5 -107.334 -92.5 -149.001s-84.667 -74 -137 -97s-107.833 -34.5 -166.5 -34.5c-46.667 0 -87 5.5 -121 16.5s-62.667 23.833 -86 38.5c-27.333 16.667 -50.666 35.667 -69.999 57l-41 -102h-112v1126c-12 8 -26.333 15 -43 21c-15.333 5.33301 -32.833 10 -52.5 14
s-42.5 6 -68.5 6c-66.667 0 -119.167 -18.667 -157.5 -56s-57.5 -86.666 -57.5 -147.999v-41h204v-144h-204v-778h-154v778h-369v-778h-153v778h-113v144h113v30c0 46.667 7.16699 88.834 21.5 126.501s33.833 69.667 58.5 96s53 47.166 85 62.499s65.667 23 101 23
c15.333 0 28.666 -1.16699 39.999 -3.5s21.333 -4.83301 30 -7.5c8 -4 15.333 -7.33301 22 -10v-133c-4 1.33301 -8.66699 2.66602 -14 3.99902c-4 1.33301 -9.5 2.66602 -16.5 3.99902s-13.833 2 -20.5 2c-46.667 0 -84 -14.333 -112 -43s-42 -69 -42 -121v-30h369v41
c0 49.333 9.16699 95 27.5 137s44 78.667 77 110s72 56 117 74s94.167 27 147.5 27c26 0 48.833 -1.83301 68.5 -5.5s37.167 -7.5 52.5 -11.5l43 -14h153v-471zM1352 461.002c0 -49.333 7.83398 -94.166 23.501 -134.499s36.5 -74.833 62.5 -103.5
s56.333 -50.834 91 -66.501s71 -23.5 109 -23.5s74.5 7.83301 109.5 23.5s65.5 37.834 91.5 66.501s46.833 63.167 62.5 103.5s23.5 85.166 23.5 134.499s-7.83301 94 -23.5 134s-36.5 74.333 -62.5 103s-56.333 50.834 -91 66.501s-71.334 23.5 -110.001 23.5
c-38 0 -74.333 -7.83301 -109 -23.5s-65 -37.834 -91 -66.501s-46.833 -63 -62.5 -103s-23.5 -84.667 -23.5 -134z" />
    <glyph glyph-name=".notdef" horiz-adv-x="0" 
 />
    <glyph glyph-name="glyph1" horiz-adv-x="0" 
 />
    <glyph glyph-name="glyph1" horiz-adv-x="0" 
 />
    <glyph glyph-name="uni000D" unicode="&#xd;" horiz-adv-x="0" 
 />
    <glyph glyph-name="space" unicode=" " horiz-adv-x="440" 
 />
    <glyph glyph-name="exclam" unicode="!" horiz-adv-x="532" 
d="M328 307h-123l-41 983h205zM164 92c0 31.333 9.16699 56.333 27.5 75s43.166 28 74.499 28s56.333 -9.33301 75 -28s28 -43.667 28 -75s-9.33301 -56.166 -28 -74.499s-43.667 -27.5 -75 -27.5s-56.166 9.16699 -74.499 27.5s-27.5 43.166 -27.5 74.499z" />
    <glyph glyph-name="quotedbl" unicode="&#x22;" horiz-adv-x="624" 
d="M102 1290h144v-379h-144v379zM379 1290h143v-379h-143v379z" />
    <glyph glyph-name="numbersign" unicode="#" horiz-adv-x="1228" 
d="M72 492h235l62 307h-246l31 123h235l72 368h123l-72 -368h307l72 368h123l-72 -368h246l-31 -123h-235l-62 -307h246l-31 -123h-235l-72 -369h-123l72 369h-307l-72 -369h-123l72 369h-246zM430 492h307l62 307h-307z" />
    <glyph glyph-name="dollar" unicode="$" horiz-adv-x="1013" 
d="M440 -6c-56 6.66699 -106.169 20.9971 -150.502 42.9971s-81.833 49.667 -112.5 83s-54.167 71.833 -70.5 115.5s-24.5 91.5 -24.5 143.5h164c0 -78 22.5 -138.5 67.5 -181.5s111.167 -64.5 198.5 -64.5s153.5 19.833 198.5 59.5s67.5 88.167 67.5 145.5
c0 53.333 -17 94.666 -51 123.999s-76.333 53.833 -127 73.5s-105.667 38 -165 55s-114.166 39.5 -164.499 67.5s-92.666 65 -126.999 111s-51.5 107 -51.5 183c0 38 8.16699 76.167 24.5 114.5s39.833 73.333 70.5 105s67.5 58.334 110.5 80.001s90.5 35.834 142.5 42.501
v181h144v-181c46.667 -8 90 -23.667 130 -47s74.667 -51.666 104 -84.999s52.166 -71.5 68.499 -114.5s24.5 -88.5 24.5 -136.5h-163c0 72.667 -22.667 131.834 -68 177.501s-101.333 68.5 -168 68.5c-38 0 -72.833 -5.83301 -104.5 -17.5s-58.667 -27 -81 -46
s-39.666 -40.833 -51.999 -65.5s-18.5 -50 -18.5 -76c0 -53.333 17 -94.666 51 -123.999s76.333 -53.833 127 -73.5s105.667 -38 165 -55s114.333 -39.5 165 -67.5s93 -64.833 127 -110.5s51 -106.834 51 -183.501c0 -42 -8.16699 -82.167 -24.5 -120.5
s-39.833 -72.833 -70.5 -103.5s-68.167 -56.667 -112.5 -78s-94.5 -35.333 -150.5 -42v-178h-144v178z" />
    <glyph glyph-name="percent" unicode="%" horiz-adv-x="1228" 
d="M164 0l788 1290h113l-789 -1290h-112zM164 1034c0 -46.667 15.333 -85.667 46 -117s66.334 -47 107.001 -47s76.5 15.833 107.5 47.5s46.5 70.5 46.5 116.5c0 46.667 -15.333 85.667 -46 117s-66.667 47 -108 47c-40.667 0 -76.334 -15.667 -107.001 -47
s-46 -70.333 -46 -117zM573 1034c0 -35.333 -6.33398 -68.666 -19.001 -99.999s-30.667 -58.666 -54 -81.999s-50.666 -41.5 -81.999 -54.5s-65 -19.5 -101 -19.5c-35.333 0 -68.666 6.5 -99.999 19.5s-58.666 31.167 -81.999 54.5s-41.5 50.666 -54.5 81.999
s-19.5 64.666 -19.5 99.999s6.5 68.833 19.5 100.5s31.167 59 54.5 82s50.666 41 81.999 54s64.666 19.5 99.999 19.5s68.833 -6.5 100.5 -19.5s59.167 -31 82.5 -54s41.333 -50.333 54 -82s19 -65.167 19 -100.5zM757.999 256c0 -46.667 15.333 -85.667 46 -117
s66.334 -47 107.001 -47s76.5 15.667 107.5 47s46.5 70.333 46.5 117s-15.333 85.667 -46 117s-66.667 47 -108 47c-40.667 0 -76.334 -15.667 -107.001 -47s-46 -70.333 -46 -117zM1167 256c0 -35.333 -6.5 -68.666 -19.5 -99.999s-31 -58.666 -54 -81.999
s-50.167 -41.5 -81.5 -54.5s-65 -19.5 -101 -19.5c-35.333 0 -68.666 6.5 -99.999 19.5s-58.666 31.167 -81.999 54.5s-41.5 50.666 -54.5 81.999s-19.5 64.666 -19.5 99.999s6.5 68.666 19.5 99.999s31.167 58.666 54.5 81.999s50.666 41.5 81.999 54.5
s64.666 19.5 99.999 19.5s68.833 -6.5 100.5 -19.5s59 -31.167 82 -54.5s41 -50.666 54 -81.999s19.5 -64.666 19.5 -99.999z" />
    <glyph glyph-name="ampersand" unicode="&#x26;" horiz-adv-x="1085" 
d="M952 0l-174.003 174.002c-24.667 -35.333 -54.667 -66 -90 -92c-30 -23.333 -66.167 -44.5 -108.5 -63.5s-92.166 -28.5 -149.499 -28.5c-52 0 -98.5 7.83301 -139.5 23.5s-76.5 37.167 -106.5 64.5s-52.833 59.666 -68.5 96.999s-23.5 78 -23.5 122
c0 53.333 11.667 102.166 35 146.499s49.333 82.166 78 113.499c32.667 36.667 70 69.334 112 98.001l-92 103c-19.333 18 -36.333 39 -51 63c-13.333 20.667 -25.166 45.667 -35.499 75s-15.5 61.666 -15.5 96.999c0 38 8.16699 74.833 24.5 110.5s38.833 67.5 67.5 95.5
s61.5 50.167 98.5 66.5s75.833 24.5 116.5 24.5s79.167 -7.83301 115.5 -23.5s67.833 -36.834 94.5 -63.501s47.834 -58 63.501 -94s23.5 -74.667 23.5 -116c0 -35.333 -7.16699 -68.666 -21.5 -99.999s-29.833 -58.666 -46.5 -81.999c-19.333 -27.333 -41 -52 -65 -74
l-90 -82l264 -266l123 205h174l-195 -307l277 -287h-195zM419.997 748.002l82 71c15.333 15.333 29 31.666 41 48.999c10.667 15.333 20.167 33.5 28.5 54.5s12.5 44.5 12.5 70.5c0 40.667 -14 76.5 -42 107.5s-65.333 46.5 -112 46.5s-85.667 -15.333 -117 -46
s-47 -66.667 -47 -108c0 -23.333 4.16699 -45.166 12.5 -65.499s17.833 -38.833 28.5 -55.5c12 -19.333 25.667 -37 41 -53zM429.997 123.002c36.667 0 71.5 7.16699 104.5 21.5s60.833 31.166 83.5 50.499c27.333 20.667 53.333 44.334 78 71.001l-276 287
c-34 -20.667 -63.333 -44 -88 -70c-22 -23.333 -41.833 -50.666 -59.5 -81.999s-26.5 -66 -26.5 -104c0 -46.667 16.333 -87.334 49 -122.001s77.667 -52 135 -52z" />
    <glyph glyph-name="quotesingle" unicode="'" horiz-adv-x="348" 
d="M102 1290h144v-379h-144v379z" />
    <glyph glyph-name="parenleft" unicode="(" horiz-adv-x="542" 
d="M256 461c0 -106.667 12.667 -206.832 38 -300.499s53.666 -177.167 84.999 -250.5c35.333 -84.667 76.333 -164 123 -238l-103 -71c-53.333 72.667 -101 153 -143 241c-35.333 76.667 -68 167.167 -98 271.5s-45 220.166 -45 347.499c0 125.333 15 240.666 45 345.999
s62.667 196 98 272c42 88.667 89.667 169.334 143 242.001l103 -72c-46.667 -74 -87.667 -153 -123 -237c-31.333 -74 -59.666 -158 -84.999 -252s-38 -193.667 -38 -299z" />
    <glyph glyph-name="parenright" unicode=")" horiz-adv-x="542" 
d="M287 461c0 105.333 -12.667 205.003 -38 299.003s-53.666 178 -84.999 252c-35.333 84.667 -76.333 163.667 -123 237l102 72c53.333 -72.667 101.333 -153.334 144 -242.001c35.333 -76.667 68 -167.5 98 -272.5s45 -220.167 45 -345.5
c0 -126.667 -15 -242.334 -45 -347.001s-62.667 -195.334 -98 -272.001c-42 -88.667 -90 -169 -144 -241l-102 71c46.667 74 87.667 153.333 123 238c31.333 74 59.666 157.667 84.999 251s38 193.333 38 300z" />
    <glyph glyph-name="asterisk" unicode="*" horiz-adv-x="675" 
d="M236 727l-113 72l143 174l-215 51l41 113l195 -72l-11 225h123l-10 -225l195 72l41 -113l-215 -51l143 -174l-113 -72l-102 186z" />
    <glyph glyph-name="plus" unicode="+" horiz-adv-x="901" 
d="M379 123v338h-318v133h318v338h143v-338h318v-133h-318v-338h-143z" />
    <glyph glyph-name="comma" unicode="," horiz-adv-x="348" 
d="M174 -10c-31.333 0 -56.1641 9.16797 -74.4971 27.501s-27.5 43.166 -27.5 74.499s9.16699 56.333 27.5 75s43.166 28 74.499 28s56.166 -9.33301 74.499 -28s27.5 -43.667 27.5 -75c0 -49.333 -8.5 -92 -25.5 -128s-35.5 -65.667 -55.5 -89
c-24.667 -27.333 -52 -50.666 -82 -69.999l-21 31c13.333 13.333 25.666 27.666 36.999 42.999c9.33301 13.333 18.5 29.333 27.5 48s14.833 39.667 17.5 63z" />
    <glyph glyph-name="hyphen" unicode="-" horiz-adv-x="706" 
d="M635 461h-563v133h563v-133z" />
    <glyph glyph-name="period" unicode="." horiz-adv-x="348" 
d="M72 92c0 31.333 9.16699 56.333 27.5 75s43.166 28 74.499 28s56.166 -9.33301 74.499 -28s27.5 -43.667 27.5 -75s-9.16699 -56.166 -27.5 -74.499s-43.166 -27.5 -74.499 -27.5s-56.166 9.16699 -74.499 27.5s-27.5 43.166 -27.5 74.499z" />
    <glyph glyph-name="slash" unicode="/" horiz-adv-x="675" 
d="M143 -369h-143l532 1659h144z" />
    <glyph glyph-name="zero" unicode="0" horiz-adv-x="1146" 
d="M236 645c0 -87.333 9.50195 -163 28.502 -227s44.167 -117.167 75.5 -159.5s67.166 -73.833 107.499 -94.5s82.166 -31 125.499 -31c44 0 86.167 10.333 126.5 31s76.166 52.167 107.499 94.5s56.5 95.5 75.5 159.5s28.5 139.667 28.5 227s-9.5 163.166 -28.5 227.499
s-44.167 117.666 -75.5 159.999s-67.166 73.666 -107.499 93.999s-82.5 30.5 -126.5 30.5s-86 -10.167 -126 -30.5s-75.667 -51.666 -107 -93.999s-56.5 -95.666 -75.5 -159.999s-28.5 -140.166 -28.5 -227.499zM1075 645c0 -105.333 -13.666 -198.5 -40.999 -279.5
s-64.166 -149.5 -110.499 -205.5s-99.5 -98.333 -159.5 -127s-123.667 -43 -191 -43c-66.667 0 -130.334 14.333 -191.001 43s-113.834 71 -159.501 127s-82.167 124.5 -109.5 205.5s-41 174.167 -41 279.5s13.667 198.666 41 279.999s63.833 149.833 109.5 205.5
s98.834 97.834 159.501 126.501s124.334 43 191.001 43s130.167 -14.333 190.5 -43s113.666 -70.834 159.999 -126.501s83.166 -124.167 110.499 -205.5s41 -174.666 41 -279.999z" />
    <glyph glyph-name="one" unicode="1" horiz-adv-x="634" 
d="M471 1290v-1290h-164v1065l-184 -123l-72 123l318 225h102z" />
    <glyph glyph-name="two" unicode="2" horiz-adv-x="983" 
d="M891 143l0.00195312 -142.999h-799v123l512 563c23.333 24.667 44 50.667 62 78c15.333 23.333 29.333 50.333 42 81s19 63 19 97c0 61.333 -21.167 112.5 -63.5 153.5s-99.5 61.5 -171.5 61.5c-72.667 0 -131.834 -22.833 -177.501 -68.5s-68.5 -104.834 -68.5 -177.501
h-164c0 53.333 10.167 104 30.5 152s49 89.333 86 124s80.333 62.167 130 82.5s104.167 30.5 163.5 30.5c58.667 0 112.5 -9.5 161.5 -28.5s90.833 -44.833 125.5 -77.5s62 -70.5 82 -113.5s30 -89.167 30 -138.5c0 -46.667 -9.16699 -91.167 -27.5 -133.5
s-38.5 -79.166 -60.5 -110.499c-24.667 -36.667 -53.334 -71.334 -86.001 -104.001l-410 -451h584z" />
    <glyph glyph-name="three" unicode="3" horiz-adv-x="993" 
d="M72 963c5.33301 46.667 18.4961 90.3301 39.4961 130.997s48.667 76.334 83 107.001s75 54.834 122 72.501s98.5 26.5 154.5 26.5c58.667 0 112.667 -9.5 162 -28.5s91.333 -44.833 126 -77.5s61.834 -70.5 81.501 -113.5s29.5 -89.167 29.5 -138.5
c0 -46.667 -9.5 -86.667 -28.5 -120s-40.167 -61 -63.5 -83c-27.333 -24.667 -58 -45.667 -92 -63c40.667 -18 78.334 -41.333 113.001 -70c27.333 -24.667 52.833 -57.5 76.5 -98.5s35.5 -90.833 35.5 -149.5c0 -49.333 -10.167 -96 -30.5 -140
s-49.666 -82.833 -87.999 -116.5s-83.666 -60.667 -135.999 -81s-110.833 -30.5 -175.5 -30.5c-58.667 0 -112.167 8.83301 -160.5 26.5s-90.333 41.834 -126 72.501s-64.667 66.5 -87 107.5s-37.833 84.833 -46.5 131.5h164c10.667 -52 38 -97.5 82 -136.5
s102 -58.5 174 -58.5c82 0 147 22.167 195 66.5s72 97.166 72 158.499c0 62.667 -24 116 -72 160s-113 66 -195 66h-71v143h61c72.667 0 130.167 20.5 172.5 61.5s63.5 92.167 63.5 153.5s-21.167 112.5 -63.5 153.5s-99.833 61.5 -172.5 61.5c-32.667 0 -63 -5.5 -91 -16.5
s-52.333 -25.333 -73 -43s-37 -38.167 -49 -61.5s-19.333 -47.666 -22 -72.999h-164z" />
    <glyph glyph-name="four" unicode="4" horiz-adv-x="983" 
d="M932 276h-144v-276h-163v276h-574v134l543 880h194v-870h144v-144zM625 420v635l-389 -635h389z" />
    <glyph glyph-name="five" unicode="5" horiz-adv-x="1024" 
d="M532 850c56 0 108.997 -11.002 158.997 -33.002s93.5 -52 130.5 -90s66.333 -83.333 88 -136s32.5 -109.667 32.5 -171s-10.833 -118.333 -32.5 -171s-51.667 -98.167 -90 -136.5s-83.833 -68.333 -136.5 -90s-109.667 -32.5 -171 -32.5
c-58.667 0 -112.167 8.83301 -160.5 26.5s-90.333 41.834 -126 72.501s-64.834 66.5 -87.501 107.5s-38 84.833 -46 131.5h164c10.667 -52 37.834 -97.5 81.501 -136.5s101.834 -58.5 174.501 -58.5c38 0 73.167 6.83301 105.5 20.5s60.333 32.834 84 57.501
s42.334 54.667 56.001 90s20.5 75 20.5 119c0 87.333 -24.833 157 -74.5 209s-113.5 78 -191.5 78c-46.667 0 -85.667 -8.33301 -117 -25s-56.666 -34.334 -75.999 -53.001c-23.333 -23.333 -41 -48.666 -53 -75.999h-143l82 737h655v-153h-512l-41 -369
c16.667 15.333 36.667 29 60 41c19.333 10.667 42.833 20.167 70.5 28.5s59.167 12.5 94.5 12.5z" />
    <glyph glyph-name="six" unicode="6" horiz-adv-x="1013" 
d="M512 -10c-61.333 0 -118.669 11.1641 -172.002 33.4971s-100.166 53.666 -140.499 93.999s-71.666 87.166 -93.999 140.499s-33.5 110.666 -33.5 171.999c0 40.667 5.33301 79.5 16 116.5s23.667 69.833 39 98.5c16.667 32.667 35.667 63.334 57 92.001l369 553h174
l-287 -430l21 4c6.66699 1.33301 14.167 2.66602 22.5 3.99902s17.833 2 28.5 2c61.333 0 118.666 -11.167 171.999 -33.5s100.166 -53.666 140.499 -93.999s71.666 -87.166 93.999 -140.499s33.5 -110.666 33.5 -171.999s-11.167 -118.666 -33.5 -171.999
s-53.666 -100.166 -93.999 -140.499s-87.166 -71.666 -140.499 -93.999s-110.666 -33.5 -171.999 -33.5zM235.997 429.997c0 -44 7.16699 -83.999 21.5 -119.999s34 -67 59 -93s54.333 -46.5 88 -61.5s69.5 -22.5 107.5 -22.5s73.833 7.16699 107.5 21.5s63 34.833 88 61.5
s44.667 58.167 59 94.5s21.5 76.166 21.5 119.499c0 40.667 -7.16699 78.5 -21.5 113.5s-34 65.5 -59 91.5s-54.333 46.167 -88 60.5s-69.5 21.5 -107.5 21.5s-73.833 -7.16699 -107.5 -21.5s-63 -34.5 -88 -60.5s-44.667 -56.5 -59 -91.5s-21.5 -72.833 -21.5 -113.5z" />
    <glyph glyph-name="seven" unicode="7" horiz-adv-x="901" 
d="M850 1290v-112l-543 -1178h-174l533 1147h-594v143h778z" />
    <glyph glyph-name="eight" unicode="8" 
d="M502 -10c-64 0 -122.331 10.166 -174.998 30.499s-98.167 47.666 -136.5 81.999s-67.666 74.333 -87.999 120s-30.5 94.5 -30.5 146.5c0 61.333 11.5 112.833 34.5 154.5s48.833 75.5 77.5 101.5c32.667 30 70.334 53.667 113.001 71c-34 12 -63.333 30.667 -88 56
c-22 20.667 -41.833 48 -59.5 82s-26.5 77 -26.5 129c0 44 9.5 86 28.5 126s45.667 75.667 80 107s74.666 56.5 120.999 75.5s96.166 28.5 149.499 28.5s103.166 -9.5 149.499 -28.5s86.5 -44.167 120.5 -75.5s60.667 -67.166 80 -107.499s29 -82.166 29 -125.499
c0 -52 -9.33301 -95.167 -28 -129.5s-38.667 -61.5 -60 -81.5c-24.667 -24.667 -53.334 -43.334 -86.001 -56.001c40.667 -18 78 -41.667 112 -71c27.333 -26 53 -59.833 77 -101.5s36 -93.167 36 -154.5c0 -52 -10.333 -100.833 -31 -146.5s-50 -85.667 -88 -120
s-83.333 -61.666 -136 -81.999s-111 -30.5 -175 -30.5zM502.002 613.999c-82 0 -146.833 -22.5 -194.5 -67.5s-71.5 -100.833 -71.5 -167.5c0 -72.667 23.833 -131.834 71.5 -177.501s112.5 -68.5 194.5 -68.5s146.833 22.833 194.5 68.5s71.5 104.834 71.5 177.501
c0 66.667 -23.833 122.5 -71.5 167.5s-112.5 67.5 -194.5 67.5zM502.002 757.999c30 0 58.333 5.5 85 16.5s49.5 25.333 68.5 43s34 38 45 61s16.5 47.5 16.5 73.5c0 28.667 -5.5 55.334 -16.5 80.001s-26 46.167 -45 64.5s-41.833 33 -68.5 44s-55 16.5 -85 16.5
c-31.333 0 -60 -5.5 -86 -16.5s-48.667 -25.667 -68 -44s-34.333 -39.833 -45 -64.5s-16 -51.334 -16 -80.001c0 -26 5.33301 -50.5 16 -73.5s25.667 -43.333 45 -61s42 -32 68 -43s54.667 -16.5 86 -16.5z" />
    <glyph glyph-name="nine" unicode="9" horiz-adv-x="1013" 
d="M502 1300c61.333 0 118.67 -11.1631 172.003 -33.4961s100 -53.666 140 -93.999s71.333 -87.166 94 -140.499s34 -110.666 34 -171.999c0 -40.667 -5.83301 -79.834 -17.5 -117.501s-24.834 -70.167 -39.501 -97.5c-16.667 -34 -35.334 -64.667 -56.001 -92l-368 -553
h-174l286 430c-6.66699 -2.66699 -13.334 -4.66699 -20.001 -6s-14.167 -2.33301 -22.5 -3s-17.833 -1 -28.5 -1c-61.333 0 -118.666 11.167 -171.999 33.5s-100.166 53.666 -140.499 93.999s-71.833 87.166 -94.5 140.499s-34 110.666 -34 171.999
s11.333 118.666 34 171.999s54.167 100.166 94.5 140.499s87.166 71.666 140.499 93.999s110.666 33.5 171.999 33.5zM778.004 860.004c0 42 -7.16602 81.5 -21.499 118.5s-34.166 68.5 -59.499 94.5s-54.666 46.5 -87.999 61.5s-69 22.5 -107 22.5
s-73.833 -7.16699 -107.5 -21.5s-63.167 -34.833 -88.5 -61.5s-45.166 -58 -59.499 -94s-21.5 -76 -21.5 -120c0 -40.667 7.16699 -78.5 21.5 -113.5s34.166 -65.5 59.499 -91.5s54.666 -46.167 87.999 -60.5s69.333 -21.5 108 -21.5c38 0 73.667 7.16699 107 21.5
s62.666 34.5 87.999 60.5s45.166 56.5 59.499 91.5s21.5 72.833 21.5 113.5z" />
    <glyph glyph-name="colon" unicode=":" horiz-adv-x="348" 
d="M72 92c0 31.333 9.16699 56.333 27.5 75s43.166 28 74.499 28s56.166 -9.33301 74.499 -28s27.5 -43.667 27.5 -75s-9.16699 -56.166 -27.5 -74.499s-43.166 -27.5 -74.499 -27.5s-56.166 9.16699 -74.499 27.5s-27.5 43.166 -27.5 74.499zM72 819
c0 31.333 9.16699 56.333 27.5 75s43.166 28 74.499 28s56.166 -9.33301 74.499 -28s27.5 -43.667 27.5 -75s-9.16699 -56.166 -27.5 -74.499s-43.166 -27.5 -74.499 -27.5s-56.166 9.16699 -74.499 27.5s-27.5 43.166 -27.5 74.499z" />
    <glyph glyph-name="semicolon" unicode=";" horiz-adv-x="348" 
d="M72 819c0 31.333 9.16699 56.333 27.5 75s43.166 28 74.499 28s56.166 -9.33301 74.499 -28s27.5 -43.667 27.5 -75s-9.16699 -56.166 -27.5 -74.499s-43.166 -27.5 -74.499 -27.5s-56.166 9.16699 -74.499 27.5s-27.5 43.166 -27.5 74.499zM174 -10
c-31.333 0 -56.1641 9.16797 -74.4971 27.501s-27.5 43.166 -27.5 74.499s9.16699 56.333 27.5 75s43.166 28 74.499 28s56.166 -9.33301 74.499 -28s27.5 -43.667 27.5 -75c0 -49.333 -8.5 -92 -25.5 -128s-35.5 -65.667 -55.5 -89
c-24.667 -27.333 -52 -50.666 -82 -69.999l-21 31c13.333 13.333 25.666 27.666 36.999 42.999c9.33301 13.333 18.5 29.333 27.5 48s14.833 39.667 17.5 63z" />
    <glyph glyph-name="less" unicode="&#x3c;" horiz-adv-x="901" 
d="M809 164v-154l-717 389v103l717 389v-154l-543 -286z" />
    <glyph glyph-name="equal" unicode="=" horiz-adv-x="890" 
d="M829 788v-143h-768v143h768zM61 410h768v-144h-768v144z" />
    <glyph glyph-name="greater" unicode="&#x3e;" horiz-adv-x="901" 
d="M635 451l-543 286v154l717 -389v-103l-717 -389v154z" />
    <glyph glyph-name="question" unicode="?" horiz-adv-x="880" 
d="M809 961c0 -54.667 -7.16504 -100.173 -21.498 -136.506s-32.833 -68.166 -55.5 -95.499s-46.5 -52.166 -71.5 -74.499s-48.833 -47.166 -71.5 -74.499s-41.167 -59.166 -55.5 -95.499s-21.5 -81.833 -21.5 -136.5v-10h-164v10c0 64 7.16699 117.833 21.5 161.5
s32.833 81 55.5 112s46.667 57.667 72 80s49.166 45.5 71.499 69.5s40.666 50.667 54.999 80s21.5 66 21.5 110c0 57.333 -18 104.333 -54 141s-82.667 55 -140 55c-66.667 0 -119.167 -20.833 -157.5 -62.5s-57.5 -106.167 -57.5 -193.5v-20h-164v20
c0 128.667 34.833 227.334 104.5 296.001s161.167 103 274.5 103c50.667 0 98 -8.5 142 -25.5s81.833 -40.5 113.5 -70.5s56.667 -65.667 75 -107s27.5 -86.666 27.5 -135.999zM328.002 91.9941c0 31.333 9.16699 56.333 27.5 75s43.166 28 74.499 28
s56.166 -9.33301 74.499 -28s27.5 -43.667 27.5 -75s-9.16699 -56.166 -27.5 -74.499s-43.166 -27.5 -74.499 -27.5s-56.166 9.16699 -74.499 27.5s-27.5 43.166 -27.5 74.499z" />
    <glyph glyph-name="at" unicode="@" horiz-adv-x="1515" 
d="M963 238c-16.667 -24.667 -36.6689 -45.9971 -60.002 -63.9971c-19.333 -15.333 -44 -29.333 -74 -42s-64 -19 -102 -19c-40.667 0 -79.5 8.5 -116.5 25.5s-69.833 40.833 -98.5 71.5s-51.167 67.167 -67.5 109.5s-24.5 89.5 -24.5 141.5
c0 50.667 8.16699 97.5 24.5 140.5s38.833 79.833 67.5 110.5s61.5 54.5 98.5 71.5s75.833 25.5 116.5 25.5c35.333 0 66.333 -5.83301 93 -17.5s49.667 -24.834 69 -39.501c20.667 -16.667 38.334 -35.334 53.001 -56.001l31 103h92v-404c0 -60 10.833 -103.333 32.5 -130
s48.5 -40 80.5 -40c20.667 0 39.834 4.5 57.501 13.5s32.5 23.333 44.5 43s21.833 46 29.5 79s11.5 73.167 11.5 120.5c0 74 -15 144.5 -45 211.5s-70.333 125.667 -121 176s-109.334 90.5 -176.001 120.5s-137 45 -211 45s-144.333 -15 -211 -45
s-125.334 -71 -176.001 -123s-91 -112.667 -121 -182s-45 -143.666 -45 -222.999s15 -153.833 45 -223.5s70.333 -130.5 121 -182.5s109.334 -93 176.001 -123s137 -45 211 -45c40.667 0 78.5 4.83301 113.5 14.5s65.5 19.834 91.5 30.501c30 13.333 57.333 29.333 82 48
l61 -103c-32.667 -19.333 -67.334 -36.333 -104.001 -51c-31.333 -13.333 -68.166 -25.166 -110.499 -35.499s-86.833 -15.5 -133.5 -15.5c-94 0 -182.667 18 -266 54s-156.166 85.167 -218.499 147.5s-111.5 135 -147.5 218s-54 171.833 -54 266.5c0 94 18 182.667 54 266
s85.167 156 147.5 218s135.166 111.167 218.499 147.5s172 54.5 266 54.5s182.667 -17.833 266 -53.5s156.166 -83.834 218.499 -144.501s111.5 -131.334 147.5 -212.001s54 -166 54 -256c0 -61.333 -7.16699 -114.833 -21.5 -160.5s-34.166 -83.834 -59.499 -114.501
s-54.666 -53.834 -87.999 -69.501s-69 -23.5 -107 -23.5c-39.333 0 -72.5 6.5 -99.5 19.5s-49.167 26.833 -66.5 41.5c-20.667 18 -37 39.333 -49 64zM542.998 461.003c0 -66.667 19.833 -120.832 59.5 -162.499s88.167 -62.5 145.5 -62.5c60 0 109 19.667 147 59
s57 94.666 57 165.999c0 70.667 -19 125.834 -57 165.501s-87 59.5 -147 59.5c-57.333 0 -105.833 -20.833 -145.5 -62.5s-59.5 -95.834 -59.5 -162.501z" />
    <glyph glyph-name="A" unicode="A" horiz-adv-x="1126" 
d="M829 317h-532l-123 -317h-174l492 1290h143l491 -1290h-174zM348 461h430l-215 563z" />
    <glyph glyph-name="B" unicode="B" horiz-adv-x="1146" 
d="M870 686c35.333 -18 67.666 -41.335 96.999 -70.002c24.667 -24.667 47.167 -57.334 67.5 -98.001s30.5 -90.334 30.5 -149.001c0 -48 -10.167 -94.167 -30.5 -138.5s-49 -83.666 -86 -117.999s-80.5 -61.666 -130.5 -81.999s-104.333 -30.5 -163 -30.5h-491v1290h481
c53.333 0 102.5 -8.83301 147.5 -26.5s83.833 -42.167 116.5 -73.5s58.334 -68.166 77.001 -110.499s28 -88.166 28 -137.499c0 -46.667 -7.5 -86 -22.5 -118s-31.5 -58.333 -49.5 -79c-22 -24 -46 -43.667 -72 -59zM328 747.998l317 -0.000976562
c30 0 58.333 5.33301 85 16s49.5 25 68.5 43s34 38.5 45 61.5s16.5 47.5 16.5 73.5c0 28.667 -5.5 55.334 -16.5 80.001s-26 46.167 -45 64.5s-41.833 33 -68.5 44s-55 16.5 -85 16.5h-317v-399zM655 142.997c72.667 0 131.833 22.6689 177.5 68.002s68.5 101.333 68.5 168
c0 30 -6.16699 58.667 -18.5 86s-29.333 51.166 -51 71.499s-47.5 36.666 -77.5 48.999s-63 18.5 -99 18.5h-327v-461h327z" />
    <glyph glyph-name="C" unicode="C" horiz-adv-x="1290" 
d="M676 1157c-56 0 -110.668 -12.6699 -164.001 -38.0029s-100.5 -60.833 -141.5 -106.5s-73.667 -99.834 -98 -162.501s-36.5 -131 -36.5 -205s12.167 -142.333 36.5 -205s57 -116.834 98 -162.501s88.167 -81.167 141.5 -106.5s108 -38 164 -38
c50.667 0 97.167 7.83301 139.5 23.5s79.5 36.834 111.5 63.501s58.5 58.167 79.5 94.5s37.167 74.833 48.5 115.5h174c-18 -61.333 -43.333 -118.666 -76 -171.999s-72.5 -100.166 -119.5 -140.499s-100.667 -71.666 -161 -93.999s-125.833 -33.5 -196.5 -33.5
c-79.333 0 -155.5 16.667 -228.5 50s-137.167 79.666 -192.5 138.999s-99.666 128.666 -132.999 207.999s-50 165.333 -50 258c0 91.333 16.667 177 50 257s77.666 149.667 132.999 209s119.5 105.666 192.5 138.999s149.167 50 228.5 50c69.333 0 133 -11.167 191 -33.5
s110.333 -53.666 157 -93.999s86.334 -87.166 119.001 -140.499s58 -110.666 76 -171.999h-175c-10.667 40.667 -26.5 79.167 -47.5 115.5s-47.333 67.833 -79 94.5s-67.5 47.834 -107.5 63.501s-84.667 23.5 -134 23.5z" />
    <glyph glyph-name="D" unicode="D" horiz-adv-x="1218" 
d="M522 143c58.667 0 115.334 12.666 170.001 37.999s102.834 60.5 144.501 105.5s74.834 98 99.501 159s37 127.5 37 199.5c0 70.667 -12.333 136.834 -37 198.501s-57.834 115 -99.501 160s-89.834 80.167 -144.501 105.5s-111.334 38 -170.001 38h-194v-1004h194z
M1137 644.999c0 -92.667 -16.167 -178.335 -48.5 -257.002s-76.5 -146.667 -132.5 -204s-121.167 -102.333 -195.5 -135s-153.833 -49 -238.5 -49h-358v1290h358c84.667 0 164.167 -16.333 238.5 -49s139.5 -77.667 195.5 -135s100.167 -125.666 132.5 -204.999
s48.5 -164.666 48.5 -255.999z" />
    <glyph glyph-name="E" unicode="E" horiz-adv-x="1105" 
d="M1004 143v-143h-840v1290h819v-143h-655v-410h604v-143h-604v-451h676z" />
    <glyph glyph-name="F" unicode="F" horiz-adv-x="1024" 
d="M328 1147v-430h512v-144h-512v-573h-164v1290h788v-143h-624z" />
    <glyph glyph-name="G" unicode="G" horiz-adv-x="1382" 
d="M686 1157c-56 0 -110.666 -12.6641 -163.999 -37.9971s-100.5 -60.833 -141.5 -106.5s-73.667 -99.834 -98 -162.501s-36.5 -131 -36.5 -205s12.167 -142.333 36.5 -205s57 -116.834 98 -162.501s88.167 -81.167 141.5 -106.5s108 -38 164 -38
c50.667 0 99.5 10.667 146.5 32s88.667 49.333 125 84s65 73.834 86 117.501s31.5 88.834 31.5 135.501h-379v143h543v-645h-123l-41 154c-30 -30 -64 -57.333 -102 -82c-34 -20.667 -75 -39.5 -123 -56.5s-102.667 -25.5 -164 -25.5c-79.333 0 -155.5 16.667 -228.5 50
s-137.167 79.666 -192.5 138.999s-99.666 128.666 -132.999 207.999s-50 165.333 -50 258c0 91.333 16.667 177 50 257s77.666 149.667 132.999 209s119.5 105.666 192.5 138.999s149.167 50 228.5 50c70.667 0 135.167 -10.167 193.5 -30.5s110 -49.333 155 -87
s83.5 -82 115.5 -133s58.333 -107.167 79 -168.5h-174c-26 82 -68.333 148.5 -127 199.5s-139.334 76.5 -242.001 76.5z" />
    <glyph glyph-name="H" unicode="H" horiz-adv-x="1280" 
d="M1116 1290v-1290h-164v584h-624v-584h-164v1290h164v-563h624v563h164z" />
    <glyph glyph-name="I" unicode="I" horiz-adv-x="491" 
d="M328 0h-164v1290h164v-1290z" />
    <glyph glyph-name="J" unicode="J" horiz-adv-x="942" 
d="M799 1292v-944c0 -49.333 -9.66699 -95.5 -29 -138.5s-46.333 -80.833 -81 -113.5s-75.834 -58.5 -123.501 -77.5s-99.5 -28.5 -155.5 -28.5s-108 9.5 -156 28.5s-89.333 44.833 -124 77.5s-61.667 70.5 -81 113.5s-29 89.167 -29 138.5h164
c5.33301 -61.333 28.833 -112.5 70.5 -153.5s93.5 -61.5 155.5 -61.5c66.667 0 120.834 20.5 162.501 61.5s62.5 92.167 62.5 153.5v944h164z" />
    <glyph glyph-name="K" unicode="K" horiz-adv-x="1054" 
d="M328 0h-164v1290h164v-1290zM328 655l501 635h195l-512 -635l553 -655h-195z" />
    <glyph glyph-name="L" unicode="L" horiz-adv-x="962" 
d="M942 143v-143h-778v1290h164v-1147h614z" />
    <glyph glyph-name="M" unicode="M" horiz-adv-x="1556" 
d="M1260 1290h133v-1290h-164v870l-400 -870h-102l-399 870v-870h-164v1290h133l481 -1034z" />
    <glyph glyph-name="N" unicode="N" horiz-adv-x="1280" 
d="M1116 1290v-1290h-143l-645 973v-973h-164v1290h143l645 -973v973h164z" />
    <glyph glyph-name="O" unicode="O" horiz-adv-x="1351" 
d="M236 645c0 -74 12.167 -142.332 36.5 -204.999s57 -116.834 98 -162.501s88.167 -81.167 141.5 -106.5s108 -38 164 -38s110.667 12.667 164 38s100.333 60.833 141 106.5s73.334 100 98.001 163s37 131.167 37 204.5c0 74 -12.333 142.333 -37 205
s-57.334 116.834 -98.001 162.501s-87.667 81.167 -141 106.5s-108 38 -164 38s-110.667 -12.667 -164 -38s-100.5 -60.833 -141.5 -106.5s-73.667 -99.834 -98 -162.501s-36.5 -131 -36.5 -205zM1280 645.001c0 -92.667 -16.667 -178.667 -50 -258
s-77.666 -148.666 -132.999 -207.999s-119.5 -105.666 -192.5 -138.999s-149.167 -50 -228.5 -50s-155.5 16.667 -228.5 50s-137.167 79.666 -192.5 138.999s-99.666 128.666 -132.999 207.999s-50 165.333 -50 258c0 91.333 16.667 177 50 257s77.666 149.667 132.999 209
s119.5 105.666 192.5 138.999s149.167 50 228.5 50s155.5 -16.667 228.5 -50s137.167 -79.666 192.5 -138.999s99.666 -129 132.999 -209s50 -165.667 50 -257z" />
    <glyph glyph-name="P" unicode="P" horiz-adv-x="1095" 
d="M604 1290c56 0 109 -10.502 159 -31.502s93.333 -50 130 -87s66 -79.667 88 -128s33 -99.166 33 -152.499s-11 -104.166 -33 -152.499s-51.333 -91 -88 -128s-80 -66 -130 -87s-103 -31.5 -159 -31.5h-276v-492h-164v1290h440zM604 634.998
c32.667 0 64 6.50195 94 19.502s56.333 31 79 54s40.5 50.333 53.5 82s19.5 65.167 19.5 100.5s-6.5 68.666 -19.5 99.999s-30.833 58.666 -53.5 81.999s-49 41.5 -79 54.5s-61.333 19.5 -94 19.5h-276v-512h276z" />
    <glyph glyph-name="Q" unicode="Q" horiz-adv-x="1372" 
d="M1004 102c-26 -22 -56.3311 -40.998 -90.998 -56.998c-28.667 -15.333 -63.334 -28.333 -104.001 -39s-85 -16 -133 -16c-79.333 0 -155.5 16.667 -228.5 50s-137.167 79.666 -192.5 138.999s-99.666 128.666 -132.999 207.999s-50 165.333 -50 258
c0 91.333 16.667 177 50 257s77.666 149.667 132.999 209s119.5 105.666 192.5 138.999s149.167 50 228.5 50s155.5 -16.667 228.5 -50s137.167 -79.666 192.5 -138.999s99.666 -129 132.999 -209s50 -165.667 50 -257c0 -69.333 -8.5 -131 -25.5 -185
s-35.833 -100 -56.5 -138c-24.667 -45.333 -52 -84.333 -82 -117l144 -144l-103 -112zM236.002 645.002c0 -74 12.168 -142.334 36.501 -205.001s57 -116.834 98 -162.501s88.167 -81.167 141.5 -106.5s108 -38 164 -38c32.667 0 63 3.5 91 10.5s51.667 15.167 71 24.5
c23.333 10.667 44.333 23 63 37l-133 133l102 113l144 -144c19.333 24.667 36.333 54 51 88c12 28.667 23.5 63.834 34.5 105.501s16.5 89.834 16.5 144.501c0 74 -12.333 142.333 -37 205s-57.334 116.834 -98.001 162.501s-87.667 81.167 -141 106.5s-108 38 -164 38
s-110.667 -12.667 -164 -38s-100.5 -60.833 -141.5 -106.5s-73.667 -99.834 -98 -162.501s-36.5 -131 -36.5 -205z" />
    <glyph glyph-name="R" unicode="R" horiz-adv-x="1136" 
d="M573 532l-245 -0.00195312v-532h-164v1290h481c53.333 0 103.833 -10.167 151.5 -30.5s89 -47.666 124 -81.999s62.667 -74.666 83 -120.999s30.5 -94.833 30.5 -145.5c0 -75.333 -15 -136.5 -45 -183.5s-62.667 -84.167 -98 -111.5c-42 -32.667 -89 -57 -141 -73
l315 -543h-184zM328 675.998l317 -0.000976562c30 0 58.667 6.16699 86 18.5s51.333 29 72 50s37 45.833 49 74.5s18 59.334 18 92.001s-6 63.5 -18 92.5s-28.333 54 -49 75s-44.667 37.667 -72 50s-56 18.5 -86 18.5h-317v-471z" />
    <glyph glyph-name="S" unicode="S" horiz-adv-x="1013" 
d="M92 952c0 44 10.334 86.8311 31.001 128.498s49.667 78.834 87 111.501s81.666 58.834 132.999 78.501s107.666 29.5 168.999 29.5c56 0 108.167 -10.167 156.5 -30.5s90.666 -47.833 126.999 -82.5s64.666 -76 84.999 -124s30.5 -98.667 30.5 -152h-163
c0 72.667 -22.667 131.834 -68 177.501s-101.333 68.5 -168 68.5c-38 0 -72.833 -5.83301 -104.5 -17.5s-58.667 -27 -81 -46s-39.666 -40.833 -51.999 -65.5s-18.5 -50 -18.5 -76c0 -53.333 17 -94.666 51 -123.999s76.333 -53.833 127 -73.5s105.667 -38 165 -55
s114.333 -39.5 165 -67.5s93 -64.833 127 -110.5s51 -106.834 51 -183.501c0 -46.667 -9.83301 -90.834 -29.5 -132.501s-48 -78.5 -85 -110.5s-82.167 -57.5 -135.5 -76.5s-113.333 -28.5 -180 -28.5s-126.667 9.5 -180 28.5s-98.5 46 -135.5 81s-65.333 76.333 -85 124
s-29.5 99.5 -29.5 155.5h164c0 -78 22.5 -138.5 67.5 -181.5s111.167 -64.5 198.5 -64.5s153.5 19.833 198.5 59.5s67.5 88.167 67.5 145.5c0 53.333 -17 94.666 -51 123.999s-76.333 53.833 -127 73.5s-105.667 38 -165 55s-114.166 39.5 -164.499 67.5
s-92.666 64.833 -126.999 110.5s-51.5 106.834 -51.5 183.501z" />
    <glyph glyph-name="T" unicode="T" 
d="M973 1147h-389v-1147h-164v1147h-389v143h942v-143z" />
    <glyph glyph-name="U" unicode="U" horiz-adv-x="1228" 
d="M614 -10c-69.333 0 -132.666 11.499 -189.999 34.499s-106.833 55 -148.5 96s-74.167 89.5 -97.5 145.5s-35 117.667 -35 185v839h164v-839c0 -98 28 -175.5 84 -232.5s130.333 -85.5 223 -85.5s167.167 28.333 223.5 85s84.5 134.334 84.5 233.001v839h163v-839
c0 -66.667 -11.5 -128.167 -34.5 -184.5s-55.333 -105 -97 -146s-91.334 -73 -149.001 -96s-121.167 -34.5 -190.5 -34.5z" />
    <glyph glyph-name="V" unicode="V" horiz-adv-x="1146" 
d="M655 0h-163l-472 1290h175l378 -1054l379 1054h174z" />
    <glyph glyph-name="W" unicode="W" horiz-adv-x="1597" 
d="M799 932l-267 -932h-112l-400 1290h175l286 -932l267 932h102l266 -932l287 932h174l-399 -1290h-113z" />
    <glyph glyph-name="X" unicode="X" horiz-adv-x="1064" 
d="M440 655l-399 635h184l307 -491l308 491h184l-399 -635l419 -655h-194l-318 512l-317 -512h-195z" />
    <glyph glyph-name="Y" unicode="Y" horiz-adv-x="1024" 
d="M20 1290h175l317 -614l317 614h175l-410 -788v-502h-164v502z" />
    <glyph glyph-name="Z" unicode="Z" horiz-adv-x="993" 
d="M266 143h666v-143h-871v102l635 1045h-614v143h819v-102z" />
    <glyph glyph-name="bracketleft" unicode="[" horiz-adv-x="583" 
d="M307 -236h236v-133h-379v1659h379v-133h-236v-1393z" />
    <glyph glyph-name="backslash" unicode="\" horiz-adv-x="675" 
d="M0 1290h143l533 -1659h-144z" />
    <glyph glyph-name="bracketright" unicode="]" horiz-adv-x="583" 
d="M276 1157h-235v133h379v-1659h-379v133h235v1393z" />
    <glyph glyph-name="asciicircum" unicode="^" horiz-adv-x="778" 
d="M573 707l-184 389l-184 -389h-123l276 583h62l276 -583h-123z" />
    <glyph glyph-name="underscore" unicode="_" horiz-adv-x="532" 
d="M573 -338h-614v123h614v-123z" />
    <glyph glyph-name="grave" unicode="`" horiz-adv-x="399" 
d="M338 1044h-102l-175 246h154z" />
    <glyph glyph-name="a" unicode="a" horiz-adv-x="952" 
d="M481 932c50.667 0 97.4971 -8.49805 140.497 -25.498s79.833 -39.833 110.5 -68.5s54.5 -62.167 71.5 -100.5s25.5 -79.5 25.5 -123.5v-614h-112l-41 102c-20.667 -22 -44 -41 -70 -57c-23.333 -15.333 -52 -28.333 -86 -39s-74.333 -16 -121 -16
s-88.667 7.16699 -126 21.5s-69.333 34.166 -96 59.499s-47.5 54.666 -62.5 87.999s-22.5 69 -22.5 107c0 44 8.83301 84 26.5 120s48.334 67.333 92.001 94s103.5 47.167 179.5 61.5s171.333 21.5 286 21.5v51c0 46.667 -18.167 87.334 -54.5 122.001
s-83.166 52 -140.499 52s-99.666 -11.833 -126.999 -35.5s-46.333 -56.167 -57 -97.5h-164c5.33301 38 17 73.833 35 107.5s41.667 63.167 71 88.5s64 45.166 104 59.499s86 21.5 138 21.5zM398.997 133.002c40.667 0 78.166 6.5 112.499 19.5s63.5 29.667 87.5 50
s42.833 43.166 56.5 68.499s20.5 51 20.5 77v72c-92.667 0 -167 -3.83301 -223 -11.5s-99.5 -18.667 -130.5 -33s-51.5 -31.333 -61.5 -51s-15 -42.5 -15 -68.5c0 -31.333 13.833 -59.666 41.5 -84.999s64.834 -38 111.501 -38z" />
    <glyph glyph-name="b" unicode="b" horiz-adv-x="1075" 
d="M276 461c0 -49.333 8.00098 -94.166 24.001 -134.499s36.833 -74.833 62.5 -103.5s56 -50.834 91 -66.501s71.5 -23.5 109.5 -23.5s74.5 7.83301 109.5 23.5s65.5 37.834 91.5 66.501s46.833 63.167 62.5 103.5s23.5 85.166 23.5 134.499s-7.83301 94 -23.5 134
s-36.5 74.333 -62.5 103s-56.333 50.834 -91 66.501s-71.334 23.5 -110.001 23.5c-38 0 -74.5 -7.83301 -109.5 -23.5s-65.333 -37.834 -91 -66.501s-46.5 -63 -62.5 -103s-24 -84.667 -24 -134zM256.001 0l-113.002 0.000976562v1290h154v-481
c19.333 23.333 42.666 43.666 69.999 60.999c23.333 15.333 52 29.5 86 42.5s74 19.5 120 19.5c58.667 0 114.334 -11.667 167.001 -35s98.5 -55.833 137.5 -97.5s69.833 -91.167 92.5 -148.5s34 -120.666 34 -189.999s-11.333 -132.833 -34 -190.5
s-53.5 -107.334 -92.5 -149.001s-84.667 -74 -137 -97s-108.166 -34.5 -167.499 -34.5c-46.667 0 -87 5.5 -121 16.5s-62.333 23.833 -85 38.5c-27.333 16.667 -50.666 35.667 -69.999 57z" />
    <glyph glyph-name="c" unicode="c" horiz-adv-x="962" 
d="M502 788c-35.333 0 -69.833 -7.8291 -103.5 -23.4961s-63.5 -37.834 -89.5 -66.501s-46.5 -63 -61.5 -103s-22.5 -84.667 -22.5 -134s7.5 -94.166 22.5 -134.499s35.5 -74.833 61.5 -103.5s55.833 -50.834 89.5 -66.501s68.167 -23.5 103.5 -23.5
c30 0 58.333 5.5 85 16.5s50.5 25.333 71.5 43s39 38.167 54 61.5s26.833 48 35.5 74h153c-10.667 -46.667 -27.667 -90.5 -51 -131.5s-52.333 -76.833 -87 -107.5s-74.167 -54.834 -118.5 -72.501s-91.833 -26.5 -142.5 -26.5c-58.667 0 -114.334 11.5 -167.001 34.5
s-98.5 55.333 -137.5 97s-69.667 91.167 -92 148.5s-33.5 121 -33.5 191c0 69.333 11.167 132.666 33.5 189.999s53 106.833 92 148.5s84.833 74.167 137.5 97.5s108.334 35 167.001 35c50.667 0 98.167 -8.83301 142.5 -26.5s83.833 -42 118.5 -73
s63.667 -66.833 87 -107.5s40.333 -84.334 51 -131.001h-153c-8 26 -19.667 50.5 -35 73.5s-33.5 43.5 -54.5 61.5s-44.833 32.333 -71.5 43s-55 16 -85 16z" />
    <glyph glyph-name="d" unicode="d" horiz-adv-x="1075" 
d="M799 461c0 49.333 -7.83301 94 -23.5 134s-36.5 74.333 -62.5 103s-56.5 50.834 -91.5 66.501s-71.5 23.5 -109.5 23.5s-74.5 -7.83301 -109.5 -23.5s-65.5 -37.834 -91.5 -66.501s-46.833 -63 -62.5 -103s-23.5 -84.667 -23.5 -134s7.83301 -94.166 23.5 -134.499
s36.5 -74.833 62.5 -103.5s56.5 -50.834 91.5 -66.501s71.5 -23.5 109.5 -23.5s74.5 7.83301 109.5 23.5s65.5 37.834 91.5 66.501s46.833 63.167 62.5 103.5s23.5 85.166 23.5 134.499zM778 102c-20.667 -22 -43.668 -40.999 -69.001 -56.999
c-23.333 -15.333 -52.166 -28.333 -86.499 -39s-74.5 -16 -120.5 -16c-58.667 0 -114.334 11.5 -167.001 34.5s-98.5 55.333 -137.5 97s-69.667 91.167 -92 148.5s-33.5 121 -33.5 191c0 69.333 11.167 132.666 33.5 189.999s53 106.833 92 148.5s84.833 74.167 137.5 97.5
s108.334 35 167.001 35c46.667 0 87 -6.5 121 -19.5s62.667 -27.167 86 -42.5c26 -18 49 -38.333 69 -61v481h154v-1290h-113z" />
    <glyph glyph-name="e" unicode="e" horiz-adv-x="972" 
d="M881 246c-15.333 -32.667 -34.6689 -64.833 -58.002 -96.5s-50.666 -59 -81.999 -82s-66.833 -41.667 -106.5 -56s-83.834 -21.5 -132.501 -21.5c-58.667 0 -114.334 11.5 -167.001 34.5s-98.5 55.333 -137.5 97s-69.667 91.167 -92 148.5s-33.5 121 -33.5 191
c0 69.333 11.167 132.666 33.5 189.999s52.666 106.833 90.999 148.5s83.166 74.167 134.499 97.5s105 35 161 35s108.833 -11 158.5 -33s93 -53.167 130 -93.5s66.333 -88.833 88 -145.5s32.5 -119.667 32.5 -189c0 -13.333 -0.666992 -24.833 -2 -34.5
s-2.66602 -17.834 -3.99902 -24.501l-4 -23h-655c2.66699 -32.667 11.834 -64.667 27.501 -96s35.334 -58.666 59.001 -81.999s51.334 -42.166 83.001 -56.499s63.834 -21.5 96.501 -21.5c28.667 0 54.167 4.16699 76.5 12.5s42.833 17.833 61.5 28.5s34.167 22.5 46.5 35.5
s22.5 25.167 30.5 36.5h164zM491.997 788.001c-31.333 0 -61.166 -6.66699 -89.499 -20s-54 -31.666 -77 -54.999s-42.333 -51.333 -58 -84s-26.167 -68.334 -31.5 -107.001h501c-10.667 82 -38.834 146.833 -84.501 194.5s-99.167 71.5 -160.5 71.5z" />
    <glyph glyph-name="f" unicode="f" horiz-adv-x="563" 
d="M522 778l-204.999 0.000976562v-778h-153v778h-113v144h113v71c0 46.667 7.16699 88.834 21.5 126.501s33.833 69.667 58.5 96s53 47 85 62s65.667 22.5 101 22.5c15.333 0 28.666 -1 39.999 -3s21.333 -4.33301 30 -7c8 -4 15.333 -7.33301 22 -10v-133
c-4 1.33301 -8.66699 2.66602 -14 3.99902c-4 1.33301 -9.5 2.66602 -16.5 3.99902s-13.833 2 -20.5 2c-46.667 0 -84 -14.333 -112 -43s-42 -69 -42 -121v-71h205v-144z" />
    <glyph glyph-name="g" unicode="g" horiz-adv-x="1034" 
d="M758 154c-18 -23.333 -39.3359 -44.002 -64.0029 -62.002c-22 -15.333 -49.667 -29.333 -83 -42s-73 -19 -119 -19c-58.667 0 -113.667 10.833 -165 32.5s-95.833 52.334 -133.5 92.001s-67.334 87.167 -89.001 142.5s-32.5 116.333 -32.5 183
s10.833 127.834 32.5 183.501s51.334 103.167 89.001 142.5s82 70 133 92s106.167 33 165.5 33c46.667 0 86.667 -5.83301 120 -17.5s60.666 -25.167 81.999 -40.5c24.667 -16.667 46 -35 64 -55l41 103h112v-891c0 -53.333 -9.83301 -103.166 -29.5 -149.499
s-47.334 -86.666 -83.001 -120.999s-78.667 -61 -129 -80s-106.166 -28.5 -167.499 -28.5c-53.333 0 -101.166 7.16699 -143.499 21.5s-79.166 34.166 -110.499 59.499s-57.666 54.666 -78.999 87.999s-36.666 69 -45.999 107h153c15.333 -35.333 40 -66.333 74 -93
s84.667 -40 152 -40c78 0 140.167 22.5 186.5 67.5s69.5 101.167 69.5 168.5v123zM224.997 480.998c0 -46.667 7.16797 -88.668 21.501 -126.001s34.166 -69.333 59.499 -96s54.666 -47.5 87.999 -62.5s69.333 -22.5 108 -22.5c38 0 73.667 7.5 107 22.5
s62.666 35.833 87.999 62.5s45.166 58.834 59.499 96.501s21.5 79.5 21.5 125.5c0 46.667 -7.16699 88.834 -21.5 126.501s-34.166 69.667 -59.499 96s-54.666 47 -87.999 62s-69 22.5 -107 22.5s-73.833 -7.5 -107.5 -22.5s-63.167 -35.667 -88.5 -62
s-45.166 -58.333 -59.499 -96s-21.5 -79.834 -21.5 -126.501z" />
    <glyph glyph-name="h" unicode="h" horiz-adv-x="1044" 
d="M563 932c49.333 0 95.5 -10 138.5 -30s80.833 -47.333 113.5 -82s58.667 -76.5 78 -125.5s29 -103.167 29 -162.5v-532h-154v532c0 38 -6.16699 72.833 -18.5 104.5s-28.666 58.834 -48.999 81.501s-44.166 40 -71.499 52s-56 18 -86 18
c-72.667 0 -131.834 -23.167 -177.501 -69.5s-68.5 -108.5 -68.5 -186.5v-532h-154v1290h154v-481c19.333 23.333 42 43.666 68 60.999c23.333 15.333 51.166 29.5 83.499 42.5s70.5 19.5 114.5 19.5z" />
    <glyph glyph-name="i" unicode="i" horiz-adv-x="419" 
d="M287 0h-154v922h154v-922zM113 1182c0 28.667 9.16699 52.167 27.5 70.5s41.166 27.5 68.499 27.5c28.667 0 52.167 -9.16699 70.5 -27.5s27.5 -41.833 27.5 -70.5c0 -27.333 -9.16699 -50.333 -27.5 -69s-41.833 -28 -70.5 -28c-27.333 0 -50.166 9.33301 -68.499 28
s-27.5 41.667 -27.5 69z" />
    <glyph glyph-name="j" unicode="j" horiz-adv-x="419" 
d="M133 922h153.999v-953c0 -46.667 -7.16699 -88.667 -21.5 -126s-33.833 -69.333 -58.5 -96s-53 -47.5 -85 -62.5s-66 -22.5 -102 -22.5c-30 0 -53 3.33301 -69 10c-9.33301 2.66699 -17 6.33398 -23 11.001v133c4 -2.66699 9 -4.66699 15 -6
c10.667 -2.66699 23 -4.33398 37 -5.00098c46.667 0 83.834 14.333 111.501 43s41.5 69 41.5 121v953zM112.999 1182c0 28.667 9.16699 52.167 27.5 70.5s41.166 27.5 68.499 27.5c28.667 0 52.167 -9.16699 70.5 -27.5s27.5 -41.833 27.5 -70.5
c0 -27.333 -9.16699 -50.333 -27.5 -69s-41.833 -28 -70.5 -28c-27.333 0 -50.166 9.33301 -68.499 28s-27.5 41.667 -27.5 69z" />
    <glyph glyph-name="k" unicode="k" horiz-adv-x="860" 
d="M297 0h-154v1290h154v-1290zM686 0l-389 481l348 441h174l-348 -430l399 -492h-184z" />
    <glyph glyph-name="l" unicode="l" horiz-adv-x="440" 
d="M297 0h-154v1290h154v-1290z" />
    <glyph glyph-name="m" unicode="m" horiz-adv-x="1474" 
d="M1044 932c40.667 0 79.6699 -8.50098 117.003 -25.501s70.333 -42 99 -75s51.167 -73 67.5 -120s24.5 -99.833 24.5 -158.5v-553h-154v553c0 78 -17.667 136.667 -53 176s-79 59 -131 59s-97.5 -21 -136.5 -63s-58.5 -99.333 -58.5 -172v-553h-153v553
c0 78 -17.833 136.667 -53.5 176s-79.5 59 -131.5 59c-24.667 0 -48.834 -5.66699 -72.501 -17s-44.5 -27.666 -62.5 -48.999s-32.333 -46.333 -43 -75s-16 -60 -16 -94v-553h-154v922h113l41 -103c15.333 20.667 33.666 39 54.999 55
c19.333 15.333 42.666 28.833 69.999 40.5s60.666 17.5 99.999 17.5c46.667 0 86 -8.5 118 -25.5s58.333 -35.833 79 -56.5c24.667 -24.667 44.334 -52 59.001 -82c18 30 40 57.333 66 82c23.333 20.667 51.833 39.5 85.5 56.5s75.167 25.5 124.5 25.5z" />
    <glyph glyph-name="n" unicode="n" horiz-adv-x="1034" 
d="M553 932c49.333 0 95.501 -10.001 138.501 -30.001s80.833 -47.333 113.5 -82s58.5 -76.5 77.5 -125.5s28.5 -103.167 28.5 -162.5v-532h-153v532c0 38 -6.16699 72.833 -18.5 104.5s-28.833 58.834 -49.5 81.501s-44.5 40 -71.5 52s-55.833 18 -86.5 18
c-72.667 0 -131.667 -23.167 -177 -69.5s-68 -108.5 -68 -186.5v-532h-154v922h113l41 -103c19.333 20.667 41.666 39 66.999 55c23.333 15.333 51.333 28.833 84 40.5s71 17.5 115 17.5z" />
    <glyph glyph-name="o" unicode="o" 
d="M225 461c0 -49.333 7.5 -94.166 22.5 -134.499s35.5 -74.833 61.5 -103.5s55.833 -50.834 89.5 -66.501s68.167 -23.5 103.5 -23.5s69.666 7.83301 102.999 23.5s62.666 37.834 87.999 66.501s45.833 63.167 61.5 103.5s23.5 85.166 23.5 134.499s-7.83301 94 -23.5 134
s-36.167 74.333 -61.5 103s-54.666 50.834 -87.999 66.501s-67.666 23.5 -102.999 23.5s-69.833 -7.83301 -103.5 -23.5s-63.5 -37.834 -89.5 -66.501s-46.5 -63 -61.5 -103s-22.5 -84.667 -22.5 -134zM932 461c0 -69.333 -11.333 -132.832 -34 -190.499
s-53.334 -107.334 -92.001 -149.001s-84.334 -74 -137.001 -97s-108.334 -34.5 -167.001 -34.5s-114.334 11.5 -167.001 34.5s-98.5 55.333 -137.5 97s-69.667 91.167 -92 148.5s-33.5 121 -33.5 191c0 69.333 11.167 132.666 33.5 189.999s53 106.833 92 148.5
s84.833 74.167 137.5 97.5s108.334 35 167.001 35s114.334 -11.667 167.001 -35s98.334 -55.833 137.001 -97.5s69.334 -91.167 92.001 -148.5s34 -120.666 34 -189.999z" />
    <glyph glyph-name="p" unicode="p" horiz-adv-x="1064" 
d="M266 461c0 -49.333 7.83301 -94.166 23.5 -134.499s36.5 -74.833 62.5 -103.5s56.5 -50.834 91.5 -66.501s71.5 -23.5 109.5 -23.5s74.5 7.83301 109.5 23.5s65.5 37.834 91.5 66.501s46.833 63.167 62.5 103.5s23.5 85.166 23.5 134.499s-7.83301 94 -23.5 134
s-36.5 74.333 -62.5 103s-56.5 50.834 -91.5 66.501s-71.5 23.5 -109.5 23.5s-74.5 -7.83301 -109.5 -23.5s-65.5 -37.834 -91.5 -66.501s-46.833 -63 -62.5 -103s-23.5 -84.667 -23.5 -134zM287 819c19.333 20.667 42.334 39 69.001 55
c23.333 15.333 52.166 28.833 86.499 40.5s74.5 17.5 120.5 17.5c58.667 0 114.334 -11.667 167.001 -35s98.5 -55.833 137.5 -97.5s69.667 -91.167 92 -148.5s33.5 -120.666 33.5 -189.999s-11.167 -132.833 -33.5 -190.5s-53 -107.334 -92 -149.001
s-84.833 -74 -137.5 -97s-108.334 -34.5 -167.001 -34.5c-46.667 0 -87 6.5 -121 19.5s-62.667 26.833 -86 41.5c-27.333 18 -50.333 38.667 -69 62v-441h-154v1250h113z" />
    <glyph glyph-name="q" unicode="q" horiz-adv-x="1064" 
d="M799 461c0 49.333 -7.83301 94 -23.5 134s-36.5 74.333 -62.5 103s-56.5 50.834 -91.5 66.501s-71.5 23.5 -109.5 23.5s-74.5 -7.83301 -109.5 -23.5s-65.5 -37.834 -91.5 -66.501s-46.833 -63 -62.5 -103s-23.5 -84.667 -23.5 -134s7.83301 -94.166 23.5 -134.499
s36.5 -74.833 62.5 -103.5s56.5 -50.834 91.5 -66.501s71.5 -23.5 109.5 -23.5s74.5 7.83301 109.5 23.5s65.5 37.834 91.5 66.501s46.833 63.167 62.5 103.5s23.5 85.166 23.5 134.499zM819 922l112.999 0.000976562v-1250h-154v441c-20.667 -23.333 -43.667 -44 -69 -62
c-23.333 -15.333 -52.166 -29.333 -86.499 -42s-74.5 -19 -120.5 -19c-58.667 0 -114.334 11.5 -167.001 34.5s-98.5 55.333 -137.5 97s-69.667 91.167 -92 148.5s-33.5 121 -33.5 191c0 69.333 11.167 132.666 33.5 189.999s53 106.833 92 148.5s84.833 74.167 137.5 97.5
s108.334 35 167.001 35c46.667 0 87 -5.83301 121 -17.5s62.667 -25.167 86 -40.5c26 -16.667 49 -35 69 -55z" />
    <glyph glyph-name="r" unicode="r" horiz-adv-x="614" 
d="M573 778h-40.999c-72.667 0 -131.667 -23.167 -177 -69.5s-68 -108.5 -68 -186.5v-522h-154v922h113l41 -103c19.333 20.667 41.666 39 66.999 55c23.333 15.333 51.333 28.833 84 40.5s71 17.5 115 17.5h20v-154z" />
    <glyph glyph-name="s" unicode="s" horiz-adv-x="808" 
d="M737 266c0 -38 -7.50195 -73.668 -22.502 -107.001s-36.167 -62.666 -63.5 -87.999s-60.333 -45.166 -99 -59.499s-82.667 -21.5 -132 -21.5c-102.667 0 -183.334 27.333 -242.001 82s-90.667 122.667 -96 204h154c5.33301 -40.667 23 -74.667 53 -102
s73.667 -41 131 -41c52 0 92.333 13.333 121 40s43 57.667 43 93c0 34 -12 59.667 -36 77s-53.667 31 -89 41s-73.833 19.5 -115.5 28.5s-80.334 22.333 -116.001 40s-65.5 43 -89.5 76s-36 78.833 -36 137.5c0 35.333 7.5 69 22.5 101s35.833 60.333 62.5 85
s58.834 44.167 96.501 58.5s79.834 21.5 126.501 21.5c98 0 174 -25.667 228 -77s83.667 -118 89 -200h-154c-5.33301 40.667 -21 73 -47 97s-64.667 36 -116 36c-46.667 0 -84 -12.5 -112 -37.5s-42 -53.167 -42 -84.5c0 -34 12 -59.667 36 -77s53.667 -31.166 89 -41.499
s73.833 -19.833 115.5 -28.5s80.334 -21.834 116.001 -39.501s65.334 -43.334 89.001 -77.001s35.5 -79.167 35.5 -136.5z" />
    <glyph glyph-name="t" unicode="t" horiz-adv-x="655" 
d="M225 1167h133.002v-245h205v-144h-205v-481c0 -52 14 -92.333 42 -121s65.333 -43 112 -43c13.333 0 25.666 1.33301 36.999 4c5.33301 1.33301 10 3.33301 14 6v-133c-6.66699 -4 -14 -7.33301 -22 -10c-18 -6.66699 -41.333 -10 -70 -10c-35.333 0 -69 7.5 -101 22.5
s-60.333 35.833 -85 62.5s-44.167 58.667 -58.5 96s-21.5 79.333 -21.5 126v481h-164v144h72c75.333 0 112.666 37.333 111.999 112v133z" />
    <glyph glyph-name="u" unicode="u" horiz-adv-x="1044" 
d="M492 -10c-49.333 0 -95.5 9.83301 -138.5 29.5s-81 47 -114 82s-59 77 -78 126s-28.5 102.833 -28.5 161.5v533h154v-533c0 -38 5.83301 -72.667 17.5 -104s27.667 -58.333 48 -81s44.166 -40.167 71.499 -52.5s56.666 -18.5 87.999 -18.5
c72.667 0 131.834 23.167 177.501 69.5s68.5 108.5 68.5 186.5v533h153v-922h-112l-41 102c-19.333 -22 -42 -41 -68 -57c-23.333 -15.333 -51.166 -28.333 -83.499 -39s-70.5 -16 -114.5 -16z" />
    <glyph glyph-name="v" unicode="v" horiz-adv-x="921" 
d="M901 922l-369 -922h-143l-369 922h164l277 -707l276 707h164z" />
    <glyph glyph-name="w" unicode="w" horiz-adv-x="1310" 
d="M451 0h-123l-308 922h164l215 -656l205 656h103l204 -656l215 656h164l-307 -922h-123l-205 655z" />
    <glyph glyph-name="x" unicode="x" horiz-adv-x="839" 
d="M512 471l328 -471h-174l-246 358l-246 -358h-174l328 471l-308 451h175l225 -338l225 338h174z" />
    <glyph glyph-name="y" unicode="y" horiz-adv-x="921" 
d="M20 922l164 -0.000976562l277 -707l276 707h164l-399 -1004c-36.667 -92.667 -75.167 -158.5 -115.5 -197.5s-90.5 -58.5 -150.5 -58.5c-8 0 -15.5 0.333008 -22.5 1s-13.833 1.66699 -20.5 3s-13 3.33301 -19 6v123c46.667 0 81.5 10.333 104.5 31
s42.833 51.334 59.5 92.001l41 102z" />
    <glyph glyph-name="z" unicode="z" horiz-adv-x="778" 
d="M512 778h-451v144h635v-134l-450 -645h471v-143h-656v133z" />
    <glyph glyph-name="braceleft" unicode="{" horiz-adv-x="614" 
d="M92 522c75.333 0 113 37.665 113 112.998v399c0 82 22.5 145.167 67.5 189.5s111.167 66.5 198.5 66.5h102v-133h-106c-34 0 -62.333 -11.667 -85 -35s-34 -52.666 -34 -87.999v-399c0 -35.333 -6.5 -64.666 -19.5 -87.999s-26.833 -41 -41.5 -53
c-18 -15.333 -38.667 -26.333 -62 -33c23.333 -6.66699 44 -17.667 62 -33c15.333 -13.333 29.333 -31.333 42 -54s19 -51.667 19 -87v-400c0 -35.333 11.333 -64.666 34 -87.999s51 -35 85 -35h106v-133h-102c-87.333 0 -153.5 22.167 -198.5 66.5s-67.5 107.5 -67.5 189.5
v400c0 75.333 -37.667 112.666 -113 111.999v123z" />
    <glyph glyph-name="bar" unicode="|" horiz-adv-x="634" 
d="M389 -328h-143v1618h143v-1618z" />
    <glyph glyph-name="braceright" unicode="}" horiz-adv-x="614" 
d="M522 399c-75.333 0 -112.668 -37.3301 -112.001 -111.997v-400c0 -82 -22.667 -145.167 -68 -189.5s-111.666 -66.5 -198.999 -66.5h-102v133h106c34 0 62.333 11.667 85 35s34 52.666 34 87.999v400c0 35.333 6.5 64.333 19.5 87s27.167 40.667 42.5 54
c18 15.333 38.333 26.333 61 33c-23.333 6.66699 -43.666 17.667 -60.999 33c-15.333 12 -29.5 29.667 -42.5 53s-19.5 52.666 -19.5 87.999v399c0 35.333 -11.167 64.666 -33.5 87.999s-50.833 35 -85.5 35h-106v133h102c87.333 0 153.666 -22.167 198.999 -66.5
s68 -107.5 68 -189.5v-399c0 -75.333 37.333 -113 112 -113v-123z" />
    <glyph glyph-name="asciitilde" unicode="~" horiz-adv-x="901" 
d="M236 553c-31.333 0 -57.999 -12 -79.999 -36s-33 -56.333 -33 -97h-123c0 87.333 21.167 153.5 63.5 198.5s99.833 67.5 172.5 67.5c35.333 0 72.833 -7.5 112.5 -22.5s78.5 -31.333 116.5 -49l106.5 -49c33 -15 60.833 -22.5 83.5 -22.5
c35.333 0 64.666 11.833 87.999 35.5s35 56.167 35 97.5h123c0 -87.333 -21.5 -153.5 -64.5 -198.5s-103.5 -67.5 -181.5 -67.5c-32.667 0 -68 7.5 -106 22.5s-76.167 31.333 -114.5 49l-108.5 49c-34 15 -64 22.5 -90 22.5z" />
    <glyph glyph-name="uni00A0" unicode="&#xa0;" horiz-adv-x="440" 
 />
    <glyph glyph-name="exclamdown" unicode="&#xa1;" horiz-adv-x="532" 
d="M369 -328h-205l41 942h123zM164 829c0 31.333 9.16699 56.333 27.5 75s43.166 28 74.499 28s56.333 -9.16699 75 -27.5s28 -43.5 28 -75.5c0 -31.333 -9.33301 -56.166 -28 -74.499s-43.667 -27.5 -75 -27.5s-56.166 9.16699 -74.499 27.5s-27.5 43.166 -27.5 74.499z
" />
    <glyph glyph-name="cent" unicode="&#xa2;" horiz-adv-x="962" 
d="M502 788c-35.333 0 -69.833 -7.83496 -103.5 -23.502s-63.5 -37.834 -89.5 -66.501s-46.5 -63 -61.5 -103s-22.5 -84.667 -22.5 -134s7.5 -94.166 22.5 -134.499s35.5 -74.833 61.5 -103.5s55.833 -50.834 89.5 -66.501s68.167 -23.5 103.5 -23.5
c30 0 58.333 5.5 85 16.5s50.5 25.333 71.5 43s39 38.167 54 61.5s26.833 48 35.5 74h153c-20.667 -87.333 -58.167 -158.666 -112.5 -213.999s-122.5 -93.333 -204.5 -114v-184h-154v184c-49.333 8 -95.5 24 -138.5 48s-80.833 55.5 -113.5 94.5s-58.5 85 -77.5 138
s-28.5 113.167 -28.5 180.5c0 66.667 9.5 126.667 28.5 180s44.833 99.5 77.5 138.5s70.5 70.333 113.5 94s89.167 39.834 138.5 48.501v184h154v-184c82 -20.667 150.167 -58.667 204.5 -114s91.833 -126.666 112.5 -213.999h-153c-8 26 -19.667 50.5 -35 73.5
s-33.5 43.5 -54.5 61.5s-44.833 32.333 -71.5 43s-55 16 -85 16z" />
    <glyph glyph-name="sterling" unicode="&#xa3;" horiz-adv-x="1075" 
d="M389 287c0 -26 -3.99902 -48.166 -11.999 -66.499s-17.667 -33.166 -29 -44.499c-12 -13.333 -25.667 -24.333 -41 -33h686v-143h-891v143c31.333 0 59.666 13.667 84.999 41s38 61.666 38 102.999v225h-112v143h112v267c0 50.667 10.333 99.167 31 145.5
s48.667 86.5 84 120.5s77.333 61.167 126 81.5s101.667 30.5 159 30.5c50.667 0 99.167 -9.83301 145.5 -29.5s86.833 -46.167 121.5 -79.5s63 -71.5 85 -114.5s34.333 -87.833 37 -134.5h-164c-5.33301 61.333 -28.833 112.5 -70.5 153.5s-93.167 61.5 -154.5 61.5
c-32.667 0 -63.5 -6.16699 -92.5 -18.5s-54 -29 -75 -50s-37.667 -45.833 -50 -74.5s-18.5 -59.334 -18.5 -92.001v-267h348v-143h-348v-225z" />
    <glyph glyph-name="currency" unicode="&#xa4;" horiz-adv-x="1126" 
d="M51 655l154 0.000976562v635h430c58.667 0 113 -10 163 -30c50 -20.667 93.333 -48.334 130 -83.001s65.334 -76 86.001 -124s30.667 -98.667 30 -152c0 -53.333 -10 -103.666 -30 -150.999c-20.667 -48 -49.334 -89.333 -86.001 -124s-80 -62.334 -130 -83.001
s-104.333 -31 -163 -31h-266v-164h389v-143h-389v-205h-164v205h-154v143h154v164h-154v143zM635 655.001c72.667 0 131.666 23 176.999 69c46 46 69 105 69 177c0 72.667 -22.667 131.667 -68 177c-45.333 46 -104.666 69 -177.999 69h-266v-492h266z" />
    <glyph glyph-name="yen" unicode="&#xa5;" horiz-adv-x="1044" 
d="M604 492v-134h275v-143h-275v-215h-164v215h-276v143h276v134h-276v143h205l-338 655h174l317 -614l318 614h174l-338 -655h205v-143h-277z" />
    <glyph glyph-name="brokenbar" unicode="&#xa6;" horiz-adv-x="655" 
d="M389 1290v-635h-143v635h143zM246 307h164v-635h-164v635z" />
    <glyph glyph-name="section" unicode="&#xa7;" horiz-adv-x="962" 
d="M870 502c0 -49.333 -11.1641 -90.6621 -33.4971 -123.995s-47.166 -61 -74.499 -83c-31.333 -24.667 -67 -44.334 -107 -59.001c27.333 -9.33301 52.666 -23 75.999 -41c19.333 -15.333 37.166 -36.333 53.499 -63s24.5 -60.334 24.5 -101.001
c0 -35.333 -7.83301 -69.833 -23.5 -103.5s-37.5 -63.5 -65.5 -89.5s-61.5 -46.5 -100.5 -61.5s-81.5 -22.5 -127.5 -22.5c-92.667 0 -167.834 27.333 -225.501 82s-91.834 123 -102.501 205h143c5.33301 -40.667 24.5 -76.5 57.5 -107.5s75.5 -46.5 127.5 -46.5
c57.333 0 100.666 13.667 129.999 41s44 61.666 44 102.999c0 38 -14 68 -42 90s-63.5 41.5 -106.5 58.5s-89.167 33.667 -138.5 50s-95.5 37.166 -138.5 62.499s-78.5 57.833 -106.5 97.5s-42 90.834 -42 153.501c0 48 11 89.333 33 124s46.667 63.667 74 87
c31.333 26 67.333 47.667 108 65c-26 9.33301 -48.333 23.666 -67 42.999c-16.667 16.667 -31.834 38.667 -45.501 66s-20.5 62.666 -20.5 105.999c0 32.667 7.83301 65.167 23.5 97.5s36.834 61 63.501 86s58.167 45 94.5 60s74.833 22.5 115.5 22.5
c92.667 0 166 -24.833 220 -74.5s86.333 -113.5 97 -191.5h-143c-5.33301 35.333 -22.666 66.333 -51.999 93s-70 40 -122 40c-46.667 0 -84 -13.333 -112 -40s-42 -57.667 -42 -93c0 -39.333 13.667 -71 41 -95s61.5 -45.167 102.5 -63.5s85.5 -36.333 133.5 -54
s92.333 -39.5 133 -65.5s74.667 -59.167 102 -99.5s41 -91.833 41 -154.5zM246.003 543.004c0 -28.667 3.99902 -53.668 11.999 -75.001s22.333 -40.5 43 -57.5s48 -33 82 -48s77 -30.167 129 -45.5c38 8 72 19.667 102 35c26 13.333 49.667 31.666 71 54.999s32 55 32 95
c0 28.667 -4.5 53.834 -13.5 75.501s-23.667 41.834 -44 60.501s-47.666 36.167 -81.999 52.5s-76.5 31.833 -126.5 46.5c-38 -9.33301 -72.333 -22.333 -103 -39c-26 -15.333 -49.5 -35.5 -70.5 -60.5s-31.5 -56.5 -31.5 -94.5z" />
    <glyph glyph-name="dieresis" unicode="&#xa8;" horiz-adv-x="614" 
d="M154 1096c-26 0 -48 8.83301 -66 26.5s-27 39.5 -27 65.5s9 47.833 27 65.5s40 26.5 66 26.5s47.833 -8.83301 65.5 -26.5s26.5 -39.5 26.5 -65.5s-8.83301 -47.833 -26.5 -65.5s-39.5 -26.5 -65.5 -26.5zM461 1096c-26 0 -47.833 8.83301 -65.5 26.5
s-26.5 39.5 -26.5 65.5s8.83301 47.833 26.5 65.5s39.5 26.5 65.5 26.5s47.833 -8.83301 65.5 -26.5s26.5 -39.5 26.5 -65.5s-8.83301 -47.833 -26.5 -65.5s-39.5 -26.5 -65.5 -26.5z" />
    <glyph glyph-name="copyright" unicode="&#xa9;" horiz-adv-x="1413" 
d="M205 645c0 -76.667 13.666 -148 40.999 -214s63.833 -123.333 109.5 -172s98.834 -87 159.501 -115s124.667 -42 192 -42c66.667 0 130 14 190 42s113.167 66.333 159.5 115s83.166 106 110.499 172s41 137.333 41 214s-13.667 148 -41 214s-64.166 123.333 -110.499 172
s-99.5 87 -159.5 115s-123.333 42 -190 42s-130.5 -14 -191.5 -42s-114.333 -66.333 -160 -115s-82.167 -106 -109.5 -172s-41 -137.333 -41 -214zM511.999 645c0 -35.333 5.49902 -67.3242 16.499 -95.9912s25.667 -53.334 44 -74.001s39.166 -36.667 62.499 -48
s47.333 -17 72 -17c52 0 91.167 11.5 117.5 34.5s45.166 52.167 56.499 87.5h123c-8 -31.333 -20.667 -61 -38 -89s-38.666 -52.833 -63.999 -74.5s-53.666 -39 -84.999 -52s-64.666 -19.5 -99.999 -19.5c-40.667 0 -80.167 8.83301 -118.5 26.5
s-72.166 42.167 -101.499 73.5s-53 68.166 -71 110.499s-27 88.166 -27 137.499s9 95.166 27 137.499s41.667 79.166 71 110.499s63 55.833 101 73.5s77.667 26.5 119 26.5c35.333 0 68.666 -6.5 99.999 -19.5s59.666 -30.333 84.999 -52s46.5 -46.834 63.5 -75.501
s29.833 -58 38.5 -88h-123c-10.667 35.333 -29.5 64.666 -56.5 87.999s-66.167 35 -117.5 35c-24.667 0 -48.667 -5.83301 -72 -17.5s-44.166 -27.834 -62.499 -48.501s-33 -45.334 -44 -74.001s-16.5 -60.667 -16.5 -96zM1331 645.009c0 -92.667 -16.667 -178.667 -50 -258
s-78.333 -148.666 -135 -207.999s-122.834 -105.666 -198.501 -138.999s-155.834 -50 -240.501 -50s-165 16.667 -241 50s-142.333 79.666 -199 138.999s-101.667 128.666 -135 207.999s-50 165.333 -50 258c0 91.333 16.667 177 50 257s78.333 149.667 135 209
s123 105.666 199 138.999s156.333 50 241 50s164.834 -16.667 240.501 -50s141.834 -79.666 198.501 -138.999s101.667 -129 135 -209s50 -165.667 50 -257z" />
    <glyph glyph-name="ordfeminine" unicode="&#xaa;" horiz-adv-x="573" 
d="M297 1300c30 0 58.332 -5.33594 84.999 -16.0029s49.5 -25 68.5 -43s34 -38.5 45 -61.5s16.5 -47.5 16.5 -73.5v-328h-82l-20 62c-10.667 -13.333 -23.667 -25.666 -39 -36.999c-13.333 -9.33301 -29.333 -17.5 -48 -24.5s-41 -10.5 -67 -10.5c-56 0 -100.667 14 -134 42
s-50 61.667 -50 101c0 28.667 5 54.334 15 77.001s27.333 41.834 52 57.501s58.167 28 100.5 37s95.5 13.5 159.5 13.5v10c0 26 -9.16699 47.833 -27.5 65.5s-43.166 26.5 -74.499 26.5s-54.833 -6.5 -70.5 -19.5s-26.167 -26.833 -31.5 -41.5h-103
c0 40.667 18.833 78 56.5 112s87.167 51 148.5 51zM398.999 1014c-46.667 0 -84.499 -2.5 -113.499 -7.5s-51.667 -11.167 -68 -18.5s-27.666 -16.166 -33.999 -26.499s-9.5 -20.166 -9.5 -29.499c0 -20.667 8.16699 -37.834 24.5 -51.501s42.166 -20.5 77.499 -20.5
s64.666 11.667 87.999 35s35 52.666 35 87.999v31z" />
    <glyph glyph-name="guillemotleft" unicode="&#xab;" horiz-adv-x="901" 
d="M451 133h-154l-225 328l225 327h154l-226 -327zM829 133h-153l-225 328l225 327h153l-225 -327z" />
    <glyph glyph-name="logicalnot" unicode="&#xac;" horiz-adv-x="901" 
d="M870 778v-409h-143v276h-696v133h839z" />
    <glyph glyph-name="uni00AD" unicode="&#xad;" horiz-adv-x="706" 
d="M635 461h-563v133h563v-133z" />
    <glyph glyph-name="registered" unicode="&#xae;" horiz-adv-x="1413" 
d="M952 768c0 -39.333 -8.16602 -71.332 -24.499 -95.999s-34.166 -44.667 -53.499 -60c-23.333 -16.667 -48.333 -29.667 -75 -39l174 -266h-123l-164 246h-82v-246h-112v676h235c30 0 58.667 -5.83301 86 -17.5s51.166 -27.334 71.499 -47.001s36.666 -42.5 48.999 -68.5
s18.5 -53.333 18.5 -82zM727.001 655.001c31.333 0 58 11 80 33s33 48.667 33 80s-11 58 -33 80s-48.667 33 -80 33h-123v-226h123zM205.001 645.001c0 -76.667 13.666 -148 40.999 -214s63.833 -123.333 109.5 -172s98.834 -87 159.501 -115s124.667 -42 192 -42
c66.667 0 130 14 190 42s113.167 66.333 159.5 115s83.166 106 110.499 172s41 137.333 41 214s-13.667 148 -41 214s-64.166 123.333 -110.499 172s-99.5 87 -159.5 115s-123.333 42 -190 42s-130.5 -14 -191.5 -42s-114.333 -66.333 -160 -115s-82.167 -106 -109.5 -172
s-41 -137.333 -41 -214zM1331 645.001c0 -92.667 -16.667 -178.667 -50 -258s-78.333 -148.666 -135 -207.999s-122.834 -105.666 -198.501 -138.999s-155.834 -50 -240.501 -50s-165 16.667 -241 50s-142.333 79.666 -199 138.999s-101.667 128.666 -135 207.999
s-50 165.333 -50 258c0 91.333 16.667 177 50 257s78.333 149.667 135 209s123 105.666 199 138.999s156.333 50 241 50s164.834 -16.667 240.501 -50s141.834 -79.666 198.501 -138.999s101.667 -129 135 -209s50 -165.667 50 -257z" />
    <glyph glyph-name="macron" unicode="&#xaf;" horiz-adv-x="614" 
d="M553 1106h-492v123h492v-123z" />
    <glyph glyph-name="degree" unicode="&#xb0;" horiz-adv-x="634" 
d="M195 1055c0 -18 3.33398 -35.167 10.001 -51.5s15.834 -30.666 27.501 -42.999s25 -21.833 40 -28.5s29.833 -10 44.5 -10c15.333 0 30.5 3.33301 45.5 10s28.333 16.167 40 28.5s20.834 26.666 27.501 42.999s10 33.5 10 51.5s-3.33301 35 -10 51
s-15.834 30.167 -27.501 42.5s-25 22 -40 29s-30.167 10.5 -45.5 10.5s-30.333 -3.5 -45 -10.5s-27.834 -16.667 -39.501 -29s-20.834 -26.5 -27.501 -42.5s-10 -33 -10 -51zM563.001 1055c0 -32.667 -6.49902 -64.167 -19.499 -94.5s-30.667 -56.666 -53 -78.999
s-48.5 -40 -78.5 -53s-61.667 -19.5 -95 -19.5c-32.667 0 -64 6.5 -94 19.5s-56.167 30.667 -78.5 53s-40 48.666 -53 78.999s-19.5 61.833 -19.5 94.5s6.5 64 19.5 94s30.667 56.333 53 79s48.5 40.334 78.5 53.001s61.333 19 94 19s64.167 -6.33301 94.5 -19
s56.666 -30.334 78.999 -53.001s40 -49 53 -79s19.5 -61.333 19.5 -94z" />
    <glyph glyph-name="plusminus" unicode="&#xb1;" horiz-adv-x="901" 
d="M61 61v134h318v348h-318v133h318v338h143v-338h318v-133h-318v-348h318v-134h-779z" />
    <glyph glyph-name="uni00B2" unicode="&#xb2;" horiz-adv-x="522" 
d="M219 983l242.001 0.00195312v-102h-400v82l226 235c15.333 15.333 29.333 31.5 42 48.5s19 34.833 19 53.5c0 54.667 -30.667 82 -92 82s-92 -30.667 -92 -92h-103c0 57.333 18.167 104.166 54.5 140.499s83.166 54.5 140.499 54.5c61.333 0 110.833 -17.833 148.5 -53.5
s56.5 -79.5 56.5 -131.5c0 -31.333 -7.5 -56.833 -22.5 -76.5s-28.167 -34.834 -39.5 -45.501z" />
    <glyph glyph-name="uni00B3" unicode="&#xb3;" horiz-adv-x="542" 
d="M399 1198c15.333 -5.33301 29.002 -15.002 41.002 -29.002c10.667 -10.667 20.167 -25.5 28.5 -44.5s12.5 -42.167 12.5 -69.5c0 -52 -18.667 -95.833 -56 -131.5s-87 -53.5 -149 -53.5c-66.667 0 -119.167 18.167 -157.5 54.5s-57.5 83.166 -57.5 140.499h103
c0 -24.667 9.16699 -46.167 27.5 -64.5s43.166 -27.5 74.499 -27.5s56.333 8.5 75 25.5s28 35.833 28 56.5c0 26 -9.33301 47.833 -28 65.5s-43.667 26.5 -75 26.5h-53v92h53c26 0 46.167 6.83301 60.5 20.5s21.5 30.834 21.5 51.501s-7.16699 37.667 -21.5 51
s-34.5 20 -60.5 20c-61.333 0 -92 -27.333 -92 -82h-102c0 52 18 95.833 54 131.5s82.667 53.5 140 53.5s104.166 -17.5 140.499 -52.5s54.5 -75.5 54.5 -121.5c0 -20.667 -3.5 -38.167 -10.5 -52.5s-13.833 -26.166 -20.5 -35.499c-10 -11.333 -20.333 -19.666 -31 -24.999
z" />
    <glyph glyph-name="acute" unicode="&#xb4;" horiz-adv-x="399" 
d="M184 1290h154l-174 -246h-103z" />
    <glyph glyph-name="mu" unicode="&#xb5;" horiz-adv-x="1044" 
d="M492 -10c-35.333 0 -66.5 4.33301 -93.5 13s-49.333 18.167 -67 28.5s-31.5 19.833 -41.5 28.5l-14 14v-402h-143v1250h154v-533c0 -38 5.83301 -72.667 17.5 -104s27.667 -58.333 48 -81s44.166 -40.167 71.499 -52.5s56.666 -18.5 87.999 -18.5
c72.667 0 131.834 23.167 177.501 69.5s68.5 108.5 68.5 186.5v533h153v-922h-112l-41 102c-19.333 -22 -42 -41 -68 -57c-23.333 -15.333 -51.166 -28.333 -83.499 -39s-70.5 -16 -114.5 -16z" />
    <glyph glyph-name="paragraph" unicode="&#xb6;" horiz-adv-x="1024" 
d="M870 1290v-1474h-133v1337h-215v-1337h-133v880c-40.667 0 -79.5 8.16699 -116.5 24.5s-69.833 38.166 -98.5 65.499s-51.167 58.833 -67.5 94.5s-24.5 72.5 -24.5 110.5c0 39.333 8.16699 77.166 24.5 113.499s38.833 68.166 67.5 95.499s61.5 49.166 98.5 65.499
s75.833 24.5 116.5 24.5h481z" />
    <glyph glyph-name="periodcentered" unicode="&#xb7;" horiz-adv-x="440" 
d="M123 645c0 31.333 9.16699 56.333 27.5 75s43.166 28 74.499 28s56.333 -9.33301 75 -28s28 -43.667 28 -75s-9.33301 -56.166 -28 -74.499s-43.667 -27.5 -75 -27.5s-56.166 9.16699 -74.499 27.5s-27.5 43.166 -27.5 74.499z" />
    <glyph glyph-name="cedilla" unicode="&#xb8;" horiz-adv-x="399" 
d="M205 -82c40.667 -5.33301 72.999 -20.001 96.999 -44.001s36 -53.667 36 -89s-15.333 -66.333 -46 -93s-76.667 -40 -138 -40c-13.333 0 -25.666 0.333008 -36.999 1s-21 1.66699 -29 3c-9.33301 1.33301 -18.333 3.33301 -27 6v82c6.66699 -2.66699 15 -4.66699 25 -6
c6.66699 -1.33301 15.167 -2.33301 25.5 -3s20.833 -1 31.5 -1c31.333 0 54.666 6.5 69.999 19.5s23 26.833 23 41.5c0 15.333 -7.66699 29.5 -23 42.5s-38.666 19.5 -69.999 19.5c-8 0 -15 -0.666992 -21 -2s-11.333 -3 -16 -5
c-5.33301 -1.33301 -10 -2.66602 -14 -3.99902l64 154h90z" />
    <glyph glyph-name="uni00B9" unicode="&#xb9;" horiz-adv-x="419" 
d="M205 1475h82v-594h-113v450l-82 -41l-51 82z" />
    <glyph glyph-name="ordmasculine" unicode="&#xba;" horiz-adv-x="634" 
d="M174 1034c0 -20.667 4.16797 -40.168 12.501 -58.501s19.333 -34.666 33 -48.999s29 -25.5 46 -33.5s34.167 -12 51.5 -12c18 0 35.5 4 52.5 12s32.333 19.167 46 33.5s24.667 30.833 33 49.5s12.5 38 12.5 58c0 20.667 -4.16699 40.167 -12.5 58.5
s-19.333 34.666 -33 48.999s-29 25.666 -46 33.999s-34.5 12.5 -52.5 12.5s-35.333 -4.16699 -52 -12.5s-31.834 -19.666 -45.501 -33.999s-24.667 -30.666 -33 -48.999s-12.5 -37.833 -12.5 -58.5zM573.001 1034c0 -35.333 -7.16895 -69 -21.502 -101s-33 -60.333 -56 -85
s-50.167 -44.167 -81.5 -58.5s-63.666 -21.5 -96.999 -21.5c-32.667 0 -64.667 7.16699 -96 21.5s-58.666 33.833 -81.999 58.5s-42.166 53 -56.499 85s-21.5 65.667 -21.5 101s7.16699 69.166 21.5 101.499s33.166 60.666 56.499 84.999s50.666 43.666 81.999 57.999
s63.333 21.5 96 21.5s64.834 -7.16699 96.501 -21.5s59 -33.666 82 -57.999s41.667 -52.666 56 -84.999s21.5 -66.166 21.5 -101.499z" />
    <glyph glyph-name="guillemotright" unicode="&#xbb;" horiz-adv-x="901" 
d="M676 461l-225 327h153l225 -327l-225 -328h-153zM297 461l-225 327h153l226 -327l-226 -328h-153z" />
    <glyph glyph-name="onequarter" unicode="&#xbc;" horiz-adv-x="1136" 
d="M205 1290h82v-594h-113v451l-82 -41l-51 82zM1004 215h71v-102h-71v-113h-113v113h-256v82l246 399h123v-379zM891 215v215l-133 -215h133zM92 0l789 1290h133l-789 -1290h-133z" />
    <glyph glyph-name="onehalf" unicode="&#xbd;" horiz-adv-x="1177" 
d="M205 1290h82v-594h-113v451l-82 -41l-51 82zM874 102h242v-102h-399v82l225 235c15.333 15.333 29.5 31.5 42.5 48.5s19.5 35.167 19.5 54.5c0 54.667 -31 82 -93 82c-61.333 0 -92 -30.667 -92 -92h-102c0 57.333 18 104 54 140s82.667 54 140 54
c61.333 0 110.833 -17.667 148.5 -53s56.5 -79 56.5 -131c0 -31.333 -7.5 -57 -22.5 -77s-27.833 -35.333 -38.5 -46zM92 0l789 1290h133l-789 -1290h-133z" />
    <glyph glyph-name="threequarters" unicode="&#xbe;" horiz-adv-x="1259" 
d="M399 1014c15.333 -5.33301 29.002 -14.999 41.002 -28.999c10.667 -10.667 20.167 -25.667 28.5 -45s12.5 -42.666 12.5 -69.999c0 -52 -18.667 -95.667 -56 -131s-87 -53 -149 -53c-66.667 0 -119.167 18.167 -157.5 54.5s-57.5 83.166 -57.5 140.499h103
c0 -24.667 9.16699 -46.334 27.5 -65.001s43.166 -28 74.499 -28s56.333 8.66699 75 26s28 36 28 56c0 26 -9.33301 48 -28 66s-43.667 27 -75 27h-53v92h53c26 0 46.167 6.83301 60.5 20.5s21.5 30.5 21.5 50.5c0 20.667 -7.16699 37.834 -21.5 51.501
s-34.5 20.5 -60.5 20.5c-61.333 0 -92 -27.333 -92 -82h-102c0 52 18 95.667 54 131s82.667 53 140 53s104.166 -17.333 140.499 -52s54.5 -75.334 54.5 -122.001c0 -20.667 -3.5 -38 -10.5 -52s-13.833 -26 -20.5 -36c-10 -10.667 -20.333 -18.667 -31 -24zM1126 215.001
h72v-102h-72v-113h-112v113h-256v82l246 399h122v-379zM1014 215.001v215l-133 -215h133zM215.002 0.000976562l789 1290h133l-789 -1290h-133z" />
    <glyph glyph-name="questiondown" unicode="&#xbf;" horiz-adv-x="880" 
d="M82 2c0 54.667 7.16113 99.3301 21.4941 133.997s32.833 65 55.5 91s46.5 49.333 71.5 70s48.833 44 71.5 70s41.167 56.667 55.5 92s21.5 80.333 21.5 135v10h164v-10c0 -64 -7.16699 -117.167 -21.5 -159.5s-32.833 -78.166 -55.5 -107.499
s-46.667 -54.666 -72 -75.999s-49.166 -42.833 -71.499 -64.5s-40.666 -46.834 -54.999 -75.501s-21.5 -65 -21.5 -109c0 -26 4.33301 -51 13 -75s21.334 -44.833 38.001 -62.5s36.834 -32 60.501 -43s51.167 -16.5 82.5 -16.5c66.667 0 119.167 20.833 157.5 62.5
s57.5 106.167 57.5 193.5v21h164v-21c0 -128.667 -34.833 -227.334 -104.5 -296.001s-161.167 -103 -274.5 -103c-53.333 0 -102.166 8.83301 -146.499 26.5s-82.166 41.834 -113.499 72.501s-55.5 66.834 -72.5 108.501s-25.5 85.834 -25.5 132.501zM562.994 828.996
c0 -31.333 -9.16699 -56.166 -27.5 -74.499s-43.166 -27.5 -74.499 -27.5s-56.333 9.16699 -75 27.5s-28 43.166 -28 74.499s9.33301 56.333 28 75s43.667 28 75 28s56.166 -9.33301 74.499 -28s27.5 -43.667 27.5 -75z" />
    <glyph glyph-name="Agrave" unicode="&#xc0;" horiz-adv-x="1126" 
d="M594 1444h-102l-175 246h154zM829 317h-532l-123 -317h-174l492 1290h143l491 -1290h-174zM348 461h430l-215 563z" />
    <glyph glyph-name="Aacute" unicode="&#xc1;" horiz-adv-x="1126" 
d="M645 1690h154l-174 -246h-103zM829 317h-532l-123 -317h-174l492 1290h143l491 -1290h-174zM348 461h430l-215 563z" />
    <glyph glyph-name="Acircumflex" unicode="&#xc2;" horiz-adv-x="1126" 
d="M819 1434h-153l-103 143l-102 -143h-154l185 245h143zM829 317h-532l-123 -317h-174l492 1290h143l491 -1290h-174zM348 461h430l-215 563z" />
    <glyph glyph-name="Atilde" unicode="&#xc3;" horiz-adv-x="1126" 
d="M676 1526c20.667 0 39.332 10 55.999 30c17.333 20.667 26 51.667 26 93h92c0 -78 -17.333 -136.667 -52 -176s-75.334 -59.333 -122.001 -60c-31.333 0 -57.333 7 -78 21c-20.667 13.333 -38.667 28.666 -54 45.999c-16 17.333 -31 32.666 -45 45.999
c-14.667 13.333 -30.667 20 -48 20c-20.667 0 -39.667 -10 -57 -30c-17.333 -20.667 -25.666 -51.667 -24.999 -93h-93c0 78 17.667 136.667 53 176c34.667 39.333 75.334 59.333 122.001 60c30 0 55.333 -7 76 -21c21.333 -13.333 40 -28.666 56 -45.999
s31 -32.666 45 -45.999s30 -20 48 -20zM828.998 317h-532l-123 -317h-174l492 1290h143l491 -1290h-174zM347.998 461h430l-215 563z" />
    <glyph glyph-name="Adieresis" unicode="&#xc4;" horiz-adv-x="1126" 
d="M410 1464c-26 0 -48 9 -66 27s-27 39.667 -27 65c0 26 9 48 27 66s40 27 66 27s47.667 -9 65 -27c18 -18 27 -40 27 -66s-9 -47.667 -27 -65c-17.333 -18 -39 -27 -65 -27zM717 1464c-26 0 -48 9 -66 27s-26.667 39.667 -26 65c0 26 8.66699 48 26 66c18 18 40 27 66 27
s47.667 -9 65 -27c18 -18 27 -40 27 -66s-9 -47.667 -27 -65c-17.333 -18 -39 -27 -65 -27zM829 317h-532l-123 -317h-174l492 1290h143l491 -1290h-174zM348 461h430l-215 563z" />
    <glyph glyph-name="Aring" unicode="&#xc5;" horiz-adv-x="1126" 
d="M492 1567c0 -20.667 6.66699 -37.667 20 -51s30.333 -20.333 51 -21c20.667 0 37.667 7 51 21c13.333 13.333 20.333 30.333 21 51c0 20.667 -7 37.667 -21 51c-13.333 13.333 -30.333 20 -51 20s-37.667 -6.66699 -51 -20s-20 -30.333 -20 -51zM727 1567
c0 -46.667 -15.667 -85.667 -47 -117s-70.333 -47 -117 -47s-85.667 15.667 -117 47s-47 70.333 -47 117s15.667 85.334 47 116.001c31.333 31.333 70.333 47.333 117 48c46.667 0 85.667 -16 117 -48c31.333 -30.667 47 -69.334 47 -116.001zM829 317h-532l-123 -317h-174
l492 1290h143l491 -1290h-174zM348 461h430l-215 563z" />
    <glyph glyph-name="AE" unicode="&#xc6;" horiz-adv-x="1648" 
d="M1546 143v-143h-758v328h-481l-184 -328h-184l727 1290h860v-143h-574v-410h523v-143h-523v-451h594zM389 471h399v676h-20z" />
    <glyph glyph-name="Ccedilla" unicode="&#xc7;" horiz-adv-x="1300" 
d="M686 1157c-56 0 -110.666 -12.6689 -163.999 -38.002s-100.5 -60.833 -141.5 -106.5s-73.667 -99.834 -98 -162.501s-36.5 -131 -36.5 -205s12.167 -142.333 36.5 -205s57 -116.834 98 -162.501s88.167 -81.167 141.5 -106.5s108 -38 164 -38
c50.667 0 97.167 7.83301 139.5 23.5s79.5 36.834 111.5 63.501s58.667 58.167 80 94.5s37.333 74.833 48 115.5h174c-18 -61.333 -43 -118.333 -75 -171s-69.833 -98.5 -113.5 -137.5s-93.5 -70 -149.5 -93s-117.333 -35.833 -184 -38.5l-31 -72
c40.667 -5.33301 73 -20 97 -44s36 -53.667 36 -89s-15.333 -66.333 -46 -93s-76.667 -40 -138 -40c-13.333 0 -25.5 0.333008 -36.5 1s-20.833 1.66699 -29.5 3c-9.33301 1.33301 -18 3.33301 -26 6v82c6.66699 -2.66699 14.667 -4.66699 24 -6
c6.66699 -1.33301 15.167 -2.33301 25.5 -3s21.166 -1 32.499 -1c31.333 0 54.5 6.5 69.5 19.5s22.5 26.833 22.5 41.5c0 15.333 -7.5 29.5 -22.5 42.5s-38.167 19.5 -69.5 19.5c-8 0 -15.167 -0.666992 -21.5 -2s-11.5 -3 -15.5 -5
c-5.33301 -1.33301 -10.333 -2.66602 -15 -3.99902l62 144c-72.667 8 -142 29.833 -208 65.5s-124.667 82.167 -176 139.5s-92.333 124.166 -123 200.499s-46 159.5 -46 249.5c0 91.333 16.667 177 50 257s77.666 149.667 132.999 209s119.5 105.666 192.5 138.999
s149.167 50 228.5 50c69.333 0 133.166 -11.167 191.499 -33.5s110.666 -53.666 156.999 -93.999s85.833 -87.166 118.5 -140.499s58 -110.666 76 -171.999h-174c-10.667 40.667 -26.667 79.167 -48 115.5s-47.666 67.833 -78.999 94.5s-67.166 47.834 -107.499 63.501
s-85.166 23.5 -134.499 23.5z" />
    <glyph glyph-name="Egrave" unicode="&#xc8;" horiz-adv-x="1105" 
d="M655 1444h-102l-174 246h153zM1004 143v-143h-840v1290h819v-143h-655v-410h604v-143h-604v-451h676z" />
    <glyph glyph-name="Eacute" unicode="&#xc9;" horiz-adv-x="1105" 
d="M635 1690h153l-174 -246h-102zM1004 143v-143h-840v1290h819v-143h-655v-410h604v-143h-604v-451h676z" />
    <glyph glyph-name="Ecircumflex" unicode="&#xca;" horiz-adv-x="1105" 
d="M829 1434h-153l-103 143l-102 -143h-154l185 245h143zM1004 143v-143h-840v1290h819v-143h-655v-410h604v-143h-604v-451h676z" />
    <glyph glyph-name="Edieresis" unicode="&#xcb;" horiz-adv-x="1105" 
d="M420 1464c-26 0 -48 9 -66 27s-26.667 39.667 -26 65c0 26 8.66699 48 26 66c18 18 40 27 66 27s47.667 -9 65 -27c18 -18 27 -40 27 -66s-9 -47.667 -27 -65c-17.333 -18 -39 -27 -65 -27zM727 1464c-26 0 -47.667 9 -65 27c-18 18 -27 39.667 -27 65c0 26 9 48 27 66
s39.667 27 65 27c26 0 48 -9 66 -27s26.667 -40 26 -66c0 -26 -8.66699 -47.667 -26 -65c-18 -18 -40 -27 -66 -27zM1004 143v-143h-840v1290h819v-143h-655v-410h604v-143h-604v-451h676z" />
    <glyph glyph-name="Igrave" unicode="&#xcc;" horiz-adv-x="491" 
d="M287 1444h-103l-174 246h154zM328 0h-164v1290h164v-1290z" />
    <glyph glyph-name="Iacute" unicode="&#xcd;" horiz-adv-x="491" 
d="M317 1690h154l-174 -246h-102zM328 0h-164v1290h164v-1290z" />
    <glyph glyph-name="Icircumflex" unicode="&#xce;" horiz-adv-x="491" 
d="M502 1434h-154l-102 143l-103 -143h-153l184 245h143zM328 0h-164v1290h164v-1290z" />
    <glyph glyph-name="Idieresis" unicode="&#xcf;" horiz-adv-x="491" 
d="M102 1464c-26 0 -47.667 9 -65 27c-18 18 -27 39.667 -27 65c0 26 9 48 27 66s39.667 27 65 27c26 0 48 -9 66 -27s27 -40 27 -66s-9 -47.667 -27 -65c-18 -18 -40 -27 -66 -27zM410 1464c-26 0 -48 9 -66 27s-27 39.667 -27 65c0 26 9 48 27 66s40 27 66 27
s47.667 -9 65 -27c18 -18 27 -40 27 -66s-9 -47.667 -27 -65c-17.333 -18 -39 -27 -65 -27zM328 0h-164v1290h164v-1290z" />
    <glyph glyph-name="Eth" unicode="&#xd0;" horiz-adv-x="1269" 
d="M1188 645c0 -92.667 -16 -178.335 -48 -257.002s-76 -146.667 -132 -204s-121.333 -102.333 -196 -135s-154.334 -49 -239.001 -49h-358v563h-184v144h184v583h358c84.667 0 164.334 -16.333 239.001 -49s140 -77.667 196 -135s100 -125.666 132 -204.999
s48 -164.666 48 -255.999zM573 142.999c58.667 0 115.331 12.666 169.998 37.999s102.834 60.5 144.501 105.5s74.834 98 99.501 159s37 127.5 37 199.5c0 70.667 -12.333 136.834 -37 198.501s-57.834 115 -99.501 160s-89.667 80.167 -144 105.5s-111.166 38 -170.499 38
h-194v-440h246v-144h-246v-420h194z" />
    <glyph glyph-name="Ntilde" unicode="&#xd1;" horiz-adv-x="1280" 
d="M758 1546c20.667 0 39.334 10.333 56.001 31c17.333 20.667 26 51.334 26 92.001h92c0 -78 -17.333 -136.667 -52 -176s-75.334 -59 -122.001 -59c-31.333 0 -57.333 6.66699 -78 20s-38.667 28.666 -54 45.999c-16 17.333 -31 32.666 -45 45.999
c-14.667 13.333 -31 20.333 -49 21c-20.667 0 -39.334 -10.333 -56.001 -31c-17.333 -20.667 -25.666 -51.334 -24.999 -92.001h-93c0 78 17.667 136.667 53 176c34.667 39.333 75 59 121 59c30 0 55.667 -6.66699 77 -20s40 -28.666 56 -45.999s31 -32.666 45 -45.999
c14 -14 30 -21 48 -21zM1116 1290v-1290h-143l-645 973v-973h-164v1290h143l645 -973v973h164z" />
    <glyph glyph-name="Ograve" unicode="&#xd2;" horiz-adv-x="1351" 
d="M727 1444h-102l-174 246h153zM236 645c0 -74 12 -142.334 36 -205.001c24.667 -62.667 57.667 -116.667 99 -162c40.667 -46 87.667 -81.667 141 -107s108 -38 164 -38s110.667 12.667 164 38s100.333 61 141 107s73.334 100 98.001 162c24.667 62.667 37 131 37 205
s-12.333 142.333 -37 205s-57.334 117 -98.001 163s-87.667 81.333 -141 106c-53.333 25.333 -108 38 -164 38s-110.667 -12.667 -164 -38s-100.333 -60.666 -141 -105.999c-40.667 -46 -73.667 -100.333 -99 -163c-24 -62.667 -36 -131 -36 -205zM1280 644.999
c0 -92.667 -16.667 -178.667 -50 -258s-77.666 -148.666 -132.999 -207.999s-119.666 -105.666 -192.999 -138.999s-149.333 -50 -228 -50c-79.333 0 -155.666 16.667 -228.999 50s-137.333 79.666 -192 138.999c-55.333 59.333 -99.666 128.666 -132.999 207.999
s-50 165.333 -50 258c0 91.333 16.667 177 50 257s77.666 149.667 132.999 209s119.333 105.666 192 138.999c73.333 33.333 149.666 50 228.999 50s155.333 -16.667 228 -50c73.333 -33.333 137.666 -79.666 192.999 -138.999s99.666 -129 132.999 -209
s50 -165.667 50 -257z" />
    <glyph glyph-name="Oacute" unicode="&#xd3;" horiz-adv-x="1351" 
d="M748 1690h153l-174 -246h-102zM236 645c0 -74 12 -142.334 36 -205.001c24.667 -62.667 57.667 -116.667 99 -162c40.667 -46 87.667 -81.667 141 -107s108 -38 164 -38s110.667 12.667 164 38s100.333 61 141 107s73.334 100 98.001 162c24.667 62.667 37 131 37 205
s-12.333 142.333 -37 205s-57.334 117 -98.001 163s-87.667 81.333 -141 106c-53.333 25.333 -108 38 -164 38s-110.667 -12.667 -164 -38s-100.333 -60.666 -141 -105.999c-40.667 -46 -73.667 -100.333 -99 -163c-24 -62.667 -36 -131 -36 -205zM1280 644.999
c0 -92.667 -16.667 -178.667 -50 -258s-77.666 -148.666 -132.999 -207.999s-119.666 -105.666 -192.999 -138.999s-149.333 -50 -228 -50c-79.333 0 -155.666 16.667 -228.999 50s-137.333 79.666 -192 138.999c-55.333 59.333 -99.666 128.666 -132.999 207.999
s-50 165.333 -50 258c0 91.333 16.667 177 50 257s77.666 149.667 132.999 209s119.333 105.666 192 138.999c73.333 33.333 149.666 50 228.999 50s155.333 -16.667 228 -50c73.333 -33.333 137.666 -79.666 192.999 -138.999s99.666 -129 132.999 -209
s50 -165.667 50 -257z" />
    <glyph glyph-name="Ocircumflex" unicode="&#xd4;" horiz-adv-x="1351" 
d="M932 1434h-154l-102 143l-103 -143h-153l184 245h144zM236 645c0 -74 12 -142.334 36 -205.001c24.667 -62.667 57.667 -116.667 99 -162c40.667 -46 87.667 -81.667 141 -107s108 -38 164 -38s110.667 12.667 164 38s100.333 61 141 107s73.334 100 98.001 162
c24.667 62.667 37 131 37 205s-12.333 142.333 -37 205s-57.334 117 -98.001 163s-87.667 81.333 -141 106c-53.333 25.333 -108 38 -164 38s-110.667 -12.667 -164 -38s-100.333 -60.666 -141 -105.999c-40.667 -46 -73.667 -100.333 -99 -163
c-24 -62.667 -36 -131 -36 -205zM1280 644.999c0 -92.667 -16.667 -178.667 -50 -258s-77.666 -148.666 -132.999 -207.999s-119.666 -105.666 -192.999 -138.999s-149.333 -50 -228 -50c-79.333 0 -155.666 16.667 -228.999 50s-137.333 79.666 -192 138.999
c-55.333 59.333 -99.666 128.666 -132.999 207.999s-50 165.333 -50 258c0 91.333 16.667 177 50 257s77.666 149.667 132.999 209s119.333 105.666 192 138.999c73.333 33.333 149.666 50 228.999 50s155.333 -16.667 228 -50
c73.333 -33.333 137.666 -79.666 192.999 -138.999s99.666 -129 132.999 -209s50 -165.667 50 -257z" />
    <glyph glyph-name="Otilde" unicode="&#xd5;" horiz-adv-x="1351" 
d="M788 1546c20.667 0 39.6699 10.333 57.0029 31s25.666 51.334 24.999 92.001h93c0 -78 -17.667 -136.667 -53 -176c-34.667 -39.333 -75.334 -59 -122.001 -59c-31.333 0 -57 6.66699 -77 20c-20.667 13.333 -39 28.666 -55 45.999s-31 32.666 -45 45.999
c-14.667 13.333 -30.667 20.333 -48 21c-20.667 0 -39.334 -10.333 -56.001 -31c-17.333 -20.667 -26 -51.334 -26 -92.001h-92c0 78 17.333 136.667 52 176s75.334 59 122.001 59c30 0 55.667 -6.66699 77 -20s39.666 -28.666 54.999 -45.999
c16 -17.333 31 -32.666 45 -45.999c14 -14 30 -21 48 -21zM236.003 645c0 -74 12 -142.334 36 -205.001c24.667 -62.667 57.667 -116.667 99 -162c40.667 -46 87.667 -81.667 141 -107s108 -38 164 -38s110.667 12.667 164 38s100.333 61 141 107s73.334 100 98.001 162
c24.667 62.667 37 131 37 205s-12.333 142.333 -37 205s-57.334 117 -98.001 163s-87.667 81.333 -141 106c-53.333 25.333 -108 38 -164 38s-110.667 -12.667 -164 -38s-100.333 -60.666 -141 -105.999c-40.667 -46 -73.667 -100.333 -99 -163
c-24 -62.667 -36 -131 -36 -205zM1280 644.999c0 -92.667 -16.667 -178.667 -50 -258s-77.666 -148.666 -132.999 -207.999s-119.666 -105.666 -192.999 -138.999s-149.333 -50 -228 -50c-79.333 0 -155.666 16.667 -228.999 50s-137.333 79.666 -192 138.999
c-55.333 59.333 -99.666 128.666 -132.999 207.999s-50 165.333 -50 258c0 91.333 16.667 177 50 257s77.666 149.667 132.999 209s119.333 105.666 192 138.999c73.333 33.333 149.666 50 228.999 50s155.333 -16.667 228 -50
c73.333 -33.333 137.666 -79.666 192.999 -138.999s99.666 -129 132.999 -209s50 -165.667 50 -257z" />
    <glyph glyph-name="Odieresis" unicode="&#xd6;" horiz-adv-x="1351" 
d="M522 1464c-26 0 -47.667 9 -65 27c-18 18 -27 39.667 -27 65c0 26 9 48 27 66s39.667 27 65 27c26 0 48 -9 66 -27s26.667 -40 26 -66c0 -26 -8.66699 -47.667 -26 -65c-18 -18 -40 -27 -66 -27zM829 1464c-26 0 -47.667 9 -65 27c-18 18 -27 39.667 -27 65
c0 26 9 48 27 66s39.667 27 65 27c26 0 48 -9 66 -27s27 -40 27 -66s-9 -47.667 -27 -65c-18 -18 -40 -27 -66 -27zM236 645c0 -74 12 -142.334 36 -205.001c24.667 -62.667 57.667 -116.667 99 -162c40.667 -46 87.667 -81.667 141 -107s108 -38 164 -38
s110.667 12.667 164 38s100.333 61 141 107s73.334 100 98.001 162c24.667 62.667 37 131 37 205s-12.333 142.333 -37 205s-57.334 117 -98.001 163s-87.667 81.333 -141 106c-53.333 25.333 -108 38 -164 38s-110.667 -12.667 -164 -38s-100.333 -60.666 -141 -105.999
c-40.667 -46 -73.667 -100.333 -99 -163c-24 -62.667 -36 -131 -36 -205zM1280 644.999c0 -92.667 -16.667 -178.667 -50 -258s-77.666 -148.666 -132.999 -207.999s-119.666 -105.666 -192.999 -138.999s-149.333 -50 -228 -50c-79.333 0 -155.666 16.667 -228.999 50
s-137.333 79.666 -192 138.999c-55.333 59.333 -99.666 128.666 -132.999 207.999s-50 165.333 -50 258c0 91.333 16.667 177 50 257s77.666 149.667 132.999 209s119.333 105.666 192 138.999c73.333 33.333 149.666 50 228.999 50s155.333 -16.667 228 -50
c73.333 -33.333 137.666 -79.666 192.999 -138.999s99.666 -129 132.999 -209s50 -165.667 50 -257z" />
    <glyph glyph-name="multiply" unicode="&#xd7;" horiz-adv-x="901" 
d="M778 285l-92 -92l-235 235l-236 -235l-92 92l235 235l-235 236l92 92l236 -236l235 236l92 -92l-235 -236z" />
    <glyph glyph-name="Oslash" unicode="&#xd8;" horiz-adv-x="1372" 
d="M973 1034c-20.667 23.333 -45.333 44.001 -74 62.001c-24.667 15.333 -54.667 29.333 -90 42s-76.333 19 -123 19c-56 0 -110.667 -12.667 -164 -38s-100.5 -60.833 -141.5 -106.5s-73.667 -99.834 -98 -162.501s-36.5 -131 -36.5 -205c0 -40.667 3 -77.5 9 -110.5
s13 -60.833 21 -83.5c8 -27.333 18.333 -51.333 31 -72zM1290 645.001c0 -92.667 -16.666 -178.667 -49.999 -258s-77.666 -148.666 -132.999 -207.999s-119.5 -105.666 -192.5 -138.999s-149.167 -50 -228.5 -50c-65.333 0 -122.333 8.5 -171 25.5s-90 35.833 -124 56.5
c-39.333 24.667 -74 52 -104 82l-144 -134l-102 103l154 143c-22 30 -41.333 65 -58 105c-15.333 32.667 -28.333 72.167 -39 118.5s-16 98.166 -16 155.499c0 91.333 16.667 177 50 257s77.666 149.667 132.999 209s119.5 105.666 192.5 138.999s149.167 50 228.5 50
c64 0 120.667 -8.5 170 -25.5s91 -35.5 125 -55.5c39.333 -24.667 74 -52 104 -82l144 133l102 -103l-153 -143c20.667 -31.333 39 -66 55 -104c15.333 -34 28.666 -74 39.999 -120s17 -97.667 17 -155zM399.002 256.001c20.667 -23.333 45.333 -43.667 74 -61
c24.667 -15.333 54.667 -29.5 90 -42.5s76.333 -19.5 123 -19.5c56 0 110.667 12.667 164 38s100.5 60.833 141.5 106.5s73.667 100 98 163s36.5 131.167 36.5 204.5c0 40.667 -3.33301 77.5 -10 110.5s-13.334 61.167 -20.001 84.5c-9.33301 26 -19.666 49.667 -30.999 71z
" />
    <glyph glyph-name="Ugrave" unicode="&#xd9;" horiz-adv-x="1228" 
d="M686 1444h-102l-174 246h153zM614 -10c-69.333 0 -132.67 11.667 -190.003 35s-107 55.333 -149 96c-41.333 40.667 -73.666 89 -96.999 145s-35 117.667 -35 185v839h164v-839c0 -98 28 -175.667 84 -233c56 -56.667 130.333 -85 223 -85s167.334 28.333 224.001 85
c56 56.667 84 134.334 84 233.001v839h163v-839c0 -66.667 -11.333 -128.334 -34 -185.001c-23.333 -56 -56 -104.333 -98 -145c-41.333 -40.667 -90.666 -72.667 -147.999 -96c-58 -23.333 -121.667 -35 -191 -35z" />
    <glyph glyph-name="Uacute" unicode="&#xda;" horiz-adv-x="1228" 
d="M666 1690h153l-174 -246h-102zM614 -10c-69.333 0 -132.67 11.667 -190.003 35s-107 55.333 -149 96c-41.333 40.667 -73.666 89 -96.999 145s-35 117.667 -35 185v839h164v-839c0 -98 28 -175.667 84 -233c56 -56.667 130.333 -85 223 -85s167.334 28.333 224.001 85
c56 56.667 84 134.334 84 233.001v839h163v-839c0 -66.667 -11.333 -128.334 -34 -185.001c-23.333 -56 -56 -104.333 -98 -145c-41.333 -40.667 -90.666 -72.667 -147.999 -96c-58 -23.333 -121.667 -35 -191 -35z" />
    <glyph glyph-name="Ucircumflex" unicode="&#xdb;" horiz-adv-x="1228" 
d="M860 1434h-153l-103 143l-102 -143h-154l184 245h144zM614 -10c-69.333 0 -132.67 11.667 -190.003 35s-107 55.333 -149 96c-41.333 40.667 -73.666 89 -96.999 145s-35 117.667 -35 185v839h164v-839c0 -98 28 -175.667 84 -233c56 -56.667 130.333 -85 223 -85
s167.334 28.333 224.001 85c56 56.667 84 134.334 84 233.001v839h163v-839c0 -66.667 -11.333 -128.334 -34 -185.001c-23.333 -56 -56 -104.333 -98 -145c-41.333 -40.667 -90.666 -72.667 -147.999 -96c-58 -23.333 -121.667 -35 -191 -35z" />
    <glyph glyph-name="Udieresis" unicode="&#xdc;" horiz-adv-x="1228" 
d="M461 1464c-26 0 -48 9 -66 27s-26.667 39.667 -26 65c0 26 8.66699 48 26 66c18 18 40 27 66 27s47.667 -9 65 -27c18 -18 27 -40 27 -66s-9 -47.667 -27 -65c-17.333 -18 -39 -27 -65 -27zM768 1464c-26 0 -48 9 -66 27s-26.667 39.667 -26 65c0 26 8.66699 48 26 66
c18 18 40 27 66 27s48 -9 66 -27s26.667 -40 26 -66c0 -26 -8.66699 -47.667 -26 -65c-18 -18 -40 -27 -66 -27zM614 -10c-69.333 0 -132.67 11.667 -190.003 35s-107 55.333 -149 96c-41.333 40.667 -73.666 89 -96.999 145s-35 117.667 -35 185v839h164v-839
c0 -98 28 -175.667 84 -233c56 -56.667 130.333 -85 223 -85s167.334 28.333 224.001 85c56 56.667 84 134.334 84 233.001v839h163v-839c0 -66.667 -11.333 -128.334 -34 -185.001c-23.333 -56 -56 -104.333 -98 -145c-41.333 -40.667 -90.666 -72.667 -147.999 -96
c-58 -23.333 -121.667 -35 -191 -35z" />
    <glyph glyph-name="Yacute" unicode="&#xdd;" horiz-adv-x="1024" 
d="M594 1690h154l-175 -246h-102zM20 1290h175l317 -614l317 614h175l-410 -788v-502h-164v502z" />
    <glyph glyph-name="Thorn" unicode="&#xde;" horiz-adv-x="1198" 
d="M328 1290v-225.001h368c56 0 109 -10.667 159 -32s93.333 -50 130 -86s66 -77.5 88 -124.5s33 -95.833 33 -146.5c0 -52 -11 -101.167 -33 -147.5s-51.333 -87.666 -88 -123.999s-80 -65 -130 -86s-103 -31.5 -159 -31.5h-368v-287h-164v1290h164zM696 429.999
c32.667 0 64.167 6.5 94.5 19.5s56.666 30.833 78.999 53.5s40 49 53 79s19.5 61.333 19.5 94s-6.5 64 -19.5 94s-30.667 56.333 -53 79s-48.666 40.5 -78.999 53.5s-61.833 19.5 -94.5 19.5h-368v-492h368z" />
    <glyph glyph-name="germandbls" unicode="&#xdf;" horiz-adv-x="1044" 
d="M748 686c39.333 -16.667 74.668 -39.3389 106.001 -68.0059c27.333 -24.667 52.333 -58 75 -100s34 -95.333 34 -160c0 -52 -9 -99.667 -27 -143s-42.667 -80.833 -74 -112.5s-68.166 -56.667 -110.499 -75s-88.166 -27.5 -137.499 -27.5h-102v133h102
c56 0 102.5 20.833 139.5 62.5s55.5 95.834 55.5 162.501c0 72.667 -18.167 128.5 -54.5 167.5s-83.166 58.5 -140.499 58.5h-102v133c57.333 0 105.833 20.833 145.5 62.5s59.5 95.834 59.5 162.501s-19.833 120.834 -59.5 162.501s-88.167 62.5 -145.5 62.5
c-28.667 0 -56 -5.66699 -82 -17s-48.833 -27 -68.5 -47s-35.334 -43 -47.001 -69s-17.5 -53.333 -17.5 -82v-952h-154v952c0 46.667 9.66699 90.834 29 132.501s45.666 78.5 78.999 110.5s72.166 57.5 116.499 76.5s92.5 28.5 144.5 28.5
c50.667 0 98.167 -9.16699 142.5 -27.5s82.166 -43.166 113.499 -74.499s56.166 -69.166 74.499 -113.499s27.5 -91.833 27.5 -142.5c0 -46.667 -6.5 -86 -19.5 -118s-26.833 -58.333 -41.5 -79c-17.333 -24 -37.666 -43.667 -60.999 -59z" />
    <glyph glyph-name="agrave" unicode="&#xe0;" horiz-adv-x="952" 
d="M543 1073h-103l-174 246h154zM481 932c50.667 0 97.668 -8.66602 141.001 -25.999s80 -40 110 -68c30.667 -28.667 54.667 -62.334 72 -101.001c17.333 -38 25.666 -79 24.999 -123v-614h-112l-41 102c-20.667 -22 -44 -41 -70 -57c-23.333 -15.333 -52 -28.333 -86 -39
s-74.333 -16 -121 -16s-88.667 7 -126 21c-37.333 14.667 -69.333 34.667 -96 60s-47.334 54.666 -62.001 87.999c-15.333 33.333 -23 69 -23 107c0 44 9 84 27 120s48.667 67.333 92 94c44 26.667 103.667 47.334 179 62.001c76 14.667 171.333 21.667 286 21v51
c0 46.667 -18 87.334 -54 122.001s-83 52 -141 52c-57.333 0 -99.666 -11.667 -126.999 -35c-27.333 -24 -46.333 -56.667 -57 -98h-164c5.33301 38 17 74 35 108c18 33.333 41.667 62.666 71 87.999s64 45 104 59c40 14.667 86 22 138 22zM399.001 133.001
c40.667 0 78.334 6.66406 113.001 19.9971c34 12.667 63 29.334 87 50.001s42.667 43.334 56 68.001c13.333 25.333 20.333 51 21 77v72c-92.667 0 -167 -3.66699 -223 -11s-99.333 -18.333 -130 -33s-51.334 -31.667 -62.001 -51c-10 -20 -15 -43 -15 -69
c0 -31.333 14 -59.666 42 -84.999c27.333 -25.333 64.333 -38 111 -38z" />
    <glyph glyph-name="aacute" unicode="&#xe1;" horiz-adv-x="952" 
d="M563 1319h154l-174 -246h-103zM481 932c50.667 0 97.668 -8.66602 141.001 -25.999s80 -40 110 -68c30.667 -28.667 54.667 -62.334 72 -101.001c17.333 -38 25.666 -79 24.999 -123v-614h-112l-41 102c-20.667 -22 -44 -41 -70 -57c-23.333 -15.333 -52 -28.333 -86 -39
s-74.333 -16 -121 -16s-88.667 7 -126 21c-37.333 14.667 -69.333 34.667 -96 60s-47.334 54.666 -62.001 87.999c-15.333 33.333 -23 69 -23 107c0 44 9 84 27 120s48.667 67.333 92 94c44 26.667 103.667 47.334 179 62.001c76 14.667 171.333 21.667 286 21v51
c0 46.667 -18 87.334 -54 122.001s-83 52 -141 52c-57.333 0 -99.666 -11.667 -126.999 -35c-27.333 -24 -46.333 -56.667 -57 -98h-164c5.33301 38 17 74 35 108c18 33.333 41.667 62.666 71 87.999s64 45 104 59c40 14.667 86 22 138 22zM399.001 133.001
c40.667 0 78.334 6.66406 113.001 19.9971c34 12.667 63 29.334 87 50.001s42.667 43.334 56 68.001c13.333 25.333 20.333 51 21 77v72c-92.667 0 -167 -3.66699 -223 -11s-99.333 -18.333 -130 -33s-51.334 -31.667 -62.001 -51c-10 -20 -15 -43 -15 -69
c0 -31.333 14 -59.666 42 -84.999c27.333 -25.333 64.333 -38 111 -38z" />
    <glyph glyph-name="acircumflex" unicode="&#xe2;" horiz-adv-x="952" 
d="M748 1065h-154l-102 143l-103 -143h-153l184 246h143zM481 932c50.667 0 97.668 -8.66602 141.001 -25.999s80 -40 110 -68c30.667 -28.667 54.667 -62.334 72 -101.001c17.333 -38 25.666 -79 24.999 -123v-614h-112l-41 102c-20.667 -22 -44 -41 -70 -57
c-23.333 -15.333 -52 -28.333 -86 -39s-74.333 -16 -121 -16s-88.667 7 -126 21c-37.333 14.667 -69.333 34.667 -96 60s-47.334 54.666 -62.001 87.999c-15.333 33.333 -23 69 -23 107c0 44 9 84 27 120s48.667 67.333 92 94c44 26.667 103.667 47.334 179 62.001
c76 14.667 171.333 21.667 286 21v51c0 46.667 -18 87.334 -54 122.001s-83 52 -141 52c-57.333 0 -99.666 -11.667 -126.999 -35c-27.333 -24 -46.333 -56.667 -57 -98h-164c5.33301 38 17 74 35 108c18 33.333 41.667 62.666 71 87.999s64 45 104 59
c40 14.667 86 22 138 22zM399.001 133.001c40.667 0 78.334 6.66406 113.001 19.9971c34 12.667 63 29.334 87 50.001s42.667 43.334 56 68.001c13.333 25.333 20.333 51 21 77v72c-92.667 0 -167 -3.66699 -223 -11s-99.333 -18.333 -130 -33s-51.334 -31.667 -62.001 -51
c-10 -20 -15 -43 -15 -69c0 -31.333 14 -59.666 42 -84.999c27.333 -25.333 64.333 -38 111 -38z" />
    <glyph glyph-name="atilde" unicode="&#xe3;" horiz-adv-x="952" 
d="M604 1157c20.667 0 39.335 10.333 56.002 31c17.333 20.667 26 51.334 26 92.001h92c0 -78 -17.333 -136.667 -52 -176s-75.334 -59.333 -122.001 -60c-31.333 0 -57.333 7 -78 21c-20.667 13.333 -38.667 28.666 -54 45.999c-16 17.333 -31 32.666 -45 45.999
c-14.667 13.333 -30.667 20.333 -48 21c-20.667 0 -39.334 -10.333 -56.001 -31c-17.333 -20.667 -26 -51.334 -26 -92.001h-92c0 78 17.333 136.667 52 176s75.334 59 122.001 59c30 0 55.667 -6.66699 77 -20s39.666 -28.666 54.999 -45.999
c16 -17.333 31 -32.666 45 -45.999c14 -14 30 -21 48 -21zM481.001 932c50.667 0 97.668 -8.66602 141.001 -25.999s80 -40 110 -68c30.667 -28.667 54.667 -62.334 72 -101.001c17.333 -38 25.666 -79 24.999 -123v-614h-112l-41 102c-20.667 -22 -44 -41 -70 -57
c-23.333 -15.333 -52 -28.333 -86 -39s-74.333 -16 -121 -16s-88.667 7 -126 21c-37.333 14.667 -69.333 34.667 -96 60s-47.334 54.666 -62.001 87.999c-15.333 33.333 -23 69 -23 107c0 44 9 84 27 120s48.667 67.333 92 94c44 26.667 103.667 47.334 179 62.001
c76 14.667 171.333 21.667 286 21v51c0 46.667 -18 87.334 -54 122.001s-83 52 -141 52c-57.333 0 -99.666 -11.667 -126.999 -35c-27.333 -24 -46.333 -56.667 -57 -98h-164c5.33301 38 17 74 35 108c18 33.333 41.667 62.666 71 87.999s64 45 104 59
c40 14.667 86 22 138 22zM399.002 133.001c40.667 0 78.334 6.66406 113.001 19.9971c34 12.667 63 29.334 87 50.001s42.667 43.334 56 68.001c13.333 25.333 20.333 51 21 77v72c-92.667 0 -167 -3.66699 -223 -11s-99.333 -18.333 -130 -33s-51.334 -31.667 -62.001 -51
c-10 -20 -15 -43 -15 -69c0 -31.333 14 -59.666 42 -84.999c27.333 -25.333 64.333 -38 111 -38z" />
    <glyph glyph-name="adieresis" unicode="&#xe4;" horiz-adv-x="952" 
d="M328 1096c-26 0 -48 8.66699 -66 26c-18 18 -26.667 40 -26 66c0 26 8.66699 47.667 26 65c18 18 40 27 66 27s47.667 -9 65 -27c18 -18 27 -39.667 27 -65c0 -26 -9 -48 -27 -66c-17.333 -17.333 -39 -26 -65 -26zM635 1096c-26 0 -48 8.66699 -66 26
c-18 18 -26.667 40 -26 66c0 26 8.66699 47.667 26 65c18 18 40 27 66 27s47.667 -9 65 -27c18 -18 27 -39.667 27 -65c0 -26 -9 -48 -27 -66c-17.333 -17.333 -39 -26 -65 -26zM481 932c50.667 0 97.668 -8.66602 141.001 -25.999s80 -40 110 -68
c30.667 -28.667 54.667 -62.334 72 -101.001c17.333 -38 25.666 -79 24.999 -123v-614h-112l-41 102c-20.667 -22 -44 -41 -70 -57c-23.333 -15.333 -52 -28.333 -86 -39s-74.333 -16 -121 -16s-88.667 7 -126 21c-37.333 14.667 -69.333 34.667 -96 60
s-47.334 54.666 -62.001 87.999c-15.333 33.333 -23 69 -23 107c0 44 9 84 27 120s48.667 67.333 92 94c44 26.667 103.667 47.334 179 62.001c76 14.667 171.333 21.667 286 21v51c0 46.667 -18 87.334 -54 122.001s-83 52 -141 52c-57.333 0 -99.666 -11.667 -126.999 -35
c-27.333 -24 -46.333 -56.667 -57 -98h-164c5.33301 38 17 74 35 108c18 33.333 41.667 62.666 71 87.999s64 45 104 59c40 14.667 86 22 138 22zM399.001 133.001c40.667 0 78.334 6.66406 113.001 19.9971c34 12.667 63 29.334 87 50.001s42.667 43.334 56 68.001
c13.333 25.333 20.333 51 21 77v72c-92.667 0 -167 -3.66699 -223 -11s-99.333 -18.333 -130 -33s-51.334 -31.667 -62.001 -51c-10 -20 -15 -43 -15 -69c0 -31.333 14 -59.666 42 -84.999c27.333 -25.333 64.333 -38 111 -38z" />
    <glyph glyph-name="aring" unicode="&#xe5;" horiz-adv-x="952" 
d="M420 1208c0 -20.667 6.66797 -37.667 20.001 -51s30.666 -20 51.999 -20c20.667 0 37.667 6.66699 51 20s20 30.333 20 51s-6.66699 38 -20 52c-13.333 13.333 -30.333 20 -51 20s-38 -6.66699 -52 -20c-13.333 -14 -20 -31.333 -20 -52zM655.001 1208
c0 -46.667 -15.668 -85.333 -47.001 -116c-31.333 -31.333 -70 -47.333 -116 -48c-46.667 0 -85.667 16 -117 48c-31.333 31.333 -47 70 -47 116c0 46.667 15.667 85.667 47 117s70.333 47 117 47s85.334 -15.667 116.001 -47c31.333 -31.333 47 -70.333 47 -117z
M481 932.001c50.667 0 97.668 -8.66602 141.001 -25.999s80 -40 110 -68c30.667 -28.667 54.667 -62.334 72 -101.001c17.333 -38 25.666 -79 24.999 -123v-614h-112l-41 102c-20.667 -22 -44 -41 -70 -57c-23.333 -15.333 -52 -28.333 -86 -39s-74.333 -16 -121 -16
s-88.667 7 -126 21c-37.333 14.667 -69.333 34.667 -96 60s-47.334 54.666 -62.001 87.999c-15.333 33.333 -23 69 -23 107c0 44 9 84 27 120s48.667 67.333 92 94c44 26.667 103.667 47.334 179 62.001c76 14.667 171.333 21.667 286 21v51
c0 46.667 -18 87.334 -54 122.001s-83 52 -141 52c-57.333 0 -99.666 -11.667 -126.999 -35c-27.333 -24 -46.333 -56.667 -57 -98h-164c5.33301 38 17 74 35 108c18 33.333 41.667 62.666 71 87.999s64 45 104 59c40 14.667 86 22 138 22zM399.001 133.002
c40.667 0 78.334 6.66406 113.001 19.9971c34 12.667 63 29.334 87 50.001s42.667 43.334 56 68.001c13.333 25.333 20.333 51 21 77v72c-92.667 0 -167 -3.66699 -223 -11s-99.333 -18.333 -130 -33s-51.334 -31.667 -62.001 -51c-10 -20 -15 -43 -15 -69
c0 -31.333 14 -59.666 42 -84.999c27.333 -25.333 64.333 -38 111 -38z" />
    <glyph glyph-name="ae" unicode="&#xe6;" horiz-adv-x="1515" 
d="M1423 246c-12 -32.667 -29.002 -64.833 -51.002 -96.5s-48 -59 -78 -82s-64 -41.667 -102 -56s-80.333 -21.5 -127 -21.5c-54.667 0 -101.5 9.5 -140.5 28.5s-72.167 40.167 -99.5 63.5c-31.333 26 -57 56.667 -77 92c-23.333 -35.333 -52 -66 -86 -92
c-28.667 -23.333 -65 -44.5 -109 -63.5s-95.333 -28.5 -154 -28.5c-46.667 0 -88.667 7.16699 -126 21.5s-69.333 33 -96 56s-47.5 50.333 -62.5 82s-22.5 63.834 -22.5 96.501c0 44 8.5 84 25.5 120s47 67.333 90 94s100.667 47.167 173 61.5s163.833 21.5 274.5 21.5v71
c0 46.667 -17.667 87.334 -53 122.001s-79 52 -131 52s-91.333 -11.833 -118 -35.5s-45.334 -56.167 -56.001 -97.5h-164c5.33301 38 17 73.833 35 107.5s41.333 63.167 70 88.5s62.334 45.166 101.001 59.499s82.667 21.5 132 21.5c48 0 90.333 -7.5 127 -22.5
s66.667 -31.5 90 -49.5c27.333 -22 50.666 -46 69.999 -72c22 26 47.333 50 76 72c24.667 18 55.334 34.5 92.001 49.5s79.667 22.5 129 22.5c53.333 0 103.833 -10.667 151.5 -32s88.834 -51.333 123.501 -90s62.334 -85.667 83.001 -141s31 -118 31 -188
c0 -13.333 -0.666992 -24.833 -2 -34.5s-2.66602 -17.834 -3.99902 -24.501l-4 -23h-615c2.66699 -38 11.167 -73.333 25.5 -106s32.833 -60.667 55.5 -84s48 -41.833 76 -55.5s57.667 -20.5 89 -20.5c52 0 93.667 12.333 125 37s54.666 50 69.999 76h163zM1055 788.001
c-28.667 0 -56.333 -6.33398 -83 -19.001s-51 -30.667 -73 -54s-40.167 -50.666 -54.5 -81.999s-22.833 -65 -25.5 -101h461c-5.33301 78 -29.833 140.167 -73.5 186.5s-94.167 69.5 -151.5 69.5zM398.999 133c38 0 72.833 5.83203 104.5 17.499s58.667 27.334 81 47.001
s39.666 42.5 51.999 68.5s18.5 53.333 18.5 82v51c-87.333 0 -157.5 -3.66699 -210.5 -11s-94.333 -17.5 -124 -30.5s-49.5 -29 -59.5 -48s-15 -40.167 -15 -63.5c0 -26 13.833 -51.333 41.5 -76s64.834 -37 111.501 -37z" />
    <glyph glyph-name="ccedilla" unicode="&#xe7;" horiz-adv-x="962" 
d="M502 788c-35.333 0 -69.8359 -7.82812 -103.503 -23.4951s-63.5 -37.834 -89.5 -66.501s-46.5 -63 -61.5 -103s-22.5 -84.667 -22.5 -134s7.5 -94.166 22.5 -134.499s35.5 -74.833 61.5 -103.5s55.833 -50.834 89.5 -66.501s68.167 -23.5 103.5 -23.5
c30 0 58.333 5.5 85 16.5s50.5 25.333 71.5 43s39 38.167 54 61.5s26.833 48 35.5 74h153c-10.667 -46.667 -27 -89.834 -49 -129.501s-48.667 -74.5 -80 -104.5s-66.5 -54.167 -105.5 -72.5s-80.167 -28.833 -123.5 -31.5l-41 -72c40.667 -5.33301 73 -20 97 -44
s36 -53.667 36 -89s-15.333 -66.333 -46 -93s-76.667 -40 -138 -40c-13.333 0 -25.666 0.333008 -36.999 1s-21 1.66699 -29 3c-9.33301 1.33301 -18.333 3.33301 -27 6v82c6.66699 -2.66699 15 -4.66699 25 -6c6.66699 -1.33301 15.167 -2.33301 25.5 -3s20.833 -1 31.5 -1
c31.333 0 54.5 6.5 69.5 19.5s22.5 26.833 22.5 41.5c0 15.333 -7.5 29.5 -22.5 42.5s-38.167 19.5 -69.5 19.5c-8 0 -15 -0.666992 -21 -2s-11.333 -3 -16 -5c-5.33301 -1.33301 -10 -2.66602 -14 -3.99902l62 144c-52 8 -100.833 24.333 -146.5 49
s-85.667 57.167 -120 97.5s-61.666 87.666 -81.999 141.999s-30.5 115.166 -30.5 182.499c0 69.333 11.167 132.666 33.5 189.999s53 106.833 92 148.5s84.833 74.167 137.5 97.5s108.334 35 167.001 35c50.667 0 98.167 -8.83301 142.5 -26.5s83.833 -42 118.5 -73
s63.667 -66.833 87 -107.5s40.333 -84.334 51 -131.001h-153c-8 26 -19.667 50.5 -35 73.5s-33.5 43.5 -54.5 61.5s-44.833 32.333 -71.5 43s-55 16 -85 16z" />
    <glyph glyph-name="egrave" unicode="&#xe8;" horiz-adv-x="972" 
d="M543 1073h-103l-174 246h154zM881 246c-15.333 -32.667 -34.6709 -64.665 -58.0039 -95.998s-50.666 -58.666 -81.999 -81.999s-66.666 -42.333 -105.999 -57s-83.666 -21.667 -132.999 -21c-58.667 0 -114.334 11.667 -167.001 35s-98.334 55.666 -137.001 96.999
s-69.667 90.666 -93 147.999c-22.667 57.333 -33.667 121 -33 191c0 69.333 11 132.666 33 189.999c22.667 57.333 53.334 107 92.001 149c38 41.333 82.667 73.666 134 96.999s105 35 161 35s108.667 -11 158 -33c50 -22 93.333 -53 130 -93s66 -88.667 88 -146
c22 -56.667 33 -119.667 33 -189c0 -13.333 -0.666992 -25 -2 -35c-1.33301 -9.33301 -2.66602 -17.333 -3.99902 -24l-4 -23h-655c2.66699 -32.667 11.667 -64.667 27 -96c16 -31.333 36 -58.666 60 -81.999s51.667 -42 83 -56c31.333 -14.667 63.333 -22 96 -22
c28.667 0 54.334 4 77.001 12s43 17.667 61 29c18.667 10.667 34 22.667 46 36c12 12.667 22.333 24.667 31 36h164zM491.995 788.002c-31.333 0 -61.334 -6.66699 -90.001 -20c-28 -13.333 -53.333 -31.666 -76 -54.999c-23.333 -23.333 -43 -51.333 -59 -84
s-26.333 -68.334 -31 -107.001h501c-10.667 82 -39 147 -85 195c-45.333 47.333 -98.666 71 -159.999 71z" />
    <glyph glyph-name="eacute" unicode="&#xe9;" horiz-adv-x="972" 
d="M563 1319h154l-174 -246h-103zM881 246c-15.333 -32.667 -34.6709 -64.665 -58.0039 -95.998s-50.666 -58.666 -81.999 -81.999s-66.666 -42.333 -105.999 -57s-83.666 -21.667 -132.999 -21c-58.667 0 -114.334 11.667 -167.001 35s-98.334 55.666 -137.001 96.999
s-69.667 90.666 -93 147.999c-22.667 57.333 -33.667 121 -33 191c0 69.333 11 132.666 33 189.999c22.667 57.333 53.334 107 92.001 149c38 41.333 82.667 73.666 134 96.999s105 35 161 35s108.667 -11 158 -33c50 -22 93.333 -53 130 -93s66 -88.667 88 -146
c22 -56.667 33 -119.667 33 -189c0 -13.333 -0.666992 -25 -2 -35c-1.33301 -9.33301 -2.66602 -17.333 -3.99902 -24l-4 -23h-655c2.66699 -32.667 11.667 -64.667 27 -96c16 -31.333 36 -58.666 60 -81.999s51.667 -42 83 -56c31.333 -14.667 63.333 -22 96 -22
c28.667 0 54.334 4 77.001 12s43 17.667 61 29c18.667 10.667 34 22.667 46 36c12 12.667 22.333 24.667 31 36h164zM491.995 788.002c-31.333 0 -61.334 -6.66699 -90.001 -20c-28 -13.333 -53.333 -31.666 -76 -54.999c-23.333 -23.333 -43 -51.333 -59 -84
s-26.333 -68.334 -31 -107.001h501c-10.667 82 -39 147 -85 195c-45.333 47.333 -98.666 71 -159.999 71z" />
    <glyph glyph-name="ecircumflex" unicode="&#xea;" horiz-adv-x="972" 
d="M748 1065h-154l-102 143l-103 -143h-153l184 246h143zM881 246c-15.333 -32.667 -34.6709 -64.665 -58.0039 -95.998s-50.666 -58.666 -81.999 -81.999s-66.666 -42.333 -105.999 -57s-83.666 -21.667 -132.999 -21c-58.667 0 -114.334 11.667 -167.001 35
s-98.334 55.666 -137.001 96.999s-69.667 90.666 -93 147.999c-22.667 57.333 -33.667 121 -33 191c0 69.333 11 132.666 33 189.999c22.667 57.333 53.334 107 92.001 149c38 41.333 82.667 73.666 134 96.999s105 35 161 35s108.667 -11 158 -33
c50 -22 93.333 -53 130 -93s66 -88.667 88 -146c22 -56.667 33 -119.667 33 -189c0 -13.333 -0.666992 -25 -2 -35c-1.33301 -9.33301 -2.66602 -17.333 -3.99902 -24l-4 -23h-655c2.66699 -32.667 11.667 -64.667 27 -96c16 -31.333 36 -58.666 60 -81.999
s51.667 -42 83 -56c31.333 -14.667 63.333 -22 96 -22c28.667 0 54.334 4 77.001 12s43 17.667 61 29c18.667 10.667 34 22.667 46 36c12 12.667 22.333 24.667 31 36h164zM491.995 788.002c-31.333 0 -61.334 -6.66699 -90.001 -20
c-28 -13.333 -53.333 -31.666 -76 -54.999c-23.333 -23.333 -43 -51.333 -59 -84s-26.333 -68.334 -31 -107.001h501c-10.667 82 -39 147 -85 195c-45.333 47.333 -98.666 71 -159.999 71z" />
    <glyph glyph-name="edieresis" unicode="&#xeb;" horiz-adv-x="972" 
d="M338 1096c-26 0 -48 8.66699 -66 26c-18 18 -26.667 40 -26 66c0 26 8.66699 47.667 26 65c18 18 40 27 66 27s47.667 -9 65 -27c18 -18 27 -39.667 27 -65c0 -26 -9 -48 -27 -66c-17.333 -17.333 -39 -26 -65 -26zM645 1096c-26 0 -47.667 8.66699 -65 26
c-18 18 -27 40 -27 66s9 47.667 27 65c18 18 39.667 27 65 27c26 0 48 -9 66 -27s26.667 -39.667 26 -65c0 -26 -8.66699 -48 -26 -66c-18 -17.333 -40 -26 -66 -26zM881 246c-15.333 -32.667 -34.6709 -64.665 -58.0039 -95.998s-50.666 -58.666 -81.999 -81.999
s-66.666 -42.333 -105.999 -57s-83.666 -21.667 -132.999 -21c-58.667 0 -114.334 11.667 -167.001 35s-98.334 55.666 -137.001 96.999s-69.667 90.666 -93 147.999c-22.667 57.333 -33.667 121 -33 191c0 69.333 11 132.666 33 189.999
c22.667 57.333 53.334 107 92.001 149c38 41.333 82.667 73.666 134 96.999s105 35 161 35s108.667 -11 158 -33c50 -22 93.333 -53 130 -93s66 -88.667 88 -146c22 -56.667 33 -119.667 33 -189c0 -13.333 -0.666992 -25 -2 -35
c-1.33301 -9.33301 -2.66602 -17.333 -3.99902 -24l-4 -23h-655c2.66699 -32.667 11.667 -64.667 27 -96c16 -31.333 36 -58.666 60 -81.999s51.667 -42 83 -56c31.333 -14.667 63.333 -22 96 -22c28.667 0 54.334 4 77.001 12s43 17.667 61 29
c18.667 10.667 34 22.667 46 36c12 12.667 22.333 24.667 31 36h164zM491.995 788.002c-31.333 0 -61.334 -6.66699 -90.001 -20c-28 -13.333 -53.333 -31.666 -76 -54.999c-23.333 -23.333 -43 -51.333 -59 -84s-26.333 -68.334 -31 -107.001h501
c-10.667 82 -39 147 -85 195c-45.333 47.333 -98.666 71 -159.999 71z" />
    <glyph glyph-name="igrave" unicode="&#xec;" horiz-adv-x="419" 
d="M266 1065h-102l-174 246h153zM287 0h-154v922h154v-922z" />
    <glyph glyph-name="iacute" unicode="&#xed;" horiz-adv-x="419" 
d="M276 1311h154l-174 -246h-102zM287 0h-154v922h154v-922z" />
    <glyph glyph-name="icircumflex" unicode="&#xee;" horiz-adv-x="419" 
d="M461 1065h-154l-102 143l-103 -143h-153l184 246h143zM287 0h-154v922h154v-922z" />
    <glyph glyph-name="idieresis" unicode="&#xef;" horiz-adv-x="419" 
d="M51 1096c-26 0 -47.667 8.66699 -65 26c-18 18 -27 40 -27 66s9 47.667 27 65c18 18 39.667 27 65 27c26 0 48 -9 66 -27s26.667 -39.667 26 -65c0 -26 -8.66699 -48 -26 -66c-18 -17.333 -40 -26 -66 -26zM358 1096c-26 0 -47.667 8.66699 -65 26c-18 18 -27 40 -27 66
s9 47.667 27 65c18 18 39.667 27 65 27c26 0 48 -9 66 -27s27 -39.667 27 -65c0 -26 -9 -48 -27 -66c-18 -17.333 -40 -26 -66 -26zM287 0h-154v922h154v-922z" />
    <glyph glyph-name="eth" unicode="&#xf0;" horiz-adv-x="1044" 
d="M696 1198c48 -45.333 90.332 -100.663 126.999 -165.996c31.333 -57.333 60.666 -128.666 87.999 -213.999s41 -187.333 41 -306c0 -82 -10.833 -155.333 -32.5 -220s-52 -119.334 -91 -164.001s-85.5 -78.834 -139.5 -102.501s-113 -35.5 -177 -35.5
c-61.333 0 -118.666 11.5 -171.999 34.5s-100.166 54.667 -140.499 95s-71.666 87.833 -93.999 142.5s-33.5 114 -33.5 178s11.167 123.333 33.5 178s52.666 102.167 90.999 142.5s83.166 72.166 134.499 95.499s105 35 161 35c52 0 96.333 -6.5 133 -19.5
s67.334 -27.167 92.001 -42.5c28.667 -18 52.334 -38.333 71.001 -61c-10.667 53.333 -26.5 101.5 -47.5 144.5s-42.5 79.5 -64.5 109.5c-24.667 35.333 -52 66.666 -82 93.999l-184 -123l-72 103l154 102c-23.333 15.333 -47.333 28.666 -72 39.999s-48 21.333 -70 30
c-24.667 8 -49.334 15.333 -74.001 22l52 123c32.667 -10.667 66 -23.667 100 -39c27.333 -12 57 -25.833 89 -41.5s61 -33.167 87 -52.5l164 113l72 -103zM511.999 133.003c38 0 74.5 7.83203 109.5 23.499s65.5 37.167 91.5 64.5s46.833 59.833 62.5 97.5
s23.5 78.167 23.5 121.5c0 44 -7.83301 84.667 -23.5 122s-36.5 69.666 -62.5 96.999s-56.5 49 -91.5 65s-71.5 24 -109.5 24s-74.5 -8 -109.5 -24s-65.5 -37.667 -91.5 -65s-46.833 -59.666 -62.5 -96.999s-23.5 -78 -23.5 -122s7.83301 -84.667 23.5 -122
s36.5 -69.666 62.5 -96.999s56.5 -48.833 91.5 -64.5s71.5 -23.5 109.5 -23.5z" />
    <glyph glyph-name="ntilde" unicode="&#xf1;" horiz-adv-x="1034" 
d="M645 1178c20.667 0 39.335 9.99902 56.002 29.999c17.333 20.667 26 51.334 26 92.001h92c0 -78 -17.333 -136.667 -52 -176s-75.334 -59 -122.001 -59c-31.333 0 -57.333 6.66699 -78 20s-38.667 29 -54 47c-16 17.333 -31 32.666 -45 45.999
c-14.667 13.333 -30.667 20 -48 20c-20.667 0 -39.334 -10.333 -56.001 -31c-17.333 -20.667 -26 -51.334 -26 -92.001h-92c0 78 17.333 136.667 52 176s75.334 59.333 122.001 60c30 0 55.667 -7 77 -21c21.333 -13.333 39.666 -28.666 54.999 -45.999
c16 -17.333 31 -32.666 45 -45.999s30 -20 48 -20zM553.001 931.999c49.333 0 95.335 -9.99902 138.002 -29.999c43.333 -20 81.333 -47.333 114 -82s58.667 -76.667 78 -126s28.666 -103.333 27.999 -162v-532h-153v532c0 38 -6.33301 73 -19 105
c-12 31.333 -28.333 58.333 -49 81s-44.667 40 -72 52s-56 18 -86 18c-72.667 0 -131.667 -23 -177 -69c-46 -46.667 -68.667 -109 -68 -187v-532h-154v922h113l41 -103c19.333 20.667 41.666 39 66.999 55c23.333 15.333 51.333 28.666 84 39.999c32.667 12 71 18 115 18z
" />
    <glyph glyph-name="ograve" unicode="&#xf2;" 
d="M563 1065h-102l-174 246h153zM225 461c0 -49.333 7.66797 -94.001 23.001 -134.001s35.666 -74.667 60.999 -104c26 -28.667 55.667 -50.667 89 -66c33.333 -16 68 -24 104 -24c35.333 0 69.666 8 102.999 24s62.666 38 87.999 66c25.333 28.667 46 63.334 62 104.001
c16 40 23.667 84.667 23 134c0 49.333 -7.66699 94 -23 134c-16 40 -36.667 74.333 -62 103s-54.666 51 -87.999 67s-67.666 23.667 -102.999 23c-35.333 0 -70 -7.66699 -104 -23c-33.333 -16 -63 -38.333 -89 -67s-46.333 -63 -61 -103c-15.333 -40 -23 -84.667 -23 -134z
M932.001 460.999c0 -69.333 -11.333 -133 -34 -191c-22.667 -57.333 -53.334 -106.666 -92.001 -147.999s-84.334 -73.666 -137.001 -96.999s-108.334 -35 -167.001 -35s-114.334 11.667 -167.001 35s-98.334 55.666 -137.001 96.999s-69.667 90.666 -93 147.999
c-22.667 57.333 -33.667 121 -33 191c0 69.333 11 132.666 33 189.999c22.667 57.333 53.667 107 93 149c38.667 41.333 84.334 73.666 137.001 96.999s108.334 35 167.001 35s114.334 -11.667 167.001 -35s98.334 -55.666 137.001 -96.999s69.334 -91 92.001 -149
c22.667 -57.333 34 -120.666 34 -189.999z" />
    <glyph glyph-name="oacute" unicode="&#xf3;" 
d="M584 1311h153l-174 -246h-102zM225 461c0 -49.333 7.66797 -94.001 23.001 -134.001s35.666 -74.667 60.999 -104c26 -28.667 55.667 -50.667 89 -66c33.333 -16 68 -24 104 -24c35.333 0 69.666 8 102.999 24s62.666 38 87.999 66c25.333 28.667 46 63.334 62 104.001
c16 40 23.667 84.667 23 134c0 49.333 -7.66699 94 -23 134c-16 40 -36.667 74.333 -62 103s-54.666 51 -87.999 67s-67.666 23.667 -102.999 23c-35.333 0 -70 -7.66699 -104 -23c-33.333 -16 -63 -38.333 -89 -67s-46.333 -63 -61 -103c-15.333 -40 -23 -84.667 -23 -134z
M932.001 460.999c0 -69.333 -11.333 -133 -34 -191c-22.667 -57.333 -53.334 -106.666 -92.001 -147.999s-84.334 -73.666 -137.001 -96.999s-108.334 -35 -167.001 -35s-114.334 11.667 -167.001 35s-98.334 55.666 -137.001 96.999s-69.667 90.666 -93 147.999
c-22.667 57.333 -33.667 121 -33 191c0 69.333 11 132.666 33 189.999c22.667 57.333 53.667 107 93 149c38.667 41.333 84.334 73.666 137.001 96.999s108.334 35 167.001 35s114.334 -11.667 167.001 -35s98.334 -55.666 137.001 -96.999s69.334 -91 92.001 -149
c22.667 -57.333 34 -120.666 34 -189.999z" />
    <glyph glyph-name="ocircumflex" unicode="&#xf4;" 
d="M758 1065h-154l-102 143l-103 -143h-153l184 246h143zM225 461c0 -49.333 7.66797 -94.001 23.001 -134.001s35.666 -74.667 60.999 -104c26 -28.667 55.667 -50.667 89 -66c33.333 -16 68 -24 104 -24c35.333 0 69.666 8 102.999 24s62.666 38 87.999 66
c25.333 28.667 46 63.334 62 104.001c16 40 23.667 84.667 23 134c0 49.333 -7.66699 94 -23 134c-16 40 -36.667 74.333 -62 103s-54.666 51 -87.999 67s-67.666 23.667 -102.999 23c-35.333 0 -70 -7.66699 -104 -23c-33.333 -16 -63 -38.333 -89 -67
s-46.333 -63 -61 -103c-15.333 -40 -23 -84.667 -23 -134zM932.001 460.999c0 -69.333 -11.333 -133 -34 -191c-22.667 -57.333 -53.334 -106.666 -92.001 -147.999s-84.334 -73.666 -137.001 -96.999s-108.334 -35 -167.001 -35s-114.334 11.667 -167.001 35
s-98.334 55.666 -137.001 96.999s-69.667 90.666 -93 147.999c-22.667 57.333 -33.667 121 -33 191c0 69.333 11 132.666 33 189.999c22.667 57.333 53.667 107 93 149c38.667 41.333 84.334 73.666 137.001 96.999s108.334 35 167.001 35s114.334 -11.667 167.001 -35
s98.334 -55.666 137.001 -96.999s69.334 -91 92.001 -149c22.667 -57.333 34 -120.666 34 -189.999z" />
    <glyph glyph-name="otilde" unicode="&#xf5;" 
d="M614 1157c20.667 0 39.6699 10.333 57.0029 31s25.666 51.334 24.999 92.001h92c0 -78 -17.333 -136.667 -52 -176s-75.334 -59.333 -122.001 -60c-31.333 0 -57 7 -77 21c-20.667 13.333 -39 28.666 -55 45.999s-31 32.666 -45 45.999
c-14.667 13.333 -30.667 20.333 -48 21c-20.667 0 -39.334 -10.333 -56.001 -31c-17.333 -20.667 -26 -51.334 -26 -92.001h-92c0 78 17.333 136.667 52 176s75.334 59 122.001 59c30 0 55.667 -6.66699 77 -20s39.666 -28.666 54.999 -45.999
c16 -17.333 31 -32.666 45 -45.999c14 -14 30 -21 48 -21zM225.003 461c0 -49.333 7.66797 -94.001 23.001 -134.001s35.666 -74.667 60.999 -104c26 -28.667 55.667 -50.667 89 -66c33.333 -16 68 -24 104 -24c35.333 0 69.666 8 102.999 24s62.666 38 87.999 66
c25.333 28.667 46 63.334 62 104.001c16 40 23.667 84.667 23 134c0 49.333 -7.66699 94 -23 134c-16 40 -36.667 74.333 -62 103s-54.666 51 -87.999 67s-67.666 23.667 -102.999 23c-35.333 0 -70 -7.66699 -104 -23c-33.333 -16 -63 -38.333 -89 -67
s-46.333 -63 -61 -103c-15.333 -40 -23 -84.667 -23 -134zM932.004 460.999c0 -69.333 -11.333 -133 -34 -191c-22.667 -57.333 -53.334 -106.666 -92.001 -147.999s-84.334 -73.666 -137.001 -96.999s-108.334 -35 -167.001 -35s-114.334 11.667 -167.001 35
s-98.334 55.666 -137.001 96.999s-69.667 90.666 -93 147.999c-22.667 57.333 -33.667 121 -33 191c0 69.333 11 132.666 33 189.999c22.667 57.333 53.667 107 93 149c38.667 41.333 84.334 73.666 137.001 96.999s108.334 35 167.001 35s114.334 -11.667 167.001 -35
s98.334 -55.666 137.001 -96.999s69.334 -91 92.001 -149c22.667 -57.333 34 -120.666 34 -189.999z" />
    <glyph glyph-name="odieresis" unicode="&#xf6;" 
d="M348 1096c-26 0 -47.667 8.66699 -65 26c-18 18 -27 40 -27 66s9 47.667 27 65c18 18 39.667 27 65 27c26 0 48 -9 66 -27s26.667 -39.667 26 -65c0 -26 -8.66699 -48 -26 -66c-18 -17.333 -40 -26 -66 -26zM655 1096c-26 0 -47.667 8.66699 -65 26c-18 18 -27 40 -27 66
s9 47.667 27 65c18 18 39.667 27 65 27c26 0 48 -9 66 -27s27 -39.667 27 -65c0 -26 -9 -48 -27 -66c-18 -17.333 -40 -26 -66 -26zM225 461c0 -49.333 7.66797 -94.001 23.001 -134.001s35.666 -74.667 60.999 -104c26 -28.667 55.667 -50.667 89 -66
c33.333 -16 68 -24 104 -24c35.333 0 69.666 8 102.999 24s62.666 38 87.999 66c25.333 28.667 46 63.334 62 104.001c16 40 23.667 84.667 23 134c0 49.333 -7.66699 94 -23 134c-16 40 -36.667 74.333 -62 103s-54.666 51 -87.999 67s-67.666 23.667 -102.999 23
c-35.333 0 -70 -7.66699 -104 -23c-33.333 -16 -63 -38.333 -89 -67s-46.333 -63 -61 -103c-15.333 -40 -23 -84.667 -23 -134zM932.001 460.999c0 -69.333 -11.333 -133 -34 -191c-22.667 -57.333 -53.334 -106.666 -92.001 -147.999s-84.334 -73.666 -137.001 -96.999
s-108.334 -35 -167.001 -35s-114.334 11.667 -167.001 35s-98.334 55.666 -137.001 96.999s-69.667 90.666 -93 147.999c-22.667 57.333 -33.667 121 -33 191c0 69.333 11 132.666 33 189.999c22.667 57.333 53.667 107 93 149c38.667 41.333 84.334 73.666 137.001 96.999
s108.334 35 167.001 35s114.334 -11.667 167.001 -35s98.334 -55.666 137.001 -96.999s69.334 -91 92.001 -149c22.667 -57.333 34 -120.666 34 -189.999z" />
    <glyph glyph-name="divide" unicode="&#xf7;" horiz-adv-x="901" 
d="M829 461h-757v133h757v-133zM451 758c-31.333 0 -56.333 9.16699 -75 27.5s-28 43.166 -28 74.499s9.16699 56.333 27.5 75s43.5 28 75.5 28c31.333 0 56.166 -9.33301 74.499 -28s27.5 -43.667 27.5 -75s-9.16699 -56.166 -27.5 -74.499s-43.166 -27.5 -74.499 -27.5z
M451 297c31.333 0 56.166 -9.16699 74.499 -27.5s27.5 -43.166 27.5 -74.499s-9.16699 -56.333 -27.5 -75s-43.166 -28 -74.499 -28s-56.333 9.16699 -75 27.5s-28 43.5 -28 75.5c0 31.333 9.33301 56.166 28 74.499s43.667 27.5 75 27.5z" />
    <glyph glyph-name="oslash" unicode="&#xf8;" horiz-adv-x="1044" 
d="M696 717c-15.333 12 -31.668 23.668 -49.001 35.001c-15.333 9.33301 -33.5 17.666 -54.5 24.999s-44.5 11 -70.5 11c-35.333 0 -69.666 -7.83301 -102.999 -23.5s-63 -37.834 -89 -66.501s-46.5 -63 -61.5 -103s-22.5 -84.667 -22.5 -134
c0 -19.333 1.33301 -37.166 4 -53.499s6 -31.5 10 -45.5l16 -45zM951.998 461.001c0 -69.333 -11.1709 -132.832 -33.5039 -190.499s-53 -107.334 -92 -149.001s-84.833 -74 -137.5 -97s-108.334 -34.5 -167.001 -34.5c-46.667 0 -87.667 5.5 -123 16.5
s-65.333 23.833 -90 38.5c-28.667 16.667 -53 35.667 -73 57l-103 -102l-92 102l113 103c-12 20.667 -22.333 43.667 -31 69c-8 23.333 -15.167 50.333 -21.5 81s-9.5 66 -9.5 106c0 69.333 11.333 132.666 34 189.999s53.334 106.833 92.001 148.5
s84.334 74.167 137.001 97.5s108.334 35 167.001 35c46.667 0 87.667 -5.83301 123 -17.5s65.333 -25.167 90 -40.5c28.667 -16.667 53.334 -35 74.001 -55l102 103l93 -103l-113 -102c10.667 -20.667 21 -44 31 -70c6.66699 -23.333 13.334 -50.666 20.001 -81.999
s10 -66 10 -104zM347.994 205.002c15.333 -13.333 31.667 -25.667 49 -37c15.333 -9.33301 33.5 -17.5 54.5 -24.5s44.5 -10.5 70.5 -10.5c35.333 0 69.833 7.83301 103.5 23.5s63.167 37.834 88.5 66.501s45.833 63.167 61.5 103.5s23.5 85.166 23.5 134.499
c0 18 -1.83301 35.5 -5.5 52.5s-7.5 32.167 -11.5 45.5c-5.33301 15.333 -10 30.333 -14 45z" />
    <glyph glyph-name="ugrave" unicode="&#xf9;" horiz-adv-x="1034" 
d="M604 1073h-102l-174 246h153zM492 -10c-49.333 0 -95.666 9.66699 -138.999 29c-43.333 20 -81 47.333 -113 82c-32.667 34.667 -58.667 76.667 -78 126s-29 103.333 -29 162v533h154v-533c0 -38 5.66699 -72.667 17 -104s27.333 -58.333 48 -81s44.667 -40 72 -52
s56.666 -18.333 87.999 -19c72.667 0 131.667 23.333 177 70c46 46.667 69 108.667 69 186v533h153v-922h-112l-41 102c-19.333 -22 -42 -41 -68 -57c-23.333 -15.333 -51.333 -28.333 -84 -39c-32 -10.667 -70 -16 -114 -16z" />
    <glyph glyph-name="uacute" unicode="&#xfa;" horiz-adv-x="1034" 
d="M584 1321h153l-174 -246h-102zM492 -10c-49.333 0 -95.666 9.66699 -138.999 29c-43.333 20 -81 47.333 -113 82c-32.667 34.667 -58.667 76.667 -78 126s-29 103.333 -29 162v533h154v-533c0 -38 5.66699 -72.667 17 -104s27.333 -58.333 48 -81s44.667 -40 72 -52
s56.666 -18.333 87.999 -19c72.667 0 131.667 23.333 177 70c46 46.667 69 108.667 69 186v533h153v-922h-112l-41 102c-19.333 -22 -42 -41 -68 -57c-23.333 -15.333 -51.333 -28.333 -84 -39c-32 -10.667 -70 -16 -114 -16z" />
    <glyph glyph-name="ucircumflex" unicode="&#xfb;" horiz-adv-x="1034" 
d="M768 1065h-154l-102 143l-102 -143h-154l184 246h144zM492 -10c-49.333 0 -95.666 9.66699 -138.999 29c-43.333 20 -81 47.333 -113 82c-32.667 34.667 -58.667 76.667 -78 126s-29 103.333 -29 162v533h154v-533c0 -38 5.66699 -72.667 17 -104s27.333 -58.333 48 -81
s44.667 -40 72 -52s56.666 -18.333 87.999 -19c72.667 0 131.667 23.333 177 70c46 46.667 69 108.667 69 186v533h153v-922h-112l-41 102c-19.333 -22 -42 -41 -68 -57c-23.333 -15.333 -51.333 -28.333 -84 -39c-32 -10.667 -70 -16 -114 -16z" />
    <glyph glyph-name="udieresis" unicode="&#xfc;" horiz-adv-x="1034" 
d="M358 1096c-26 0 -47.667 8.66699 -65 26c-18 18 -27 40 -27 66s9 47.667 27 65c18 18 39.667 27 65 27c26 0 48 -9 66 -27s27 -39.667 27 -65c0 -26 -9 -48 -27 -66c-18 -17.333 -40 -26 -66 -26zM666 1096c-26 0 -48 8.66699 -66 26c-18 18 -27 40 -27 66
s9 47.667 27 65c18 18 40 27 66 27s47.667 -9 65 -27c18 -18 27 -39.667 27 -65c0 -26 -9 -48 -27 -66c-17.333 -17.333 -39 -26 -65 -26zM492 -10c-49.333 0 -95.666 9.66699 -138.999 29c-43.333 20 -81 47.333 -113 82c-32.667 34.667 -58.667 76.667 -78 126
s-29 103.333 -29 162v533h154v-533c0 -38 5.66699 -72.667 17 -104s27.333 -58.333 48 -81s44.667 -40 72 -52s56.666 -18.333 87.999 -19c72.667 0 131.667 23.333 177 70c46 46.667 69 108.667 69 186v533h153v-922h-112l-41 102c-19.333 -22 -42 -41 -68 -57
c-23.333 -15.333 -51.333 -28.333 -84 -39c-32 -10.667 -70 -16 -114 -16z" />
    <glyph glyph-name="yacute" unicode="&#xfd;" horiz-adv-x="921" 
d="M532 1319h154l-174 -246h-102zM20 922l164.002 -0.000976562l277 -707l276 707h164l-399 -1004c-36.667 -92.667 -75.334 -158.667 -116.001 -198c-40 -38.667 -90 -58 -150 -58c-8 0 -15.667 0.333008 -23 1c-6.66699 0.666992 -13.334 1.66699 -20.001 3
s-13 3.33301 -19 6v123c46.667 0 81.667 10.333 105 31s43 51.334 59 92.001l41 102z" />
    <glyph glyph-name="thorn" unicode="&#xfe;" horiz-adv-x="1085" 
d="M276 461c0 -49.333 8.00098 -94.166 24.001 -134.499s36.833 -74.833 62.5 -103.5s56 -50.834 91 -66.501s71.5 -23.5 109.5 -23.5s74.5 7.83301 109.5 23.5s65.5 37.834 91.5 66.501s46.833 63.167 62.5 103.5s23.5 85.166 23.5 134.499s-7.83301 94 -23.5 134
s-36.5 74.333 -62.5 103s-56.333 50.834 -91 66.501s-71.334 23.5 -110.001 23.5c-38 0 -74.5 -7.83301 -109.5 -23.5s-65.333 -37.834 -91 -66.501s-46.5 -63 -62.5 -103s-24 -84.667 -24 -134zM297.001 809c19.333 23.333 42.6641 43.667 69.9971 61
c23.333 15.333 52 29.5 86 42.5s74 19.5 120 19.5c58.667 0 114.334 -11.667 167.001 -35s98.5 -55.833 137.5 -97.5s69.833 -91.167 92.5 -148.5s34 -120.666 34 -189.999s-11.333 -132.833 -34 -190.5s-53.5 -107.334 -92.5 -149.001s-84.667 -74 -137 -97
s-108.166 -34.5 -167.499 -34.5c-46.667 0 -87 6.5 -121 19.5s-62.333 26.833 -85 41.5c-27.333 18 -50.666 38.667 -69.999 62v-441h-154v1618h154v-481z" />
    <glyph glyph-name="ydieresis" unicode="&#xff;" horiz-adv-x="921" 
d="M307 1096c-26 0 -47.667 8.66699 -65 26c-18 18 -27 40 -27 66s9 47.667 27 65c18 18 39.667 27 65 27c26 0 48 -9 66 -27s26.667 -39.667 26 -65c0 -26 -8.66699 -48 -26 -66c-18 -17.333 -40 -26 -66 -26zM614 1096c-26 0 -47.667 8.66699 -65 26c-18 18 -27 40 -27 66
s9 47.667 27 65c18 18 39.667 27 65 27c26 0 48 -9 66 -27s27 -39.667 27 -65c0 -26 -9 -48 -27 -66c-18 -17.333 -40 -26 -66 -26zM20 922l164.002 -0.000976562l277 -707l276 707h164l-399 -1004c-36.667 -92.667 -75.334 -158.667 -116.001 -198
c-40 -38.667 -90 -58 -150 -58c-8 0 -15.667 0.333008 -23 1c-6.66699 0.666992 -13.334 1.66699 -20.001 3s-13 3.33301 -19 6v123c46.667 0 81.667 10.333 105 31s43 51.334 59 92.001l41 102z" />
    <glyph glyph-name="Amacron" unicode="&#x100;" horiz-adv-x="1126" 
d="M809 1464h-492v123h492v-123zM829 317h-532l-123 -317h-174l492 1290h143l491 -1290h-174zM348 461h430l-215 563z" />
    <glyph glyph-name="amacron" unicode="&#x101;" horiz-adv-x="952" 
d="M727 1116h-491v123h491v-123zM481 932c50.667 0 97.668 -8.66602 141.001 -25.999s80 -40 110 -68c30.667 -28.667 54.667 -62.334 72 -101.001c17.333 -38 25.666 -79 24.999 -123v-614h-112l-41 102c-20.667 -22 -44 -41 -70 -57c-23.333 -15.333 -52 -28.333 -86 -39
s-74.333 -16 -121 -16s-88.667 7 -126 21c-37.333 14.667 -69.333 34.667 -96 60s-47.334 54.666 -62.001 87.999c-15.333 33.333 -23 69 -23 107c0 44 9 84 27 120s48.667 67.333 92 94c44 26.667 103.667 47.334 179 62.001c76 14.667 171.333 21.667 286 21v51
c0 46.667 -18 87.334 -54 122.001s-83 52 -141 52c-57.333 0 -99.666 -11.667 -126.999 -35c-27.333 -24 -46.333 -56.667 -57 -98h-164c5.33301 38 17 74 35 108c18 33.333 41.667 62.666 71 87.999s64 45 104 59c40 14.667 86 22 138 22zM399.001 133.001
c40.667 0 78.334 6.66406 113.001 19.9971c34 12.667 63 29.334 87 50.001s42.667 43.334 56 68.001c13.333 25.333 20.333 51 21 77v72c-92.667 0 -167 -3.66699 -223 -11s-99.333 -18.333 -130 -33s-51.334 -31.667 -62.001 -51c-10 -20 -15 -43 -15 -69
c0 -31.333 14 -59.666 42 -84.999c27.333 -25.333 64.333 -38 111 -38z" />
    <glyph glyph-name="Abreve" unicode="&#x102;" horiz-adv-x="1126" 
d="M563 1434c-66.667 0 -121.667 22 -165 66c-43.333 44.667 -70.333 97.667 -81 159h123c5.33301 -35.333 19.333 -64.666 42 -87.999s49.667 -35 81 -35s58.333 11.667 81 35s36.667 52.666 42 87.999h123c-10.667 -61.333 -37.667 -114.333 -81 -159
c-43.333 -44 -98.333 -66 -165 -66zM829 317h-532l-123 -317h-174l492 1290h143l491 -1290h-174zM348 461h430l-215 563z" />
    <glyph glyph-name="abreve" unicode="&#x103;" horiz-adv-x="952" 
d="M492 1065c-66.667 0 -121.666 22.332 -164.999 66.999s-70.333 97.334 -81 158.001h123c5.33301 -35.333 19.333 -64.666 42 -87.999s49.667 -35 81 -35s58 11.667 80 35c22.667 23.333 36.667 52.666 42 87.999h123c-10.667 -61.333 -37.667 -114 -81 -158
c-42.667 -44.667 -97.334 -67 -164.001 -67zM481.001 931.999c50.667 0 97.668 -8.66602 141.001 -25.999s80 -40 110 -68c30.667 -28.667 54.667 -62.334 72 -101.001c17.333 -38 25.666 -79 24.999 -123v-614h-112l-41 102c-20.667 -22 -44 -41 -70 -57
c-23.333 -15.333 -52 -28.333 -86 -39s-74.333 -16 -121 -16s-88.667 7 -126 21c-37.333 14.667 -69.333 34.667 -96 60s-47.334 54.666 -62.001 87.999c-15.333 33.333 -23 69 -23 107c0 44 9 84 27 120s48.667 67.333 92 94c44 26.667 103.667 47.334 179 62.001
c76 14.667 171.333 21.667 286 21v51c0 46.667 -18 87.334 -54 122.001s-83 52 -141 52c-57.333 0 -99.666 -11.667 -126.999 -35c-27.333 -24 -46.333 -56.667 -57 -98h-164c5.33301 38 17 74 35 108c18 33.333 41.667 62.666 71 87.999s64 45 104 59
c40 14.667 86 22 138 22zM399.002 133c40.667 0 78.334 6.66406 113.001 19.9971c34 12.667 63 29.334 87 50.001s42.667 43.334 56 68.001c13.333 25.333 20.333 51 21 77v72c-92.667 0 -167 -3.66699 -223 -11s-99.333 -18.333 -130 -33s-51.334 -31.667 -62.001 -51
c-10 -20 -15 -43 -15 -69c0 -31.333 14 -59.666 42 -84.999c27.333 -25.333 64.333 -38 111 -38z" />
    <glyph glyph-name="Aogonek" unicode="&#x104;" horiz-adv-x="1126" 
d="M829 317l-532.001 0.000976562l-123 -317h-174l492 1290h143l491 -1290h-71c-13.333 -16.667 -25.666 -34.334 -36.999 -53.001c-9.33301 -16.667 -17.5 -35.167 -24.5 -55.5s-10.5 -42.166 -10.5 -65.499c0 -26 8.83301 -47.833 26.5 -65.5s39.5 -26.5 65.5 -26.5
c10.667 0 20.5 0.333008 29.5 1s17.5 1.66699 25.5 3s17 3.33301 27 6v-82c-9.33301 -2.66699 -18.333 -4.66699 -27 -6c-8 -1.33301 -16.333 -2.33301 -25 -3s-18.667 -1 -30 -1c-61.333 0 -109 16 -143 48s-51 74 -51 126c0 23.333 3.33301 45.166 10 65.499
s14.667 38.833 24 55.5c10.667 19.333 23 37 37 53zM347.999 461.001h430l-215 563z" />
    <glyph glyph-name="aogonek" unicode="&#x105;" horiz-adv-x="952" 
d="M676 102c-20.667 -22 -44.0049 -40.9971 -70.0049 -56.9971c-23.333 -15.333 -52 -28.333 -86 -39s-74.333 -16 -121 -16s-88.667 7.16699 -126 21.5s-69.333 34.166 -96 59.499s-47.5 54.666 -62.5 87.999s-22.5 69 -22.5 107c0 44 8.83301 84 26.5 120
s48.334 67.333 92.001 94s103.5 47.167 179.5 61.5s171.333 21.5 286 21.5v51c0 46.667 -18.167 87.334 -54.5 122.001s-83.166 52 -140.499 52s-99.666 -11.833 -126.999 -35.5s-46.333 -56.167 -57 -97.5h-164c5.33301 38 17 73.833 35 107.5s41.667 63.167 71 88.5
s64 45.166 104 59.499s86 21.5 138 21.5c50.667 0 97.5 -8.5 140.5 -25.5s79.833 -39.833 110.5 -68.5s54.5 -62.167 71.5 -100.5s25.5 -79.5 25.5 -123.5v-614h-10c-13.333 -16.667 -25.666 -34.334 -36.999 -53.001c-9.33301 -16.667 -17.333 -35.167 -24 -55.5
s-10 -42.166 -10 -65.499c0 -26 8.83301 -47.833 26.5 -65.5s39.5 -26.5 65.5 -26.5c10.667 0 20.5 0.333008 29.5 1s17.5 1.66699 25.5 3s17 3.33301 27 6v-82c-9.33301 -2.66699 -18.333 -4.66699 -27 -6c-8 -1.33301 -16.5 -2.33301 -25.5 -3s-18.833 -1 -29.5 -1
c-61.333 0 -109.166 16 -143.499 48s-51.5 74 -51.5 126c0 23.333 3.5 45.166 10.5 65.499s15.167 38.833 24.5 55.5c10.667 19.333 23 37 37 53zM398.995 133.003c40.667 0 78.166 6.5 112.499 19.5s63.5 29.667 87.5 50s42.833 43.166 56.5 68.499s20.5 51 20.5 77v72
c-92.667 0 -167 -3.83301 -223 -11.5s-99.5 -18.667 -130.5 -33s-51.5 -31.333 -61.5 -51s-15 -42.5 -15 -68.5c0 -31.333 13.833 -59.666 41.5 -84.999s64.834 -38 111.501 -38z" />
    <glyph glyph-name="Cacute" unicode="&#x106;" horiz-adv-x="1300" 
d="M758 1690h153l-174 -246h-102zM686 1157c-56 0 -110.67 -12.667 -164.003 -38s-100.333 -60.666 -141 -105.999c-40.667 -46 -73.334 -100.333 -98.001 -163s-37 -131 -37 -205s12.333 -142.333 37 -205s57.334 -116.667 98.001 -162c40.667 -46 87.667 -81.667 141 -107
s108 -38 164 -38c50.667 0 97 8 139 24s79.333 37 112 63c32 26.667 58.667 58 80 94s37.333 74.667 48 116h174c-18 -61.333 -43.333 -118.666 -76 -171.999s-72.667 -100 -120 -140s-100.666 -71.333 -159.999 -94c-60 -22.667 -125.667 -34 -197 -34
c-79.333 0 -155.333 16.667 -228 50c-73.333 33.333 -137.666 79.666 -192.999 138.999s-99.666 128.666 -132.999 207.999s-50 165.333 -50 258c0 91.333 16.667 177 50 257s77.666 149.667 132.999 209s119.666 105.666 192.999 138.999s149.333 50 228 50
c69.333 0 133.333 -11 192 -33c58 -22.667 110 -54.334 156 -95.001c46.667 -40 86.334 -86.667 119.001 -140s58 -110.666 76 -171.999h-174c-10.667 40.667 -26.667 79.334 -48 116.001c-21.333 36 -47.666 67.333 -78.999 94s-67.333 48 -108 64
c-40 15.333 -84.667 23 -134 23z" />
    <glyph glyph-name="cacute" unicode="&#x107;" horiz-adv-x="962" 
d="M573 1319h154l-174 -246h-102zM502 788c-35.333 0 -70 -7.66016 -104 -22.9932c-33.333 -16 -63 -38.333 -89 -67s-46.333 -63 -61 -103c-15.333 -40 -23 -84.667 -23 -134s7.66699 -94 23 -134s35.666 -74.667 60.999 -104c26 -28.667 55.667 -50.667 89 -66
c33.333 -16 68 -24 104 -24c30 0 58.333 5.66699 85 17c26.667 10.667 50.334 25 71.001 43c21.333 18 39.666 38.333 54.999 61c15.333 23.333 27 48 35 74h153c-10.667 -46.667 -27.667 -90.334 -51 -131.001s-52.333 -76.667 -87 -108
c-34.667 -30.667 -74.334 -55 -119.001 -73s-92 -26.667 -142 -26c-58.667 0 -114.334 11.667 -167.001 35s-98.334 55.666 -137.001 96.999s-69.667 90.666 -93 147.999c-22.667 57.333 -33.667 121 -33 191c0 69.333 11 132.666 33 189.999
c22.667 57.333 53.667 107 93 149c38.667 41.333 84.334 73.666 137.001 96.999s108.334 35 167.001 35c50.667 0 98 -9 142 -27c44.667 -18 84.334 -42 119.001 -72c34.667 -30.667 63.667 -66.667 87 -108c23.333 -40.667 40.333 -84.334 51 -131.001h-153
c-8 26 -19.667 50.667 -35 74s-33.666 43.666 -54.999 60.999c-21.333 18 -45 32.333 -71 43c-26.667 10.667 -55 16 -85 16z" />
    <glyph glyph-name="Ccircumflex" unicode="&#x108;" horiz-adv-x="1300" 
d="M942 1434h-154l-102 143l-102 -143h-154l184 245h144zM686 1157c-56 0 -110.67 -12.667 -164.003 -38s-100.333 -60.666 -141 -105.999c-40.667 -46 -73.334 -100.333 -98.001 -163s-37 -131 -37 -205s12.333 -142.333 37 -205s57.334 -116.667 98.001 -162
c40.667 -46 87.667 -81.667 141 -107s108 -38 164 -38c50.667 0 97 8 139 24s79.333 37 112 63c32 26.667 58.667 58 80 94s37.333 74.667 48 116h174c-18 -61.333 -43.333 -118.666 -76 -171.999s-72.667 -100 -120 -140s-100.666 -71.333 -159.999 -94
c-60 -22.667 -125.667 -34 -197 -34c-79.333 0 -155.333 16.667 -228 50c-73.333 33.333 -137.666 79.666 -192.999 138.999s-99.666 128.666 -132.999 207.999s-50 165.333 -50 258c0 91.333 16.667 177 50 257s77.666 149.667 132.999 209
s119.666 105.666 192.999 138.999s149.333 50 228 50c69.333 0 133.333 -11 192 -33c58 -22.667 110 -54.334 156 -95.001c46.667 -40 86.334 -86.667 119.001 -140s58 -110.666 76 -171.999h-174c-10.667 40.667 -26.667 79.334 -48 116.001
c-21.333 36 -47.666 67.333 -78.999 94s-67.333 48 -108 64c-40 15.333 -84.667 23 -134 23z" />
    <glyph glyph-name="ccircumflex" unicode="&#x109;" horiz-adv-x="962" 
d="M758 1065h-154l-102 143l-103 -143h-153l184 246h143zM502 788c-35.333 0 -70 -7.66016 -104 -22.9932c-33.333 -16 -63 -38.333 -89 -67s-46.333 -63 -61 -103c-15.333 -40 -23 -84.667 -23 -134s7.66699 -94 23 -134s35.666 -74.667 60.999 -104
c26 -28.667 55.667 -50.667 89 -66c33.333 -16 68 -24 104 -24c30 0 58.333 5.66699 85 17c26.667 10.667 50.334 25 71.001 43c21.333 18 39.666 38.333 54.999 61c15.333 23.333 27 48 35 74h153c-10.667 -46.667 -27.667 -90.334 -51 -131.001s-52.333 -76.667 -87 -108
c-34.667 -30.667 -74.334 -55 -119.001 -73s-92 -26.667 -142 -26c-58.667 0 -114.334 11.667 -167.001 35s-98.334 55.666 -137.001 96.999s-69.667 90.666 -93 147.999c-22.667 57.333 -33.667 121 -33 191c0 69.333 11 132.666 33 189.999
c22.667 57.333 53.667 107 93 149c38.667 41.333 84.334 73.666 137.001 96.999s108.334 35 167.001 35c50.667 0 98 -9 142 -27c44.667 -18 84.334 -42 119.001 -72c34.667 -30.667 63.667 -66.667 87 -108c23.333 -40.667 40.333 -84.334 51 -131.001h-153
c-8 26 -19.667 50.667 -35 74s-33.666 43.666 -54.999 60.999c-21.333 18 -45 32.333 -71 43c-26.667 10.667 -55 16 -85 16z" />
    <glyph glyph-name="Ccaron" unicode="&#x10c;" horiz-adv-x="1300" 
d="M748 1434h-144l-184 245h153l103 -143l102 143h154zM686 1157c-56 0 -110.67 -12.667 -164.003 -38s-100.333 -60.666 -141 -105.999c-40.667 -46 -73.334 -100.333 -98.001 -163s-37 -131 -37 -205s12.333 -142.333 37 -205s57.334 -116.667 98.001 -162
c40.667 -46 87.667 -81.667 141 -107s108 -38 164 -38c50.667 0 97 8 139 24s79.333 37 112 63c32 26.667 58.667 58 80 94s37.333 74.667 48 116h174c-18 -61.333 -43.333 -118.666 -76 -171.999s-72.667 -100 -120 -140s-100.666 -71.333 -159.999 -94
c-60 -22.667 -125.667 -34 -197 -34c-79.333 0 -155.333 16.667 -228 50c-73.333 33.333 -137.666 79.666 -192.999 138.999s-99.666 128.666 -132.999 207.999s-50 165.333 -50 258c0 91.333 16.667 177 50 257s77.666 149.667 132.999 209
s119.666 105.666 192.999 138.999s149.333 50 228 50c69.333 0 133.333 -11 192 -33c58 -22.667 110 -54.334 156 -95.001c46.667 -40 86.334 -86.667 119.001 -140s58 -110.666 76 -171.999h-174c-10.667 40.667 -26.667 79.334 -48 116.001
c-21.333 36 -47.666 67.333 -78.999 94s-67.333 48 -108 64c-40 15.333 -84.667 23 -134 23z" />
    <glyph glyph-name="ccaron" unicode="&#x10d;" horiz-adv-x="962" 
d="M573 1065h-143l-184 246h153l103 -144l102 144h154zM502 788c-35.333 0 -70 -7.66016 -104 -22.9932c-33.333 -16 -63 -38.333 -89 -67s-46.333 -63 -61 -103c-15.333 -40 -23 -84.667 -23 -134s7.66699 -94 23 -134s35.666 -74.667 60.999 -104
c26 -28.667 55.667 -50.667 89 -66c33.333 -16 68 -24 104 -24c30 0 58.333 5.66699 85 17c26.667 10.667 50.334 25 71.001 43c21.333 18 39.666 38.333 54.999 61c15.333 23.333 27 48 35 74h153c-10.667 -46.667 -27.667 -90.334 -51 -131.001s-52.333 -76.667 -87 -108
c-34.667 -30.667 -74.334 -55 -119.001 -73s-92 -26.667 -142 -26c-58.667 0 -114.334 11.667 -167.001 35s-98.334 55.666 -137.001 96.999s-69.667 90.666 -93 147.999c-22.667 57.333 -33.667 121 -33 191c0 69.333 11 132.666 33 189.999
c22.667 57.333 53.667 107 93 149c38.667 41.333 84.334 73.666 137.001 96.999s108.334 35 167.001 35c50.667 0 98 -9 142 -27c44.667 -18 84.334 -42 119.001 -72c34.667 -30.667 63.667 -66.667 87 -108c23.333 -40.667 40.333 -84.334 51 -131.001h-153
c-8 26 -19.667 50.667 -35 74s-33.666 43.666 -54.999 60.999c-21.333 18 -45 32.333 -71 43c-26.667 10.667 -55 16 -85 16z" />
    <glyph glyph-name="Dcaron" unicode="&#x10e;" horiz-adv-x="1218" 
d="M696 1434h-143l-184 245h153l103 -143l102 143h154zM522 143c58.667 0 115.333 12.668 170 38.001s103 60.666 145 105.999c41.333 45.333 74.333 98 99 158c24.667 60.667 37 127.334 37 200.001c0 70.667 -12.333 137 -37 199
c-24.667 61.333 -57.667 114.666 -99 159.999s-89.666 80.333 -144.999 105c-54.667 25.333 -111.334 38 -170.001 38h-194v-1004h194zM1137 645.001c0 -92.667 -16 -178.335 -48 -257.002s-76.333 -146.667 -133 -204c-56 -57.333 -121 -102.333 -195 -135
c-74.667 -32.667 -154.334 -49 -239.001 -49h-358v1290h358c84.667 0 164.334 -16.333 239.001 -49s139.667 -77.667 195 -135c56 -57.333 100.333 -125.666 133 -204.999c32 -79.333 48 -164.666 48 -255.999z" />
    <glyph glyph-name="dcaron" unicode="&#x10f;" horiz-adv-x="1179" 
d="M1116 1290h146l-123 -246h-95zM799 461c0 49.333 -7.83301 94 -23.5 134s-36.5 74.333 -62.5 103s-56.5 50.834 -91.5 66.501s-71.5 23.5 -109.5 23.5s-74.5 -7.83301 -109.5 -23.5s-65.5 -37.834 -91.5 -66.501s-46.833 -63 -62.5 -103s-23.5 -84.667 -23.5 -134
s7.83301 -94.166 23.5 -134.499s36.5 -74.833 62.5 -103.5s56.5 -50.834 91.5 -66.501s71.5 -23.5 109.5 -23.5s74.5 7.83301 109.5 23.5s65.5 37.834 91.5 66.501s46.833 63.167 62.5 103.5s23.5 85.166 23.5 134.499zM778 102
c-20.667 -22 -43.668 -40.999 -69.001 -56.999c-23.333 -15.333 -52.166 -28.333 -86.499 -39s-74.5 -16 -120.5 -16c-58.667 0 -114.334 11.5 -167.001 34.5s-98.5 55.333 -137.5 97s-69.667 91.167 -92 148.5s-33.5 121 -33.5 191c0 69.333 11.167 132.666 33.5 189.999
s53 106.833 92 148.5s84.833 74.167 137.5 97.5s108.334 35 167.001 35c46.667 0 87 -6.5 121 -19.5s62.667 -27.167 86 -42.5c26 -18 49 -38.333 69 -61v481h154v-1290h-113z" />
    <glyph glyph-name="Dcroat" unicode="&#x110;" horiz-adv-x="1269" 
d="M1188 645c0 -92.667 -16 -178.335 -48 -257.002s-76 -146.667 -132 -204s-121.333 -102.333 -196 -135s-154.334 -49 -239.001 -49h-358v563h-184v144h184v583h358c84.667 0 164.334 -16.333 239.001 -49s140 -77.667 196 -135s100 -125.666 132 -204.999
s48 -164.666 48 -255.999zM573 142.999c58.667 0 115.333 12.668 170 38.001s103 60.666 145 105.999c41.333 45.333 74.333 98 99 158c24.667 60.667 37 127.334 37 200.001c0 70.667 -12.333 137 -37 199c-24.667 61.333 -57.667 114.666 -99 159.999
s-89.666 80.333 -144.999 105c-54.667 25.333 -111.334 38 -170.001 38h-194v-440h246v-144h-246v-420h194z" />
    <glyph glyph-name="dcroat" unicode="&#x111;" horiz-adv-x="1034" 
d="M471 1126l256 0.00195312v164h154v-164h153v-133h-153v-993h-113l-41 102c-18 -22 -39 -41 -63 -57c-22 -15.333 -48.667 -28.333 -80 -39s-69 -16 -113 -16c-56 0 -108.833 10.833 -158.5 32.5s-93 51.667 -130 90s-66.5 83.833 -88.5 136.5s-33 109.667 -33 171
s11 118.333 33 171s51.5 98 88.5 136s80.333 68 130 90s102.5 33 158.5 33c44 0 81.667 -5.83301 113 -17.5s58 -24.834 80 -39.501c24.667 -16.667 45.667 -35.334 63 -56.001v256h-256v133zM215 420.002c0 -40.667 7.16797 -78.5 21.501 -113.5s33.833 -65.5 58.5 -91.5
s53 -46.167 85 -60.5s65.667 -21.5 101 -21.5s69.166 7.16699 101.499 21.5s60.833 34.5 85.5 60.5s44.167 56.333 58.5 91s21.5 72.667 21.5 114c0 40.667 -7.16699 78.5 -21.5 113.5s-33.833 65.5 -58.5 91.5s-53 46.167 -85 60.5s-66 21.5 -102 21.5
c-35.333 0 -69 -7.16699 -101 -21.5s-60.333 -34.5 -85 -60.5s-44.167 -56.5 -58.5 -91.5s-21.5 -72.833 -21.5 -113.5z" />
    <glyph glyph-name="Emacron" unicode="&#x112;" horiz-adv-x="1105" 
d="M819 1485h-491v123h491v-123zM1004 143v-143h-840v1290h819v-143h-655v-410h604v-143h-604v-451h676z" />
    <glyph glyph-name="emacron" unicode="&#x113;" horiz-adv-x="972" 
d="M737 1116h-491v123h491v-123zM881 246c-15.333 -32.667 -34.6709 -64.665 -58.0039 -95.998s-50.666 -58.666 -81.999 -81.999s-66.666 -42.333 -105.999 -57s-83.666 -21.667 -132.999 -21c-58.667 0 -114.334 11.667 -167.001 35s-98.334 55.666 -137.001 96.999
s-69.667 90.666 -93 147.999c-22.667 57.333 -33.667 121 -33 191c0 69.333 11 132.666 33 189.999c22.667 57.333 53.334 107 92.001 149c38 41.333 82.667 73.666 134 96.999s105 35 161 35s108.667 -11 158 -33c50 -22 93.333 -53 130 -93s66 -88.667 88 -146
c22 -56.667 33 -119.667 33 -189c0 -13.333 -0.666992 -25 -2 -35c-1.33301 -9.33301 -2.66602 -17.333 -3.99902 -24l-4 -23h-655c2.66699 -32.667 11.667 -64.667 27 -96c16 -31.333 36 -58.666 60 -81.999s51.667 -42 83 -56c31.333 -14.667 63.333 -22 96 -22
c28.667 0 54.334 4 77.001 12s43 17.667 61 29c18.667 10.667 34 22.667 46 36c12 12.667 22.333 24.667 31 36h164zM491.995 788.002c-31.333 0 -61.334 -6.66699 -90.001 -20c-28 -13.333 -53.333 -31.666 -76 -54.999c-23.333 -23.333 -43 -51.333 -59 -84
s-26.333 -68.334 -31 -107.001h501c-10.667 82 -39 147 -85 195c-45.333 47.333 -98.666 71 -159.999 71z" />
    <glyph glyph-name="Edotaccent" unicode="&#x116;" horiz-adv-x="1105" 
d="M481 1550c0 28.667 9.33301 52.334 28 71.001s41.667 28 69 28c28.667 0 52 -9.33301 70 -28c18.667 -18.667 28 -42.334 28 -71.001c0 -27.333 -9.33301 -50 -28 -68c-18.667 -18.667 -42 -28 -70 -28c-27.333 0 -50.333 9.33301 -69 28c-18.667 18 -28 40.667 -28 68z
M1004 143v-143h-840v1290h819v-143h-655v-410h604v-143h-604v-451h676z" />
    <glyph glyph-name="edotaccent" unicode="&#x117;" horiz-adv-x="972" 
d="M399 1182c0 28.667 9.33301 52 28 70c18.667 18.667 41.667 28 69 28c28.667 0 52 -9.33301 70 -28c18.667 -18.667 28 -42 28 -70c0 -27.333 -9.33301 -50.333 -28 -69s-42 -28 -70 -28c-27.333 0 -50.333 9.33301 -69 28s-28 41.667 -28 69zM881 246
c-15.333 -32.667 -34.6709 -64.665 -58.0039 -95.998s-50.666 -58.666 -81.999 -81.999s-66.666 -42.333 -105.999 -57s-83.666 -21.667 -132.999 -21c-58.667 0 -114.334 11.667 -167.001 35s-98.334 55.666 -137.001 96.999s-69.667 90.666 -93 147.999
c-22.667 57.333 -33.667 121 -33 191c0 69.333 11 132.666 33 189.999c22.667 57.333 53.334 107 92.001 149c38 41.333 82.667 73.666 134 96.999s105 35 161 35s108.667 -11 158 -33c50 -22 93.333 -53 130 -93s66 -88.667 88 -146c22 -56.667 33 -119.667 33 -189
c0 -13.333 -0.666992 -25 -2 -35c-1.33301 -9.33301 -2.66602 -17.333 -3.99902 -24l-4 -23h-655c2.66699 -32.667 11.667 -64.667 27 -96c16 -31.333 36 -58.666 60 -81.999s51.667 -42 83 -56c31.333 -14.667 63.333 -22 96 -22c28.667 0 54.334 4 77.001 12
s43 17.667 61 29c18.667 10.667 34 22.667 46 36c12 12.667 22.333 24.667 31 36h164zM491.995 788.002c-31.333 0 -61.334 -6.66699 -90.001 -20c-28 -13.333 -53.333 -31.666 -76 -54.999c-23.333 -23.333 -43 -51.333 -59 -84s-26.333 -68.334 -31 -107.001h501
c-10.667 82 -39 147 -85 195c-45.333 47.333 -98.666 71 -159.999 71z" />
    <glyph glyph-name="Eogonek" unicode="&#x118;" horiz-adv-x="1105" 
d="M164 0l-0.00195312 1290h819v-143h-655v-410h604v-143h-604v-451h676v-143c-13.333 -16.667 -25.666 -34.334 -36.999 -53.001c-9.33301 -16.667 -17.5 -35.167 -24.5 -55.5s-10.5 -42.166 -10.5 -65.499c0 -26 8.83301 -47.833 26.5 -65.5s39.5 -26.5 65.5 -26.5
c10.667 0 20.5 0.333008 29.5 1s17.5 1.66699 25.5 3s17 3.33301 27 6v-82c-9.33301 -2.66699 -18.333 -4.66699 -27 -6c-8 -1.33301 -16.5 -2.33301 -25.5 -3s-18.833 -1 -29.5 -1c-61.333 0 -109.166 16 -143.499 48s-51.5 74 -51.5 126c0 23.333 3.5 45.166 10.5 65.499
s15.167 38.833 24.5 55.5c10.667 19.333 23 37 37 53h-737z" />
    <glyph glyph-name="eogonek" unicode="&#x119;" horiz-adv-x="972" 
d="M881 246c-12 -28.667 -28.0059 -56.668 -48.0059 -84.001s-43 -52.333 -69 -75s-55.667 -42.5 -89 -59.5s-70.666 -29.5 -111.999 -37.5c-12 -15.333 -22.333 -31 -31 -47c-8 -15.333 -15 -32.833 -21 -52.5s-9 -41.167 -9 -64.5c0 -26 8.83301 -47.833 26.5 -65.5
s39.5 -26.5 65.5 -26.5c10.667 0 20.5 0.333008 29.5 1s17.5 1.66699 25.5 3s17 3.33301 27 6v-82c-9.33301 -2.66699 -18.333 -4.66699 -27 -6c-8 -1.33301 -16.5 -2.33301 -25.5 -3s-18.833 -1 -29.5 -1c-61.333 0 -109.166 16 -143.499 48s-51.5 74 -51.5 126
c0 23.333 3.16699 44.833 9.5 64.5s13.5 37.167 21.5 52.5c8 16.667 18.333 32.334 31 47.001c-52 5.33301 -101.167 20.333 -147.5 45s-87.666 57.5 -123.999 98.5s-65 89 -86 144s-31.5 116.167 -31.5 183.5c0 69.333 11.167 132.666 33.5 189.999
s52.666 106.833 90.999 148.5s83.166 74.167 134.499 97.5s105 35 161 35s108.833 -11 158.5 -33s93 -53.167 130 -93.5s66.333 -88.833 88 -145.5s32.5 -119.667 32.5 -189c0 -13.333 -0.666992 -24.833 -2 -34.5s-2.66602 -17.834 -3.99902 -24.501l-4 -23h-655
c2.66699 -32.667 11.834 -64.667 27.501 -96s35.334 -58.666 59.001 -81.999s51.334 -42.166 83.001 -56.499s63.834 -21.5 96.501 -21.5c28.667 0 54.167 4.16699 76.5 12.5s42.833 17.833 61.5 28.5s34.167 22.5 46.5 35.5s22.5 25.167 30.5 36.5h164zM491.994 787.999
c-31.333 0 -61.166 -6.66699 -89.499 -20s-54 -31.666 -77 -54.999s-42.333 -51.333 -58 -84s-26.167 -68.334 -31.5 -107.001h501c-10.667 82 -38.834 146.833 -84.501 194.5s-99.167 71.5 -160.5 71.5z" />
    <glyph glyph-name="Ecaron" unicode="&#x11a;" horiz-adv-x="1105" 
d="M655 1434h-143l-184 245h153l103 -143l102 143h154zM1004 143v-143h-840v1290h819v-143h-655v-410h604v-143h-604v-451h676z" />
    <glyph glyph-name="ecaron" unicode="&#x11b;" horiz-adv-x="972" 
d="M563 1065h-143l-184 246h153l103 -144l102 144h154zM881 246c-15.333 -32.667 -34.6709 -64.665 -58.0039 -95.998s-50.666 -58.666 -81.999 -81.999s-66.666 -42.333 -105.999 -57s-83.666 -21.667 -132.999 -21c-58.667 0 -114.334 11.667 -167.001 35
s-98.334 55.666 -137.001 96.999s-69.667 90.666 -93 147.999c-22.667 57.333 -33.667 121 -33 191c0 69.333 11 132.666 33 189.999c22.667 57.333 53.334 107 92.001 149c38 41.333 82.667 73.666 134 96.999s105 35 161 35s108.667 -11 158 -33
c50 -22 93.333 -53 130 -93s66 -88.667 88 -146c22 -56.667 33 -119.667 33 -189c0 -13.333 -0.666992 -25 -2 -35c-1.33301 -9.33301 -2.66602 -17.333 -3.99902 -24l-4 -23h-655c2.66699 -32.667 11.667 -64.667 27 -96c16 -31.333 36 -58.666 60 -81.999
s51.667 -42 83 -56c31.333 -14.667 63.333 -22 96 -22c28.667 0 54.334 4 77.001 12s43 17.667 61 29c18.667 10.667 34 22.667 46 36c12 12.667 22.333 24.667 31 36h164zM491.995 788.002c-31.333 0 -61.334 -6.66699 -90.001 -20
c-28 -13.333 -53.333 -31.666 -76 -54.999c-23.333 -23.333 -43 -51.333 -59 -84s-26.333 -68.334 -31 -107.001h501c-10.667 82 -39 147 -85 195c-45.333 47.333 -98.666 71 -159.999 71z" />
    <glyph glyph-name="Gbreve" unicode="&#x11e;" horiz-adv-x="1382" 
d="M696 1434c-66.667 0 -121.667 22 -165 66c-43.333 44.667 -70 97.667 -80 159h122c5.33301 -35.333 19.333 -64.666 42 -87.999s49.667 -35 81 -35s58.333 11.667 81 35s36.667 52.666 42 87.999h123c-10.667 -61.333 -37.667 -114.333 -81 -159
c-43.333 -44 -98.333 -66 -165 -66zM686 1157c-56 0 -110.666 -12.668 -163.999 -38.001s-100.333 -60.666 -141 -105.999c-40.667 -46 -73.334 -100.333 -98.001 -163s-37 -131 -37 -205s12.333 -142.333 37 -205s57.334 -116.667 98.001 -162
c40.667 -46 87.667 -81.667 141 -107s108 -38 164 -38c50.667 0 99.667 10.667 147 32s88.666 49.333 123.999 84c36 34.667 64.667 74 86 118s32 89 32 135h-379v143h543v-645h-123l-41 154c-30 -30 -64 -57.333 -102 -82c-34 -20.667 -75 -39.667 -123 -57
s-102.667 -25.666 -164 -24.999c-79.333 0 -155.333 16.667 -228 50c-73.333 33.333 -137.666 79.666 -192.999 138.999s-99.666 128.666 -132.999 207.999s-50 165.333 -50 258c0 91.333 16.667 177 50 257s77.666 149.667 132.999 209s119.666 105.666 192.999 138.999
s149.333 50 228 50c70.667 0 135.334 -10 194.001 -30c58 -20.667 109.333 -49.667 154 -87c45.333 -37.333 84 -81.666 116 -132.999s58.333 -107.666 79 -168.999h-174c-26 82 -68.333 148.333 -127 199c-58.667 51.333 -139.334 77 -242.001 77z" />
    <glyph glyph-name="gbreve" unicode="&#x11f;" horiz-adv-x="1034" 
d="M502 1065c-66.667 0 -121.667 22.332 -165 66.999s-70.333 97.334 -81 158.001h123c5.33301 -35.333 19.333 -64.666 42 -87.999s49.667 -35 81 -35s58.333 11.667 81 35s36.667 52.666 42 87.999h123c-10.667 -61.333 -37.667 -114 -81 -158
c-43.333 -44.667 -98.333 -67 -165 -67zM758 153.999c-18 -23.333 -39.3359 -43.998 -64.0029 -61.998c-22 -15.333 -49.667 -29.333 -83 -42s-73 -19 -119 -19c-58.667 0 -113.667 10.667 -165 32c-51.333 22 -95.666 53 -132.999 93
c-37.333 39.333 -67.333 86.666 -90 141.999c-22 55.333 -32.667 116.333 -32 183c0 66.667 10.667 128 32 184c22 55.333 52 102.666 90 141.999c37.333 39.333 81.666 70 132.999 92s106.333 33 165 33c46.667 0 86.334 -6 119.001 -18
c33.333 -11.333 61 -24.666 83 -39.999c24.667 -16.667 46 -35 64 -55l41 103h112v-891c0 -53.333 -9.66699 -103.333 -29 -150c-20 -46.667 -47.667 -87 -83 -121s-78.333 -60.333 -129 -79c-50.667 -19.333 -106.667 -29 -168 -29c-53.333 0 -101.333 7 -144 21
c-42 14.667 -78.667 34.667 -110 60s-57.666 54.666 -78.999 87.999s-36.666 69 -45.999 107h153c15.333 -35.333 40 -66.333 74 -93s84.667 -40 152 -40c78 0 140 22.667 186 68c46.667 45.333 70 101.333 70 168v123zM224.997 481.001
c0 -46.667 7.33203 -88.665 21.999 -125.998s34.334 -69.333 59.001 -96c25.333 -26.667 54.666 -47.334 87.999 -62.001c33.333 -15.333 69.333 -23 108 -23c38 0 73.667 7.66699 107 23s62.666 36 87.999 62c25.333 26.667 45.333 58.667 60 96s21.667 79.333 21 126
c0 46.667 -7 88.667 -21 126c-14.667 37.333 -34.667 69.333 -60 96s-54.666 47.667 -87.999 63s-69 22.666 -107 21.999c-38 0 -74 -7.33301 -108 -22c-33.333 -15.333 -62.666 -36.333 -87.999 -63s-45 -58.667 -59 -96c-14.667 -37.333 -22 -79.333 -22 -126z" />
    <glyph glyph-name="uni0122" unicode="&#x122;" horiz-adv-x="1382" 
d="M584 -236c0 28.667 9.66797 53 29.001 73c20 20 44.333 30 73 30s53 -10 73 -30s29.667 -44.333 29 -73c0 -49.333 -8 -92 -24 -128c-16.667 -36 -34.334 -65.667 -53.001 -89c-23.333 -27.333 -48.666 -50.333 -75.999 -69l-31 41c13.333 12 25.666 25.667 36.999 41
c9.33301 12 18.666 27 27.999 45c8.66699 18 14.334 37 17.001 57c-28.667 0 -53 10 -73 30c-19.333 19.333 -29 43.333 -29 72zM686.001 1157c-56 0 -110.666 -12.668 -163.999 -38.001s-100.333 -60.666 -141 -105.999c-40.667 -46 -73.334 -100.333 -98.001 -163
s-37 -131 -37 -205s12.333 -142.333 37 -205s57.334 -116.667 98.001 -162c40.667 -46 87.667 -81.667 141 -107s108 -38 164 -38c50.667 0 99.667 10.667 147 32s88.666 49.333 123.999 84c36 34.667 64.667 74 86 118s32 89 32 135h-379v143h543v-645h-123l-41 154
c-30 -30 -64 -57.333 -102 -82c-34 -20.667 -75 -39.667 -123 -57s-102.667 -25.666 -164 -24.999c-79.333 0 -155.333 16.667 -228 50c-73.333 33.333 -137.666 79.666 -192.999 138.999s-99.666 128.666 -132.999 207.999s-50 165.333 -50 258c0 91.333 16.667 177 50 257
s77.666 149.667 132.999 209s119.666 105.666 192.999 138.999s149.333 50 228 50c70.667 0 135.334 -10 194.001 -30c58 -20.667 109.333 -49.667 154 -87c45.333 -37.333 84 -81.666 116 -132.999s58.333 -107.666 79 -168.999h-174c-26 82 -68.333 148.333 -127 199
c-58.667 51.333 -139.334 77 -242.001 77z" />
    <glyph glyph-name="uni0123" unicode="&#x123;" horiz-adv-x="1034" 
d="M625 1167c0 -28.667 -10 -52.834 -30 -72.501s-44.333 -29.5 -73 -29.5s-52.834 9.83301 -72.501 29.5s-29.5 43.834 -29.5 72.501c0 48 7.83301 90.5 23.5 127.5s33.167 66.833 52.5 89.5c23.333 27.333 49 50.666 77 69.999l31 -41
c-13.333 -12 -25.666 -25.667 -36.999 -41c-9.33301 -13.333 -18.5 -28.666 -27.5 -45.999s-14.833 -36 -17.5 -56c28.667 0 53 -10 73 -30s30 -44.333 30 -73zM758 154c-18 -23.333 -39.3359 -44.002 -64.0029 -62.002c-22 -15.333 -49.667 -29.333 -83 -42
s-73 -19 -119 -19c-58.667 0 -113.667 10.833 -165 32.5s-95.833 52.334 -133.5 92.001s-67.334 87.167 -89.001 142.5s-32.5 116.333 -32.5 183s10.833 127.834 32.5 183.501s51.334 103.167 89.001 142.5s82 70 133 92s106.167 33 165.5 33
c46.667 0 86.667 -5.83301 120 -17.5s60.666 -25.167 81.999 -40.5c24.667 -16.667 46 -35 64 -55l41 103h112v-891c0 -53.333 -9.83301 -103.166 -29.5 -149.499s-47.334 -86.666 -83.001 -120.999s-78.667 -61 -129 -80s-106.166 -28.5 -167.499 -28.5
c-53.333 0 -101.166 7.16699 -143.499 21.5s-79.166 34.166 -110.499 59.499s-57.666 54.666 -78.999 87.999s-36.666 69 -45.999 107h153c15.333 -35.333 40 -66.333 74 -93s84.667 -40 152 -40c78 0 140.167 22.5 186.5 67.5s69.5 101.167 69.5 168.5v123z
M224.997 480.998c0 -46.667 7.16797 -88.668 21.501 -126.001s34.166 -69.333 59.499 -96s54.666 -47.5 87.999 -62.5s69.333 -22.5 108 -22.5c38 0 73.667 7.5 107 22.5s62.666 35.833 87.999 62.5s45.166 58.834 59.499 96.501s21.5 79.5 21.5 125.5
c0 46.667 -7.16699 88.834 -21.5 126.501s-34.166 69.667 -59.499 96s-54.666 47 -87.999 62s-69 22.5 -107 22.5s-73.833 -7.5 -107.5 -22.5s-63.167 -35.667 -88.5 -62s-45.166 -58.333 -59.499 -96s-21.5 -79.834 -21.5 -126.501z" />
    <glyph glyph-name="Imacron" unicode="&#x12a;" horiz-adv-x="491" 
d="M492 1475h-492v122h492v-122zM328 0h-164v1290h164v-1290z" />
    <glyph glyph-name="imacron" unicode="&#x12b;" horiz-adv-x="419" 
d="M451 1116h-492v123h492v-123zM287 0h-154v922h154v-922z" />
    <glyph glyph-name="Iogonek" unicode="&#x12e;" horiz-adv-x="491" 
d="M164 1290l163.998 0.000976562v-1290h-62c-13.333 -16.667 -25.666 -34.334 -36.999 -53.001c-9.33301 -16.667 -17.333 -35.167 -24 -55.5s-10 -42.166 -10 -65.499c0 -26 8.83301 -47.833 26.5 -65.5s39.5 -26.5 65.5 -26.5c10.667 0 20.5 0.333008 29.5 1
s17.5 1.66699 25.5 3s17 3.33301 27 6v-82c-9.33301 -2.66699 -18.333 -4.66699 -27 -6c-8 -1.33301 -16.5 -2.33301 -25.5 -3s-18.833 -1 -29.5 -1c-61.333 0 -109.166 16 -143.499 48s-51.5 74 -51.5 126c0 23.333 3.5 45.166 10.5 65.499s15.167 38.833 24.5 55.5
c10.667 19.333 23 37 37 53v1290z" />
    <glyph glyph-name="iogonek" unicode="&#x12f;" horiz-adv-x="419" 
d="M246 0c-13.333 -16.667 -25.6689 -34.332 -37.002 -52.999c-9.33301 -16.667 -17.666 -35.334 -24.999 -56.001c-6.66699 -20.667 -10 -42.334 -10 -65.001c0 -26 9 -48 27 -66s39.667 -26.667 65 -26c10.667 0 20.667 0.333008 30 1
c8.66699 0.666992 17.334 1.66699 26.001 3c8 1.33301 16.667 3.33301 26 6v-82c-9.33301 -2.66699 -18 -4.66699 -26 -6s-16.667 -2.33301 -26 -3c-8.66699 -0.666992 -18.667 -1 -30 -1c-61.333 0 -109 16 -143 48s-51 74 -51 126c0 23.333 3.33301 45 10 65
c6.66699 20.667 14.667 39.334 24 56.001c10.667 19.333 23 37 37 53h103zM286.997 0.00195312h-154v922h154v-922zM112.997 1182c0 28.667 9 52 27 70c18.667 18.667 41.667 28 69 28c28.667 0 52.334 -9.33301 71.001 -28s27.667 -42 27 -70c0 -27.333 -9 -50.333 -27 -69
c-18.667 -18.667 -42.334 -28 -71.001 -28c-27.333 0 -50.333 9.33301 -69 28c-18 18.667 -27 41.667 -27 69z" />
    <glyph glyph-name="Idotaccent" unicode="&#x130;" horiz-adv-x="491" 
d="M154 1550c0 28.667 9 52.334 27 71.001c18.667 18.667 41.667 28 69 28c28.667 0 52.334 -9.33301 71.001 -28s27.667 -42.334 27 -71.001c0 -27.333 -9 -50 -27 -68c-18.667 -18.667 -42.334 -28 -71.001 -28c-27.333 0 -50.333 9.33301 -69 28
c-18 18 -27 40.667 -27 68zM328 0h-164v1290h164v-1290z" />
    <glyph glyph-name="dotlessi" unicode="&#x131;" horiz-adv-x="419" 
d="M287 0h-154v922h154v-922z" />
    <glyph glyph-name="ij" unicode="&#x133;" horiz-adv-x="890" 
d="M604 31c-12 -8 -27.666 -15 -46.999 -21c-16.667 -5.33301 -37.167 -10 -61.5 -14s-52.833 -6 -85.5 -6c-38 0 -73.833 7.16699 -107.5 21.5s-63.167 34.833 -88.5 61.5s-45.166 58 -59.499 94s-21.5 76 -21.5 120v635h154v-635c0 -40.667 15.667 -76.5 47 -107.5
s70.333 -46.5 117 -46.5c23.333 0 44.166 2 62.499 6s34.166 9 47.499 15c15.333 5.33301 29.666 12 42.999 20v748h154v-953c0 -46.667 -7.16699 -88.667 -21.5 -126s-33.833 -69.333 -58.5 -96s-53 -47.5 -85 -62.5s-65.667 -22.5 -101 -22.5
c-30 0 -53.333 3.33301 -70 10c-9.33301 2.66699 -17 6.33398 -23 11.001v133c4 -2.66699 9 -4.66699 15 -6c10.667 -2.66699 23 -4.33398 37 -5.00098c46.667 0 83.834 14.333 111.501 43s41.5 69 41.5 121v62zM584.001 1182c0 28.667 9.16699 52.167 27.5 70.5
s41.166 27.5 68.499 27.5c28.667 0 52.167 -9.16699 70.5 -27.5s27.5 -41.833 27.5 -70.5c0 -27.333 -9.16699 -50.333 -27.5 -69s-41.833 -28 -70.5 -28c-27.333 0 -50.166 9.33301 -68.499 28s-27.5 41.667 -27.5 69zM113.001 1182c0 28.667 9.16699 52.167 27.5 70.5
s41.166 27.5 68.499 27.5c28.667 0 52.167 -9.16699 70.5 -27.5s27.5 -41.833 27.5 -70.5c0 -27.333 -9.16699 -50.333 -27.5 -69s-41.833 -28 -70.5 -28c-27.333 0 -50.166 9.33301 -68.499 28s-27.5 41.667 -27.5 69z" />
    <glyph glyph-name="uni0136" unicode="&#x136;" horiz-adv-x="1054" 
d="M461 -236c0 28.667 9.66797 53 29.001 73c20 20 44.333 30 73 30s53 -10 73 -30s30 -44.333 30 -73c0 -49.333 -8.33301 -92 -25 -128s-34.334 -65.667 -53.001 -89c-23.333 -27.333 -48.666 -50.333 -75.999 -69l-31 41c13.333 12 25.666 25.667 36.999 41
c9.33301 12 18.666 27 27.999 45c8.66699 18 14.334 37 17.001 57c-28.667 0 -53 10 -73 30c-19.333 19.333 -29 43.333 -29 72zM328.001 0h-164v1290h164v-1290zM328.001 655l501 635h195l-512 -635l553 -655h-195z" />
    <glyph glyph-name="uni0137" unicode="&#x137;" horiz-adv-x="860" 
d="M369 -236c0 28.667 9.66797 53 29.001 73c20 20 44.333 30 73 30s53 -10 73 -30s29.667 -44.333 29 -73c0 -49.333 -8 -92 -24 -128c-16.667 -36 -34.334 -65.667 -53.001 -89c-23.333 -27.333 -48.666 -50.333 -75.999 -69l-31 41c13.333 12 25.666 25.667 36.999 41
c9.33301 12 18.666 27 27.999 45c8.66699 18 14.334 37 17.001 57c-28.667 0 -53 10 -73 30c-19.333 19.333 -29 43.333 -29 72zM297.001 0h-154v1290h154v-1290zM686.001 0l-389 481l348 441h174l-348 -430l399 -492h-184z" />
    <glyph glyph-name="Lacute" unicode="&#x139;" horiz-adv-x="962" 
d="M307 1690h154l-174 -246h-103zM942 143v-143h-778v1290h164v-1147h614z" />
    <glyph glyph-name="lacute" unicode="&#x13a;" horiz-adv-x="440" 
d="M287 1690h153l-174 -246h-102zM297 0h-154v1290h154v-1290z" />
    <glyph glyph-name="uni013B" unicode="&#x13b;" horiz-adv-x="962" 
d="M461 -236c0 28.667 9.66797 53 29.001 73c20 20 44.333 30 73 30s53 -10 73 -30s30 -44.333 30 -73c0 -49.333 -8.33301 -92 -25 -128s-34.334 -65.667 -53.001 -89c-23.333 -27.333 -48.666 -50.333 -75.999 -69l-31 41c13.333 12 25.666 25.667 36.999 41
c9.33301 12 18.666 27 27.999 45c8.66699 18 14.334 37 17.001 57c-28.667 0 -53 10 -73 30c-19.333 19.333 -29 43.333 -29 72zM942.001 143v-143h-778v1290h164v-1147h614z" />
    <glyph glyph-name="uni013C" unicode="&#x13c;" horiz-adv-x="440" 
d="M113 -236c0 28.667 9.66797 53 29.001 73c20 20 44.333 30 73 30s53 -10 73 -30s29.667 -44.333 29 -73c0 -49.333 -8 -92 -24 -128c-16.667 -36 -34.334 -65.667 -53.001 -89c-23.333 -27.333 -48.666 -50.333 -75.999 -69l-31 41c13.333 12 25.666 25.667 36.999 41
c9.33301 12 18.666 27 27.999 45c8.66699 18 14.334 37 17.001 57c-28.667 0 -53 10 -73 30c-19.333 19.333 -29 43.333 -29 72zM297.001 0h-154v1290h154v-1290z" />
    <glyph glyph-name="Lcaron" unicode="&#x13d;" horiz-adv-x="962" 
d="M532 1290h144l-123 -246h-92zM942 143v-143h-778v1290h164v-1147h614z" />
    <glyph glyph-name="lcaron" unicode="&#x13e;" horiz-adv-x="532" 
d="M481 1290h144l-123 -246h-92zM297 0h-154v1290h154v-1290z" />
    <glyph glyph-name="Lslash" unicode="&#x141;" horiz-adv-x="993" 
d="M973 143v-143h-778v399l-144 -92v164l144 92v727h163v-624l308 204v-163l-308 -205v-359h615z" />
    <glyph glyph-name="lslash" unicode="&#x142;" horiz-adv-x="512" 
d="M328 631v-631h-154v530l-154 -100v154l154 100v606h154v-506l164 107v-154z" />
    <glyph glyph-name="Nacute" unicode="&#x143;" horiz-adv-x="1280" 
d="M707 1690h153l-174 -246h-102zM1116 1290v-1290h-143l-645 973v-973h-164v1290h143l645 -973v973h164z" />
    <glyph glyph-name="nacute" unicode="&#x144;" horiz-adv-x="1034" 
d="M594 1321h154l-175 -246h-102zM553 932c49.333 0 95.335 -9.99902 138.002 -29.999c43.333 -20 81.333 -47.333 114 -82s58.667 -76.667 78 -126s28.666 -103.333 27.999 -162v-532h-153v532c0 38 -6.33301 73 -19 105c-12 31.333 -28.333 58.333 -49 81
s-44.667 40 -72 52s-56 18 -86 18c-72.667 0 -131.667 -23 -177 -69c-46 -46.667 -68.667 -109 -68 -187v-532h-154v922h113l41 -103c19.333 20.667 41.666 39 66.999 55c23.333 15.333 51.333 28.666 84 39.999c32.667 12 71 18 115 18z" />
    <glyph glyph-name="uni0145" unicode="&#x145;" horiz-adv-x="1280" 
d="M532 -236c0 28.667 10.001 53 30.001 73s44.333 30 73 30s53 -10 73 -30s29.667 -44.333 29 -73c0 -49.333 -8 -92 -24 -128c-16.667 -36 -34.667 -65.667 -54 -89c-23.333 -27.333 -48.333 -50.333 -75 -69l-31 41c13.333 12 25.666 25.667 36.999 41
c9.33301 12 18.333 27 27 45s14.667 37 18 57c-28.667 0 -53 10 -73 30c-20 19.333 -30 43.333 -30 72zM1116 1290v-1290h-143l-645 973v-973h-164v1290h143l645 -973v973h164z" />
    <glyph glyph-name="uni0146" unicode="&#x146;" horiz-adv-x="1034" 
d="M420 -236c0 28.667 10.001 53 30.001 73s44 30 72 30c28.667 0 53 -10 73 -30s30 -44.333 30 -73c0 -49.333 -8.33301 -92 -25 -128s-34.334 -65.667 -53.001 -89c-23.333 -27.333 -48.666 -50.333 -75.999 -69l-31 41c13.333 12 25.666 25.667 36.999 41
c9.33301 12 18.666 27 27.999 45c8.66699 18 14.334 37 17.001 57c-28.667 0 -52.667 10 -72 30c-20 19.333 -30 43.333 -30 72zM553.001 932c49.333 0 95.335 -9.99902 138.002 -29.999c43.333 -20 81.333 -47.333 114 -82s58.667 -76.667 78 -126
s28.666 -103.333 27.999 -162v-532h-153v532c0 38 -6.33301 73 -19 105c-12 31.333 -28.333 58.333 -49 81s-44.667 40 -72 52s-56 18 -86 18c-72.667 0 -131.667 -23 -177 -69c-46 -46.667 -68.667 -109 -68 -187v-532h-154v922h113l41 -103
c19.333 20.667 41.666 39 66.999 55c23.333 15.333 51.333 28.666 84 39.999c32.667 12 71 18 115 18z" />
    <glyph glyph-name="Ncaron" unicode="&#x147;" horiz-adv-x="1280" 
d="M707 1434h-144l-184 245h153l103 -143l102 143h154zM1116 1290v-1290h-143l-645 973v-973h-164v1290h143l645 -973v973h164z" />
    <glyph glyph-name="ncaron" unicode="&#x148;" horiz-adv-x="1034" 
d="M594 1065h-143l-185 246h154l102 -144l103 144h153zM553 932c49.333 0 95.335 -9.99902 138.002 -29.999c43.333 -20 81.333 -47.333 114 -82s58.667 -76.667 78 -126s28.666 -103.333 27.999 -162v-532h-153v532c0 38 -6.33301 73 -19 105
c-12 31.333 -28.333 58.333 -49 81s-44.667 40 -72 52s-56 18 -86 18c-72.667 0 -131.667 -23 -177 -69c-46 -46.667 -68.667 -109 -68 -187v-532h-154v922h113l41 -103c19.333 20.667 41.666 39 66.999 55c23.333 15.333 51.333 28.666 84 39.999c32.667 12 71 18 115 18z
" />
    <glyph glyph-name="Omacron" unicode="&#x14c;" horiz-adv-x="1351" 
d="M922 1475h-492v122h492v-122zM236 645c0 -74 12 -142.334 36 -205.001c24.667 -62.667 57.667 -116.667 99 -162c40.667 -46 87.667 -81.667 141 -107s108 -38 164 -38s110.667 12.667 164 38s100.333 61 141 107s73.334 100 98.001 162c24.667 62.667 37 131 37 205
s-12.333 142.333 -37 205s-57.334 117 -98.001 163s-87.667 81.333 -141 106c-53.333 25.333 -108 38 -164 38s-110.667 -12.667 -164 -38s-100.333 -60.666 -141 -105.999c-40.667 -46 -73.667 -100.333 -99 -163c-24 -62.667 -36 -131 -36 -205zM1280 644.999
c0 -92.667 -16.667 -178.667 -50 -258s-77.666 -148.666 -132.999 -207.999s-119.666 -105.666 -192.999 -138.999s-149.333 -50 -228 -50c-79.333 0 -155.666 16.667 -228.999 50s-137.333 79.666 -192 138.999c-55.333 59.333 -99.666 128.666 -132.999 207.999
s-50 165.333 -50 258c0 91.333 16.667 177 50 257s77.666 149.667 132.999 209s119.333 105.666 192 138.999c73.333 33.333 149.666 50 228.999 50s155.333 -16.667 228 -50c73.333 -33.333 137.666 -79.666 192.999 -138.999s99.666 -129 132.999 -209
s50 -165.667 50 -257z" />
    <glyph glyph-name="omacron" unicode="&#x14d;" 
d="M748 1116h-492v123h492v-123zM225 461c0 -49.333 7.66797 -94.001 23.001 -134.001s35.666 -74.667 60.999 -104c26 -28.667 55.667 -50.667 89 -66c33.333 -16 68 -24 104 -24c35.333 0 69.666 8 102.999 24s62.666 38 87.999 66c25.333 28.667 46 63.334 62 104.001
c16 40 23.667 84.667 23 134c0 49.333 -7.66699 94 -23 134c-16 40 -36.667 74.333 -62 103s-54.666 51 -87.999 67s-67.666 23.667 -102.999 23c-35.333 0 -70 -7.66699 -104 -23c-33.333 -16 -63 -38.333 -89 -67s-46.333 -63 -61 -103c-15.333 -40 -23 -84.667 -23 -134z
M932.001 460.999c0 -69.333 -11.333 -133 -34 -191c-22.667 -57.333 -53.334 -106.666 -92.001 -147.999s-84.334 -73.666 -137.001 -96.999s-108.334 -35 -167.001 -35s-114.334 11.667 -167.001 35s-98.334 55.666 -137.001 96.999s-69.667 90.666 -93 147.999
c-22.667 57.333 -33.667 121 -33 191c0 69.333 11 132.666 33 189.999c22.667 57.333 53.667 107 93 149c38.667 41.333 84.334 73.666 137.001 96.999s108.334 35 167.001 35s114.334 -11.667 167.001 -35s98.334 -55.666 137.001 -96.999s69.334 -91 92.001 -149
c22.667 -57.333 34 -120.666 34 -189.999z" />
    <glyph glyph-name="Ohungarumlaut" unicode="&#x150;" horiz-adv-x="1351" 
d="M614 1690h154l-184 -246h-103zM901 1690h154l-185 -246h-102zM236 645c0 -74 12 -142.334 36 -205.001c24.667 -62.667 57.667 -116.667 99 -162c40.667 -46 87.667 -81.667 141 -107s108 -38 164 -38s110.667 12.667 164 38s100.333 61 141 107s73.334 100 98.001 162
c24.667 62.667 37 131 37 205s-12.333 142.333 -37 205s-57.334 117 -98.001 163s-87.667 81.333 -141 106c-53.333 25.333 -108 38 -164 38s-110.667 -12.667 -164 -38s-100.333 -60.666 -141 -105.999c-40.667 -46 -73.667 -100.333 -99 -163
c-24 -62.667 -36 -131 -36 -205zM1280 644.999c0 -92.667 -16.667 -178.667 -50 -258s-77.666 -148.666 -132.999 -207.999s-119.666 -105.666 -192.999 -138.999s-149.333 -50 -228 -50c-79.333 0 -155.666 16.667 -228.999 50s-137.333 79.666 -192 138.999
c-55.333 59.333 -99.666 128.666 -132.999 207.999s-50 165.333 -50 258c0 91.333 16.667 177 50 257s77.666 149.667 132.999 209s119.333 105.666 192 138.999c73.333 33.333 149.666 50 228.999 50s155.333 -16.667 228 -50
c73.333 -33.333 137.666 -79.666 192.999 -138.999s99.666 -129 132.999 -209s50 -165.667 50 -257z" />
    <glyph glyph-name="ohungarumlaut" unicode="&#x151;" 
d="M430 1311h154l-185 -246h-102zM717 1311h153l-184 -246h-102zM225 461c0 -49.333 7.66797 -94.001 23.001 -134.001s35.666 -74.667 60.999 -104c26 -28.667 55.667 -50.667 89 -66c33.333 -16 68 -24 104 -24c35.333 0 69.666 8 102.999 24s62.666 38 87.999 66
c25.333 28.667 46 63.334 62 104.001c16 40 23.667 84.667 23 134c0 49.333 -7.66699 94 -23 134c-16 40 -36.667 74.333 -62 103s-54.666 51 -87.999 67s-67.666 23.667 -102.999 23c-35.333 0 -70 -7.66699 -104 -23c-33.333 -16 -63 -38.333 -89 -67
s-46.333 -63 -61 -103c-15.333 -40 -23 -84.667 -23 -134zM932.001 460.999c0 -69.333 -11.333 -133 -34 -191c-22.667 -57.333 -53.334 -106.666 -92.001 -147.999s-84.334 -73.666 -137.001 -96.999s-108.334 -35 -167.001 -35s-114.334 11.667 -167.001 35
s-98.334 55.666 -137.001 96.999s-69.667 90.666 -93 147.999c-22.667 57.333 -33.667 121 -33 191c0 69.333 11 132.666 33 189.999c22.667 57.333 53.667 107 93 149c38.667 41.333 84.334 73.666 137.001 96.999s108.334 35 167.001 35s114.334 -11.667 167.001 -35
s98.334 -55.666 137.001 -96.999s69.334 -91 92.001 -149c22.667 -57.333 34 -120.666 34 -189.999z" />
    <glyph glyph-name="OE" unicode="&#x152;" horiz-adv-x="1720" 
d="M1608 143l0.000976562 -143h-922c-80.667 0 -157.167 16.667 -229.5 50s-136.5 79 -192.5 137s-100.333 126.333 -133 205s-49 163 -49 253s16.667 174 50 252s77.666 146.333 132.999 205s119.5 104.667 192.5 138s149.167 50 228.5 50h901v-143h-583v-410h532v-143
h-532v-451h604zM246.001 645c0 -72.667 12.167 -139.332 36.5 -199.999s57 -113.5 98 -158.5s88.167 -80.167 141.5 -105.5s108 -38 164 -38h154v1004h-154c-56 0 -110.667 -12.667 -164 -38s-100.5 -60.5 -141.5 -105.5s-73.667 -98.333 -98 -160
s-36.5 -127.834 -36.5 -198.501z" />
    <glyph glyph-name="oe" unicode="&#x153;" horiz-adv-x="1617" 
d="M492 932c57.333 0 106.667 -10.334 148 -31.001s76.333 -43 105 -67c32.667 -28.667 60.667 -61 84 -97c22 35.333 48.667 67.666 80 96.999c27.333 24.667 61.166 47.167 101.499 67.5s89.166 30.5 146.499 30.5c53.333 0 103.833 -10.667 151.5 -32
s89 -51.666 124 -90.999s62.667 -87.666 83 -144.999s30.5 -121.666 30.5 -192.999c0 -13.333 -0.666992 -24.833 -2 -34.5s-2.66602 -17.834 -3.99902 -24.501l-4 -23h-614c2.66699 -35.333 11.167 -68.666 25.5 -99.999s32.666 -58.666 54.999 -81.999
s47.5 -41.5 75.5 -54.5s57.667 -19.5 89 -19.5c52 0 93.667 12.333 125 37s54.666 50 69.999 76h164c-12 -32.667 -29 -64.834 -51 -96.501s-48 -59 -78 -82s-64.167 -41.667 -102.5 -56s-80.833 -21.5 -127.5 -21.5c-57.333 0 -107.166 9.83301 -149.499 29.5
s-77.166 41.834 -104.499 66.501c-34 28.667 -62 61.334 -84 98.001c-23.333 -36.667 -51.333 -69.334 -84 -98.001c-28.667 -24.667 -63.667 -46.834 -105 -66.501s-90.666 -29.5 -147.999 -29.5c-56 0 -109.667 11.5 -161 34.5s-96.166 55.333 -134.499 97
s-68.666 91.167 -90.999 148.5s-33.5 121 -33.5 191c0 69.333 11.167 132.666 33.5 189.999s52.666 106.833 90.999 148.5s83.166 74.167 134.499 97.5s105 35 161 35zM225.001 460.999c0 -49.333 7.49902 -94.166 22.499 -134.499s35.167 -74.833 60.5 -103.5
s54 -50.834 86 -66.501s64.667 -23.5 98 -23.5c32.667 0 65 7.83301 97 23.5s60.667 37.834 86 66.501s45.5 63.167 60.5 103.5s22.5 85.166 22.5 134.499s-7.5 94 -22.5 134s-35.167 74.333 -60.5 103s-54 50.834 -86 66.501s-64.333 23.5 -97 23.5
s-65.167 -7.83301 -97.5 -23.5s-61.166 -37.834 -86.499 -66.501s-45.5 -63 -60.5 -103s-22.5 -84.667 -22.5 -134zM1157 787.999c-28.667 0 -56.332 -6.66699 -82.999 -20s-50.834 -31.666 -72.501 -54.999s-39.667 -51.333 -54 -84s-22.833 -68.334 -25.5 -107.001h460
c-5.33301 82 -29.833 146.833 -73.5 194.5s-94.167 71.5 -151.5 71.5z" />
    <glyph glyph-name="Racute" unicode="&#x154;" horiz-adv-x="1136" 
d="M635 1690h153l-174 -246h-102zM573 532h-245.001v-532h-164v1290h481c53.333 0 104 -10 152 -30c48 -20.667 89.333 -48 124 -82s62.334 -74.333 83.001 -121s30.667 -95.334 30 -146.001c0 -75.333 -15 -136.333 -45 -183c-30 -47.333 -62.667 -84.666 -98 -111.999
c-42 -32.667 -89 -57 -141 -73l315 -543h-184zM327.999 676l317 -0.00195312c30 0 58.667 6 86 18s51.333 28.667 72 50s37 46.333 49 75s18 59.334 18 92.001s-6 63.667 -18 93c-12 28.667 -28.333 53.334 -49 74.001c-20.667 21.333 -44.667 38 -72 50s-56 18.333 -86 19
h-317v-471z" />
    <glyph glyph-name="racute" unicode="&#x155;" horiz-adv-x="614" 
d="M420 1311h153l-174 -246h-102zM573 778l-40.999 0.000976562c-72.667 0 -131.667 -23 -177 -69c-46 -46.667 -68.667 -109 -68 -187v-522h-154v922h113l41 -103c19.333 20.667 41.666 39 66.999 55c23.333 15.333 51.333 28.666 84 39.999s71 17.333 115 18h20v-154z" />
    <glyph glyph-name="uni0156" unicode="&#x156;" horiz-adv-x="1136" 
d="M481 -217c0 28.667 10 52.999 30 72.999s44.333 29.667 73 29c28.667 0 52.667 -9.66699 72 -29c20 -20 30 -44.333 30 -73c0 -49.333 -8 -92 -24 -128c-16.667 -36 -34.667 -65.667 -54 -89c-23.333 -27.333 -48.666 -50.666 -75.999 -69.999l-30 41
c13.333 12 25.666 25.667 36.999 41c9.33301 12 18.333 27 27 45s14.667 37.333 18 58c-28.667 0 -53 9.66699 -73 29c-20 20 -30 44.333 -30 73zM573 531.999h-245.001v-532h-164v1290h481c53.333 0 104 -10 152 -30c48 -20.667 89.333 -48 124 -82
s62.334 -74.333 83.001 -121s30.667 -95.334 30 -146.001c0 -75.333 -15 -136.333 -45 -183c-30 -47.333 -62.667 -84.666 -98 -111.999c-42 -32.667 -89 -57 -141 -73l315 -543h-184zM327.999 675.999l317 -0.00195312c30 0 58.667 6 86 18s51.333 28.667 72 50
s37 46.333 49 75s18 59.334 18 92.001s-6 63.667 -18 93c-12 28.667 -28.333 53.334 -49 74.001c-20.667 21.333 -44.667 38 -72 50s-56 18.333 -86 19h-317v-471z" />
    <glyph glyph-name="uni0157" unicode="&#x157;" horiz-adv-x="614" 
d="M113 -236c0 28.667 9.66797 53 29.001 73c20 20 44.333 30 73 30s53 -10 73 -30s29.667 -44.333 29 -73c0 -49.333 -8 -92 -24 -128c-16.667 -36 -34.334 -65.667 -53.001 -89c-23.333 -27.333 -48.666 -50.333 -75.999 -69l-31 41c13.333 12 25.666 25.667 36.999 41
c9.33301 12 18.666 27 27.999 45c8.66699 18 14.334 37 17.001 57c-28.667 0 -53 10 -73 30c-19.333 19.333 -29 43.333 -29 72zM573.001 778l-40.999 0.000976562c-72.667 0 -131.667 -23 -177 -69c-46 -46.667 -68.667 -109 -68 -187v-522h-154v922h113l41 -103
c19.333 20.667 41.666 39 66.999 55c23.333 15.333 51.333 28.666 84 39.999s71 17.333 115 18h20v-154z" />
    <glyph glyph-name="Rcaron" unicode="&#x158;" horiz-adv-x="1136" 
d="M645 1434h-143l-185 245h154l102 -143l103 143h153zM573 532h-245.001v-532h-164v1290h481c53.333 0 104 -10 152 -30c48 -20.667 89.333 -48 124 -82s62.334 -74.333 83.001 -121s30.667 -95.334 30 -146.001c0 -75.333 -15 -136.333 -45 -183
c-30 -47.333 -62.667 -84.666 -98 -111.999c-42 -32.667 -89 -57 -141 -73l315 -543h-184zM327.999 676l317 -0.00195312c30 0 58.667 6 86 18s51.333 28.667 72 50s37 46.333 49 75s18 59.334 18 92.001s-6 63.667 -18 93c-12 28.667 -28.333 53.334 -49 74.001
c-20.667 21.333 -44.667 38 -72 50s-56 18.333 -86 19h-317v-471z" />
    <glyph glyph-name="rcaron" unicode="&#x159;" horiz-adv-x="614" 
d="M430 1065h-143l-185 246h154l102 -144l103 144h153zM573 778l-40.999 0.000976562c-72.667 0 -131.667 -23 -177 -69c-46 -46.667 -68.667 -109 -68 -187v-522h-154v922h113l41 -103c19.333 20.667 41.666 39 66.999 55c23.333 15.333 51.333 28.666 84 39.999
s71 17.333 115 18h20v-154z" />
    <glyph glyph-name="Sacute" unicode="&#x15a;" horiz-adv-x="1013" 
d="M584 1690h153l-174 -246h-102zM92 952c0 44 10.3389 86.667 31.0059 128s49.667 78.666 87 111.999c37.333 32.667 81.666 59 132.999 79s107.666 29.667 168.999 29c56 0 108.333 -10 157 -30c48.667 -20.667 91 -48.334 127 -83.001s64.333 -76 85 -124
s30.667 -98.667 30 -152h-163c0 72.667 -22.667 132 -68 178s-101.333 68.667 -168 68c-38 0 -72.667 -5.66699 -104 -17s-58.333 -26.666 -81 -45.999s-40.334 -41.333 -53.001 -66c-12 -24.667 -18 -50 -18 -76c0 -53.333 17 -94.666 51 -123.999
s76.333 -53.666 127 -72.999c50.667 -20 105.667 -38.667 165 -56s114.333 -39.666 165 -66.999c50.667 -28 93 -65 127 -111s51 -107 51 -183c0 -46.667 -10 -90.667 -30 -132s-48.333 -78.333 -85 -111c-36.667 -32 -81.667 -57.667 -135 -77
s-113.333 -28.666 -180 -27.999c-66.667 0 -126.667 9.33301 -180 28c-53.333 19.333 -98.333 46.333 -135 81s-65 76 -85 124s-30 100 -30 156h164c0 -78 22.333 -138.333 67 -181c45.333 -43.333 111.666 -65 198.999 -65s153.666 20 198.999 60
c45.333 39.333 67.666 87.666 66.999 144.999c0 53.333 -17 94.666 -51 123.999s-76.333 54 -127 74s-105.667 38.333 -165 55c-59.333 17.333 -114.333 39.666 -165 66.999c-50.667 28 -93 65 -127 111c-34 45.333 -51 106.333 -51 183z" />
    <glyph glyph-name="sacute" unicode="&#x15b;" horiz-adv-x="808" 
d="M471 1311h154l-174 -246h-103zM737 266c0 -38 -7.33203 -73.6709 -21.999 -107.004c-15.333 -33.333 -36.666 -62.666 -63.999 -87.999s-60.333 -45.333 -99 -60s-82.667 -21.667 -132 -21c-102.667 0 -183.334 27.333 -242.001 82s-90.667 122.667 -96 204h154
c5.33301 -40.667 23 -74.667 53 -102s73.667 -41 131 -41c52 0 92.333 13.333 121 40s43 57.667 43 93c0 34 -12 59.667 -36 77s-53.667 31 -89 41s-74 19.667 -116 29c-41.333 8.66699 -80 22 -116 40c-35.333 18 -65 43 -89 75c-24 32.667 -36 78.667 -36 138
c0 35.333 7.66699 69 23 101s36 60.333 62 85c26.667 24.667 59 44 97 58c37.333 14.667 79.333 22 126 22c98 0 174 -25.667 228 -77s83.667 -118 89 -200h-154c-5.33301 40.667 -21 73.334 -47 98.001c-26 24 -64.667 35.667 -116 35c-46.667 0 -84 -12.333 -112 -37
c-28 -25.333 -42 -53.666 -42 -84.999c0 -34 12 -59.667 36 -77s53.667 -31 89 -41s74 -19.667 116 -29c41.333 -8.66699 79.666 -22 114.999 -40s65 -43.667 89 -77s36 -78.666 36 -135.999z" />
    <glyph glyph-name="Scedilla" unicode="&#x15e;" horiz-adv-x="1013" 
d="M92 952c0 44 10.335 86.8271 31.002 128.494s49.667 78.834 87 111.501s81.666 58.834 132.999 78.501s107.666 29.5 168.999 29.5c56 0 108.167 -10.167 156.5 -30.5s90.666 -47.833 126.999 -82.5s64.666 -76 84.999 -124s30.5 -98.667 30.5 -152h-163
c0 72.667 -22.667 131.834 -68 177.501s-101.333 68.5 -168 68.5c-38 0 -72.833 -5.83301 -104.5 -17.5s-58.667 -27 -81 -46s-39.666 -40.833 -51.999 -65.5s-18.5 -50 -18.5 -76c0 -53.333 17 -94.666 51 -123.999s76.333 -53.833 127 -73.5s105.667 -38 165 -55
s114.333 -39.5 165 -67.5s93 -64.833 127 -110.5s51 -106.834 51 -183.501c0 -44 -9.16699 -85.667 -27.5 -125s-44.666 -74.833 -78.999 -106.5s-75.333 -57.667 -123 -78s-100.834 -33.166 -159.501 -38.499l-31 -72c40.667 -5.33301 73 -20 97 -44s36 -53.667 36 -89
s-15.333 -66.333 -46 -93s-76.667 -40 -138 -40c-13.333 0 -25.5 0.333008 -36.5 1s-20.5 1.66699 -28.5 3c-9.33301 1.33301 -18.333 3.33301 -27 6v82c6.66699 -2.66699 14.667 -4.66699 24 -6c6.66699 -1.33301 15.167 -2.33301 25.5 -3s21.166 -1 32.499 -1
c31.333 0 54.5 6.5 69.5 19.5s22.5 26.833 22.5 41.5c0 15.333 -7.5 29.5 -22.5 42.5s-38.167 19.5 -69.5 19.5c-8 0 -15.167 -0.666992 -21.5 -2s-11.5 -3 -15.5 -5c-5.33301 -1.33301 -10 -2.66602 -14 -3.99902l61 144c-58.667 5.33301 -111.834 18.5 -159.501 39.5
s-88.667 48.333 -123 82s-60.666 73.334 -78.999 119.001s-27.5 95.167 -27.5 148.5h164c0 -78 22.5 -138.5 67.5 -181.5s111.167 -64.5 198.5 -64.5s153.5 19.833 198.5 59.5s67.5 88.167 67.5 145.5c0 53.333 -17 94.666 -51 123.999s-76.333 53.833 -127 73.5
s-105.667 38 -165 55s-114.166 39.5 -164.499 67.5s-92.666 64.833 -126.999 110.5s-51.5 106.834 -51.5 183.501z" />
    <glyph glyph-name="scedilla" unicode="&#x15f;" horiz-adv-x="808" 
d="M737 266c0 -72.667 -25.5 -134.168 -76.5 -184.501s-117.5 -80.833 -199.5 -91.5l-31 -72c40.667 -5.33301 73 -20 97 -44s36 -53.667 36 -89s-15.333 -66.333 -46 -93s-76.667 -40 -138 -40c-13.333 0 -25.5 0.333008 -36.5 1s-20.833 1.66699 -29.5 3
c-9.33301 1.33301 -18 3.33301 -26 6v82c6.66699 -2.66699 14.667 -4.66699 24 -6c6.66699 -1.33301 15.167 -2.33301 25.5 -3s21.166 -1 32.499 -1c31.333 0 54.5 6.5 69.5 19.5s22.5 26.833 22.5 41.5c0 15.333 -7.5 29.5 -22.5 42.5s-38.167 19.5 -69.5 19.5
c-8 0 -15.167 -0.666992 -21.5 -2s-11.5 -3 -15.5 -5c-5.33301 -1.33301 -10.333 -2.66602 -15 -3.99902l62 144c-40.667 2.66699 -78.5 11.834 -113.5 27.501s-65.833 36.167 -92.5 61.5s-47.834 55 -63.501 89s-24.834 70 -27.501 108h154
c5.33301 -40.667 23 -74.667 53 -102s73.667 -41 131 -41c52 0 92.333 13.333 121 40s43 57.667 43 93c0 34 -12 59.667 -36 77s-53.667 31 -89 41s-73.833 19.5 -115.5 28.5s-80.334 22.333 -116.001 40s-65.5 43 -89.5 76s-36 78.833 -36 137.5c0 35.333 7.5 69 22.5 101
s35.833 60.333 62.5 85s58.834 44.167 96.501 58.5s79.834 21.5 126.501 21.5c98 0 174 -25.667 228 -77s83.667 -118 89 -200h-154c-5.33301 40.667 -21 73 -47 97s-64.667 36 -116 36c-46.667 0 -84 -12.5 -112 -37.5s-42 -53.167 -42 -84.5c0 -34 12 -59.667 36 -77
s53.667 -31.166 89 -41.499s73.833 -19.833 115.5 -28.5s80.334 -21.834 116.001 -39.501s65.334 -43.334 89.001 -77.001s35.5 -79.167 35.5 -136.5z" />
    <glyph glyph-name="Scaron" unicode="&#x160;" horiz-adv-x="1013" 
d="M584 1434h-144l-184 245h154l102 -143l102 143h154zM92 952c0 44 10.3389 86.667 31.0059 128s49.667 78.666 87 111.999c37.333 32.667 81.666 59 132.999 79s107.666 29.667 168.999 29c56 0 108.333 -10 157 -30c48.667 -20.667 91 -48.334 127 -83.001
s64.333 -76 85 -124s30.667 -98.667 30 -152h-163c0 72.667 -22.667 132 -68 178s-101.333 68.667 -168 68c-38 0 -72.667 -5.66699 -104 -17s-58.333 -26.666 -81 -45.999s-40.334 -41.333 -53.001 -66c-12 -24.667 -18 -50 -18 -76c0 -53.333 17 -94.666 51 -123.999
s76.333 -53.666 127 -72.999c50.667 -20 105.667 -38.667 165 -56s114.333 -39.666 165 -66.999c50.667 -28 93 -65 127 -111s51 -107 51 -183c0 -46.667 -10 -90.667 -30 -132s-48.333 -78.333 -85 -111c-36.667 -32 -81.667 -57.667 -135 -77
s-113.333 -28.666 -180 -27.999c-66.667 0 -126.667 9.33301 -180 28c-53.333 19.333 -98.333 46.333 -135 81s-65 76 -85 124s-30 100 -30 156h164c0 -78 22.333 -138.333 67 -181c45.333 -43.333 111.666 -65 198.999 -65s153.666 20 198.999 60
c45.333 39.333 67.666 87.666 66.999 144.999c0 53.333 -17 94.666 -51 123.999s-76.333 54 -127 74s-105.667 38.333 -165 55c-59.333 17.333 -114.333 39.666 -165 66.999c-50.667 28 -93 65 -127 111c-34 45.333 -51 106.333 -51 183z" />
    <glyph glyph-name="scaron" unicode="&#x161;" horiz-adv-x="808" 
d="M471 1065h-143l-185 246h154l102 -144l103 144h153zM737 266c0 -38 -7.33203 -73.6709 -21.999 -107.004c-15.333 -33.333 -36.666 -62.666 -63.999 -87.999s-60.333 -45.333 -99 -60s-82.667 -21.667 -132 -21c-102.667 0 -183.334 27.333 -242.001 82
s-90.667 122.667 -96 204h154c5.33301 -40.667 23 -74.667 53 -102s73.667 -41 131 -41c52 0 92.333 13.333 121 40s43 57.667 43 93c0 34 -12 59.667 -36 77s-53.667 31 -89 41s-74 19.667 -116 29c-41.333 8.66699 -80 22 -116 40c-35.333 18 -65 43 -89 75
c-24 32.667 -36 78.667 -36 138c0 35.333 7.66699 69 23 101s36 60.333 62 85c26.667 24.667 59 44 97 58c37.333 14.667 79.333 22 126 22c98 0 174 -25.667 228 -77s83.667 -118 89 -200h-154c-5.33301 40.667 -21 73.334 -47 98.001c-26 24 -64.667 35.667 -116 35
c-46.667 0 -84 -12.333 -112 -37c-28 -25.333 -42 -53.666 -42 -84.999c0 -34 12 -59.667 36 -77s53.667 -31 89 -41s74 -19.667 116 -29c41.333 -8.66699 79.666 -22 114.999 -40s65 -43.667 89 -77s36 -78.666 36 -135.999z" />
    <glyph glyph-name="uni0162" unicode="&#x162;" 
d="M399 -236c0 28.667 10.001 53 30.001 73s44.333 30 73 30s52.667 -10 72 -30c20 -20 30 -44.333 30 -73c0 -49.333 -8 -92 -24 -128c-16.667 -36 -34.667 -65.667 -54 -89c-23.333 -27.333 -48.333 -50.333 -75 -69l-31 41c13.333 12 25.666 25.667 36.999 41
c9.33301 12 18.333 27 27 45s14.667 37 18 57c-28.667 0 -53 10 -73 30c-20 19.333 -30 43.333 -30 72zM973.001 1147h-389v-1147h-164v1147h-389v143h942v-143z" />
    <glyph glyph-name="uni0163" unicode="&#x163;" horiz-adv-x="655" 
d="M297 -236c0 28.667 10.001 53 30.001 73s44 30 72 30c28.667 0 53 -10 73 -30s30 -44.333 30 -73c0 -49.333 -8.33301 -92 -25 -128s-34.334 -65.667 -53.001 -89c-23.333 -27.333 -48.666 -50.333 -75.999 -69l-31 41c13.333 12 25.666 25.667 36.999 41
c9.33301 12 18.666 27 27.999 45c8.66699 18 14.334 37 17.001 57c-28.667 0 -52.667 10 -72 30c-20 19.333 -30 43.333 -30 72zM225.001 1167h133.003v-245h205v-144h-205v-481c0 -52 14 -92.333 42 -121s65.333 -43 112 -43c13.333 0 25.666 1.33301 36.999 4
c5.33301 1.33301 10 3.33301 14 6v-133c-6.66699 -4 -14 -7.33301 -22 -10c-18 -6.66699 -41.333 -10 -70 -10c-35.333 0 -69 7.33301 -101 22c-32 15.333 -60.333 36.333 -85 63s-44.334 58.667 -59.001 96s-21.667 79.333 -21 126v481h-164v144h72
c75.333 0 112.666 37.333 111.999 112v133z" />
    <glyph glyph-name="Tcaron" unicode="&#x164;" 
d="M573 1434h-143l-184 245h153l103 -143l102 143h154zM973 1147h-389v-1147h-164v1147h-389v143h942v-143z" />
    <glyph glyph-name="tcaron" unicode="&#x165;" horiz-adv-x="675" 
d="M635 1290h143l-123 -246h-92zM225 1167h133.002v-245h205v-144h-205v-481c0 -52 14 -92.333 42 -121s65.333 -43 112 -43c13.333 0 25.666 1.33301 36.999 4c5.33301 1.33301 10 3.33301 14 6v-133c-6.66699 -4 -14 -7.33301 -22 -10c-18 -6.66699 -41.333 -10 -70 -10
c-35.333 0 -69 7.5 -101 22.5s-60.333 35.833 -85 62.5s-44.167 58.667 -58.5 96s-21.5 79.333 -21.5 126v481h-164v144h72c75.333 0 112.666 37.333 111.999 112v133z" />
    <glyph glyph-name="Umacron" unicode="&#x16a;" horiz-adv-x="1228" 
d="M860 1475h-491v122h491v-122zM614 -10c-69.333 0 -132.67 11.667 -190.003 35s-107 55.333 -149 96c-41.333 40.667 -73.666 89 -96.999 145s-35 117.667 -35 185v839h164v-839c0 -98 28 -175.667 84 -233c56 -56.667 130.333 -85 223 -85s167.334 28.333 224.001 85
c56 56.667 84 134.334 84 233.001v839h163v-839c0 -66.667 -11.333 -128.334 -34 -185.001c-23.333 -56 -56 -104.333 -98 -145c-41.333 -40.667 -90.666 -72.667 -147.999 -96c-58 -23.333 -121.667 -35 -191 -35z" />
    <glyph glyph-name="umacron" unicode="&#x16b;" horiz-adv-x="1034" 
d="M768 1106h-492v123h492v-123zM492 -10c-49.333 0 -95.666 9.66699 -138.999 29c-43.333 20 -81 47.333 -113 82c-32.667 34.667 -58.667 76.667 -78 126s-29 103.333 -29 162v533h154v-533c0 -38 5.66699 -72.667 17 -104s27.333 -58.333 48 -81s44.667 -40 72 -52
s56.666 -18.333 87.999 -19c72.667 0 131.667 23.333 177 70c46 46.667 69 108.667 69 186v533h153v-922h-112l-41 102c-19.333 -22 -42 -41 -68 -57c-23.333 -15.333 -51.333 -28.333 -84 -39c-32 -10.667 -70 -16 -114 -16z" />
    <glyph glyph-name="Uring" unicode="&#x16e;" horiz-adv-x="1228" 
d="M532 1577c0 -20.667 7 -37.667 21 -51c13.333 -13.333 30.333 -20.333 51 -21c20.667 0 37.667 7 51 21c13.333 13.333 20.333 30.333 21 51c0 20.667 -7 37.667 -21 51c-13.333 13.333 -30.333 20.333 -51 21c-20.667 0 -37.667 -7 -51 -21
c-14 -13.333 -21 -30.333 -21 -51zM768 1577c0 -46.667 -15.667 -85.667 -47 -117s-70.333 -47 -117 -47s-85.667 15.667 -117 47s-47 70.333 -47 117s15.667 85.667 47 117s70.333 47 117 47s85.667 -15.667 117 -47s47 -70.333 47 -117zM614 -10
c-69.333 0 -132.67 11.667 -190.003 35s-107 55.333 -149 96c-41.333 40.667 -73.666 89 -96.999 145s-35 117.667 -35 185v839h164v-839c0 -98 28 -175.667 84 -233c56 -56.667 130.333 -85 223 -85s167.334 28.333 224.001 85c56 56.667 84 134.334 84 233.001v839h163
v-839c0 -66.667 -11.333 -128.334 -34 -185.001c-23.333 -56 -56 -104.333 -98 -145c-41.333 -40.667 -90.666 -72.667 -147.999 -96c-58 -23.333 -121.667 -35 -191 -35z" />
    <glyph glyph-name="uring" unicode="&#x16f;" horiz-adv-x="1034" 
d="M451 1206c0 -20.667 6.66699 -37.667 20 -51s30.333 -20 51 -20s37.667 6.66699 51 20s20.333 30.333 21 51c0 20.667 -7 37.667 -21 51c-13.333 13.333 -30.333 20.333 -51 21c-20.667 0 -37.667 -7 -51 -21c-13.333 -13.333 -20 -30.333 -20 -51zM686 1206
c0 -46.667 -15.666 -85.333 -46.999 -116c-31.333 -31.333 -70.333 -47.333 -117 -48c-46.667 0 -85.334 16 -116.001 48c-31.333 31.333 -47.333 70 -48 116c0 46.667 16 85.667 48 117c31.333 31.333 70 47 116 47c46.667 0 85.667 -15.667 117 -47s47 -70.333 47 -117z
M492.001 -9.99902c-49.333 0 -95.666 9.66699 -138.999 29c-43.333 20 -81 47.333 -113 82c-32.667 34.667 -58.667 76.667 -78 126s-29 103.333 -29 162v533h154v-533c0 -38 5.66699 -72.667 17 -104s27.333 -58.333 48 -81s44.667 -40 72 -52s56.666 -18.333 87.999 -19
c72.667 0 131.667 23.333 177 70c46 46.667 69 108.667 69 186v533h153v-922h-112l-41 102c-19.333 -22 -42 -41 -68 -57c-23.333 -15.333 -51.333 -28.333 -84 -39c-32 -10.667 -70 -16 -114 -16z" />
    <glyph glyph-name="Uhungarumlaut" unicode="&#x170;" horiz-adv-x="1228" 
d="M543 1690h153l-184 -246h-102zM829 1690h154l-184 -246h-103zM614 -10c-69.333 0 -132.67 11.667 -190.003 35s-107 55.333 -149 96c-41.333 40.667 -73.666 89 -96.999 145s-35 117.667 -35 185v839h164v-839c0 -98 28 -175.667 84 -233c56 -56.667 130.333 -85 223 -85
s167.334 28.333 224.001 85c56 56.667 84 134.334 84 233.001v839h163v-839c0 -66.667 -11.333 -128.334 -34 -185.001c-23.333 -56 -56 -104.333 -98 -145c-41.333 -40.667 -90.666 -72.667 -147.999 -96c-58 -23.333 -121.667 -35 -191 -35z" />
    <glyph glyph-name="uhungarumlaut" unicode="&#x171;" horiz-adv-x="1034" 
d="M461 1321h153l-184 -246h-102zM748 1321h153l-184 -246h-103zM492 -10c-49.333 0 -95.666 9.66699 -138.999 29c-43.333 20 -81 47.333 -113 82c-32.667 34.667 -58.667 76.667 -78 126s-29 103.333 -29 162v533h154v-533c0 -38 5.66699 -72.667 17 -104
s27.333 -58.333 48 -81s44.667 -40 72 -52s56.666 -18.333 87.999 -19c72.667 0 131.667 23.333 177 70c46 46.667 69 108.667 69 186v533h153v-922h-112l-41 102c-19.333 -22 -42 -41 -68 -57c-23.333 -15.333 -51.333 -28.333 -84 -39c-32 -10.667 -70 -16 -114 -16z" />
    <glyph glyph-name="Uogonek" unicode="&#x172;" horiz-adv-x="1228" 
d="M1085 451c0 -64 -9.50195 -122.002 -28.502 -174.002s-45.833 -97.167 -80.5 -135.5s-76 -69.5 -124 -93.5s-100 -40 -156 -48c-13.333 -19.333 -25.666 -38.333 -36.999 -57c-9.33301 -16.667 -17.333 -35.167 -24 -55.5s-10 -40.833 -10 -61.5
c0 -26 8.83301 -47.833 26.5 -65.5s39.5 -26.5 65.5 -26.5c10.667 0 20.5 0.333008 29.5 1s17.5 1.66699 25.5 3s17 3.33301 27 6v-82c-9.33301 -2.66699 -18.333 -4.66699 -27 -6c-8 -1.33301 -16.5 -2.33301 -25.5 -3s-18.833 -1 -29.5 -1
c-61.333 0 -109.166 16 -143.499 48s-51.5 74 -51.5 126c0 20.667 3.16699 40.834 9.5 60.501s13.5 37.167 21.5 52.5c9.33301 18 20.333 35 33 51c-61.333 2.66699 -119 16 -173 40s-101.167 56.333 -141.5 97s-71.833 88.667 -94.5 144s-34 115.333 -34 180v839h164v-839
c0 -98 28 -175.5 84 -232.5s130.333 -85.5 223 -85.5s167.167 28.333 223.5 85s84.5 134.334 84.5 233.001v839h163v-839v0z" />
    <glyph glyph-name="uogonek" unicode="&#x173;" horiz-adv-x="1034" 
d="M758 102c-19.333 -22 -42.001 -40.999 -68.001 -56.999c-23.333 -15.333 -51.333 -28.333 -84 -39s-70.667 -16 -114 -16c-49.333 0 -95.5 9.83301 -138.5 29.5s-81 47 -114 82s-59 77 -78 126s-28.5 102.833 -28.5 161.5v533h154v-533c0 -38 5.83301 -72.667 17.5 -104
s27.667 -58.333 48 -81s44.166 -40.167 71.499 -52.5s56.666 -18.5 87.999 -18.5c72.667 0 131.834 23.167 177.501 69.5s68.5 108.5 68.5 186.5v533h153v-922h-10c-13.333 -16.667 -25.666 -34.334 -36.999 -53.001c-9.33301 -16.667 -17.5 -35.167 -24.5 -55.5
s-10.5 -42.166 -10.5 -65.499c0 -26 9 -47.833 27 -65.5s40 -26.5 66 -26.5c10.667 0 20.5 0.333008 29.5 1s17.5 1.66699 25.5 3s17 3.33301 27 6v-82c-9.33301 -2.66699 -18.333 -4.66699 -27 -6c-8 -1.33301 -16.5 -2.33301 -25.5 -3s-18.833 -1 -29.5 -1
c-61.333 0 -109.166 16 -143.499 48s-51.5 74 -51.5 126c0 23.333 3.5 45.166 10.5 65.499s15.167 38.833 24.5 55.5c10.667 19.333 23 37 37 53z" />
    <glyph glyph-name="Ydieresis" unicode="&#x178;" horiz-adv-x="1024" 
d="M358 1464c-26 0 -47.667 9 -65 27c-18 18 -27 39.667 -27 65c0 26 9 48 27 66s39.667 27 65 27c26 0 48 -9 66 -27s27 -40 27 -66s-9 -47.667 -27 -65c-18 -18 -40 -27 -66 -27zM666 1464c-26 0 -48 9 -66 27s-27 39.667 -27 65c0 26 9 48 27 66s40 27 66 27
s47.667 -9 65 -27c18 -18 27 -40 27 -66s-9 -47.667 -27 -65c-17.333 -18 -39 -27 -65 -27zM20 1290h175l317 -614l317 614h175l-410 -788v-502h-164v502z" />
    <glyph glyph-name="Zacute" unicode="&#x179;" horiz-adv-x="1013" 
d="M573 1690h154l-174 -246h-102zM276 143h666v-143h-870v102l635 1045h-615v143h819v-102z" />
    <glyph glyph-name="zacute" unicode="&#x17a;" horiz-adv-x="798" 
d="M461 1321h153l-174 -246h-102zM522 778h-450v144h635v-134l-451 -645h471v-143h-655v133z" />
    <glyph glyph-name="Zdotaccent" unicode="&#x17b;" horiz-adv-x="1013" 
d="M399 1550c0 28.667 9.33301 52.334 28 71.001s41.667 28 69 28c28.667 0 52 -9.33301 70 -28c18.667 -18.667 28 -42.334 28 -71.001c0 -27.333 -9.33301 -50 -28 -68c-18.667 -18.667 -42 -28 -70 -28c-27.333 0 -50.333 9.33301 -69 28c-18.667 18 -28 40.667 -28 68z
M276 143h666v-143h-870v102l635 1045h-615v143h819v-102z" />
    <glyph glyph-name="zdotaccent" unicode="&#x17c;" horiz-adv-x="798" 
d="M297 1182c0 28.667 9.33203 52 27.999 70c18.667 18.667 41.334 28 68.001 28c28.667 0 52.334 -9.33301 71.001 -28s28 -42 28 -70c0 -27.333 -9.33301 -50.333 -28 -69s-42.334 -28 -71.001 -28c-27.333 0 -50 9.33301 -68 28c-18.667 18.667 -28 41.667 -28 69z
M521.999 778h-450v144h635v-134l-451 -645h471v-143h-655v133z" />
    <glyph glyph-name="Zcaron" unicode="&#x17d;" horiz-adv-x="1013" 
d="M573 1434h-143l-184 245h153l103 -143l102 143h154zM276 143h666v-143h-870v102l635 1045h-615v143h819v-102z" />
    <glyph glyph-name="zcaron" unicode="&#x17e;" horiz-adv-x="798" 
d="M461 1065h-144l-184 246h154l102 -144l103 144h153zM522 778h-450v144h635v-134l-451 -645h471v-143h-655v133z" />
    <glyph glyph-name="florin" unicode="&#x192;" horiz-adv-x="655" 
d="M266 -31c-8 -44 -21.834 -84.665 -41.501 -121.998s-43.5 -69.666 -71.5 -96.999s-59.5 -48.833 -94.5 -64.5s-71.5 -23.5 -109.5 -23.5c-30 0 -53.333 3.33301 -70 10c-9.33301 2.66699 -16.666 6.33398 -21.999 11.001l30 133c4 -2.66699 9 -4.66699 15 -6
c10.667 -2.66699 23 -4.33398 37 -5.00098c46.667 0 84.5 14.333 113.5 43s49.167 69 60.5 121l123 666h-144l21 143h143l41 215c8 44 22 84.667 42 122s44 69.666 72 96.999s59.333 48.833 94 64.5s71 23.5 109 23.5c15.333 0 28.833 -1 40.5 -3s21.5 -4.33301 29.5 -7
c8 -4 15.667 -7.33301 23 -10l-31 -133c-4 1.33301 -8.66699 2.66602 -14 3.99902c-4 1.33301 -9.5 2.66602 -16.5 3.99902s-13.833 2 -20.5 2c-46.667 0 -84.667 -14.333 -114 -43s-49.333 -69 -60 -121l-41 -215h204l-20 -143h-205z" />
    <glyph glyph-name="uni0218" unicode="&#x218;" horiz-adv-x="1013" 
d="M399 -217c0 28.667 10.001 52.999 30.001 72.999s44.333 29.667 73 29c28.667 0 52.667 -9.66699 72 -29c20 -20 30 -44.333 30 -73c0 -49.333 -8 -92 -24 -128c-16.667 -36 -34.667 -65.667 -54 -89c-23.333 -27.333 -48.333 -50.666 -75 -69.999l-31 41
c13.333 12 25.666 25.667 36.999 41c9.33301 12 18.333 27 27 45s14.667 37.333 18 58c-28.667 0 -53 9.66699 -73 29c-20 20 -30 44.333 -30 73zM92.001 951.999c0 44 10.3389 86.667 31.0059 128s49.667 78.666 87 111.999c37.333 32.667 81.666 59 132.999 79
s107.666 29.667 168.999 29c56 0 108.333 -10 157 -30c48.667 -20.667 91 -48.334 127 -83.001s64.333 -76 85 -124s30.667 -98.667 30 -152h-163c0 72.667 -22.667 132 -68 178s-101.333 68.667 -168 68c-38 0 -72.667 -5.66699 -104 -17s-58.333 -26.666 -81 -45.999
s-40.334 -41.333 -53.001 -66c-12 -24.667 -18 -50 -18 -76c0 -53.333 17 -94.666 51 -123.999s76.333 -53.666 127 -72.999c50.667 -20 105.667 -38.667 165 -56s114.333 -39.666 165 -66.999c50.667 -28 93 -65 127 -111s51 -107 51 -183c0 -46.667 -10 -90.667 -30 -132
s-48.333 -78.333 -85 -111c-36.667 -32 -81.667 -57.667 -135 -77s-113.333 -28.666 -180 -27.999c-66.667 0 -126.667 9.33301 -180 28c-53.333 19.333 -98.333 46.333 -135 81s-65 76 -85 124s-30 100 -30 156h164c0 -78 22.333 -138.333 67 -181
c45.333 -43.333 111.666 -65 198.999 -65s153.666 20 198.999 60c45.333 39.333 67.666 87.666 66.999 144.999c0 53.333 -17 94.666 -51 123.999s-76.333 54 -127 74s-105.667 38.333 -165 55c-59.333 17.333 -114.333 39.666 -165 66.999c-50.667 28 -93 65 -127 111
c-34 45.333 -51 106.333 -51 183z" />
    <glyph glyph-name="uni0219" unicode="&#x219;" horiz-adv-x="808" 
d="M307 -236c0 28.667 10.001 53 30.001 73s44.333 30 73 30s52.667 -10 72 -30c20 -20 30 -44.333 30 -73c0 -49.333 -8.33301 -92 -25 -128s-34.334 -65.667 -53.001 -89c-23.333 -27.333 -48.666 -50.333 -75.999 -69l-30 41c13.333 12 25.666 25.667 36.999 41
c9.33301 12 18.333 27 27 45s14.667 37 18 57c-28.667 0 -53 10 -73 30c-20 19.333 -30 43.333 -30 72zM737.001 266c0 -38 -7.33203 -73.6709 -21.999 -107.004c-15.333 -33.333 -36.666 -62.666 -63.999 -87.999s-60.333 -45.333 -99 -60s-82.667 -21.667 -132 -21
c-102.667 0 -183.334 27.333 -242.001 82s-90.667 122.667 -96 204h154c5.33301 -40.667 23 -74.667 53 -102s73.667 -41 131 -41c52 0 92.333 13.333 121 40s43 57.667 43 93c0 34 -12 59.667 -36 77s-53.667 31 -89 41s-74 19.667 -116 29c-41.333 8.66699 -80 22 -116 40
c-35.333 18 -65 43 -89 75c-24 32.667 -36 78.667 -36 138c0 35.333 7.66699 69 23 101s36 60.333 62 85c26.667 24.667 59 44 97 58c37.333 14.667 79.333 22 126 22c98 0 174 -25.667 228 -77s83.667 -118 89 -200h-154c-5.33301 40.667 -21 73.334 -47 98.001
c-26 24 -64.667 35.667 -116 35c-46.667 0 -84 -12.333 -112 -37c-28 -25.333 -42 -53.666 -42 -84.999c0 -34 12 -59.667 36 -77s53.667 -31 89 -41s74 -19.667 116 -29c41.333 -8.66699 79.666 -22 114.999 -40s65 -43.667 89 -77s36 -78.666 36 -135.999z" />
    <glyph glyph-name="uni021A" unicode="&#x21a;" 
d="M410 -236c0 28.667 9.66797 53 29.001 73c20 20 44.333 30 73 30s53 -10 73 -30s29.667 -44.333 29 -73c0 -49.333 -8 -92 -24 -128c-16.667 -36 -34.334 -65.667 -53.001 -89c-23.333 -27.333 -48.666 -50.333 -75.999 -69l-31 41c13.333 12 25.666 25.667 36.999 41
c9.33301 12 18.666 27 27.999 45c8.66699 18 14.334 37 17.001 57c-28.667 0 -53 10 -73 30c-19.333 19.333 -29 43.333 -29 72zM973.001 1147h-389v-1147h-164v1147h-389v143h942v-143z" />
    <glyph glyph-name="uni021B" unicode="&#x21b;" horiz-adv-x="655" 
d="M297 -236c0 28.667 10.001 53 30.001 73s44 30 72 30c28.667 0 53 -10 73 -30s30 -44.333 30 -73c0 -49.333 -8.33301 -92 -25 -128s-34.334 -65.667 -53.001 -89c-23.333 -27.333 -48.666 -50.333 -75.999 -69l-31 41c13.333 12 25.666 25.667 36.999 41
c9.33301 12 18.666 27 27.999 45c8.66699 18 14.334 37 17.001 57c-28.667 0 -52.667 10 -72 30c-20 19.333 -30 43.333 -30 72zM225.001 1167h133.003v-245h205v-144h-205v-481c0 -52 14 -92.333 42 -121s65.333 -43 112 -43c13.333 0 25.666 1.33301 36.999 4
c5.33301 1.33301 10 3.33301 14 6v-133c-6.66699 -4 -14 -7.33301 -22 -10c-18 -6.66699 -41.333 -10 -70 -10c-35.333 0 -69 7.33301 -101 22c-32 15.333 -60.333 36.333 -85 63s-44.334 58.667 -59.001 96s-21.667 79.333 -21 126v481h-164v144h72
c75.333 0 112.666 37.333 111.999 112v133z" />
    </font>
</defs>
</svg>
